# Alias OBJ Model File
# Exported from SketchUp, (c) 2000-2012 Trimble Navigation Limited
# File units = meters

mtllib antennas.mtl

g Mesh1 Group1 Model

usemtl Color_M07
v 0.0217641 1.297 -0.34798
vt -0.154797 0.0583607
vn 0 -1 -0
v 0.0215643 1.297 -0.347498
vt -0.146931 0.0393701
v 0.0212464 1.297 -0.347084
vt -0.134418 0.0230625
v 0.0208322 1.297 -0.346766
vt -0.11811 0.0105492
v 0.0203499 1.297 -0.346566
vt -0.0991196 0.00268301
v 0.0198322 1.297 -0.346498
vt -0.0787402 0
v 0.0193146 1.297 -0.346566
vt -0.0583607 0.00268301
v 0.0188322 1.297 -0.346766
vt -0.0393701 0.0105492
v 0.018418 1.297 -0.347084
vt -0.0230625 0.0230625
v 0.0181002 1.297 -0.347498
vt -0.0105492 0.0393701
v 0.0179004 1.297 -0.34798
vt -0.00268301 0.0583607
v 0.0178322 1.297 -0.348498
vt 0 0.0787402
v 0.0179004 1.297 -0.349016
vt -0.00268301 0.0991196
v 0.0181002 1.297 -0.349498
vt -0.0105492 0.11811
v 0.018418 1.297 -0.349912
vt -0.0230625 0.134418
v 0.0188322 1.297 -0.35023
vt -0.0393701 0.146931
v 0.0193146 1.297 -0.35043
vt -0.0583607 0.154797
v 0.0198322 1.297 -0.350498
vt -0.0787402 0.15748
v 0.0203499 1.297 -0.35043
vt -0.0991196 0.154797
v 0.0208322 1.297 -0.35023
vt -0.11811 0.146931
v 0.0212464 1.297 -0.349912
vt -0.134418 0.134418
v 0.0215643 1.297 -0.349498
vt -0.146931 0.11811
v 0.0217641 1.297 -0.349016
vt -0.154797 0.0991196
v 0.0218322 1.297 -0.348498
vt -0.15748 0.0787402
f 1/1/1 2/2/1 3/3/1 4/4/1 5/5/1 6/6/1 7/7/1 8/8/1 9/9/1 10/10/1 11/11/1 12/12/1 13/13/1 14/14/1 15/15/1 16/16/1 17/17/1 18/18/1 19/19/1 20/20/1 21/21/1 22/22/1 23/23/1 24/24/1 

vt 0.113157 -1.4186e-29
vn 0.965926 -7.47246e-29 0.258819
v 0.0217641 1.299 -0.34798
vt 0.113157 0.0787402
v 0.0215643 1.299 -0.347498
vt 0.0926013 0.0787402
vn 0.866025 6.3337e-28 0.5
vt 0.0926013 -1.4186e-29
f 1/25/2 25/26/2 26/27/3 2/28/3 

vt 0.0986218 3.87568e-29
vn 1 0 -0
v 0.0218322 1.299 -0.348498
vt 0.0986218 0.0787402
vt 0.0780665 0.0787402
vt 0.0780665 3.87568e-29
f 24/29/4 27/30/4 25/31/2 1/32/2 

vt 0.0780665 -4.42188e-29
vn 0.965926 1.34007e-28 -0.258819
v 0.0217641 1.299 -0.349016
vt 0.0575112 0.0787402
vt 0.0575112 -4.42188e-29
f 23/33/5 28/31/5 27/34/4 24/35/4 

vt 0.0528915 0
vn 0.866025 6.24995e-28 -0.5
v 0.0215643 1.299 -0.349498
vt 0.0528915 0.0787402
vt 0.0323362 0.0787402
vt 0.0323362 0
f 22/36/6 29/37/6 28/38/5 23/39/5 

vt 0.0248124 -2.33569e-28
vn 0.707107 7.03119e-28 -0.707107
v 0.0212464 1.299 -0.349912
vt 0.0248124 0.0787402
vt 0.00425714 0.0787402
vt 0.00425714 -2.33569e-28
f 21/40/7 30/41/7 29/42/6 22/43/6 

vt -0.00425714 -2.91961e-29
vn 0.5 1.02664e-27 -0.866025
v 0.0208322 1.299 -0.35023
vt -0.00425714 0.0787402
vt -0.0248124 0.0787402
vt -0.0248124 -2.91961e-29
f 20/44/8 31/45/8 30/46/7 21/47/7 

vt -0.0323362 -3.40323e-28
vn 0.258819 1.98315e-27 -0.965926
v 0.0203499 1.299 -0.35043
vt -0.0323362 0.0787402
vt -0.0528915 0.0787402
vt -0.0528915 -3.40323e-28
f 19/48/9 32/49/9 31/50/8 20/51/8 

vt -0.0575112 -3.41402e-28
vn -1.39975e-17 2.05252e-27 -1
v 0.0198322 1.299 -0.350498
vt -0.0575112 0.0787402
vt -0.0780665 0.0787402
vt -0.0780665 -3.41402e-28
f 18/52/10 33/53/10 32/54/9 19/55/9 

vt -0.0780665 -2.94387e-28
vn -0.258819 -1.68744e-18 -0.965926
v 0.0193146 1.299 -0.35043
vt -0.0986218 0.0787402
vt -0.0986218 -2.94387e-28
f 17/56/11 34/54/11 33/57/10 18/58/10 

vt -0.0926013 4.03798e-19
vn -0.5 -1.68744e-18 -0.866025
v 0.0188322 1.299 -0.35023
vt -0.0926013 0.0787402
vt -0.113157 0.0787402
vt -0.113157 4.03798e-19
f 16/59/12 35/60/12 34/61/11 17/62/11 

vt -0.100125 0
vn -0.707107 -6.24995e-28 -0.707107
v 0.018418 1.299 -0.349912
vt -0.100125 0.0787402
vt -0.12068 0.0787402
vt -0.12068 0
f 15/63/13 36/64/13 35/65/12 16/66/12 

vt -0.100125 7.87346e-29
vn -0.866025 2.03692e-18 -0.5
v 0.0181002 1.299 -0.349498
vt -0.12068 7.87346e-29
f 14/67/14 37/64/14 36/65/13 15/68/13 

vt -0.0926013 -1.43193e-19
vn -0.965926 2.03692e-18 -0.258819
v 0.0179004 1.299 -0.349016
vt -0.113157 -1.43193e-19
f 13/69/15 38/60/15 37/61/14 14/70/14 

vt -0.0780665 2.73099e-30
vn -1 0 -0
v 0.0178322 1.299 -0.348498
vt -0.0986218 2.73099e-30
f 12/71/16 39/54/16 38/57/15 13/72/15 

vt -0.0575112 2.73099e-30
vn -0.965926 1.34007e-28 0.258819
v 0.0179004 1.299 -0.34798
f 11/73/17 40/53/17 39/54/16 12/71/16 

vt -0.0323362 0
vn -0.866025 6.24995e-28 0.5
v 0.0181002 1.299 -0.347498
vt -0.0528915 0
f 10/74/18 41/49/18 40/50/17 11/75/17 

vt -0.00425714 4.00741e-29
vn -0.707107 7.03119e-28 0.707107
v 0.018418 1.299 -0.347084
vt -0.0248124 4.00741e-29
f 9/76/19 42/45/19 41/46/18 10/77/18 

vt 0.0248124 5.00927e-30
vn -0.5 -8.70392e-28 0.866025
v 0.0188322 1.299 -0.346766
vt 0.00425714 5.00927e-30
f 8/78/20 43/41/20 42/42/19 9/79/19 

vt 0.0528915 -4.66673e-29
vn -0.258819 8.61179e-29 0.965926
v 0.0193146 1.299 -0.346566
vt 0.0323362 -4.66673e-29
f 7/80/21 44/37/21 43/38/20 8/81/20 

vt 0.0780665 2.10853e-29
vn -3.35941e-16 -5.75555e-19 1
v 0.0198322 1.299 -0.346498
vt 0.0575112 2.10853e-29
f 6/82/22 45/31/22 44/34/21 7/83/21 

vt 0.0986218 1.17295e-20
vn 0.258819 -2.263e-18 0.965926
v 0.0203499 1.299 -0.346566
vt 0.0780665 1.17295e-20
f 5/84/23 46/30/23 45/31/22 6/85/22 

vt 0.113157 1.18625e-19
vn 0.5 -1.68744e-18 0.866025
v 0.0208322 1.299 -0.346766
vt 0.0926013 1.18625e-19
f 4/86/24 47/26/24 46/27/23 5/87/23 

vt 0.12068 0
vn 0.707107 5.74088e-28 0.707107
v 0.0212464 1.299 -0.347084
vt 0.12068 0.0787402
vt 0.100125 0.0787402
vt 0.100125 0
f 3/88/25 48/89/25 47/90/24 4/91/24 

vt 0.12068 -1.05413e-28
vt 0.100125 -1.05413e-28
f 2/92/3 26/89/3 48/90/25 3/93/25 

v 0.0213322 1.299 -0.3459
vt -0.137795 -0.0235463
f 49/94/1 48/3/1 26/2/1

f 49/94/1 47/4/1 48/3/1

v 0.0206087 1.299 -0.3456
vt -0.109309 -0.0353456
f 50/95/1 47/4/1 49/94/1

f 50/95/1 46/5/1 47/4/1

v 0.0198322 1.299 -0.345498
vt -0.0787402 -0.0393701
f 51/96/1 46/5/1 50/95/1

f 51/96/1 45/6/1 46/5/1

f 51/96/1 44/7/1 45/6/1

v 0.0190558 1.299 -0.3456
vt -0.048171 -0.0353456
f 52/97/1 44/7/1 51/96/1

f 52/97/1 43/8/1 44/7/1

f 52/97/1 42/9/1 43/8/1

v 0.0183322 1.299 -0.3459
vt -0.019685 -0.0235463
f 53/98/1 42/9/1 52/97/1

f 53/98/1 41/10/1 42/9/1

f 53/98/1 40/11/1 41/10/1

v 0.0177109 1.299 -0.346377
vt 0.00477639 -0.00477639
f 54/99/1 40/11/1 53/98/1

f 40/11/1 54/99/1 39/12/1

v 0.0177109 1.299 -0.350619
vt 0.00477639 0.162257
f 54/99/1 55/100/1 39/12/1

v 0.0172342 1.299 -0.346998
vt 0.0235463 0.019685
f 56/101/1 55/100/1 54/99/1

v 0.0172342 1.299 -0.349998
vt 0.0235463 0.137795
f 56/101/1 57/102/1 55/100/1

v 0.0169345 1.299 -0.347721
vt 0.0353456 0.048171
f 58/103/1 57/102/1 56/101/1

v 0.0169345 1.299 -0.349274
vt 0.0353456 0.109309
f 58/103/1 59/104/1 57/102/1

v 0.0168322 1.299 -0.348498
vt 0.0393701 0.0787402
f 59/104/1 58/103/1 60/105/1

v 0.0191368 1.399 -0.348312
vt -0.0640889 4.01608
vn -0.965675 0.0227941 0.258752
v 0.0191122 1.399 -0.348498
vt -0.0714888 4.01608
vn -0.99974 0.0227941 1.90366e-15
vt -0.0832054 0.0780702
vt -0.0523724 0.0780702
f 61/106/26 62/107/27 60/108/27 58/109/26 

vt 0.0513596 0.0714036
vn -7.85404e-29 1 1.12317e-43
v 0.0192087 1.399 -0.348138
vt 0.0541914 0.0645669
v 0.0193231 1.399 -0.347989
vt 0.0586962 0.0586962
v 0.0194722 1.399 -0.347874
vt 0.0645669 0.0541914
v 0.0196459 1.399 -0.347802
vt 0.0714036 0.0513596
v 0.0198322 1.399 -0.347778
vt 0.0787402 0.0503937
v 0.0200186 1.399 -0.347802
vt 0.0860768 0.0513596
v 0.0201922 1.399 -0.347874
vt 0.0929134 0.0541914
v 0.0203413 1.399 -0.347989
vt 0.0987841 0.0586962
v 0.0204558 1.399 -0.348138
vt 0.103289 0.0645669
v 0.0205277 1.399 -0.348312
vt 0.106121 0.0714036
v 0.0205522 1.399 -0.348498
vt 0.107087 0.0787402
v 0.0205277 1.399 -0.348684
vt 0.106121 0.0860768
v 0.0204558 1.399 -0.348858
vt 0.103289 0.0929134
v 0.0203413 1.399 -0.349007
vt 0.0987841 0.0987841
v 0.0201922 1.399 -0.349121
vt 0.0929134 0.103289
v 0.0200186 1.399 -0.349193
vt 0.0860768 0.106121
v 0.0198322 1.399 -0.349218
vt 0.0787402 0.107087
v 0.0196459 1.399 -0.349193
vt 0.0714036 0.106121
v 0.0194722 1.399 -0.349121
vt 0.0645669 0.103289
v 0.0193231 1.399 -0.349007
vt 0.0586962 0.0987841
v 0.0192087 1.399 -0.348858
vt 0.0541914 0.0929134
v 0.0191368 1.399 -0.348684
vt 0.0513596 0.0860768
vt 0.0503937 0.0787402
f 61/110/28 63/111/28 64/112/28 65/113/28 66/114/28 67/115/28 68/116/28 69/117/28 70/118/28 71/119/28 72/120/28 73/121/28 74/122/28 75/123/28 76/124/28 77/125/28 78/126/28 79/127/28 80/128/28 81/129/28 82/130/28 83/131/28 84/132/28 62/133/28 

vt -0.0389139 4.01641
vn -0.8658 0.0227941 0.49987
vt -0.0463138 4.01641
vt -0.0580303 0.0783987
vt -0.0271974 0.0783987
f 63/134/29 61/135/26 58/136/26 56/137/29 

vt -0.0108348 4.01658
vn -0.706923 0.0227941 0.706923
vt -0.0182348 4.01658
vt -0.0299513 0.0785687
vt 0.000881683 0.0785687
f 64/138/30 63/139/29 56/140/29 54/141/30 

vt 0.0299513 0.0785687
vn -0.49987 0.0227941 0.8658
vt 0.0182348 4.01658
vt 0.0108348 4.01658
vt -0.000881683 0.0785687
f 53/142/31 65/143/31 64/144/30 54/145/30 

vt 0.0580303 0.0783987
vn -0.258752 0.0227941 0.965675
vt 0.0463138 4.01641
vt 0.0389139 4.01641
vt 0.0271974 0.0783987
f 52/146/32 66/147/32 65/148/31 53/149/31 

vt 0.0832054 0.0780702
vn 1.25977e-16 0.0227941 0.99974
vt 0.0714888 4.01608
vt 0.0640889 4.01608
vt 0.0523724 0.0780702
f 51/150/33 67/151/33 66/152/32 52/153/32 

vt 0.103761 0.0776057
vn 0.258752 0.0227941 0.965675
vt 0.0920441 4.01562
vt 0.0846442 4.01562
vt 0.0729277 0.0776057
f 50/154/34 68/155/34 67/156/33 51/157/33 

vt 0.118295 0.0770367
vn 0.49987 0.0227941 0.8658
vt 0.106579 4.01505
vt 0.099179 4.01505
vt 0.0874625 0.0770367
f 49/158/35 69/159/35 68/160/34 50/161/34 

v 0.0219535 1.299 -0.346377
vt 0.125819 0.0764022
vn 0.706923 0.0227941 0.706923
vt 0.114103 4.01442
vt 0.106703 4.01442
vt 0.0949863 0.0764022
f 85/162/36 70/163/36 69/164/35 49/165/35 

vt 0.0949863 0.0757452
v 0.0224303 1.299 -0.346998
vt 0.125819 0.0757452
vn 0.8658 0.0227941 0.49987
vt 0.114103 4.01376
vt 0.106703 4.01376
f 85/166/36 86/167/37 71/168/37 70/169/36 

vt -0.162257 -0.00477639
v 0.0224303 1.299 -0.349998
vt -0.181027 0.137795
vt -0.181027 0.019685
f 85/170/1 87/171/1 86/172/1

v 0.0219535 1.299 -0.350619
vt -0.162257 0.162257
f 85/170/1 88/173/1 87/171/1

f 85/170/1 27/24/1 88/173/1

f 85/170/1 25/1/1 27/24/1

f 85/170/1 26/2/1 25/1/1

f 49/94/1 26/2/1 85/170/1

f 28/23/1 88/173/1 27/24/1

f 29/22/1 88/173/1 28/23/1

v 0.0213322 1.299 -0.351096
vt -0.137795 0.181027
f 29/22/1 89/174/1 88/173/1

f 30/21/1 89/174/1 29/22/1

f 31/20/1 89/174/1 30/21/1

v 0.0206087 1.299 -0.351396
vt -0.109309 0.192826
f 31/20/1 90/175/1 89/174/1

f 32/19/1 90/175/1 31/20/1

f 33/18/1 90/175/1 32/19/1

v 0.0198322 1.299 -0.351498
vt -0.0787402 0.19685
f 33/18/1 91/176/1 90/175/1

f 34/17/1 91/176/1 33/18/1

v 0.0190558 1.299 -0.351396
vt -0.048171 0.192826
f 34/17/1 92/177/1 91/176/1

f 35/16/1 92/177/1 34/17/1

f 36/15/1 92/177/1 35/16/1

v 0.0183322 1.299 -0.351096
vt -0.019685 0.181027
f 36/15/1 93/178/1 92/177/1

f 37/14/1 93/178/1 36/15/1

f 38/13/1 93/178/1 37/14/1

f 38/13/1 55/100/1 93/178/1

f 39/12/1 55/100/1 38/13/1

vt -0.0949863 0.0757452
vn -0.706923 0.0227941 -0.706923
vt -0.106703 4.01376
vt -0.114103 4.01376
vn -0.49987 0.0227941 -0.8658
vt -0.125819 0.0757452
f 55/179/38 82/180/38 81/181/39 93/182/39 

vt -0.106703 4.01442
vn -0.8658 0.0227941 -0.49987
vt -0.114103 4.01442
vt -0.125819 0.0764022
vt -0.0949863 0.0764022
f 83/183/40 82/184/38 55/185/38 57/186/40 

vt -0.099179 4.01505
vn -0.965675 0.0227941 -0.258752
vt -0.106579 4.01505
vt -0.118295 0.0770367
vt -0.0874625 0.0770367
f 84/187/41 83/188/40 57/189/40 59/190/41 

vt -0.0846442 4.01562
vt -0.0920441 4.01562
vt -0.103761 0.0776057
vt -0.0729277 0.0776057
f 62/191/27 84/192/41 59/193/41 60/194/27 

vt -0.0874625 0.0751107
vt -0.099179 4.01312
vt -0.106579 4.01312
vn -0.258752 0.0227941 -0.965675
vt -0.118295 0.0751107
f 93/195/39 81/196/39 80/197/42 92/198/42 

vt -0.0729277 0.0745417
vt -0.0846442 4.01256
vt -0.0920441 4.01256
vn -3.21942e-16 0.0227941 -0.99974
vt -0.103761 0.0745417
f 92/199/42 80/200/42 79/201/43 91/202/43 

vt -0.0523724 0.0740772
vt -0.0640889 4.01209
vt -0.0714888 4.01209
vn 0.258752 0.0227941 -0.965675
vt -0.0832054 0.0740772
f 91/203/43 79/204/43 78/205/44 90/206/44 

vt -0.0271974 0.0737487
vt -0.0389139 4.01176
vt -0.0463138 4.01176
vn 0.49987 0.0227941 -0.8658
vt -0.0580303 0.0737487
f 90/207/44 78/208/44 77/209/45 89/210/45 

vt 0.000881683 0.0735787
vt -0.0108348 4.01159
vt -0.0182348 4.01159
vn 0.706923 0.0227941 -0.706923
vt -0.0299513 0.0735787
f 89/211/45 77/212/45 76/213/46 88/214/46 

vt -0.000881683 0.0735787
vn 0.8658 0.0227941 -0.49987
vt 0.0299513 0.0735787
vt 0.0182348 4.01159
vt 0.0108348 4.01159
f 87/215/47 88/216/46 76/217/46 75/218/47 

v 0.02273 1.299 -0.349274
vt 0.0271974 0.0737487
vn 0.965675 0.0227941 -0.258752
vt 0.0580303 0.0737487
vt 0.0463138 4.01176
vt 0.0389139 4.01176
f 94/219/48 87/220/47 75/221/47 74/222/48 

vt -0.192826 0.109309
f 86/172/1 87/171/1 94/223/1

v 0.02273 1.299 -0.347721
vt -0.192826 0.048171
f 86/172/1 94/223/1 95/224/1

v 0.0228322 1.299 -0.348498
vt -0.19685 0.0787402
f 95/224/1 94/223/1 96/225/1

vt 0.0523724 0.0740772
vn 0.99974 0.0227941 -3.26141e-15
vt 0.0832054 0.0740772
vt 0.0714888 4.01209
vt 0.0640889 4.01209
f 96/226/49 94/227/48 74/228/48 73/229/49 

vt 0.0729277 0.0745417
vn 0.965675 0.0227941 0.258752
vt 0.103761 0.0745417
vt 0.0920441 4.01256
vt 0.0846442 4.01256
f 95/230/50 96/231/49 73/232/49 72/233/50 

vt 0.0874625 0.0751107
vt 0.118295 0.0751107
vt 0.106579 4.01312
vt 0.099179 4.01312
f 86/234/37 95/235/50 72/236/50 71/237/37 

g Mesh2 Group2 Model

v 0.00111078 1.297 -0.34798
v 0.000910975 1.297 -0.347498
v 0.000593138 1.297 -0.347084
v 0.000178924 1.297 -0.346766
v -0.000303438 1.297 -0.346566
v -0.000821076 1.297 -0.346498
v -0.00133871 1.297 -0.346566
v -0.00182108 1.297 -0.346766
v -0.00223529 1.297 -0.347084
v -0.00255313 1.297 -0.347498
v -0.00275293 1.297 -0.34798
v -0.00282108 1.297 -0.348498
v -0.00275293 1.297 -0.349016
v -0.00255313 1.297 -0.349498
v -0.00223529 1.297 -0.349912
v -0.00182108 1.297 -0.35023
v -0.00133871 1.297 -0.35043
v -0.000821076 1.297 -0.350498
v -0.000303438 1.297 -0.35043
v 0.000178924 1.297 -0.35023
v 0.000593138 1.297 -0.349912
v 0.000910975 1.297 -0.349498
v 0.00111078 1.297 -0.349016
v 0.00117892 1.297 -0.348498
f 97/1/1 98/2/1 99/3/1 100/4/1 101/5/1 102/6/1 103/7/1 104/8/1 105/9/1 106/10/1 107/11/1 108/12/1 109/13/1 110/14/1 111/15/1 112/16/1 113/17/1 114/18/1 115/19/1 116/20/1 117/21/1 118/22/1 119/23/1 120/24/1 

v 0.00111078 1.299 -0.34798
v 0.000910975 1.299 -0.347498
f 97/25/2 121/26/2 122/27/3 98/28/3 

v 0.00117892 1.299 -0.348498
f 120/29/4 123/30/4 121/31/2 97/32/2 

v 0.00111078 1.299 -0.349016
f 119/33/5 124/31/5 123/34/4 120/35/4 

v 0.000910975 1.299 -0.349498
f 118/36/6 125/37/6 124/38/5 119/39/5 

v 0.000593138 1.299 -0.349912
f 117/40/7 126/41/7 125/42/6 118/43/6 

v 0.000178924 1.299 -0.35023
f 116/44/8 127/45/8 126/46/7 117/47/7 

v -0.000303438 1.299 -0.35043
f 115/48/9 128/49/9 127/50/8 116/51/8 

v -0.000821076 1.299 -0.350498
f 114/52/10 129/53/10 128/54/9 115/55/9 

v -0.00133871 1.299 -0.35043
f 113/56/11 130/54/11 129/57/10 114/58/10 

v -0.00182108 1.299 -0.35023
f 112/59/12 131/60/12 130/61/11 113/62/11 

v -0.00223529 1.299 -0.349912
f 111/63/13 132/64/13 131/65/12 112/66/12 

v -0.00255313 1.299 -0.349498
f 110/67/14 133/64/14 132/65/13 111/68/13 

v -0.00275293 1.299 -0.349016
f 109/69/15 134/60/15 133/61/14 110/70/14 

v -0.00282108 1.299 -0.348498
f 108/71/16 135/54/16 134/57/15 109/72/15 

v -0.00275293 1.299 -0.34798
f 107/73/17 136/53/17 135/54/16 108/71/16 

v -0.00255313 1.299 -0.347498
f 106/74/18 137/49/18 136/50/17 107/75/17 

v -0.00223529 1.299 -0.347084
f 105/76/19 138/45/19 137/46/18 106/77/18 

v -0.00182108 1.299 -0.346766
f 104/78/20 139/41/20 138/42/19 105/79/19 

v -0.00133871 1.299 -0.346566
f 103/80/21 140/37/21 139/38/20 104/81/20 

v -0.000821076 1.299 -0.346498
f 102/82/22 141/31/22 140/34/21 103/83/21 

v -0.000303438 1.299 -0.346566
f 101/84/23 142/30/23 141/31/22 102/85/22 

v 0.000178924 1.299 -0.346766
f 100/86/24 143/26/24 142/27/23 101/87/23 

v 0.000593138 1.299 -0.347084
f 99/88/25 144/89/25 143/90/24 100/91/24 

f 98/92/3 122/89/3 144/90/25 99/93/25 

v 0.000678924 1.299 -0.3459
f 145/94/1 144/3/1 122/2/1

f 145/94/1 143/4/1 144/3/1

v -4.46189e-05 1.299 -0.3456
f 146/95/1 143/4/1 145/94/1

f 146/95/1 142/5/1 143/4/1

v -0.000821076 1.299 -0.345498
f 147/96/1 142/5/1 146/95/1

f 147/96/1 141/6/1 142/5/1

f 147/96/1 140/7/1 141/6/1

v -0.00159753 1.299 -0.3456
f 148/97/1 140/7/1 147/96/1

f 148/97/1 139/8/1 140/7/1

f 148/97/1 138/9/1 139/8/1

v -0.00232108 1.299 -0.3459
f 149/98/1 138/9/1 148/97/1

f 149/98/1 137/10/1 138/9/1

f 149/98/1 136/11/1 137/10/1

v -0.0029424 1.299 -0.346377
f 150/99/1 136/11/1 149/98/1

f 136/11/1 150/99/1 135/12/1

v -0.0029424 1.299 -0.350619
f 150/99/1 151/100/1 135/12/1

v -0.00341915 1.299 -0.346998
f 152/101/1 151/100/1 150/99/1

v -0.00341915 1.299 -0.349998
f 152/101/1 153/102/1 151/100/1

v -0.00371885 1.299 -0.347721
f 154/103/1 153/102/1 152/101/1

v -0.00371885 1.299 -0.349274
f 154/103/1 155/104/1 153/102/1

v -0.00382108 1.299 -0.348498
f 155/104/1 154/103/1 156/105/1

v -0.00151654 1.399 -0.348312
v -0.00154108 1.399 -0.348498
f 157/106/26 158/107/27 156/108/27 154/109/26 

v -0.00144461 1.399 -0.348138
v -0.00133019 1.399 -0.347989
v -0.00118108 1.399 -0.347874
v -0.00100743 1.399 -0.347802
v -0.000821076 1.399 -0.347778
v -0.000634726 1.399 -0.347802
v -0.000461076 1.399 -0.347874
v -0.000311959 1.399 -0.347989
v -0.000197538 1.399 -0.348138
v -0.000125609 1.399 -0.348312
v -0.000101076 1.399 -0.348498
v -0.000125609 1.399 -0.348684
v -0.000197538 1.399 -0.348858
v -0.000311959 1.399 -0.349007
v -0.000461076 1.399 -0.349121
v -0.000634726 1.399 -0.349193
v -0.000821076 1.399 -0.349218
v -0.00100743 1.399 -0.349193
v -0.00118108 1.399 -0.349121
v -0.00133019 1.399 -0.349007
v -0.00144461 1.399 -0.348858
v -0.00151654 1.399 -0.348684
f 157/110/28 159/111/28 160/112/28 161/113/28 162/114/28 163/115/28 164/116/28 165/117/28 166/118/28 167/119/28 168/120/28 169/121/28 170/122/28 171/123/28 172/124/28 173/125/28 174/126/28 175/127/28 176/128/28 177/129/28 178/130/28 179/131/28 180/132/28 158/133/28 

f 159/134/29 157/135/26 154/136/26 152/137/29 

f 160/138/30 159/139/29 152/140/29 150/141/30 

f 149/142/31 161/143/31 160/144/30 150/145/30 

f 148/146/32 162/147/32 161/148/31 149/149/31 

f 147/150/33 163/151/33 162/152/32 148/153/32 

f 146/154/34 164/155/34 163/156/33 147/157/33 

f 145/158/35 165/159/35 164/160/34 146/161/34 

v 0.00130024 1.299 -0.346377
f 181/162/36 166/163/36 165/164/35 145/165/35 

v 0.001777 1.299 -0.346998
f 181/166/36 182/167/37 167/168/37 166/169/36 

v 0.001777 1.299 -0.349998
f 181/170/1 183/171/1 182/172/1

v 0.00130024 1.299 -0.350619
f 181/170/1 184/173/1 183/171/1

f 181/170/1 123/24/1 184/173/1

f 181/170/1 121/1/1 123/24/1

f 181/170/1 122/2/1 121/1/1

f 145/94/1 122/2/1 181/170/1

f 124/23/1 184/173/1 123/24/1

f 125/22/1 184/173/1 124/23/1

v 0.000678924 1.299 -0.351096
f 125/22/1 185/174/1 184/173/1

f 126/21/1 185/174/1 125/22/1

f 127/20/1 185/174/1 126/21/1

v -4.46189e-05 1.299 -0.351396
f 127/20/1 186/175/1 185/174/1

f 128/19/1 186/175/1 127/20/1

f 129/18/1 186/175/1 128/19/1

v -0.000821076 1.299 -0.351498
f 129/18/1 187/176/1 186/175/1

f 130/17/1 187/176/1 129/18/1

v -0.00159753 1.299 -0.351396
f 130/17/1 188/177/1 187/176/1

f 131/16/1 188/177/1 130/17/1

f 132/15/1 188/177/1 131/16/1

v -0.00232108 1.299 -0.351096
f 132/15/1 189/178/1 188/177/1

f 133/14/1 189/178/1 132/15/1

f 134/13/1 189/178/1 133/14/1

f 134/13/1 151/100/1 189/178/1

f 135/12/1 151/100/1 134/13/1

f 151/179/38 178/180/38 177/181/39 189/182/39 

f 179/183/40 178/184/38 151/185/38 153/186/40 

f 180/187/41 179/188/40 153/189/40 155/190/41 

f 158/191/27 180/192/41 155/193/41 156/194/27 

f 189/195/39 177/196/39 176/197/42 188/198/42 

f 188/199/42 176/200/42 175/201/43 187/202/43 

f 187/203/43 175/204/43 174/205/44 186/206/44 

f 186/207/44 174/208/44 173/209/45 185/210/45 

f 185/211/45 173/212/45 172/213/46 184/214/46 

f 183/215/47 184/216/46 172/217/46 171/218/47 

v 0.0020767 1.299 -0.349274
f 190/219/48 183/220/47 171/221/47 170/222/48 

f 182/172/1 183/171/1 190/223/1

v 0.0020767 1.299 -0.347721
f 182/172/1 190/223/1 191/224/1

v 0.00217892 1.299 -0.348498
f 191/224/1 190/223/1 192/225/1

f 192/226/49 190/227/48 170/228/48 169/229/49 

f 191/230/50 192/231/49 169/232/49 168/233/50 

f 182/234/37 191/235/50 168/236/50 167/237/37 

g Mesh3 Group3 Model

v -0.0195425 1.297 -0.34798
v -0.0197423 1.297 -0.347498
v -0.0200602 1.297 -0.347084
v -0.0204744 1.297 -0.346766
v -0.0209567 1.297 -0.346566
v -0.0214744 1.297 -0.346498
v -0.021992 1.297 -0.346566
v -0.0224744 1.297 -0.346766
v -0.0228886 1.297 -0.347084
v -0.0232064 1.297 -0.347498
v -0.0234062 1.297 -0.34798
v -0.0234744 1.297 -0.348498
v -0.0234062 1.297 -0.349016
v -0.0232064 1.297 -0.349498
v -0.0228886 1.297 -0.349912
v -0.0224744 1.297 -0.35023
v -0.021992 1.297 -0.35043
v -0.0214744 1.297 -0.350498
v -0.0209567 1.297 -0.35043
v -0.0204744 1.297 -0.35023
v -0.0200602 1.297 -0.349912
v -0.0197423 1.297 -0.349498
v -0.0195425 1.297 -0.349016
v -0.0194744 1.297 -0.348498
f 193/1/1 194/2/1 195/3/1 196/4/1 197/5/1 198/6/1 199/7/1 200/8/1 201/9/1 202/10/1 203/11/1 204/12/1 205/13/1 206/14/1 207/15/1 208/16/1 209/17/1 210/18/1 211/19/1 212/20/1 213/21/1 214/22/1 215/23/1 216/24/1 

v -0.0195425 1.299 -0.34798
v -0.0197423 1.299 -0.347498
f 193/25/2 217/26/2 218/27/3 194/28/3 

v -0.0194744 1.299 -0.348498
f 216/29/4 219/30/4 217/31/2 193/32/2 

v -0.0195425 1.299 -0.349016
f 215/33/5 220/31/5 219/34/4 216/35/4 

v -0.0197423 1.299 -0.349498
f 214/36/6 221/37/6 220/38/5 215/39/5 

v -0.0200602 1.299 -0.349912
f 213/40/7 222/41/7 221/42/6 214/43/6 

v -0.0204744 1.299 -0.35023
f 212/44/8 223/45/8 222/46/7 213/47/7 

v -0.0209567 1.299 -0.35043
f 211/48/9 224/49/9 223/50/8 212/51/8 

v -0.0214744 1.299 -0.350498
f 210/52/10 225/53/10 224/54/9 211/55/9 

v -0.021992 1.299 -0.35043
f 209/56/11 226/54/11 225/57/10 210/58/10 

v -0.0224744 1.299 -0.35023
f 208/59/12 227/60/12 226/61/11 209/62/11 

v -0.0228886 1.299 -0.349912
f 207/63/13 228/64/13 227/65/12 208/66/12 

v -0.0232064 1.299 -0.349498
f 206/67/14 229/64/14 228/65/13 207/68/13 

v -0.0234062 1.299 -0.349016
f 205/69/15 230/60/15 229/61/14 206/70/14 

v -0.0234744 1.299 -0.348498
f 204/71/16 231/54/16 230/57/15 205/72/15 

v -0.0234062 1.299 -0.34798
f 203/73/17 232/53/17 231/54/16 204/71/16 

v -0.0232064 1.299 -0.347498
f 202/74/18 233/49/18 232/50/17 203/75/17 

v -0.0228886 1.299 -0.347084
f 201/76/19 234/45/19 233/46/18 202/77/18 

v -0.0224744 1.299 -0.346766
f 200/78/20 235/41/20 234/42/19 201/79/19 

v -0.021992 1.299 -0.346566
f 199/80/21 236/37/21 235/38/20 200/81/20 

v -0.0214744 1.299 -0.346498
f 198/82/22 237/31/22 236/34/21 199/83/21 

v -0.0209567 1.299 -0.346566
f 197/84/23 238/30/23 237/31/22 198/85/22 

v -0.0204744 1.299 -0.346766
f 196/86/24 239/26/24 238/27/23 197/87/23 

v -0.0200602 1.299 -0.347084
f 195/88/25 240/89/25 239/90/24 196/91/24 

f 194/92/3 218/89/3 240/90/25 195/93/25 

v -0.0199744 1.299 -0.3459
f 241/94/1 240/3/1 218/2/1

f 241/94/1 239/4/1 240/3/1

v -0.0206979 1.299 -0.3456
f 242/95/1 239/4/1 241/94/1

f 242/95/1 238/5/1 239/4/1

v -0.0214744 1.299 -0.345498
f 243/96/1 238/5/1 242/95/1

f 243/96/1 237/6/1 238/5/1

f 243/96/1 236/7/1 237/6/1

v -0.0222508 1.299 -0.3456
f 244/97/1 236/7/1 243/96/1

f 244/97/1 235/8/1 236/7/1

f 244/97/1 234/9/1 235/8/1

v -0.0229744 1.299 -0.3459
f 245/98/1 234/9/1 244/97/1

f 245/98/1 233/10/1 234/9/1

f 245/98/1 232/11/1 233/10/1

v -0.0235957 1.299 -0.346377
f 246/99/1 232/11/1 245/98/1

f 232/11/1 246/99/1 231/12/1

v -0.0235957 1.299 -0.350619
f 246/99/1 247/100/1 231/12/1

v -0.0240725 1.299 -0.346998
f 248/101/1 247/100/1 246/99/1

v -0.0240725 1.299 -0.349998
f 248/101/1 249/102/1 247/100/1

v -0.0243722 1.299 -0.347721
f 250/103/1 249/102/1 248/101/1

v -0.0243722 1.299 -0.349274
f 250/103/1 251/104/1 249/102/1

v -0.0244744 1.299 -0.348498
f 251/104/1 250/103/1 252/105/1

v -0.0221698 1.399 -0.348312
v -0.0221944 1.399 -0.348498
f 253/106/26 254/107/27 252/108/27 250/109/26 

v -0.0220979 1.399 -0.348138
v -0.0219835 1.399 -0.347989
v -0.0218344 1.399 -0.347874
v -0.0216607 1.399 -0.347802
v -0.0214744 1.399 -0.347778
v -0.021288 1.399 -0.347802
v -0.0211144 1.399 -0.347874
v -0.0209653 1.399 -0.347989
v -0.0208508 1.399 -0.348138
v -0.0207789 1.399 -0.348312
v -0.0207544 1.399 -0.348498
v -0.0207789 1.399 -0.348684
v -0.0208508 1.399 -0.348858
v -0.0209653 1.399 -0.349007
v -0.0211144 1.399 -0.349121
v -0.021288 1.399 -0.349193
v -0.0214744 1.399 -0.349218
v -0.0216607 1.399 -0.349193
v -0.0218344 1.399 -0.349121
v -0.0219835 1.399 -0.349007
v -0.0220979 1.399 -0.348858
v -0.0221698 1.399 -0.348684
f 253/110/28 255/111/28 256/112/28 257/113/28 258/114/28 259/115/28 260/116/28 261/117/28 262/118/28 263/119/28 264/120/28 265/121/28 266/122/28 267/123/28 268/124/28 269/125/28 270/126/28 271/127/28 272/128/28 273/129/28 274/130/28 275/131/28 276/132/28 254/133/28 

f 255/134/29 253/135/26 250/136/26 248/137/29 

f 256/138/30 255/139/29 248/140/29 246/141/30 

f 245/142/31 257/143/31 256/144/30 246/145/30 

f 244/146/32 258/147/32 257/148/31 245/149/31 

f 243/150/33 259/151/33 258/152/32 244/153/32 

f 242/154/34 260/155/34 259/156/33 243/157/33 

f 241/158/35 261/159/35 260/160/34 242/161/34 

v -0.0193531 1.299 -0.346377
f 277/162/36 262/163/36 261/164/35 241/165/35 

v -0.0188763 1.299 -0.346998
f 277/166/36 278/167/37 263/168/37 262/169/36 

v -0.0188763 1.299 -0.349998
f 277/170/1 279/171/1 278/172/1

v -0.0193531 1.299 -0.350619
f 277/170/1 280/173/1 279/171/1

f 277/170/1 219/24/1 280/173/1

f 277/170/1 217/1/1 219/24/1

f 277/170/1 218/2/1 217/1/1

f 241/94/1 218/2/1 277/170/1

f 220/23/1 280/173/1 219/24/1

f 221/22/1 280/173/1 220/23/1

v -0.0199744 1.299 -0.351096
f 221/22/1 281/174/1 280/173/1

f 222/21/1 281/174/1 221/22/1

f 223/20/1 281/174/1 222/21/1

v -0.0206979 1.299 -0.351396
f 223/20/1 282/175/1 281/174/1

f 224/19/1 282/175/1 223/20/1

f 225/18/1 282/175/1 224/19/1

v -0.0214744 1.299 -0.351498
f 225/18/1 283/176/1 282/175/1

f 226/17/1 283/176/1 225/18/1

v -0.0222508 1.299 -0.351396
f 226/17/1 284/177/1 283/176/1

f 227/16/1 284/177/1 226/17/1

f 228/15/1 284/177/1 227/16/1

v -0.0229744 1.299 -0.351096
f 228/15/1 285/178/1 284/177/1

f 229/14/1 285/178/1 228/15/1

f 230/13/1 285/178/1 229/14/1

f 230/13/1 247/100/1 285/178/1

f 231/12/1 247/100/1 230/13/1

f 247/179/38 274/180/38 273/181/39 285/182/39 

f 275/183/40 274/184/38 247/185/38 249/186/40 

f 276/187/41 275/188/40 249/189/40 251/190/41 

f 254/191/27 276/192/41 251/193/41 252/194/27 

f 285/195/39 273/196/39 272/197/42 284/198/42 

f 284/199/42 272/200/42 271/201/43 283/202/43 

f 283/203/43 271/204/43 270/205/44 282/206/44 

f 282/207/44 270/208/44 269/209/45 281/210/45 

f 281/211/45 269/212/45 268/213/46 280/214/46 

f 279/215/47 280/216/46 268/217/46 267/218/47 

v -0.0185766 1.299 -0.349274
f 286/219/48 279/220/47 267/221/47 266/222/48 

f 278/172/1 279/171/1 286/223/1

v -0.0185766 1.299 -0.347721
f 278/172/1 286/223/1 287/224/1

v -0.0184744 1.299 -0.348498
f 287/224/1 286/223/1 288/225/1

f 288/226/49 286/227/48 266/228/48 265/229/49 

f 287/230/50 288/231/49 265/232/49 264/233/50 

f 278/234/37 287/235/50 264/236/50 263/237/37 

