# Alias OBJ Model File
# Exported from SketchUp, (c) 2000-2012 Trimble Navigation Limited
# File units = meters

mtllib column_1.mtl

g Mesh1 Group2 Group1 Model

usemtl Aluminum
v -0.0421277 1.295 -0.340498
vt 8.88178e-16 2.99519
vn 0 1 -0
v -0.0229744 1.295 -0.3459
vt 0.754067 3.20786
v -0.0421277 1.295 -0.35668
vt 8.88178e-16 3.63228
f 1/1/1 2/2/1 3/3/1

v -0.0222508 1.295 -0.3456
vt 0.782553 3.19606
f 2/2/1 1/1/1 4/4/1

v -0.0214744 1.295 -0.345498
vt 0.813122 3.19204
f 4/4/1 1/1/1 5/5/1

v 0.0404855 1.295 -0.340498
vt 3.25249 2.99519
f 5/5/1 1/1/1 6/6/1

v 0.0404855 1.64606 -0.29116
vt -3.25249 64.0283
vn 6.89119e-18 0.139173 -0.990268
vt -3.25249 50.0712
vt -8.67335e-16 50.0712
v -0.0421277 1.64606 -0.29116
vt 7.32596e-18 64.0283
f 7/7/2 6/8/2 1/9/2 8/10/2 

v 0.0404855 1.177 -0.3158
vt 2.02283 46.3386
vn 1 -7.11656e-18 6.33272e-17
v 0.0404855 0.168 -0.3158
vt 2.02283 6.61417
v 0.0404855 0.168 -0.35668
vt 3.63228 6.61417
v 0.0404855 1.295 -0.35668
vt 3.63228 50.9843
vt 2.99519 50.9843
vt 1.05274 64.8055
v 0.0404855 1.64037 -0.250678
vt -0.541042 64.5815
f 9/11/3 10/12/3 11/13/3 12/14/3 6/15/3 7/16/3 13/17/3 

v -0.0621277 0.168 -0.3158
vt -0.787402 6.61417
vn 0 0 1
v -0.0621277 0.01 -0.3158
vt -0.787402 0.393701
v 0.0604855 0.01 -0.3158
vt 4.03989 0.393701
v 0.0604855 0.168 -0.3158
vt 4.03989 6.61417
vt 3.25249 6.61417
vt 3.25249 46.3386
v -0.0421277 1.177 -0.3158
vt 0 46.3386
v -0.0421277 0.168 -0.3158
vt 0 6.61417
f 14/18/4 15/19/4 16/20/4 17/21/4 10/22/4 9/23/4 18/24/4 19/25/4 

v -0.0621277 0 -0.3158
vt -2.02283 -1.37466e-17
vn -1 1.74582e-17 -5.46866e-17
vt -2.02283 0.393701
vt -2.02283 6.61417
v -0.0621277 0.168 -0.37668
vt -4.41968 6.61417
v -0.0621277 0 -0.37668
vt -4.41968 -1.37466e-17
f 20/26/5 15/27/5 14/28/5 21/29/5 22/30/5 

v 0.0604855 0 -0.3158
vt 4.03989 0
vt -0.787402 0
f 23/31/4 16/20/4 15/19/4 20/32/4 

v 0.0604855 0.168 -0.37668
vt 4.41968 6.61417
vn 1 0 -0
vt 2.02283 0.393701
vt 2.02283 0
v 0.0604855 0 -0.37668
vt 4.41968 0
f 24/33/6 17/12/6 16/34/6 23/35/6 25/36/6 

vt 0 2.02283
v -0.0421277 0.168 -0.35668
vt 0 3.63228
vt 3.25249 3.63228
vt 3.25249 2.02283
vt 4.03989 2.02283
vt 4.03989 4.41968
vt -0.787402 4.41968
vt -0.787402 2.02283
f 19/37/1 26/38/1 11/39/1 10/40/1 17/41/1 24/42/1 21/43/1 14/44/1 

vt -3.63228 50.9843
vn -1 1.44219e-17 -2.7817e-16
vt -3.63228 6.61417
vt -2.02283 46.3386
v -0.0421277 1.64037 -0.250678
vt 0.541042 64.5815
vt -1.05274 64.8055
vt -2.99519 50.9843
f 3/45/7 26/46/7 19/28/7 18/47/7 27/48/7 8/49/7 1/50/7 

vt -3.25249 50.9843
vn 0 0 -1
vt -3.25249 6.61417
vt -8.88178e-16 50.9843
f 12/51/8 11/52/8 26/25/8 3/53/8 

v -0.0214744 1.295 -0.351498
vt 0.813122 3.42826
f 3/3/1 28/54/1 12/39/1

v -0.0222508 1.295 -0.351396
vt 0.782553 3.42424
f 28/54/1 3/3/1 29/55/1

v -0.0229744 1.295 -0.351096
vt 0.754067 3.41244
f 29/55/1 3/3/1 30/56/1

v -0.0235957 1.295 -0.350619
vt 0.729606 3.39367
f 30/56/1 3/3/1 31/57/1

v -0.0240725 1.295 -0.349998
vt 0.710836 3.36921
f 31/57/1 3/3/1 32/58/1

v -0.0243722 1.295 -0.349274
vt 0.699036 3.34072
f 32/58/1 3/3/1 33/59/1

v -0.0244744 1.295 -0.348498
vt 0.695012 3.31015
f 33/59/1 3/3/1 34/60/1

v -0.0243722 1.295 -0.347721
vt 0.699036 3.27958
f 3/3/1 35/61/1 34/60/1

v -0.0240725 1.295 -0.346998
vt 0.710836 3.2511
f 3/3/1 36/62/1 35/61/1

v -0.0235957 1.295 -0.346377
vt 0.729606 3.22663
f 3/3/1 37/63/1 36/62/1

f 3/3/1 2/2/1 37/63/1

vt -1.38542 50.9843
vn -0.707107 0 0.707107
vt -1.35458 50.9843
vn -0.5 0 0.866025
v -0.0229744 1.297 -0.3459
vt -1.35458 51.063
v -0.0235957 1.297 -0.346377
vt -1.38542 51.063
f 37/64/9 2/65/10 38/66/10 39/67/9 

vt -0.530929 50.9843
vt -0.500096 50.9843
vn -0.258819 0 0.965926
v -0.0222508 1.297 -0.3456
vt -0.500096 51.063
vt -0.530929 51.063
f 2/68/10 4/69/11 40/70/11 38/71/10 

vt 0.358688 50.9843
vt 0.389521 50.9843
vn -2.37958e-16 0 1
v -0.0214744 1.297 -0.345498
vt 0.389521 51.063
vt 0.358688 51.063
f 4/72/11 5/73/12 41/74/12 40/75/11 

vt 1.22281 50.9843
v -0.0206979 1.295 -0.3456
vt 1.25364 50.9843
vn 0.258819 0 0.965926
v -0.0206979 1.297 -0.3456
vt 1.25364 51.063
vt 1.22281 51.063
f 5/76/12 42/77/13 43/78/13 41/79/12 

vt 0.843691 3.19606
f 5/5/1 6/6/1 42/80/1

v -0.0199744 1.295 -0.3459
vt 0.872177 3.20786
f 42/80/1 6/6/1 44/81/1

v -0.0193531 1.295 -0.346377
vt 0.896639 3.22663
f 44/81/1 6/6/1 45/82/1

v -0.0188763 1.295 -0.346998
vt 0.915409 3.2511
f 45/82/1 6/6/1 46/83/1

v -0.000821076 1.295 -0.345498
vt 1.62624 3.19204
f 46/83/1 6/6/1 47/84/1

v -4.46189e-05 1.295 -0.3456
vt 1.65681 3.19606
f 47/84/1 6/6/1 48/85/1

v 0.000678924 1.295 -0.3459
vt 1.6853 3.20786
f 48/85/1 6/6/1 49/86/1

v 0.00130024 1.295 -0.346377
vt 1.70976 3.22663
f 49/86/1 6/6/1 50/87/1

v 0.001777 1.295 -0.346998
vt 1.72853 3.2511
f 50/87/1 6/6/1 51/88/1

v 0.0020767 1.295 -0.347721
vt 1.74033 3.27958
f 51/88/1 6/6/1 52/89/1

v 0.00217892 1.295 -0.348498
vt 1.74435 3.31015
f 52/89/1 6/6/1 53/90/1

v 0.0190558 1.295 -0.3456
vt 2.4088 3.19606
f 53/90/1 6/6/1 54/91/1

v 0.0198322 1.295 -0.345498
vt 2.43937 3.19204
f 54/91/1 6/6/1 55/92/1

v 0.0206087 1.295 -0.3456
vt 2.46994 3.19606
f 55/92/1 6/6/1 56/93/1

v 0.0213322 1.295 -0.3459
vt 2.49842 3.20786
f 56/93/1 6/6/1 57/94/1

v 0.0219535 1.295 -0.346377
vt 2.52288 3.22663
f 57/94/1 6/6/1 58/95/1

v 0.0224303 1.295 -0.346998
vt 2.54165 3.2511
f 58/95/1 6/6/1 59/96/1

v 0.02273 1.295 -0.347721
vt 2.55345 3.27958
f 59/96/1 6/6/1 60/97/1

v 0.0228322 1.295 -0.348498
vt 2.55748 3.31015
f 60/97/1 6/6/1 61/98/1

f 12/39/1 61/98/1 6/6/1

v 0.02273 1.295 -0.349274
vt 2.55345 3.34072
f 12/39/1 62/99/1 61/98/1

v 0.0224303 1.295 -0.349998
vt 2.54165 3.36921
f 12/39/1 63/100/1 62/99/1

v 0.0219535 1.295 -0.350619
vt 2.52288 3.39367
f 12/39/1 64/101/1 63/100/1

v 0.0213322 1.295 -0.351096
vt 2.49842 3.41244
f 12/39/1 65/102/1 64/101/1

v 0.0206087 1.295 -0.351396
vt 2.46994 3.42424
f 12/39/1 66/103/1 65/102/1

v 0.0198322 1.295 -0.351498
vt 2.43937 3.42826
f 12/39/1 67/104/1 66/103/1

v 0.0190558 1.295 -0.351396
vt 2.4088 3.42424
f 12/39/1 68/105/1 67/104/1

f 12/39/1 53/90/1 68/105/1

v 0.0020767 1.295 -0.349274
vt 1.74033 3.34072
f 12/39/1 69/106/1 53/90/1

v 0.001777 1.295 -0.349998
vt 1.72853 3.36921
f 12/39/1 70/107/1 69/106/1

v 0.00130024 1.295 -0.350619
vt 1.70976 3.39367
f 12/39/1 71/108/1 70/107/1

v 0.000678924 1.295 -0.351096
vt 1.6853 3.41244
f 12/39/1 72/109/1 71/108/1

v -4.46189e-05 1.295 -0.351396
vt 1.65681 3.42424
f 12/39/1 73/110/1 72/109/1

v -0.000821076 1.295 -0.351498
vt 1.62624 3.42826
f 12/39/1 74/111/1 73/110/1

v -0.0185766 1.295 -0.349274
vt 0.927208 3.34072
f 12/39/1 75/112/1 74/111/1

v -0.0188763 1.295 -0.349998
vt 0.915409 3.36921
f 12/39/1 76/113/1 75/112/1

v -0.0193531 1.295 -0.350619
vt 0.896639 3.39367
f 12/39/1 77/114/1 76/113/1

v -0.0199744 1.295 -0.351096
vt 0.872177 3.41244
f 12/39/1 78/115/1 77/114/1

v -0.0206979 1.295 -0.351396
vt 0.843691 3.42424
f 12/39/1 79/116/1 78/115/1

f 12/39/1 28/54/1 79/116/1

vt -0.389521 50.9843
vn 0.258819 0 -0.965926
vt -0.358688 50.9843
vn 2.37958e-16 0 -1
v -0.0214744 1.297 -0.351498
vt -0.358688 51.063
v -0.0206979 1.297 -0.351396
vt -0.389521 51.063
f 79/117/14 28/118/15 80/119/15 81/120/14 

vt -1.25364 50.9843
vt -1.22281 50.9843
vn -0.258819 0 -0.965926
v -0.0222508 1.297 -0.351396
vt -1.22281 51.063
vt -1.25364 51.063
f 28/121/15 29/122/16 82/123/16 80/124/15 

vt -2.03338 50.9843
vt -2.00255 50.9843
vn -0.5 0 -0.866025
v -0.0229744 1.297 -0.351096
vt -2.00255 51.063
vt -2.03338 51.063
f 29/125/16 30/126/17 83/127/17 82/128/16 

vt -2.6756 50.9843
vt -2.64477 50.9843
vn -0.707107 0 -0.707107
v -0.0235957 1.297 -0.350619
vt -2.64477 51.063
vt -2.6756 51.063
f 30/129/17 31/130/18 84/131/18 83/132/17 

vt -3.13653 50.9843
vt -3.1057 50.9843
vn -0.866025 0 -0.5
v -0.0240725 1.297 -0.349998
vt -3.1057 51.063
vt -3.13653 51.063
f 31/133/18 32/134/19 85/135/19 84/136/18 

vt -3.38476 50.9843
vt -3.35393 50.9843
vn -0.965926 0 -0.258819
v -0.0243722 1.297 -0.349274
vt -3.35393 51.063
vt -3.38476 51.063
f 32/137/19 33/138/20 86/139/20 85/140/19 

vt -3.40338 50.9843
vt -3.37255 50.9843
vn -1 0 -0
v -0.0244744 1.297 -0.348498
vt -3.37255 51.063
vt -3.40338 51.063
f 33/141/20 34/142/21 87/143/21 86/144/20 

vt -3.19111 50.9843
vt -3.16028 50.9843
vn -0.965926 0 0.258819
v -0.0243722 1.297 -0.347721
vt -3.16028 51.063
vt -3.19111 51.063
f 34/145/21 35/146/22 88/147/22 87/148/21 

vt -2.76243 50.9843
vt -2.7316 50.9843
vn -0.866025 0 0.5
v -0.0240725 1.297 -0.346998
vt -2.7316 51.063
vt -2.76243 51.063
f 35/149/22 36/150/23 89/151/23 88/152/22 

vt -2.14654 50.9843
vt -2.1157 50.9843
vt -2.1157 51.063
vt -2.14654 51.063
f 36/153/23 37/154/9 39/155/9 89/156/23 

v -0.0199744 1.297 -0.3459
v -0.0193531 1.297 -0.346377
v -0.0188763 1.297 -0.346998
v -0.0185766 1.297 -0.347721
vt 0.927208 3.27958
v -0.0184744 1.297 -0.348498
vt 0.931232 3.31015
v -0.0185766 1.297 -0.349274
v -0.0188763 1.297 -0.349998
v -0.0193531 1.297 -0.350619
v -0.0199744 1.297 -0.351096
f 81/116/1 80/54/1 82/55/1 83/56/1 84/57/1 85/58/1 86/59/1 87/60/1 88/61/1 89/62/1 39/63/1 38/2/1 40/4/1 41/5/1 43/80/1 90/81/1 91/82/1 92/83/1 93/157/1 94/158/1 95/112/1 96/113/1 97/114/1 98/115/1 

vt 2.00255 50.9843
vt 2.03338 50.9843
vn 0.5 0 0.866025
vt 2.03338 51.063
vt 2.00255 51.063
f 42/159/13 44/160/24 90/161/24 43/162/13 

vt 2.64477 50.9843
vt 2.6756 50.9843
vn 0.707107 0 0.707107
vt 2.6756 51.063
vt 2.64477 51.063
f 44/163/24 45/164/25 91/165/25 90/166/24 

vt 3.1057 50.9843
vt 3.13653 50.9843
vn 0.866025 0 0.5
vt 3.13653 51.063
vt 3.1057 51.063
f 45/167/25 46/168/26 92/169/26 91/170/25 

vt 3.35393 50.9843
v -0.0185766 1.295 -0.347721
vt 3.38476 50.9843
vn 0.965926 0 0.258819
vt 3.38476 51.063
vt 3.35393 51.063
f 46/171/26 99/172/27 93/173/27 92/174/26 

f 46/83/1 47/84/1 99/157/1

v -0.00159753 1.295 -0.3456
vt 1.59568 3.19606
f 99/157/1 47/84/1 100/175/1

vt 1.16485 50.9843
vt 1.19569 50.9843
vn -8.39852e-17 0 1
v -0.000821076 1.297 -0.345498
vt 1.19569 51.063
v -0.00159753 1.297 -0.3456
vt 1.16485 51.063
f 100/176/11 47/177/28 101/178/28 102/179/11 

vt 2.02898 50.9843
vt 2.05981 50.9843
v -4.46189e-05 1.297 -0.3456
vt 2.05981 51.063
vt 2.02898 51.063
f 47/180/28 48/181/13 103/182/13 101/183/28 

vt 2.75378 50.9843
vt 2.78461 50.9843
v 0.000678924 1.297 -0.3459
vt 2.78461 51.063
vt 2.75378 51.063
f 48/184/13 49/185/24 104/186/24 103/187/13 

vt 3.28986 50.9843
vt 3.32069 50.9843
v 0.00130024 1.297 -0.346377
vt 3.32069 51.063
vt 3.28986 51.063
f 49/188/24 50/189/25 105/190/25 104/191/24 

vt 3.6007 50.9843
vt 3.63153 50.9843
v 0.001777 1.297 -0.346998
vt 3.63153 51.063
vt 3.6007 51.063
f 50/192/25 51/193/26 106/194/26 105/195/25 

vt 3.6651 50.9843
vt 3.69593 50.9843
v 0.0020767 1.297 -0.347721
vt 3.69593 51.063
vt 3.6651 51.063
f 51/196/26 52/197/27 107/198/27 106/199/26 

vt 3.47868 50.9843
vt 3.50952 50.9843
vn 1 0 -2.23961e-16
v 0.00217892 1.297 -0.348498
vt 3.50952 51.063
vt 3.47868 51.063
f 52/200/27 53/201/29 108/202/29 107/203/27 

vt 3.05415 50.9843
vt 3.08498 50.9843
vn 0.965926 0 -0.258819
v 0.0020767 1.297 -0.349274
vt 3.08498 51.063
vt 3.05415 51.063
f 53/204/29 69/205/30 109/206/30 108/207/29 

vt 2.42043 50.9843
vt 2.45126 50.9843
vn 0.866025 0 -0.5
v 0.001777 1.297 -0.349998
vt 2.45126 51.063
vt 2.42043 51.063
f 69/208/30 70/209/31 110/210/31 109/211/30 

vt 1.62071 50.9843
vt 1.65154 50.9843
vn 0.707107 0 -0.707107
v 0.00130024 1.297 -0.350619
vt 1.65154 51.063
vt 1.62071 51.063
f 70/212/31 71/213/32 111/214/32 110/215/31 

vt 0.709489 50.9843
vt 0.740322 50.9843
vn 0.5 0 -0.866025
v 0.000678924 1.297 -0.351096
vt 0.740322 51.063
vt 0.709489 51.063
f 71/216/32 72/217/33 112/218/33 111/219/32 

vt -0.251131 50.9843
vt -0.220298 50.9843
v -4.46189e-05 1.297 -0.351396
vt -0.220298 51.063
vt -0.251131 51.063
f 72/220/33 73/221/14 113/222/14 112/223/33 

vt -1.19569 50.9843
vt -1.16485 50.9843
vn 2.09963e-16 0 -1
v -0.000821076 1.297 -0.351498
vt -1.16485 51.063
vt -1.19569 51.063
f 73/224/14 74/225/34 114/226/34 113/227/14 

vt -2.05981 50.9843
v -0.00159753 1.295 -0.351396
vt -2.02898 50.9843
v -0.00159753 1.297 -0.351396
vt -2.02898 51.063
vt -2.05981 51.063
f 74/228/34 115/229/16 116/230/16 114/231/34 

vt 1.59568 3.42424
f 74/111/1 75/112/1 115/232/1

v -0.0184744 1.295 -0.348498
f 115/232/1 75/112/1 117/158/1

vt 3.16028 50.9843
vt 3.19111 50.9843
vt 3.19111 51.063
vt 3.16028 51.063
f 117/233/6 75/234/30 95/235/30 94/236/6 

vt 2.7316 50.9843
vt 2.76243 50.9843
vt 2.76243 51.063
vt 2.7316 51.063
f 75/237/30 76/238/31 96/239/31 95/240/30 

vt 2.1157 50.9843
vt 2.14654 50.9843
vt 2.14654 51.063
vt 2.1157 51.063
f 76/241/31 77/242/32 97/243/32 96/244/31 

vt 1.35458 50.9843
vt 1.38542 50.9843
vt 1.38542 51.063
vt 1.35458 51.063
f 77/245/32 78/246/33 98/247/33 97/248/32 

vt 0.500096 50.9843
vt 0.530929 50.9843
vt 0.530929 51.063
vt 0.500096 51.063
f 78/249/33 79/250/14 81/251/14 98/252/33 

vt 3.37255 50.9843
vt 3.40338 50.9843
vt 3.40338 51.063
vt 3.37255 51.063
f 99/253/27 117/254/6 94/255/6 93/256/27 

f 99/157/1 100/175/1 117/158/1

v -0.00232108 1.295 -0.3459
vt 1.56719 3.20786
f 117/158/1 100/175/1 118/257/1

vt 0.220298 50.9843
vt 0.251131 50.9843
vt 0.251131 51.063
v -0.00232108 1.297 -0.3459
vt 0.220298 51.063
f 118/258/10 100/259/11 102/260/11 119/261/10 

v -0.00232108 1.297 -0.351096
vt 1.56719 3.41244
v -0.0029424 1.297 -0.350619
vt 1.54273 3.39367
v -0.00341915 1.297 -0.349998
vt 1.52396 3.36921
v -0.00371885 1.297 -0.349274
vt 1.51216 3.34072
v -0.00382108 1.297 -0.348498
vt 1.50813 3.31015
v -0.00371885 1.297 -0.347721
vt 1.51216 3.27958
v -0.00341915 1.297 -0.346998
vt 1.52396 3.2511
v -0.0029424 1.297 -0.346377
vt 1.54273 3.22663
f 113/110/1 114/111/1 116/232/1 120/262/1 121/263/1 122/264/1 123/265/1 124/266/1 125/267/1 126/268/1 127/269/1 119/257/1 102/175/1 101/84/1 103/85/1 104/86/1 105/87/1 106/88/1 107/89/1 108/90/1 109/106/1 110/107/1 111/108/1 112/109/1 

vt -2.78461 50.9843
v -0.00232108 1.295 -0.351096
vt -2.75378 50.9843
vt -2.75378 51.063
vt -2.78461 51.063
f 115/270/16 128/271/17 120/272/17 116/273/16 

f 115/232/1 117/158/1 128/262/1

v -0.0029424 1.295 -0.350619
f 128/262/1 117/158/1 129/263/1

v -0.00341915 1.295 -0.349998
f 129/263/1 117/158/1 130/264/1

v -0.00371885 1.295 -0.349274
f 130/264/1 117/158/1 131/265/1

v -0.00382108 1.295 -0.348498
f 131/265/1 117/158/1 132/266/1

v -0.00371885 1.295 -0.347721
f 117/158/1 133/267/1 132/266/1

v -0.00341915 1.295 -0.346998
f 117/158/1 134/268/1 133/267/1

v -0.0029424 1.295 -0.346377
f 117/158/1 135/269/1 134/268/1

f 117/158/1 118/257/1 135/269/1

vt -0.740322 50.9843
vt -0.709489 50.9843
vt -0.709489 51.063
vt -0.740322 51.063
f 135/274/9 118/275/10 119/276/10 127/277/9 

vt -1.65154 50.9843
vt -1.62071 50.9843
vt -1.62071 51.063
vt -1.65154 51.063
f 134/278/23 135/279/9 127/280/9 126/281/23 

vt -2.45126 50.9843
vt -2.42043 50.9843
vt -2.42043 51.063
vt -2.45126 51.063
f 133/282/22 134/283/23 126/284/23 125/285/22 

vt -3.08498 50.9843
vn -1 0 4.47921e-16
vt -3.05415 50.9843
vt -3.05415 51.063
vt -3.08498 51.063
f 132/286/35 133/287/22 125/288/22 124/289/35 

vt -3.50952 50.9843
vt -3.47868 50.9843
vt -3.47868 51.063
vt -3.50952 51.063
f 131/290/20 132/291/35 124/292/35 123/293/20 

vt -3.69593 50.9843
vt -3.6651 50.9843
vt -3.6651 51.063
vt -3.69593 51.063
f 130/294/19 131/295/20 123/296/20 122/297/19 

vt -3.63153 50.9843
vt -3.6007 50.9843
vt -3.6007 51.063
vt -3.63153 51.063
f 129/298/18 130/299/19 122/300/19 121/301/18 

vt -3.32069 50.9843
vt -3.28986 50.9843
vt -3.28986 51.063
vt -3.32069 51.063
f 128/302/17 129/303/18 121/304/18 120/305/17 

v 0.0183322 1.295 -0.351096
vt 2.38031 3.41244
f 68/105/1 53/90/1 136/306/1

v 0.0177109 1.295 -0.350619
vt 2.35585 3.39367
f 136/306/1 53/90/1 137/307/1

v 0.0172342 1.295 -0.349998
vt 2.33708 3.36921
f 137/307/1 53/90/1 138/308/1

v 0.0169345 1.295 -0.349274
vt 2.32528 3.34072
f 138/308/1 53/90/1 139/309/1

v 0.0168322 1.295 -0.348498
vt 2.32126 3.31015
f 139/309/1 53/90/1 140/310/1

v 0.0169345 1.295 -0.347721
vt 2.32528 3.27958
f 53/90/1 141/311/1 140/310/1

v 0.0172342 1.295 -0.346998
vt 2.33708 3.2511
f 53/90/1 142/312/1 141/311/1

v 0.0177109 1.295 -0.346377
vt 2.35585 3.22663
f 53/90/1 143/313/1 142/312/1

v 0.0183322 1.295 -0.3459
vt 2.38031 3.20786
f 53/90/1 144/314/1 143/313/1

f 53/90/1 54/91/1 144/314/1

vt 0.971525 50.9843
vt 1.00236 50.9843
v 0.0190558 1.297 -0.3456
vt 1.00236 51.063
v 0.0183322 1.297 -0.3459
vt 0.971525 51.063
f 144/315/10 54/316/11 145/317/11 146/318/10 

vt 1.97102 50.9843
vt 2.00185 50.9843
v 0.0198322 1.297 -0.345498
vt 2.00185 51.063
vt 1.97102 51.063
f 54/319/11 55/320/12 147/321/12 145/322/11 

vt 2.83514 50.9843
vt 2.86598 50.9843
v 0.0206087 1.297 -0.3456
vt 2.86598 51.063
vt 2.83514 51.063
f 55/323/12 56/324/13 148/325/13 147/326/12 

vt 3.505 50.9843
vt 3.53584 50.9843
v 0.0213322 1.297 -0.3459
vt 3.53584 51.063
vt 3.505 51.063
f 56/327/13 57/328/24 149/329/24 148/330/13 

vt 3.93495 50.9843
vt 3.96579 50.9843
v 0.0219535 1.297 -0.346377
vt 3.96579 51.063
vt 3.93495 51.063
f 57/331/24 58/332/25 150/333/25 149/334/24 

vt 4.09569 50.9843
vt 4.12653 50.9843
v 0.0224303 1.297 -0.346998
vt 4.12653 51.063
vt 4.09569 51.063
f 58/335/25 59/336/26 151/337/26 150/338/25 

vt 3.97627 50.9843
vt 4.0071 50.9843
v 0.02273 1.297 -0.347721
vt 4.0071 51.063
vt 3.97627 51.063
f 59/339/26 60/340/27 152/341/27 151/342/26 

vt 3.58482 50.9843
vt 3.61565 50.9843
v 0.0228322 1.297 -0.348498
vt 3.61565 51.063
vt 3.58482 51.063
f 60/343/27 61/344/6 153/345/6 152/346/27 

vt 2.94801 50.9843
vt 2.97885 50.9843
v 0.02273 1.297 -0.349274
vt 2.97885 51.063
vt 2.94801 51.063
f 61/347/6 62/348/30 154/349/30 153/350/6 

vt 2.10926 50.9843
vt 2.14009 50.9843
v 0.0224303 1.297 -0.349998
vt 2.14009 51.063
vt 2.10926 51.063
f 62/351/30 63/352/31 155/353/31 154/354/30 

vt 1.12571 50.9843
vt 1.15654 50.9843
v 0.0219535 1.297 -0.350619
vt 1.15654 51.063
vt 1.12571 51.063
f 63/355/31 64/356/32 156/357/32 155/358/31 

vt 0.0643957 50.9843
vt 0.0952287 50.9843
v 0.0213322 1.297 -0.351096
vt 0.0952287 51.063
vt 0.0643957 51.063
f 64/359/32 65/360/33 157/361/33 156/362/32 

vt -1.00236 50.9843
vt -0.971525 50.9843
v 0.0206087 1.297 -0.351396
vt -0.971525 51.063
vt -1.00236 51.063
f 65/363/33 66/364/14 158/365/14 157/366/33 

vt -2.00185 50.9843
vt -1.97102 50.9843
v 0.0198322 1.297 -0.351498
vt -1.97102 51.063
vt -2.00185 51.063
f 66/367/14 67/368/15 159/369/15 158/370/14 

vt -2.86598 50.9843
vt -2.83514 50.9843
v 0.0190558 1.297 -0.351396
vt -2.83514 51.063
vt -2.86598 51.063
f 67/371/15 68/372/16 160/373/16 159/374/15 

vt -3.53584 50.9843
vt -3.505 50.9843
v 0.0183322 1.297 -0.351096
vt -3.505 51.063
vt -3.53584 51.063
f 68/375/16 136/376/17 161/377/17 160/378/16 

vt -3.96579 50.9843
vt -3.93495 50.9843
v 0.0177109 1.297 -0.350619
vt -3.93495 51.063
vt -3.96579 51.063
f 136/379/17 137/380/18 162/381/18 161/382/17 

vt -4.12653 50.9843
vt -4.09569 50.9843
v 0.0172342 1.297 -0.349998
vt -4.09569 51.063
vt -4.12653 51.063
f 137/383/18 138/384/19 163/385/19 162/386/18 

vt -4.0071 50.9843
vt -3.97627 50.9843
v 0.0169345 1.297 -0.349274
vt -3.97627 51.063
vt -4.0071 51.063
f 138/387/19 139/388/20 164/389/20 163/390/19 

vt -3.61565 50.9843
vt -3.58482 50.9843
v 0.0168322 1.297 -0.348498
vt -3.58482 51.063
vt -3.61565 51.063
f 139/391/20 140/392/21 165/393/21 164/394/20 

vt -2.97885 50.9843
vt -2.94801 50.9843
v 0.0169345 1.297 -0.347721
vt -2.94801 51.063
vt -2.97885 51.063
f 140/395/21 141/396/22 166/397/22 165/398/21 

vt -2.14009 50.9843
vt -2.10926 50.9843
v 0.0172342 1.297 -0.346998
vt -2.10926 51.063
vt -2.14009 51.063
f 141/399/22 142/400/23 167/401/23 166/402/22 

vt -1.15654 50.9843
vt -1.12571 50.9843
v 0.0177109 1.297 -0.346377
vt -1.12571 51.063
vt -1.15654 51.063
f 142/403/23 143/404/9 168/405/9 167/406/23 

vt -0.0952287 50.9843
vt -0.0643957 50.9843
vt -0.0643957 51.063
vt -0.0952287 51.063
f 143/407/9 144/408/10 146/409/10 168/410/9 

f 158/103/1 159/104/1 160/105/1 161/306/1 162/307/1 163/308/1 164/309/1 165/310/1 166/311/1 167/312/1 168/313/1 146/314/1 145/91/1 147/92/1 148/93/1 149/94/1 150/95/1 151/96/1 152/97/1 153/98/1 154/99/1 155/100/1 156/101/1 157/102/1 

vt 0 45.6061
vn 0 -0.139173 0.990268
v -0.0189003 1.62562 -0.25275
vt 0.914464 63.442
vt 0 64.0283
f 18/411/36 169/412/36 27/413/36

v 0.0170997 1.62562 -0.25275
vt 2.33179 63.442
f 169/412/36 18/411/36 170/414/36

vt 3.25249 64.0283
f 18/411/36 13/415/36 170/414/36

vt 3.25249 45.6061
f 13/415/36 18/411/36 9/416/36

v 0.0170997 1.63058 -0.252054
vt 2.33179 63.6389
f 170/414/36 13/415/36 171/417/36

v -0.0189003 1.63058 -0.252054
vt 0.914464 63.6389
f 171/417/36 13/415/36 172/418/36

f 27/413/36 172/418/36 13/415/36

f 27/413/36 169/412/36 172/418/36

v -0.0189003 1.63062 -0.185056
vt 3.12459 64.1978
vn -1 -5.60812e-16 -1.25195e-16
vt 0.486848 64.1959
vt 0.459452 64.0009
v -0.0189003 1.62562 -0.185056
vt 3.12459 64.0009
f 173/419/37 172/420/37 169/421/37 174/422/37 

vt 0.914464 -3.17121
vn 1.51909e-20 1 -0.000726278
v 0.0170997 1.63062 -0.185056
vt 2.33179 -3.17121
vt 2.33179 -0.533472
vt 0.914464 -0.533472
f 173/423/38 175/424/38 171/425/38 172/426/38 

vt 0.914464 64.0009
vn 3.23979e-31 -1.80478e-13 1
v 0.0170997 1.62562 -0.185056
vt 2.33179 64.0009
vt 2.33179 64.1978
vt 0.914464 64.1978
f 174/427/39 176/428/39 175/429/39 173/430/39 

v -0.018287 1.62562 -0.180397
vt -0.938611 -3.30801
vn 0 -1 -0
vt -0.914464 -3.12459
vt -2.33179 -3.12459
v 0.0164864 1.62562 -0.180397
vt -2.30764 -3.30801
v 0.0146882 1.62562 -0.176056
vt -2.23684 -3.47892
v 0.0118276 1.62562 -0.172328
vt -2.12422 -3.62569
v 0.00809971 1.62562 -0.169467
vt -1.97746 -3.73831
v 0.00375845 1.62562 -0.167669
vt -1.80654 -3.8091
v -0.000900292 1.62562 -0.167056
vt -1.62313 -3.83325
v -0.00555903 1.62562 -0.167669
vt -1.43971 -3.8091
v -0.00990029 1.62562 -0.169467
vt -1.26879 -3.73831
v -0.0136282 1.62562 -0.172328
vt -1.12203 -3.62569
v -0.0164887 1.62562 -0.176056
vt -1.00941 -3.47892
f 177/431/40 174/432/40 176/433/40 178/434/40 179/435/40 180/436/40 181/437/40 182/438/40 183/439/40 184/440/40 185/441/40 186/442/40 187/443/40 

vt 3.21722 64.0009
vn -0.991445 -1.23343e-14 0.130526
vt 3.40222 64.0009
vn -0.965926 -6.22036e-15 0.258819
v -0.018287 1.63062 -0.180397
vt 3.40222 64.1978
vt 3.21722 64.1978
f 174/444/41 177/445/42 188/446/42 173/447/41 

vt 3.41539 64.0009
vt 3.60039 64.0009
v -0.0164887 1.63062 -0.176056
vt 3.60039 64.1978
vt 3.41539 64.1978
f 177/448/42 187/449/23 189/450/23 188/451/42 

vt 3.3745 64.0009
vt 3.5595 64.0009
v -0.0136282 1.63062 -0.172328
vt 3.5595 64.1978
vt 3.3745 64.1978
f 187/452/23 186/453/9 190/454/9 189/455/23 

vt 3.09734 64.0009
vt 3.28234 64.0009
v -0.00990029 1.63062 -0.169467
vt 3.28234 64.1978
vt 3.09734 64.1978
f 186/456/9 185/457/10 191/458/10 190/459/9 

vt 2.6028 64.0009
vt 2.7878 64.0009
v -0.00555903 1.63062 -0.167669
vt 2.7878 64.1978
vt 2.6028 64.1978
f 185/460/10 184/461/11 192/462/11 191/463/10 

vt 1.92458 64.0009
vt 2.10958 64.0009
vn -1.39975e-17 0 1
v -0.000900292 1.63062 -0.167056
vt 2.10958 64.1978
vt 1.92458 64.1978
f 184/464/11 183/465/43 193/466/43 192/467/11 

vt 1.1089 64.0009
vt 1.2939 64.0009
v 0.00375845 1.63062 -0.167669
vt 1.2939 64.1978
vt 1.1089 64.1978
f 183/468/43 182/469/13 194/470/13 193/471/43 

vt 0.211345 64.0009
vt 0.396343 64.0009
v 0.00809971 1.63062 -0.169467
vt 0.396343 64.1978
vt 0.211345 64.1978
f 182/472/13 181/473/24 195/474/24 194/475/13 

vt -0.706917 64.0009
vt -0.521919 64.0009
v 0.0118276 1.63062 -0.172328
vt -0.521919 64.1978
vt -0.706917 64.1978
f 181/476/24 180/477/25 196/478/25 195/479/24 

vt -1.58331 64.0009
vt -1.39831 64.0009
v 0.0146882 1.63062 -0.176056
vt -1.39831 64.1978
vt -1.58331 64.1978
f 180/480/25 179/481/26 197/482/26 196/483/25 

vt -2.3581 64.0009
vt -2.1731 64.0009
vn 0.965926 -5.94071e-15 0.258819
v 0.0164864 1.63062 -0.180397
vt -2.1731 64.1978
vt -2.3581 64.1978
f 179/484/26 178/485/44 198/486/44 197/487/26 

vt -2.9785 64.0009
vt -2.7935 64.0009
vn 0.991445 -1.17798e-14 0.130526
vt -2.7935 64.1978
vt -2.9785 64.1978
f 178/488/44 176/489/45 175/490/45 198/491/44 

vt -3.12459 64.1978
vt -3.12459 64.0009
vt -0.459452 64.0009
vt -0.486848 64.1959
f 175/492/6 176/493/6 170/494/6 171/495/6 

vn -3.62692e-30 -1 5.86534e-14
vt -0.914464 -0.459452
vt -2.33179 -0.459452
f 174/432/46 169/496/46 170/497/46 176/433/46 

vt 0.914464 -3.12459
vn -2.66433e-30 1 -4.50102e-14
vt 0.938611 -3.30801
vt 1.00941 -3.47892
vt 1.12203 -3.62569
vt 1.26879 -3.73831
vt 1.43971 -3.8091
vt 1.62313 -3.83325
vt 1.80654 -3.8091
vt 1.97746 -3.73831
vt 2.12422 -3.62569
vt 2.23684 -3.47892
vt 2.30764 -3.30801
vt 2.33179 -3.12459
f 173/498/47 188/499/47 189/500/47 190/501/47 191/502/47 192/503/47 193/504/47 194/505/47 195/506/47 196/507/47 197/508/47 198/509/47 175/510/47 

vt 3.25249 8.45223
vn 0 0.990268 0.139173
vt 3.25249 10.0617
vt 0 10.0617
vt 0 8.45223
f 13/511/48 7/512/48 8/513/48 27/514/48 

vt -4.03989 0
vt 0.787402 0
vt 0.787402 6.61417
vt -4.03989 6.61417
f 25/515/8 22/516/8 21/517/8 24/518/8 

vt 0.787402 4.41968
vt -4.03989 4.41968
vt -4.03989 2.02283
vt 0.787402 2.02283
f 22/519/40 25/520/40 23/521/40 20/522/40 

v 0.16144 -1.79827e-18 -0
vt -8.01448 -10.4102
vn 3.29266e-16 -1 -8.34467e-17
v -0.16146 -9.36175e-17 -0
vt 4.69812 -10.4102
v -0.162765 -9.76076e-17 -8.55514e-05
vt 4.74951 -10.4069
v -0.164048 -1.01514e-16 -0.000340742
vt 4.80002 -10.3968
v -0.165287 -1.05269e-16 -0.000761205
vt 4.84879 -10.3803
v -0.16646 -1.08809e-16 -0.00133975
vt 4.89497 -10.3575
v -0.167548 -1.12073e-16 -0.00206647
vt 4.93779 -10.3289
v -0.168531 -1.15006e-16 -0.00292893
vt 4.97651 -10.2949
v -0.169394 -1.17557e-16 -0.00391239
vt 5.01047 -10.2562
v -0.17012 -1.19683e-16 -0.005
vt 5.03908 -10.2134
v -0.170699 -1.21347e-16 -0.00617317
vt 5.06186 -10.1672
v -0.171119 -1.2252e-16 -0.00741181
vt 5.07841 -10.1184
v -0.171374 -1.23184e-16 -0.00869474
vt 5.08846 -10.0679
v -0.17146 -1.23325e-16 -0.01
vt 5.09182 -10.0165
v -0.17146 -1.23325e-16 -0.3158
vt 5.09182 2.02283
v 0.17144 0 -0.3158
vt -8.40818 2.02283
v 0.17144 -1.79827e-18 -0.01
vt -8.40818 -10.0165
v 0.171354 -1.79827e-18 -0.00869474
vt -8.40481 -10.0679
v 0.171099 -1.79827e-18 -0.00741181
vt -8.39476 -10.1184
v 0.170679 -1.79827e-18 -0.00617317
vt -8.37821 -10.1672
v 0.1701 -1.79827e-18 -0.005
vt -8.35543 -10.2134
v 0.169374 -1.79827e-18 -0.00391239
vt -8.32682 -10.2562
v 0.168511 -1.79827e-18 -0.00292893
vt -8.29286 -10.2949
v 0.167528 -1.79827e-18 -0.00206647
vt -8.25415 -10.3289
v 0.16644 -1.79827e-18 -0.00133975
vt -8.21133 -10.3575
v 0.165267 -1.79827e-18 -0.000761205
vt -8.16514 -10.3803
v 0.164028 -1.79827e-18 -0.000340742
vt -8.11637 -10.3968
v 0.162745 -1.79827e-18 -8.55514e-05
vt -8.06586 -10.4069
f 199/523/49 200/524/49 201/525/49 202/526/49 203/527/49 204/528/49 205/529/49 206/530/49 207/531/49 208/532/49 209/533/49 210/534/49 211/535/49 212/536/49 213/537/49 20/522/49 23/521/49 214/538/49 215/539/49 216/540/49 217/541/49 218/542/49 219/543/49 220/544/49 221/545/49 222/546/49 223/547/49 224/548/49 225/549/49 226/550/49 

vt 8.01448 -8.42668e-16
vn 2.00937e-17 7.41453e-17 1
v 0.16144 0.01 -0
vt 8.01448 0.393701
v -0.16146 0.01 -0
vt -4.69812 0.393701
vt -4.69812 -4.4576e-15
f 199/551/50 227/552/50 228/553/50 200/554/50 

vt 7.31645 -1.79975e-15
vn 0.0654031 1.58443e-16 0.997859
vt 7.36795 -1.79975e-15
vn 0.130526 1.73062e-16 0.991445
v 0.162745 0.01 -8.55514e-05
vt 7.36795 0.393701
vt 7.31645 0.393701
f 199/555/51 226/556/52 229/557/52 227/558/51 

vt 5.8806 -2.27303e-15
vt 5.9321 -2.27303e-15
vn 0.258819 1.94709e-16 0.965926
v 0.164028 0.01 -0.000340742
vt 5.9321 0.393701
vt 5.8806 0.393701
f 226/559/52 225/560/53 230/561/53 229/562/52 

vt 4.34369 -2.58207e-15
vt 4.39519 -2.58207e-15
vn 0.382683 2.07716e-16 0.92388
v 0.165267 0.01 -0.000761205
vt 4.39519 0.393701
vt 4.34369 0.393701
f 225/563/53 224/564/54 231/565/54 230/566/53 

vt 2.73201 -2.82169e-15
vt 2.78351 -2.82169e-15
vn 0.5 2.17169e-16 0.866025
v 0.16644 0.01 -0.00133975
vt 2.78351 0.393701
vt 2.73201 0.393701
f 224/567/54 223/568/55 232/569/55 231/570/54 

vt 1.07315 -2.97578e-15
vt 1.12465 -2.97578e-15
vn 0.608761 2.22907e-16 0.793353
v 0.167528 0.01 -0.00206647
vt 1.12465 0.393701
vt 1.07315 0.393701
f 223/571/55 222/572/56 233/573/56 232/574/55 

vt -0.604511 -3.034e-15
vt -0.553013 -3.034e-15
vn 0.707107 2.2483e-16 0.707107
v 0.168511 0.01 -0.00292893
vt -0.553013 0.393701
vt -0.604511 0.393701
f 222/575/56 221/576/57 234/577/57 233/578/56 

vt -2.27227 -2.99245e-15
vt -2.22077 -2.99245e-15
vn 0.793353 2.22907e-16 0.608761
v 0.169374 0.01 -0.00391239
vt -2.22077 0.393701
vt -2.27227 0.393701
f 221/579/57 220/580/58 235/581/58 234/582/57 

vt -3.90159 -2.85397e-15
vt -3.8501 -2.85397e-15
vn 0.866025 2.17169e-16 0.5
v 0.1701 0.01 -0.005
vt -3.8501 0.393701
vt -3.90159 0.393701
f 220/583/58 219/584/59 236/585/59 235/586/58 

vt -5.4646 -2.62793e-15
vt -5.4131 -2.62793e-15
vn 0.92388 2.07716e-16 0.382683
v 0.170679 0.01 -0.00617317
vt -5.4131 0.393701
vt -5.4646 0.393701
f 219/587/59 218/588/60 237/589/60 236/590/59 

vt -6.93454 -2.32956e-15
vt -6.88305 -2.32956e-15
vn 0.965926 1.94709e-16 0.258819
v 0.171099 0.01 -0.00741181
vt -6.88305 0.393701
vt -6.93454 0.393701
f 218/591/60 217/592/61 238/593/61 237/594/60 

vt -8.28628 -1.97898e-15
vt -8.23478 -1.97898e-15
vn 0.991445 9.84298e-17 0.130526
v 0.171354 0.01 -0.00869474
vt -8.23478 0.393701
vt -8.28628 0.393701
f 217/595/61 216/596/62 239/597/62 238/598/61 

vt -9.49667 -1.56716e-16
vt -9.44517 -1.56716e-16
vn 0.997859 9.49868e-18 0.0654031
v 0.17144 0.01 -0.01
vt -9.44517 0.393701
vt -9.49667 0.393701
f 216/599/62 215/600/63 240/601/63 239/602/62 

v 0.17144 0.01 -0.3158
vt -10.0165 0.393701
vt -10.0165 -7.07981e-17
f 241/34/6 240/603/6 215/604/6 214/35/6 

vn -2.91439e-16 1 1.07733e-16
v -0.17146 0.01 -0.3158
vt -5.09182 2.02283
v -0.17146 0.01 -0.01
vt -5.09182 -10.0165
v -0.171374 0.01 -0.00869474
vt -5.08846 -10.0679
v -0.171119 0.01 -0.00741181
vt -5.07841 -10.1184
v -0.170699 0.01 -0.00617317
vt -5.06186 -10.1672
v -0.17012 0.01 -0.005
vt -5.03908 -10.2134
v -0.169394 0.01 -0.00391239
vt -5.01047 -10.2562
v -0.168531 0.01 -0.00292893
vt -4.97651 -10.2949
v -0.167548 0.01 -0.00206647
vt -4.93779 -10.3289
v -0.16646 0.01 -0.00133975
vt -4.89497 -10.3575
v -0.165287 0.01 -0.000761205
vt -4.84879 -10.3803
v -0.164048 0.01 -0.000340742
vt -4.80002 -10.3968
v -0.162765 0.01 -8.55514e-05
vt -4.74951 -10.4069
vt -4.69812 -10.4102
vt 8.01448 -10.4102
vt 8.06586 -10.4069
vt 8.11637 -10.3968
vt 8.16514 -10.3803
vt 8.21133 -10.3575
vt 8.25415 -10.3289
vt 8.29286 -10.2949
vt 8.32682 -10.2562
vt 8.35543 -10.2134
vt 8.37821 -10.1672
vt 8.39476 -10.1184
vt 8.40481 -10.0679
vt 8.40818 -10.0165
vt 8.40818 2.02283
f 16/41/64 15/44/64 242/605/64 243/606/64 244/607/64 245/608/64 246/609/64 247/610/64 248/611/64 249/612/64 250/613/64 251/614/64 252/615/64 253/616/64 254/617/64 228/618/64 227/619/64 229/620/64 230/621/64 231/622/64 232/623/64 233/624/64 234/625/64 235/626/64 236/627/64 237/628/64 238/629/64 239/630/64 240/631/64 241/632/64 

vt 0.787402 0.393701
vt 5.09182 -4.85533e-15
vt 5.09182 0.393701
f 15/633/8 20/516/8 213/634/8 242/635/8 

vt 10.0165 -4.85533e-15
vt 10.0165 0.393701
vt -2.02283 -4.85533e-15
f 212/636/21 243/637/21 242/27/21 213/638/21 

vt 9.66207 -4.85514e-15
vn -0.997859 -3.39887e-20 0.0654031
vt 9.71357 -4.84956e-15
vn -0.991445 -1.46629e-15 0.130526
vt 9.71357 0.393701
vt 9.66207 0.393701
f 212/639/65 211/640/66 244/641/66 243/642/65 

vt 8.88177 1.5502e-14
vt 8.93327 1.55281e-14
vn -0.965926 -2.88265e-15 0.258819
vt 8.93327 0.393701
vt 8.88177 0.393701
f 211/643/66 210/644/67 245/645/67 244/646/66 

vt 7.94905 1.79633e-14
vt 8.00055 1.80095e-14
vn -0.92388 -2.75861e-15 0.382683
vt 8.00055 0.393701
vt 7.94905 0.393701
f 210/647/67 209/648/68 246/649/68 245/650/67 

vt 6.87989 1.94294e-14
vt 6.93138 1.94949e-14
vn -0.866025 -2.58738e-15 0.5
vt 6.93138 0.393701
vt 6.87989 0.393701
f 209/651/68 208/652/69 247/653/69 246/654/68 

vt 5.69256 1.97998e-14
vt 5.74406 1.98835e-14
vn -0.793353 -2.37187e-15 0.608761
vt 5.74406 0.393701
vt 5.69256 0.393701
f 208/655/69 207/656/70 248/657/70 247/658/69 

vt 4.4074 1.90487e-14
vt 4.45889 1.91492e-14
vn -0.707107 -2.11578e-15 0.707107
vt 4.45889 0.393701
vt 4.4074 0.393701
f 207/659/70 206/660/71 249/661/71 248/662/70 

vt 3.04638 1.72269e-14
vt 3.09788 1.73423e-14
vn -0.608761 -1.82349e-15 0.793353
vt 3.09788 0.393701
vt 3.04638 0.393701
f 206/663/71 205/664/72 250/665/72 249/666/71 

vt 1.63279 1.4458e-14
vt 1.68429 1.45865e-14
vn -0.5 -1.49999e-15 0.866025
vt 1.68429 0.393701
vt 1.63279 0.393701
f 205/667/72 204/668/73 251/669/73 250/670/72 

vt 0.190834 1.09305e-14
vt 0.242332 1.10699e-14
vn -0.382683 -1.15084e-15 0.92388
vt 0.242332 0.393701
vt 0.190834 0.393701
f 204/671/73 203/672/74 252/673/74 251/674/73 

vt -1.25483 6.88464e-15
vt -1.20333 7.03249e-15
vn -0.258819 -7.81987e-16 0.965926
vt -1.20333 0.393701
vt -1.25483 0.393701
f 203/675/74 202/676/75 253/677/75 252/678/74 

vt -2.67947 2.59598e-15
vt -2.62797 2.74976e-15
vn -0.130526 -3.02224e-16 0.991445
vt -2.62797 0.393701
vt -2.67947 0.393701
f 202/679/75 201/680/76 254/681/76 253/682/75 

vt -4.0587 -3.72501e-15
vt -4.0072 -3.56792e-15
vn -0.0654031 -1.10148e-17 0.997859
vt -4.0072 0.393701
vt -4.0587 0.393701
f 201/683/76 200/684/77 228/685/77 254/686/76 

vt -4.03989 0.393701
vt -8.40818 0.393701
vt -8.40818 0
f 23/515/8 16/687/8 241/688/8 214/689/8 

