# Alias OBJ Model File
# Exported from SketchUp, (c) 2000-2012 Trimble Navigation Limited
# File units = meters

mtllib column_2.mtl

g Mesh1 Group2 Group1 Model

usemtl Aluminum
v -0.0421277 1.295 -0.35668
vt 0 3.63228
vn 0 1 -0
v -0.0421277 1.295 -0.340498
vt 0 2.99519
v 0.0404855 1.295 -0.340498
vt 3.25249 2.99519
v 0.0404855 1.295 -0.35668
vt 3.25249 3.63228
f 1/1/1 2/2/1 3/3/1 4/4/1 

vt -3.63228 50.9843
vn -1 1.44219e-17 -2.7817e-16
v -0.0421277 0.168 -0.35668
vt -3.63228 6.61417
v -0.0421277 0.168 -0.3158
vt -2.02283 6.61417
v -0.0421277 1.177 -0.3158
vt -2.02283 46.3386
v -0.0421277 1.64037 -0.250678
vt 0.541042 64.5815
v -0.0421277 1.64606 -0.29116
vt -1.05274 64.8055
vt -2.99519 50.9843
f 1/5/2 5/6/2 6/7/2 7/8/2 8/9/2 9/10/2 2/11/2 

vt -3.25249 50.9843
vn 0 0 -1
v 0.0404855 0.168 -0.35668
vt -3.25249 6.61417
vt 0 6.61417
vt 0 50.9843
f 4/12/3 10/13/3 5/14/3 1/15/3 

v 0.0404855 1.177 -0.3158
vt 2.02283 46.3386
vn 1 -7.11656e-18 6.33272e-17
v 0.0404855 0.168 -0.3158
vt 2.02283 6.61417
vt 3.63228 6.61417
vt 3.63228 50.9843
vt 2.99519 50.9843
v 0.0404855 1.64606 -0.29116
vt 1.05274 64.8055
v 0.0404855 1.64037 -0.250678
vt -0.541042 64.5815
f 11/16/4 12/17/4 10/18/4 4/19/4 3/20/4 13/21/4 14/22/4 

vt 0 46.3386
vn 0 0 1
vt 3.25249 6.61417
vt 3.25249 46.3386
f 7/23/5 6/14/5 12/24/5 11/25/5 

vt 0 2.02283
v 0.0604855 0.168 -0.2988
vt 4.03989 1.35354
vt 3.25249 2.02283
f 6/26/1 15/27/1 12/28/1

v -0.0621277 0.168 -0.2988
vt -0.787402 1.35354
f 6/26/1 16/29/1 15/27/1

v -0.0621277 0.168 -0.37668
vt -0.787402 4.41968
f 16/29/1 6/26/1 17/30/1

f 5/1/1 17/30/1 6/26/1

v 0.0604855 0.168 -0.37668
vt 4.03989 4.41968
f 17/30/1 5/1/1 18/31/1

f 18/31/1 5/1/1 10/4/1

f 6/26/1 12/28/1 10/4/1 5/1/1 

f 12/28/1 15/27/1 10/4/1

f 18/31/1 10/4/1 15/27/1

vt 4.41968 6.61417
vn 1 0 -0
vt 1.35354 6.61417
v 0.0604855 0 -0.2988
vt 1.35354 0
v 0.0604855 0 -0.37668
vt 4.41968 0
f 18/32/6 15/33/6 19/34/6 20/35/6 

vt 4.03989 0
vt 4.03989 6.61417
vt -0.787402 6.61417
v -0.0621277 0 -0.2988
vt -0.787402 0
f 19/36/5 15/37/5 16/38/5 21/39/5 

v -0.0621277 0 -0.37668
vt -4.41968 0
vn -1 0 -0
vt -1.35354 0
vt -1.35354 6.61417
vt -4.41968 6.61417
f 22/40/7 21/41/7 16/42/7 17/43/7 

vt 0.787402 4.41968
vn 0 -1 -0
vt -4.03989 4.41968
vt -4.03989 1.35354
vt 0.787402 1.35354
f 22/44/8 20/45/8 19/46/8 21/47/8 

vt -4.03989 0
vt 0.787402 0
vt 0.787402 6.61417
vt -4.03989 6.61417
f 20/48/3 22/49/3 17/50/3 18/51/3 

vt 3.25249 64.0283
vn 0 -0.139173 0.990268
vt 0 45.6061
vt 3.25249 45.6061
f 14/52/9 7/53/9 11/54/9

v 0.0170997 1.62562 -0.25275
vt 2.33179 63.442
f 7/53/9 14/52/9 23/55/9

v 0.0170997 1.63058 -0.252054
vt 2.33179 63.6389
f 23/55/9 14/52/9 24/56/9

v -0.0189003 1.63058 -0.252054
vt 0.914464 63.6389
f 24/56/9 14/52/9 25/57/9

vt 0 64.0283
f 8/58/9 25/57/9 14/52/9

v -0.0189003 1.62562 -0.25275
vt 0.914464 63.442
f 8/58/9 26/59/9 25/57/9

f 7/53/9 26/59/9 8/58/9

f 26/59/9 7/53/9 23/55/9

v -0.0189003 1.62562 -0.185056
vt -0.914464 -3.12459
vn -3.62692e-30 -1 5.86534e-14
vt -0.914464 -0.459452
vt -2.33179 -0.459452
v 0.0170997 1.62562 -0.185056
vt -2.33179 -3.12459
f 27/60/10 26/61/10 23/62/10 28/63/10 

v -0.0189003 1.63062 -0.185056
vt 3.12459 64.1978
vn -1 -5.60812e-16 -1.25195e-16
vt 0.486848 64.1959
vt 0.459452 64.0009
vt 3.12459 64.0009
f 29/64/11 25/65/11 26/66/11 27/67/11 

vt 0.914464 -3.17121
vn 1.51909e-20 1 -0.000726278
v 0.0170997 1.63062 -0.185056
vt 2.33179 -3.17121
vt 2.33179 -0.533472
vt 0.914464 -0.533472
f 29/68/12 30/69/12 24/70/12 25/71/12 

vt 0.914464 64.0009
vn 3.23979e-31 -1.80478e-13 1
vt 2.33179 64.0009
vt 2.33179 64.1978
vt 0.914464 64.1978
f 27/72/13 28/73/13 30/74/13 29/75/13 

v -0.018287 1.62562 -0.180397
vt -0.938611 -3.30801
v 0.0164864 1.62562 -0.180397
vt -2.30764 -3.30801
v 0.0146882 1.62562 -0.176056
vt -2.23684 -3.47892
v 0.0118276 1.62562 -0.172328
vt -2.12422 -3.62569
v 0.00809971 1.62562 -0.169467
vt -1.97746 -3.73831
v 0.00375845 1.62562 -0.167669
vt -1.80654 -3.8091
v -0.000900292 1.62562 -0.167056
vt -1.62313 -3.83325
v -0.00555903 1.62562 -0.167669
vt -1.43971 -3.8091
v -0.00990029 1.62562 -0.169467
vt -1.26879 -3.73831
v -0.0136282 1.62562 -0.172328
vt -1.12203 -3.62569
v -0.0164887 1.62562 -0.176056
vt -1.00941 -3.47892
f 31/76/8 27/60/8 28/63/8 32/77/8 33/78/8 34/79/8 35/80/8 36/81/8 37/82/8 38/83/8 39/84/8 40/85/8 41/86/8 

vt 3.21722 64.0009
vn -0.991445 -1.23343e-14 0.130526
vt 3.40222 64.0009
vn -0.965926 -6.22036e-15 0.258819
v -0.018287 1.63062 -0.180397
vt 3.40222 64.1978
vt 3.21722 64.1978
f 27/87/14 31/88/15 42/89/15 29/90/14 

vt 3.41539 64.0009
vt 3.60039 64.0009
vn -0.866025 0 0.5
v -0.0164887 1.63062 -0.176056
vt 3.60039 64.1978
vt 3.41539 64.1978
f 31/91/15 41/92/16 43/93/16 42/94/15 

vt 3.3745 64.0009
vt 3.5595 64.0009
vn -0.707107 0 0.707107
v -0.0136282 1.63062 -0.172328
vt 3.5595 64.1978
vt 3.3745 64.1978
f 41/95/16 40/96/17 44/97/17 43/98/16 

vt 3.09734 64.0009
vt 3.28234 64.0009
vn -0.5 0 0.866025
v -0.00990029 1.63062 -0.169467
vt 3.28234 64.1978
vt 3.09734 64.1978
f 40/99/17 39/100/18 45/101/18 44/102/17 

vt 2.6028 64.0009
vt 2.7878 64.0009
vn -0.258819 0 0.965926
v -0.00555903 1.63062 -0.167669
vt 2.7878 64.1978
vt 2.6028 64.1978
f 39/103/18 38/104/19 46/105/19 45/106/18 

vt 1.92458 64.0009
vt 2.10958 64.0009
vn -1.39975e-17 0 1
v -0.000900292 1.63062 -0.167056
vt 2.10958 64.1978
vt 1.92458 64.1978
f 38/107/19 37/108/20 47/109/20 46/110/19 

vt 1.1089 64.0009
vt 1.2939 64.0009
vn 0.258819 0 0.965926
v 0.00375845 1.63062 -0.167669
vt 1.2939 64.1978
vt 1.1089 64.1978
f 37/111/20 36/112/21 48/113/21 47/114/20 

vt 0.211345 64.0009
vt 0.396343 64.0009
vn 0.5 0 0.866025
v 0.00809971 1.63062 -0.169467
vt 0.396343 64.1978
vt 0.211345 64.1978
f 36/115/21 35/116/22 49/117/22 48/118/21 

vt -0.706917 64.0009
vt -0.521919 64.0009
vn 0.707107 0 0.707107
v 0.0118276 1.63062 -0.172328
vt -0.521919 64.1978
vt -0.706917 64.1978
f 35/119/22 34/120/23 50/121/23 49/122/22 

vt -1.58331 64.0009
vt -1.39831 64.0009
vn 0.866025 0 0.5
v 0.0146882 1.63062 -0.176056
vt -1.39831 64.1978
vt -1.58331 64.1978
f 34/123/23 33/124/24 51/125/24 50/126/23 

vt -2.3581 64.0009
vt -2.1731 64.0009
vn 0.965926 -5.94071e-15 0.258819
v 0.0164864 1.63062 -0.180397
vt -2.1731 64.1978
vt -2.3581 64.1978
f 33/127/24 32/128/25 52/129/25 51/130/24 

vt -2.9785 64.0009
vt -2.7935 64.0009
vn 0.991445 -1.17798e-14 0.130526
vt -2.7935 64.1978
vt -2.9785 64.1978
f 32/131/25 28/132/26 30/133/26 52/134/25 

vt -3.12459 64.1978
vt -3.12459 64.0009
vt -0.459452 64.0009
vt -0.486848 64.1959
f 30/135/6 28/136/6 23/137/6 24/138/6 

vt 0.914464 -3.12459
vn -2.66433e-30 1 -4.50102e-14
vt 0.938611 -3.30801
vt 1.00941 -3.47892
vt 1.12203 -3.62569
vt 1.26879 -3.73831
vt 1.43971 -3.8091
vt 1.62313 -3.83325
vt 1.80654 -3.8091
vt 1.97746 -3.73831
vt 2.12422 -3.62569
vt 2.23684 -3.47892
vt 2.30764 -3.30801
vt 2.33179 -3.12459
f 29/139/27 42/140/27 43/141/27 44/142/27 45/143/27 46/144/27 47/145/27 48/146/27 49/147/27 50/148/27 51/149/27 52/150/27 30/151/27 

vt 3.25249 8.45223
vn 0 0.990268 0.139173
vt 3.25249 10.0617
vt 0 10.0617
vt 0 8.45223
f 14/152/28 13/153/28 9/154/28 8/155/28 

vt -3.25249 64.0283
vn 6.89119e-18 0.139173 -0.990268
vt -3.25249 50.0712
vt 2.08433e-17 50.0712
vt 7.32596e-18 64.0283
f 13/156/29 3/157/29 2/158/29 9/159/29 

