# Alias OBJ Model File
# Exported from SketchUp, (c) 2000-2012 Trimble Navigation Limited
# File units = meters

mtllib speaker_grill.mtl

g Mesh1 M_db308871_89ff_4125_bce9_57d4500664c5_1_I20 M_db308871_89ff_4125_bce9_57d4500664c5_1_I20_TR M_db308871_89ff_4125_bce9_57d4500664c5_1_I20_TR_rotY Model

usemtl Meyer_Sound_UP2d4slim_UltraCompact_Installation_Loudspeaker_meyersound2dup2d4slim_Plywood_2d_Meyer_Sound_2d_Black
v -0.0554172 1.56279 -0.104955
vt -7.435 1.71443
vn -0.999928 -6.34378e-07 0.0120064
v -0.0560768 1.17192 -0.159905
vt 8.105 1.71443
v -0.055755 1.16815 -0.133106
vt 8.105 2.78
f 1/1/1 2/2/1 3/3/1

vt 2.145 -8.105
vn -0.0118896 0.139225 -0.990189
vt 2.145 7.435
v -0.0520385 1.56279 -0.104995
vt 2.01197 7.435
f 2/4/2 1/5/2 4/6/2

v -0.0517504 1.55941 -0.080998
vt 2.01197 2.66858
vn 0.00167097 0.990261 0.139215
vt 2.01197 1.71443
vt 2.145 1.71443
f 5/7/3 4/8/3 1/9/3

vt 7.435 1.71443
vn 0.999928 6.34378e-07 -0.0120064
vt 7.435 2.66858
v -0.0524099 1.16854 -0.135949
vt -8.105 2.66858
f 4/10/4 5/11/4 6/12/4

v 0.0501083 1.16854 -0.137179
vt -2.02447 -8.105
vt 2.01197 -8.105
f 7/13/2 6/14/2 5/6/2

vt -2.145 2.78
vn -0.00167097 -0.990261 -0.139215
vt -2.01197 2.66858
vt 2.02447 2.66858
f 3/15/5 6/16/5 7/17/5

vt -2.145 1.71443
f 2/18/5 6/16/5 3/15/5

v -0.0526981 1.17192 -0.159946
vt -2.01197 1.71443
f 6/16/5 2/18/5 8/19/5

f 4/6/2 8/14/2 2/4/2

vt -8.105 1.71443
f 6/12/4 8/20/4 4/10/4

v 0.0532032 1.16815 -0.134414
vt 2.145 2.78
f 7/17/5 9/21/5 3/15/5

v 0.0498202 1.17192 -0.161177
vt 2.02447 1.71443
f 9/21/5 7/17/5 10/22/5

vt 8.105 2.66858
v 0.0507679 1.55941 -0.0822289
vt -7.435 2.66858
f 10/2/1 7/23/1 11/24/1

vt -2.02447 7.435
f 5/6/2 11/25/2 7/13/2

vt -2.02447 2.66858
v -0.0550954 1.55902 -0.078155
f 11/26/3 5/7/3 12/21/3

f 1/9/3 12/21/3 5/7/3

vt -7.435 2.78
f 3/3/1 12/27/1 1/1/1

vt -2.145 7.435
vn 0.0118896 -0.139225 0.990189
vt -2.145 -8.105
f 12/28/6 3/29/6 9/4/6

v 0.0538627 1.55902 -0.0794633
f 9/4/6 13/5/6 12/28/6

vt 7.435 2.78
vt -8.105 2.78
v 0.0528814 1.17192 -0.161214
f 13/30/4 9/31/4 14/20/4

f 10/22/5 14/9/5 9/21/5

v 0.0535409 1.56279 -0.106263
f 15/28/2 14/29/2 10/13/2

f 14/20/4 15/10/4 13/30/4

v 0.0504797 1.56279 -0.106226
vt -2.02447 1.71443
f 13/15/3 15/18/3 16/32/3

f 10/13/2 16/25/2 15/28/2

f 11/24/1 16/1/1 10/2/1

f 16/32/3 11/26/3 13/15/3

f 12/21/3 13/15/3 11/26/3

