# Alias OBJ Model File
# Exported from SketchUp, (c) 2000-2012 Trimble Navigation Limited
# File units = meters

mtllib speaker_fixes.mtl

g Mesh1 M_df5c30d5_3af7_43f3_ac21_b92504955950_1_I23 M_df5c30d5_3af7_43f3_ac21_b92504955950_1_I23_TR M_df5c30d5_3af7_43f3_ac21_b92504955950_1_I23_TR_rotY Model

usemtl Meyer_Sound_UP2d4slim_UltraCompact_Installation_Loudspeaker_meyersound2dup2d4slim_Plywood_2d_Meyer_Sound_2d_Black
v -0.00346272 1.16343 -0.195013
vt 8.55861 0.147747
vn -0.645342 -0.105278 0.756605
v -0.00919614 1.16411 -0.199808
vt 8.55861 -0.147747
v -0.009205 1.15887 -0.200546
vt 8.76728 -0.147747
f 1/1/1 2/2/1 3/3/1

vt 0.0557382 0.29019
vn 0.00167097 0.990261 0.139215
v -0.000806678 1.16548 -0.209644
vt -0.0557387 -0.29019
vt 0.279181 0.0968248
f 1/4/2 4/5/2 2/6/2

v 0.00492675 1.1648 -0.204849
vt -0.279181 -0.0968235
f 1/4/2 5/7/2 4/5/2

v 0.00359873 1.16377 -0.197534
vt -0.223443 0.193366
f 6/8/2 5/7/2 1/4/2

vt -8.55861 -0.147747
vn 0.984221 -0.0262612 0.174986
vt -8.55861 0.147748
v 0.00358987 1.15852 -0.198272
vt -8.76728 0.147748
f 5/9/3 6/10/3 7/11/3

v -0.00347157 1.15818 -0.195751
vt -8.76728 0.147747
vn 0.338877 -0.131539 0.93159
vt -8.76728 -0.147748
vt -8.55861 -0.147748
f 8/12/4 7/13/4 6/14/4

vt 0.223443 0.193366
vn -0.00167097 -0.990261 -0.139215
vt -0.0557382 0.29019
v 0.00491789 1.15955 -0.205587
vt 0.279181 -0.0968235
f 7/15/5 8/16/5 9/17/5

v -0.000815534 1.16023 -0.210382
vt 0.0557387 -0.29019
f 8/16/5 10/18/5 9/17/5

vt -0.279181 0.0968248
f 8/16/5 3/19/5 10/18/5

vt 8.76728 0.147747
f 3/3/1 8/20/1 1/1/1

vt -8.55861 0.147747
f 6/14/4 1/21/4 8/12/4

v -0.00787698 1.15989 -0.207862
vt -0.223442 -0.193365
f 10/18/5 3/19/5 11/22/5

vt 8.76728 -0.147746
vn -0.984221 0.0262612 -0.174986
vt 8.76728 0.147748
vt 8.55861 0.147748
f 11/23/6 3/24/6 2/25/6

v -0.00786812 1.16514 -0.207124
vt 8.55861 -0.147746
f 2/25/6 12/26/6 11/23/6

vt 0.223442 -0.193365
f 4/5/2 12/27/2 2/6/2

vn -0.338879 0.131539 -0.931589
vt 8.55861 -0.147748
vt 8.76728 -0.147748
f 12/1/7 4/28/7 10/29/7

vn 0.645343 0.105278 -0.756603
vt -8.76728 -0.147747
f 9/11/8 10/30/8 4/9/8

f 4/9/8 5/10/8 9/11/8

f 7/11/3 9/30/3 5/9/3

f 10/29/7 11/20/7 12/1/7

g Mesh2 M_f1562d50_1960_4b97_9b7e_6b382272c723_1_I24 M_f1562d50_1960_4b97_9b7e_6b382272c723_1_I24_TR M_f1562d50_1960_4b97_9b7e_6b382272c723_1_I24_TR_rotY Model

v -0.0128081 1.16589 -0.196596
vt 8.472 0.0885193
vn -0.916928 -0.0540367 0.395377
v -0.0140746 1.16649 -0.200869
vt 8.472 -0.0885191
vn -0.999736 -0.00153884 0.0229456
v -0.0140783 1.16431 -0.201175
vt 8.55861 -0.0885191
vn -0.987956 -0.019906 0.153452
f 13/31/9 14/32/10 15/33/11

v -0.0100424 1.16539 -0.193086
vt 0.315673 0.351499
vt 0.47073 0.040169
vt 0.422893 0.210622
f 16/34/2 14/35/2 13/36/2

v -0.0135538 1.16717 -0.205661
vt 0.447963 -0.150099
f 17/37/2 14/35/2 16/34/2

vt 8.472 0.0958133
vt 8.472 -0.0958116
vn -0.928534 0.0532196 -0.367414
v -0.0135575 1.16499 -0.205967
vt 8.55861 -0.0958116
vn -0.97074 0.0350358 -0.237564
f 14/38/10 17/39/12 18/40/13

v -0.0111574 1.16557 -0.210161
vt 8.55861 -0.0958125
vn -0.798626 0.085105 -0.595779
vt 8.55861 0.0958126
vt 8.472 0.0958126
f 19/41/14 18/42/13 17/43/12

vt -0.351498 -0.315673
v -0.00581165 1.16287 -0.191016
vt -0.150099 0.447963
vt -0.447963 -0.150099
f 19/44/5 20/45/5 18/46/5

v -0.000972325 1.16279 -0.190502
vt 0.040169 0.470731
f 21/47/5 20/45/5 19/44/5

vt 8.55861 -0.0958104
vn -0.240128 -0.134745 0.961344
vt 8.55861 0.0958146
vn 0.15473 -0.137795 0.9783
v -0.000968649 1.16497 -0.190196
vt 8.472 0.0958146
vn 0.0229356 -0.139217 0.989996
f 20/48/15 21/49/16 22/50/17

v 0.0033461 1.16514 -0.191451
vt -8.472 -0.088518
vn 0.39905 -0.128311 0.907907
vt -8.472 0.0885205
vt -8.55861 0.0885205
f 23/51/18 22/52/17 21/53/16

vt -0.040169 0.470731
vt -0.210622 0.422894
v -0.00329338 1.1683 -0.21385
vt 0.0401681 -0.47073
f 22/54/2 23/55/2 24/56/2

v 0.00154594 1.16822 -0.213335
vt -0.1501 -0.447963
f 25/57/2 24/56/2 23/55/2

vt -8.472 -0.0958112
vn -0.0229372 0.139217 -0.989996
vt -8.472 0.0958136
vn 0.371243 0.128652 -0.91958
v 0.00154227 1.16604 -0.213641
vt -8.55861 0.0958136
vn 0.240126 0.134745 -0.961345
f 24/58/19 25/59/20 26/60/21

v 0.00577667 1.1657 -0.211266
vt -8.55861 0.0958131
vn 0.601824 0.110186 -0.790991
vt -8.55861 -0.0958114
vt -8.472 -0.0958114
f 27/61/22 26/62/21 25/63/20

v 0.00854242 1.1652 -0.207755
vt 0.422894 -0.210622
vt 0.1501 -0.447963
vt 0.315673 -0.351498
f 28/64/5 26/65/5 27/66/5

v 0.00928807 1.16393 -0.19869
vt 0.447963 0.150099
f 29/67/5 26/65/5 28/64/5

v 0.00688806 1.16334 -0.194497
vt 0.351499 0.315673
f 26/65/5 29/67/5 30/68/5

vt -8.55861 0.0958134
vn 0.798627 -0.0851048 0.595778
vt -8.55861 -0.0958115
vn 0.97074 -0.0350357 0.237563
v 0.00929174 1.1661 -0.198384
vt -8.472 -0.0958115
vn 0.928534 -0.0532193 0.367412
f 30/69/23 29/70/24 31/71/25

v 0.00981254 1.16678 -0.203176
vt -8.472 -0.0958128
vn 0.999736 0.00153886 -0.0229458
vt -8.472 0.0958121
vt -8.55861 0.0958121
f 32/72/26 31/73/25 29/74/24

vt -0.470731 -0.0401686
v 0.00854609 1.16738 -0.207449
vt -0.422894 -0.210622
vt -0.447963 0.150099
f 32/75/2 33/76/2 31/77/2

vt -8.472 -0.0885189
vn 0.916928 0.0540366 -0.395377
vt -8.472 0.0885196
v 0.00980886 1.1646 -0.203483
vt -8.55861 0.0885196
vn 0.987956 0.019906 -0.153452
f 33/78/27 32/79/26 34/80/28

vt -8.55861 -0.0958128
f 29/74/24 34/81/28 32/72/26

vt 0.470731 -0.0401686
f 34/82/5 29/67/5 28/64/5

vt -8.55861 -0.0885189
vn 0.859005 0.0698521 -0.507179
f 34/80/28 28/83/29 33/78/27

v 0.00578034 1.16788 -0.210959
vt -8.472 -0.0885192
vn 0.701997 0.0979848 -0.705407
vt -8.472 0.088519
vt -8.55861 0.088519
f 35/84/30 33/85/27 28/86/29

vt -0.315673 -0.351498
f 33/76/2 35/87/2 25/57/2

vt -8.472 0.0958131
f 25/63/20 35/88/30 27/61/22

vt -8.55861 -0.0885192
f 28/86/29 27/89/22 35/84/30

f 31/77/2 33/76/2 25/57/2

v 0.00689173 1.16552 -0.19419
vt -0.351499 0.315673
f 25/57/2 36/90/2 31/77/2

f 25/57/2 23/55/2 36/90/2

vt -8.472 -0.0885196
vn 0.712178 -0.0989075 0.694996
vt -8.472 0.0885186
v 0.00334242 1.16296 -0.191757
vt -8.55861 0.0885186
vn 0.511965 -0.120434 0.850522
f 36/91/31 23/92/18 37/93/32

vt -8.55861 -0.088518
f 21/53/16 37/94/32 23/51/18

v -0.00329706 1.16612 -0.214156
vt -0.0401681 -0.47073
vt 0.210622 0.422894
f 21/47/5 38/95/5 37/96/5

v -0.00761181 1.16595 -0.212901
vt -0.210621 -0.422893
f 21/47/5 39/97/5 38/95/5

f 21/47/5 19/44/5 39/97/5

vt 8.55861 -0.0885192
vn -0.511964 0.120434 -0.850523
vt 8.55861 0.0885191
v -0.0111538 1.16775 -0.209855
vt 8.472 0.0885191
vn -0.712178 0.0989076 -0.694997
f 39/98/33 19/99/14 40/100/34

vt 8.472 -0.0958125
f 17/43/12 40/101/34 19/41/14

vt 0.351498 -0.315673
v -0.00580797 1.16505 -0.19071
vt 0.150099 0.447963
f 40/102/2 17/37/2 41/103/2

f 16/34/2 41/103/2 17/37/2

vt 8.472 0.0958119
vn -0.371244 -0.128652 0.91958
vt 8.472 -0.095813
vn -0.701997 -0.0979848 0.705407
v -0.0100461 1.16321 -0.193392
vt 8.55861 -0.095813
vn -0.601824 -0.110186 0.790991
f 41/104/35 16/105/36 42/106/37

v -0.0128118 1.16371 -0.196903
vt 8.55861 -0.0885184
vn -0.859005 -0.0698521 0.50718
vt 8.55861 0.0885198
vt 8.472 0.0885198
f 43/107/38 42/108/37 16/109/36

vt -0.315673 0.351499
vt -0.422893 0.210622
vt -0.47073 0.040169
f 42/110/5 43/111/5 15/112/5

vt 8.55861 0.0885193
f 15/33/11 43/113/38 13/31/9

vt 8.472 -0.0885184
f 16/109/36 13/114/9 43/107/38

f 18/46/5 42/110/5 15/112/5

f 42/110/5 18/46/5 20/45/5

vt 8.55861 0.0958119
f 42/106/37 20/115/15 41/104/35

vt 8.472 -0.0958104
f 22/50/17 41/116/35 20/48/15

f 22/54/2 40/102/2 41/103/2

v -0.00760813 1.16813 -0.212594
vt 0.210621 -0.422893
f 22/54/2 44/117/2 40/102/2

f 22/54/2 24/56/2 44/117/2

vt 8.472 0.0885196
vn -0.399047 0.128311 -0.907908
vt 8.472 -0.0885187
vt 8.55861 -0.0885187
vn -0.154728 0.137795 -0.9783
f 44/118/39 24/119/19 38/120/40

vt -8.55861 -0.0958112
f 26/60/21 38/121/40 24/58/19

f 26/65/5 37/96/5 38/95/5

f 26/65/5 30/68/5 37/96/5

vt -8.55861 -0.0885196
f 37/93/32 30/122/23 36/91/31

vt -8.472 0.0958134
f 31/71/25 36/123/31 30/69/23

vt 8.55861 0.0885196
f 38/120/40 39/124/33 44/118/39

vt 8.472 -0.0885192
f 40/100/34 44/125/39 39/98/33

vt 8.55861 0.0958133
f 18/40/13 15/126/11 14/38/10

g Mesh3 M_0a08c427_6f45_4239_b3c4_3f36a1a4f7ae_1_I5 M_0a08c427_6f45_4239_b3c4_3f36a1a4f7ae_1_I5_TR M_0a08c427_6f45_4239_b3c4_3f36a1a4f7ae_1_I5_TR_rotY Model

v -0.00283795 1.57923 -0.139808
vt 7.88861 0.150474
v 0.00422349 1.57958 -0.142328
vt 7.88861 -0.145021
v 0.00423235 1.58482 -0.14159
vt 8.09728 -0.145021
f 45/127/4 46/128/4 47/129/4

vt 0.220557 0.193366
vt -0.0586243 0.29019
v 0.00555151 1.5806 -0.149644
vt 0.276295 -0.0968235
f 46/130/5 45/131/5 48/132/5

v -0.000181922 1.58129 -0.154439
vt 0.0528523 -0.29019
f 49/133/5 48/132/5 45/131/5

vt 7.88861 0.145565
vt 7.88861 -0.149929
v -0.000173066 1.58653 -0.153701
vt 8.09728 -0.149929
f 48/134/8 49/135/8 50/136/8

v -0.00723451 1.58619 -0.151181
vt -8.09728 0.150473
vn -0.33888 0.131539 -0.931589
vt -8.09728 -0.145021
vt -7.88861 -0.145021
f 51/137/41 50/138/41 49/139/41

vt -0.0528523 -0.29019
vt 0.226328 -0.193365
v -0.00856252 1.58517 -0.143865
vt 0.282067 0.0968248
f 50/140/2 51/141/2 52/142/2

vt -8.09728 0.148292
vt -8.09728 -0.147202
v -0.00724336 1.58094 -0.151919
vt -7.88861 -0.147202
f 52/143/6 51/144/6 53/145/6

vt -7.88861 0.150473
f 49/139/41 53/146/41 51/137/41

v -0.00857138 1.57992 -0.144603
vt -0.282067 0.0968248
vt -0.226328 -0.193365
f 49/133/5 54/147/5 53/148/5

f 45/131/5 54/147/5 49/133/5

vt -7.88861 -0.149929
vt -7.88861 0.145565
v -0.0028291 1.58448 -0.13907
vt -8.09728 0.145565
f 54/149/1 45/150/1 55/151/1

vt 8.09728 0.150474
f 47/129/4 55/152/4 45/127/4

vt -0.220557 0.193366
v 0.00556036 1.58585 -0.148906
vt -0.276295 -0.0968235
vt 0.0586243 0.29019
f 47/153/2 56/154/2 55/155/2

vt 8.09728 -0.147202
vn 0.984221 -0.0262611 0.174986
vt 8.09728 0.148292
vt 7.88861 0.148292
f 56/156/42 47/157/42 46/158/42

vt 7.88861 -0.147202
f 46/158/42 48/159/42 56/156/42

vt 8.09728 0.145565
f 50/136/8 56/160/8 48/134/8

f 50/140/2 55/155/2 56/154/2

f 55/155/2 50/140/2 52/142/2

vt -8.09728 -0.149929
f 55/151/1 52/161/1 54/149/1

vt -7.88861 0.148292
f 53/145/6 54/162/6 52/143/6

g Mesh4 M_a02a2cdc_c326_43c6_9c55_d125a292be05_1_I10 M_a02a2cdc_c326_43c6_9c55_d125a292be05_1_I10_TR M_a02a2cdc_c326_43c6_9c55_d125a292be05_1_I10_TR_rotY Model

v -0.0121174 1.57734 -0.142004
vt -7.802 -0.0885184
v -0.00935167 1.57684 -0.138494
vt -7.802 0.0885198
v -0.00934799 1.57902 -0.138188
vt -7.88861 0.0885198
f 57/163/38 58/164/37 59/165/36

v -0.0133839 1.57794 -0.146277
f 58/110/5 57/111/5 60/112/5

vt -7.802 -0.0885191
vt -7.802 0.0885193
v -0.0121137 1.57951 -0.141698
vt -7.88861 0.0885193
f 60/166/11 57/167/38 61/168/9

vt -7.88861 -0.0885184
f 59/165/36 61/169/9 57/163/38

v -0.0133802 1.58012 -0.145971
f 59/34/2 62/35/2 61/36/2

v -0.0128594 1.58079 -0.150763
f 59/34/2 63/37/2 62/35/2

v -0.00511358 1.57868 -0.135812
f 59/34/2 64/103/2 63/37/2

vt -7.88861 0.0958119
vt -7.88861 -0.095813
vt -7.802 -0.095813
f 64/170/35 59/171/36 58/172/37

v -0.00511726 1.5765 -0.136118
vt -7.802 0.0958119
f 58/172/37 65/173/15 64/170/35

v -0.0128631 1.57861 -0.151069
f 58/110/5 66/46/5 65/45/5

f 58/110/5 60/112/5 66/46/5

vt -7.802 -0.0958116
vt -7.802 0.0958133
vt -7.88861 0.0958133
f 66/174/13 60/175/11 62/176/10

vt -7.88861 -0.0885191
f 61/168/9 62/177/10 60/166/11

vt -7.88861 -0.0958116
f 62/176/10 63/178/12 66/174/13

v -0.010463 1.5792 -0.155263
vt -7.802 -0.0958125
vt -7.802 0.0958126
vt -7.88861 0.0958126
f 67/179/14 66/180/13 63/181/12

f 66/46/5 67/44/5 65/45/5

v -0.000277936 1.57642 -0.135604
f 68/47/5 65/45/5 67/44/5

vt -7.802 -0.0958104
vt -7.802 0.0958146
v -0.00027426 1.57859 -0.135297
vt -7.88861 0.0958146
f 65/182/15 68/183/16 69/184/17

v 0.00404049 1.57876 -0.136553
vt 7.88861 -0.088518
vt 7.88861 0.0885205
vt 7.802 0.0885205
f 70/185/18 69/186/17 68/187/16

v -0.00259899 1.58192 -0.158951
f 69/54/2 70/55/2 71/56/2

v 0.00224033 1.58184 -0.158437
f 71/56/2 70/55/2 72/57/2

v 0.00758612 1.57914 -0.139292
f 70/55/2 73/90/2 72/57/2

vt 7.88861 -0.0885196
vt 7.88861 0.0885186
v 0.00403681 1.57659 -0.136859
vt 7.802 0.0885186
f 73/188/31 70/189/18 74/190/32

vt 7.802 -0.088518
f 68/187/16 74/191/32 70/185/18

v -0.00260267 1.57975 -0.159258
f 68/47/5 75/95/5 74/96/5

f 75/95/5 68/47/5 67/44/5

v -0.00691742 1.57958 -0.158003
f 67/44/5 76/97/5 75/95/5

vt -7.802 -0.0885192
vt -7.802 0.0885191
v -0.0104594 1.58138 -0.154957
vt -7.88861 0.0885191
f 76/192/33 67/193/14 77/194/34

vt -7.88861 -0.0958125
f 63/181/12 77/195/34 67/179/14

f 63/37/2 64/103/2 77/102/2

f 69/54/2 77/102/2 64/103/2

f 71/56/2 77/102/2 69/54/2

v -0.00691374 1.58176 -0.157696
f 77/102/2 71/56/2 78/117/2

vt -7.88861 0.0885196
vt -7.88861 -0.0885187
vt -7.802 -0.0885187
f 78/196/39 71/197/19 75/198/40

v 0.00223666 1.57967 -0.158743
vt 7.802 0.0958136
vt 7.802 -0.0958112
vt 7.88861 -0.0958112
f 79/199/21 75/200/40 71/201/19

f 75/95/5 79/65/5 74/96/5

v 0.00758245 1.57696 -0.139598
f 74/96/5 79/65/5 80/68/5

v 0.00998246 1.57755 -0.143792
f 80/68/5 79/65/5 81/67/5

v 0.00923681 1.57883 -0.152857
f 79/65/5 82/64/5 81/67/5

v 0.00647105 1.57932 -0.156367
f 82/64/5 79/65/5 83/66/5

vt 7.802 0.0958131
vt 7.802 -0.0958114
vt 7.88861 -0.0958114
f 83/202/22 79/203/21 72/204/20

vt 7.88861 0.0958136
f 71/201/19 72/205/20 79/199/21

v 0.00647473 1.5815 -0.156061
vt 7.88861 0.0958131
f 72/204/20 84/206/30 83/202/22

v 0.00924048 1.581 -0.152551
f 85/76/2 84/87/2 72/57/2

vt 7.88861 -0.0885192
vt 7.88861 0.088519
vt 7.802 0.088519
f 84/207/30 85/208/27 82/209/29

v 0.0105032 1.57822 -0.148584
vt 7.802 0.0885196
vt 7.802 -0.0885189
vt 7.88861 -0.0885189
f 86/210/28 82/211/29 85/212/27

f 82/64/5 86/82/5 81/67/5

vt 7.802 0.0958121
vt 7.802 -0.0958128
v 0.0105069 1.5804 -0.148278
vt 7.88861 -0.0958128
f 81/213/24 86/214/28 87/215/26

vt 7.88861 0.0885196
f 85/212/27 87/216/26 86/210/28

v 0.00998613 1.57973 -0.143486
f 85/76/2 88/77/2 87/75/2

f 72/57/2 88/77/2 85/76/2

f 73/90/2 88/77/2 72/57/2

vt 7.88861 -0.0958115
vt 7.88861 0.0958134
vt 7.802 0.0958134
f 88/217/25 73/218/31 80/219/23

vt 7.802 -0.0885196
f 74/190/32 80/220/23 73/188/31

vt 7.802 -0.0958115
f 80/219/23 81/221/24 88/217/25

vt 7.88861 0.0958121
f 87/215/26 88/222/25 81/213/24

vt 7.802 -0.0885192
f 82/209/29 83/223/22 84/207/30

vt -7.802 0.0885196
f 75/198/40 76/224/33 78/196/39

vt -7.88861 -0.0885192
f 77/194/34 78/225/39 76/192/33

vt -7.88861 -0.0958104
f 69/184/17 64/226/35 65/182/15

