# Alias OBJ Model File
# Exported from SketchUp, (c) 2000-2012 Trimble Navigation Limited
# File units = meters

mtllib speaker_panel.mtl

g Mesh1 M_ab6f50a3_a271_4bab_9bd8_5f81e6f3f35d_1_I12 M_ab6f50a3_a271_4bab_9bd8_5f81e6f3f35d_1_I12_TR M_ab6f50a3_a271_4bab_9bd8_5f81e6f3f35d_1_I12_TR_rotY Model

usemtl Meyer_Sound_UP2d4slim_UltraCompact_Installation_Loudspeaker_meyersound2dup2d4slim_Plywood_2d_Meyer_Sound_2d_Black
v -0.0532453 1.32496 -0.241413
vt 2.585 -2.30057
vn -0.999928 -6.34378e-07 0.0120064
v -0.052834 1.56869 -0.207148
vt -7.105 -2.30057
v -0.0530001 1.57063 -0.220981
vt -7.105 -2.85057
f 1/1/1 2/2/1 3/3/1

vt -1.995 7.105
vn 0.0118896 -0.139225 0.990189
vt -1.995 -2.585
v 0.0480934 1.32496 -0.242629
vt 1.995 -2.585
f 2/4/2 1/5/2 4/6/2

vt 1.995 -2.30057
vn -0.00167097 -0.990261 -0.139215
vt -1.995 -2.30057
v -0.0534114 1.3269 -0.255246
vt -1.995 -2.85057
f 4/7/3 1/8/3 5/9/3

vt 2.585 -2.85057
f 3/3/1 5/10/1 1/1/1

vt 1.995 7.105
vn -0.0118896 0.139225 -0.990189
v 0.0479273 1.3269 -0.256462
f 3/11/4 6/5/4 5/6/4

v 0.0483386 1.57063 -0.222198
f 6/5/4 3/11/4 7/4/4

vn 0.00167097 0.990261 0.139215
vt 1.995 -2.85057
f 7/9/5 3/12/5 2/7/5

v 0.0485047 1.56869 -0.208365
f 2/7/5 8/8/5 7/9/5

f 4/6/2 8/11/2 2/4/2

vt 7.105 -2.30057
vn 0.999928 6.34378e-07 -0.0120064
vt -2.585 -2.30057
vt -2.585 -2.85057
f 8/13/6 4/14/6 6/15/6

f 5/9/3 6/12/3 4/7/3

vt 7.105 -2.85057
f 6/15/6 7/16/6 8/13/6

