# Alias OBJ Model File
# Exported from SketchUp, (c) 2000-2012 Trimble Navigation Limited
# File units = meters

mtllib speaker_body.mtl

g Mesh1 M_04854a03_7b9b_479d_98a0_fbc77eabccbd_1_I2 M_04854a03_7b9b_479d_98a0_fbc77eabccbd_1_I2_TR M_04854a03_7b9b_479d_98a0_fbc77eabccbd_1_I2_TR_rotY Model

usemtl Meyer_Sound_UP2d4slim_UltraCompact_Installation_Loudspeaker_meyersound2dup2d4slim_Plywood_2d_Meyer_Sound_2d_Black
v -0.0560768 1.17192 -0.159905
vt 8.105 1.71443
vn -0.999928 -6.34378e-07 0.0120064
v -0.0554172 1.56279 -0.104955
vt -7.435 1.71443
v -0.0568055 1.58366 -0.220576
vt -7.615 -2.908
f 1/1/1 2/2/1 3/3/1

vt -2.145 7.435
vn 0.0118896 -0.139225 0.990189
vt -2.145 -8.105
v 0.0528814 1.17192 -0.161214
vt 2.145 -8.105
f 2/4/2 1/5/2 4/6/2

v 0.0532032 1.16815 -0.134414
vt -2.145 2.78
vn 0.00167097 0.990261 0.139215
vt -2.145 1.71443
vt 2.145 1.71443
f 5/7/3 4/8/3 1/9/3

vt -8.105 1.71443
vn 0.999928 6.34378e-07 -0.0120064
vt -8.105 2.78
v 0.0531955 1.16362 -0.13505
vt -8.285 2.78
f 4/10/4 5/11/4 6/12/4

vt 2.145 -8.285
v -0.055755 1.16815 -0.133106
f 6/13/2 5/6/2 7/5/2

vt 2.145 2.78
f 1/9/3 7/14/3 5/7/3

v -0.0557626 1.16362 -0.133742
vt 8.285 2.78
vt 8.105 2.78
f 1/1/1 8/15/1 7/16/1

v -0.0574804 1.18373 -0.2768
vt 8.285 -2.908
f 8/15/1 1/1/1 9/17/1

f 3/3/1 9/17/1 1/1/1

v -0.0537667 1.57838 -0.221355
vt 2.025 7.405
vn -0.0118896 0.139225 -0.990189
vt 2.145 7.615
f 10/18/5 9/13/5 3/19/5

v -0.0544237 1.18902 -0.276094
vt 2.025 -8.075
f 10/18/5 11/20/5 9/13/5

vt -8.075 -2.908
vt 7.405 -2.908
v -0.0535651 1.57602 -0.204569
vt 7.405 -2.24057
f 11/21/4 10/22/4 12/23/4

v 0.0492975 1.57602 -0.205804
vt 2.025 -2.24057
vn -0.00167097 -0.990261 -0.139215
vt -2.025 -2.24057
vt -2.025 -2.908
f 13/24/6 12/25/6 10/26/6

vt -2.025 7.405
v 0.0486405 1.18666 -0.260542
vt -2.025 -8.075
f 12/18/5 13/27/5 14/28/5

vt 8.075 -2.24057
vt -7.405 -2.24057
v 0.0490959 1.57838 -0.222591
vt -7.405 -2.908
f 14/29/1 13/30/1 15/31/1

vt 2.025 -2.908
f 10/26/6 15/32/6 13/24/6

f 3/19/5 15/27/5 10/18/5

v 0.0521526 1.58366 -0.221885
vt -2.145 7.615
f 3/19/5 16/33/5 15/27/5

v -0.00149295 1.5739 -0.151815
vt -2.38419e-07 -0.148046
vt -2.145 -2.908
vt 2.145 -2.908
f 17/34/3 16/35/3 3/36/3

v -3.60073e-05 1.57386 -0.151562
vt -0.0572364 -0.137277
f 16/35/3 17/34/3 18/37/3

v -0.00130776 1.55945 -0.153874
vt -7.03825 0.140665
vn -0.0284711 -0.136943 0.99017
vt -7.61164 0.204016
vn -0.342414 -0.134481 0.929875
vt -7.61296 0.14579
vn 0.0417406 -0.144717 0.988592
f 19/38/7 18/39/8 17/40/9

vt -7.04033 -0.026632
v -6.15705e-05 1.55871 -0.153692
vt -7.0127 0.0237232
vn -0.397 -0.122893 0.909554
vt -7.615 0.0237232
f 19/41/7 20/42/10 18/43/8

v -0.00303448 1.55871 -0.15363
vt 0.20125 -6.47156
vn 0.0127456 0.753179 0.657692
vt 0.0842096 -6.47414
vn 0.00515344 0.953546 0.301204
vt 0.13373 -6.50324
vn 0.019676 0.271202 0.962321
f 21/44/11 20/45/12 19/46/13

v -0.00436176 1.55858 -0.152721
vt 0.112509 -0.100755
vn 0.000715329 0.990838 0.135057
vt 0.059828 -0.136239
f 22/47/14 20/37/12 21/48/11

v -0.00530885 1.55838 -0.151186
vt 0.137815 0.0188011
vn -0.00524726 0.990207 0.139505
vt -0.0699388 -0.0782377
vt 0.0998064 -0.0417145
f 23/49/15 20/50/12 22/51/14

vt -0.0424255 -0.137146
vt 0.16533 -0.0401107
v 9.25745e-05 1.55768 -0.146339
vt -0.045018 0.155238
vn 0.000796797 0.999688 0.0249544
f 20/52/12 23/53/15 24/54/16

v -0.00515271 1.55798 -0.148435
vt 0.133663 0.0405128
vn -0.00529728 0.989911 0.141594
vt -0.0718378 0.126359
vt 0.138509 -0.0689918
f 25/55/17 24/56/16 23/57/15

v -0.00288035 1.55768 -0.146277
vt 0.057236 0.156144
vn -0.00582681 0.974939 -0.222397
vt -0.059829 0.155107
vt 0.145673 0.0692617
f 26/58/18 24/59/16 25/60/17

v -0.00163181 1.55833 -0.1459
vt -0.133593 6.5108
vn -0.018323 0.526098 -0.850226
vt -0.201114 6.47912
vt -0.0840733 6.4817
f 27/61/19 24/62/16 26/63/18

vt -7.02002 0.555896
vn 0.0284877 0.141281 -0.98956
v -0.000657068 1.56522 -0.145024
vt -7.29561 0.5382
vn -0.201097 0.136969 -0.969948
vt -6.99756 0.484777
vn -0.417208 0.130583 -0.899381
f 27/64/20 28/65/21 24/66/22

v -0.00139784 1.57279 -0.143894
vt -7.61485 -0.0340254
vn -0.0417532 0.133605 -0.990155
vt -7.31352 -0.0619316
vt -7.04025 -0.0221407
f 29/67/23 28/68/21 27/69/20

v 0.000118138 1.57283 -0.144209
vt -7.59715 -0.484511
vn -0.367837 0.126099 -0.921301
vt -7.2984 -0.435114
vt -7.6008 -0.423638
f 30/70/24 28/71/21 29/72/23

vt -7.615 -0.0100143
vt -7.0127 -0.0100143
vt -7.31385 0.0216051
f 30/73/24 24/74/22 28/75/21

vt -7.0127 0.0370282
vt -7.615 0.0370282
v 0.00144541 1.57295 -0.145118
vt -7.615 -0.026488
vn -0.70113 0.0972388 -0.706372
f 24/76/22 30/77/24 31/78/25

v 0.0538704 1.56355 -0.0788268
vt -0.112509 0.119623
f 32/7/3 31/79/3 30/59/3

v 0.00229808 1.57314 -0.14646
vt -0.146711 0.0666697
f 32/7/3 33/80/3 31/79/3

v 0.00255431 1.57334 -0.147903
vt -0.15748 0.00943394
f 33/80/3 32/7/3 34/81/3

f 16/35/3 34/81/3 32/7/3

v 0.00223637 1.57356 -0.149404
vt -0.145674 -0.0503948
f 34/81/3 16/35/3 35/82/3

v 0.00131924 1.57374 -0.150718
vt -0.11019 -0.103076
f 36/83/3 35/82/3 16/35/3

vt -7.615 0.0395833
vn -0.907253 -0.0600277 0.41628
vt -7.615 -0.0239335
vn -0.671174 -0.106332 0.733634
v 0.00129367 1.55859 -0.152848
vt -7.0127 -0.0239335
vn -0.713025 -0.0932414 0.694911
f 35/84/26 36/85/27 37/86/28

v 0.000673 1.56624 -0.152291
vt -7.31385 -0.0131163
vn -0.531976 -0.117002 0.838637
vt -7.0127 0.0189764
vt -7.615 0.0189764
f 38/87/29 37/88/28 36/89/27

vt -7.01336 -0.100914
vt -7.31385 -0.138679
vt -7.01213 -0.16394
f 37/90/28 38/91/29 20/92/10

vt -7.615 -0.0084235
vt -7.0127 -0.0084235
vt -7.31385 0.0229821
f 18/93/8 20/94/10 38/95/29

vt -7.30986 0.148146
vt -7.61035 0.185911
vt -7.61159 0.122885
f 38/96/29 36/97/27 18/98/8

f 16/35/3 18/37/3 36/83/3

v 0.00221081 1.55841 -0.151534
vn -0.0272572 0.991453 0.127586
f 39/82/30 37/83/3 20/37/12

vt -7.0127 0.0395833
vn -0.931378 -0.0447357 0.361294
f 37/86/28 39/99/31 35/84/26

vt -7.615 -0.00388156
vt -7.0127 -0.00388156
v 0.00247604 1.56587 -0.149714
vt -7.31385 0.0277374
vn -0.979528 -0.0261621 0.199601
f 35/100/26 39/101/31 40/102/32

v 0.00255324 1.55825 -0.149805
vt -7.01776 0.0294021
vn -0.999596 0.00777923 -0.0273431
vt -7.31527 -0.00947332
vt -7.01402 -0.0401144
f 41/103/33 40/104/32 39/105/31

vt -7.61495 0.021864
vn -0.999147 -0.00948716 0.0401909
vt -7.3138 -0.00792307
vt -7.01622 0.0304235
f 34/106/34 40/107/32 41/108/33

vt -7.61269 -0.00344739
vt -7.31144 0.027266
vt -7.61254 0.0575351
f 35/109/26 40/110/32 34/111/34

vt -7.61429 -0.0256399
vt -7.01556 -0.0169566
vt -7.61433 0.0326002
vn -0.939591 0.0450175 -0.339326
f 34/112/34 41/113/33 33/114/35

vt -7.01627 -0.019289
v 0.00227251 1.55799 -0.14859
vt -7.0127 0.0307818
vn -0.917864 0.06099 -0.39218
vt -7.615 0.0307818
f 41/115/33 42/116/36 33/117/35

vt 0.542251 -0.604802
vn 0.0511963 0.981229 0.185927
vt 0.531032 -0.65373
vn 0.00777319 0.985595 0.168946
vt 0.628714 -0.515955
f 42/118/37 41/119/38 24/120/16

vt -0.750545 0.200978
vt -0.665021 0.406613
vt -0.76347 0.269385
f 39/121/30 24/122/16 41/123/38

f 24/59/16 39/82/30 20/37/12

v 0.00141985 1.55781 -0.147247
f 24/59/16 43/79/3 42/80/37

vt -7.0127 -0.026488
vn -0.741285 0.0989063 -0.663863
f 31/78/25 43/124/39 24/76/22

v 0.00194567 1.56547 -0.14681
vt -7.31385 -0.0118806
vn -0.84676 0.0754601 -0.526596
vt -7.0127 0.0202121
vt -7.615 0.0202121
f 44/125/40 43/126/39 31/127/25

vt -7.0136 0.0968332
vt -7.31502 0.0674335
vt -7.01412 0.0337969
f 43/128/39 44/129/40 42/130/36

vt -7.615 -0.00405295
vt -7.0127 -0.00405295
vt -7.31385 0.0273531
f 33/131/35 42/132/36 44/133/40

vt -7.61192 -0.0858785
vt -7.31101 -0.0522419
vt -7.61244 -0.0228422
f 33/134/35 44/135/40 31/136/25

vt 7.615 2.78
v 0.0535409 1.56279 -0.106263
vt 7.435 1.71443
vt 7.615 -2.908
f 32/137/4 45/138/4 16/139/4

v 0.0538627 1.55902 -0.0794633
vt 7.435 2.78
f 45/138/4 32/137/4 46/140/4

vt 2.145 7.435
v -0.0550878 1.56355 -0.0775185
f 46/141/2 32/19/2 47/33/2

vt -2.38419e-07 0.166914
f 32/7/3 29/142/3 47/14/3

f 29/142/3 32/7/3 30/59/3

v -0.00285478 1.57283 -0.144147
f 47/14/3 29/142/3 48/58/3

vt 7.61296 -0.142291
vt 7.03826 -0.137166
vt 7.61164 -0.200517
vn 0.342408 0.125983 -0.931067
f 29/143/23 27/144/20 48/145/41

vt 7.04033 0.0310258
vt 7.0127 -0.0193297
vn 0.39702 0.131339 -0.908364
vt 7.615 -0.0193297
f 27/146/20 26/147/42 48/148/41

vt 7.615 0.0166591
vt 7.0127 0.0166591
v -0.00358936 1.5653 -0.145548
vt 7.31385 -0.0147465
vn 0.531976 0.117002 -0.838637
f 48/149/41 26/150/42 49/151/43

v -0.00423559 1.5578 -0.147121
vt 7.01336 0.111153
vn 0.671176 0.106331 -0.733633
vt 7.31385 0.148918
vt 7.01213 0.174179
f 50/152/44 49/153/43 26/154/42

vt 7.31385 0.0251646
vt 7.0127 -0.0069281
v -0.00421003 1.57295 -0.144991
vt 7.615 -0.0069281
vn 0.713027 0.0932411 -0.694909
f 49/155/43 50/156/44 51/157/45

vt 7.615 0.039583
vt 7.0127 0.039583
vt 7.0127 -0.0239335
vn 0.907253 0.0600274 -0.41628
f 51/158/45 50/159/44 25/160/46

vt 0.110189 0.121943
f 25/60/17 50/161/3 26/58/18

v -0.00512715 1.57313 -0.146305
vt 7.615 -0.0239335
vn 0.929876 0.0457055 -0.365024
f 25/160/46 52/162/47 51/158/45

vt 7.615 0.0218617
vt 7.0127 0.0218617
v -0.00539239 1.56566 -0.148125
vt 7.31385 -0.00975734
vn 0.979061 0.0267189 -0.201807
f 52/163/47 25/164/46 53/165/48

vt 7.01395 0.0561357
v -0.00547067 1.55819 -0.149936
vt 7.01409 -0.00484596
vn 0.998457 0.010018 -0.0546205
vt 7.31519 0.0254223
f 25/166/46 54/167/49 53/168/48

vt -0.0386108 0.0328943
vt -0.0337779 -0.0766109
vt -0.0268074 -0.0269343
vn -0.0245371 0.989184 0.144615
f 25/169/17 23/170/15 54/171/50

v -0.00544511 1.57334 -0.147807
vt 7.615 0.0311976
vn 0.999982 -0.00589199 0.00130528
vt 7.0127 0.0311976
vt 7.01314 -0.0189637
vn 0.948332 -0.043241 0.31432
f 55/172/51 54/173/49 23/174/52

vt 7.615 -0.0023636
vt 7.31385 0.0274152
vt 7.0127 -0.0023636
f 55/175/51 53/176/48 54/177/49

vt 7.61269 0.0219565
vt 7.31144 -0.00875693
vt 7.61254 -0.0390251
f 52/178/47 53/179/48 55/180/51

vt 0.15748 0.00943394
f 55/181/3 47/14/3 52/60/3

f 47/14/3 55/181/3 3/36/3

v -0.00518887 1.57355 -0.149249
vt 0.146711 -0.0478027
f 55/181/3 56/182/3 3/36/3

vt 7.01249 -0.00657629
vt 7.61436 -0.0142697
vn 0.923846 -0.0604073 0.377968
vt 7.61432 0.0439713
f 23/183/52 56/184/53 55/185/51

vt 7.01311 0.0303946
v -0.00486202 1.56607 -0.151029
vt 7.31382 -0.00944832
vn 0.848218 -0.0748502 0.524332
vt 7.61497 0.0219838
f 23/186/52 57/187/54 56/188/53

vt 7.01467 -0.0157584
vt 7.0136 -0.0872123
vn 0.744133 -0.0895339 0.662005
vt 7.31505 -0.0580499
f 23/189/52 22/190/55 57/191/54

vt 7.31385 0.0264003
vt 7.0127 -0.00569241
v -0.0043362 1.57373 -0.150592
vt 7.615 -0.00569241
vn 0.701116 -0.103612 0.705479
f 57/192/54 22/193/55 58/194/56

vt 7.615 0.0370288
vt 7.0127 0.0370288
vt 7.0127 -0.0264878
vn 0.417218 -0.123837 0.90033
f 58/195/56 22/196/55 21/197/57

v -0.00300892 1.57386 -0.1515
vt 7.615 -0.0264878
vn 0.367823 -0.134027 0.920186
f 21/197/57 59/198/58 58/195/56

vt 7.615 0.0157309
vt 7.0127 0.0157309
v -0.00225928 1.56632 -0.152815
vt 7.31385 -0.0158885
vn 0.201099 -0.136439 0.970022
f 59/199/58 21/200/57 60/201/59

vt 7.02002 -0.552504
vt 7.29561 -0.534808
vt 6.99756 -0.481385
f 19/202/7 60/203/59 21/204/57

vt 7.04025 0.023643
vt 7.61485 0.0355275
vt 7.31352 0.0634334
f 19/205/7 17/206/9 60/207/59

vt 7.59715 0.48816
vt 7.2984 0.438763
vt 7.6008 0.427287
f 59/208/58 60/209/59 17/210/9

f 3/36/3 59/48/3 17/34/3

f 3/36/3 58/47/3 59/48/3

f 58/47/3 3/36/3 56/182/3

vt 7.31101 0.06809
vt 7.61244 0.03869
vt 7.61192 0.101726
f 57/211/54 58/212/56 56/213/53

vt -7.615 2.78
f 47/214/1 3/3/1 2/2/1

v -0.0550954 1.55902 -0.078155
vt -7.435 2.78
f 2/2/1 61/215/1 47/214/1

f 61/7/6 2/8/6 45/9/6

f 4/6/2 45/141/2 2/4/2

v 0.0514778 1.18373 -0.278108
vt -8.285 -2.908
f 45/138/4 4/10/4 62/216/4

f 6/12/4 62/216/4 4/10/4

v 0.00187947 1.17342 -0.204126
f 62/36/6 6/14/6 63/181/6

v 0.00159767 1.17321 -0.202618
vt 0.145674 0.0692617
f 64/217/6 63/181/6 6/14/6

vt 8.28264 0.0203915
vn -0.916986 0.0600266 -0.394377
v 0.0018447 1.18089 -0.202314
vt 7.9814 -0.0103219
vn -0.984034 0.0261671 -0.176049
vt 8.2825 -0.0405901
vn -0.999825 0.00945695 -0.0161147
f 64/218/60 65/219/61 63/220/62

vt 8.285 0.0218614
v 0.00162323 1.18836 -0.200488
vt 7.6827 0.0218614
vn -0.939747 0.0447608 -0.338928
vt 7.98385 -0.00975763
f 64/221/60 66/222/63 65/223/61

v 0.000737916 1.18817 -0.199152
vt 7.6827 0.0395818
vn -0.729505 0.0932405 -0.677591
vt 7.6827 -0.023935
vt 8.285 -0.023935
f 67/224/64 66/225/63 64/226/60

vt 0.11019 0.121943
v -0.00357021 1.18805 -0.198266
vt -0.059828 0.155107
vn 0.0147004 -0.966342 -0.256842
vn -0.000351598 -0.990683 -0.136189
f 67/227/6 68/228/65 66/217/66

v -0.000596671 1.18805 -0.198276
vt 0.0572364 0.156144
vn -0.00305352 -0.753185 -0.657802
f 69/229/67 68/228/65 67/227/6

v -0.00183813 1.18731 -0.198064
vt -0.147093 7.12396
vn -0.00344324 -0.271218 -0.962512
vt -0.214614 7.09228
vt -0.0975731 7.09486
f 70/230/68 68/231/65 69/232/67

vt -7.66568 0.534032
vn 0.340911 0.125818 -0.931638
vt -7.68815 0.605151
vn -0.0522468 0.136943 -0.9892
v -0.00281478 1.18044 -0.199099
vt -7.96374 0.587455
vn 0.17775 0.136439 -0.974571
f 68/233/69 70/234/70 71/235/71

vt -7.71023 -0.026303
v -0.00207268 1.17286 -0.200117
vt -8.28484 -0.0381875
vn 0.0179858 0.144717 -0.98931
vt -7.98351 -0.0660933
f 70/236/70 72/237/72 71/238/71

vt 7.70808 -0.152403
v -0.000622234 1.1729 -0.200406
vt 8.28146 -0.215753
vn -0.364651 0.13448 -0.921382
vt 8.28278 -0.157528
f 70/239/70 73/240/73 72/241/72

vt 7.6827 -0.0193301
vn -0.41873 0.122892 -0.899757
vt 8.285 -0.0193301
vt 7.71033 0.0310253
f 69/242/74 73/243/73 70/244/70

vt 7.6827 0.0166587
v 0.000104056 1.18052 -0.199694
vt 7.98385 -0.0147469
vn -0.551959 0.117001 -0.825622
vt 8.285 0.0166587
f 69/245/74 74/246/75 73/247/73

vt 7.68194 0.187315
vt 7.68318 0.124289
vt 7.98367 0.162054
f 69/248/74 67/249/64 74/250/75

vt 7.98385 0.0251642
vt 7.6827 -0.00692855
v 0.000712352 1.17302 -0.201282
vt 8.285 -0.00692855
vn -0.688596 0.106331 -0.717307
f 74/251/75 67/252/64 75/253/76

vt 8.285 0.0395818
f 64/226/60 75/254/76 67/224/64

f 6/14/6 75/227/6 64/217/6

f 6/14/6 73/229/6 75/227/6

vt 2.38419e-07 0.166914
f 72/255/6 73/229/6 6/14/6

f 6/14/6 8/7/6 72/255/6

vt -2.145 -8.285
f 7/5/2 8/256/2 6/13/2

v -0.00359577 1.1729 -0.200396
f 8/7/6 76/228/6 72/255/6

v -0.00494449 1.17303 -0.201273
f 76/228/6 8/7/6 77/79/6

v -0.00582914 1.17322 -0.202594
f 8/7/6 78/80/6 77/79/6

v -0.00611994 1.17342 -0.20403
f 79/81/6 78/80/6 8/7/6

v -0.00590269 1.18821 -0.200676
vt -7.6891 0.02462
vn 0.940545 0.0432363 -0.336906
vt -8.28434 0.032227
vn 0.914443 0.0604644 -0.400173
vt -8.2843 -0.026013
vn 0.999968 0.00160134 -0.00780295
f 80/257/77 78/258/78 79/259/79

vt -8.28496 -0.00535501
vt -7.68973 -0.0136732
v -0.00545966 1.18069 -0.200823
vt -7.98382 0.0260852
vn 0.835426 0.0748345 -0.544484
f 78/260/78 80/261/77 81/262/80

vt -7.69121 0.0381572
v -0.00491892 1.18818 -0.199143
vt -7.68351 0.109478
vn 0.686387 0.0965572 -0.720798
vt -7.98496 0.0803296
f 80/263/77 82/264/81 81/265/80

vt 0.891792 -1.44716
vn 0.0618534 -0.990072 -0.126218
vt 0.980685 -1.34933
vt 0.928489 -1.38552
vn -0.131982 -0.989345 0.0614613
f 80/266/82 68/267/65 82/268/83

vt -2.04475 1.41791
vt -2.13417 1.32057
v -0.00609438 1.18857 -0.2019
vt -2.13907 1.27007
vn 0.437822 -0.897377 -0.0550124
f 68/269/65 80/270/82 83/271/84

vt -8.285 -0.012495
vt -7.6827 -0.012495
vn 0.999963 -0.000479811 -0.00858938
vt -7.68977 0.0377503
f 79/272/79 83/273/85 80/274/77

vt -8.285 0.0322472
v -0.00591474 1.18783 -0.20336
vt -7.71951 -0.0210987
vn 0.956631 -0.040893 0.288419
vt -7.6827 0.0322472
f 79/275/79 84/276/86 83/277/85

v -0.00583813 1.17363 -0.205538
vt -8.28422 -0.0137082
vn 0.902127 -0.0603187 0.427233
vt -7.71872 -0.00652168
vt -8.28417 0.0472745
f 85/278/87 84/279/86 79/280/79

v -0.00492726 1.18896 -0.204745
vt -7.68282 -0.0298295
vn 0.730967 -0.0996259 0.675102
vt -7.71967 0.0417751
vt -8.28515 0.0333231
f 86/281/88 84/282/86 85/283/87

vt -7.19342 -1.08004
vn 0.194148 -0.979279 -0.0576203
vt -7.21067 -0.959216
vt -7.24211 -1.01589
vn 0.87075 -0.387153 0.303163
f 86/284/89 83/285/84 84/286/90

vt -0.110189 -0.103076
f 86/287/89 68/228/65 83/81/84

v 0.00192388 1.18859 -0.202214
vt 0.170323 -0.00147612
vn -0.20801 -0.977288 -0.0405059
vt -0.0478301 0.152766
vt -0.0981912 -0.105416
f 87/288/91 68/289/65 86/290/89

vt 0.12596 0.0220684
vt -0.079541 0.107915
vt 0.13861 -0.0463304
f 66/291/66 68/292/65 87/293/91

vt 7.68452 -0.00933211
vn -0.998515 -0.00835918 0.0538275
vt 7.98521 0.0295816
vt 7.68396 0.0602245
f 87/294/92 65/295/61 66/296/63

vt 7.98381 0.0267684
vt 7.68304 -0.0116128
vt 8.28495 -0.00301709
f 65/297/61 87/298/92 63/299/62

v 0.00158867 1.17362 -0.205562
vt 8.28433 -0.0135972
vn -0.940705 -0.0427964 0.336514
vt 8.28429 0.0446438
vt 7.68238 0.0359237
f 88/300/93 63/301/62 87/302/92

f 63/181/6 88/182/6 62/36/6

v 0.000704017 1.17381 -0.206884
f 89/47/6 62/36/6 88/182/6

v -0.000644687 1.17393 -0.20776
vt 0.059829 -0.136239
f 62/36/6 89/47/6 90/303/6

vt 8.285 -0.0264876
vn -0.398887 -0.124023 0.908575
vt 8.285 0.0370286
vn -0.739704 -0.0906402 0.6668
v 0.000729581 1.18896 -0.204754
vt 7.6827 0.0370286
vn -0.641629 -0.105719 0.759694
f 90/304/94 89/305/95 91/306/96

v 0.00153237 1.18736 -0.203889
vt 7.74027 0.0377575
vn -0.880024 -0.0631356 0.470714
vt 7.6827 -0.0152505
vt 8.285 -0.0152505
f 92/307/97 91/308/96 89/309/95

vt 7.54627 -0.675296
vn -0.579126 -0.800174 0.155994
vt 7.60896 -0.628461
vn -0.891553 -0.239675 0.384304
vt 7.55593 -0.564244
f 91/310/98 92/311/99 87/312/91

vt 7.68323 0.0375302
vt 7.7404 -0.0230363
vt 8.28513 -0.0126308
f 87/313/92 92/314/97 88/315/93

vt 8.2841 0.00539784
vt 8.28388 0.0684351
vt 7.73918 0.0564169
f 89/316/95 88/317/93 92/318/97

vt 0.129972 0.0429589
v -0.000619123 1.18908 -0.20563
vt 0.0314784 -0.0941463
vn 5.36905e-05 -0.992695 0.120651
vt 0.0841585 -0.0586624
f 87/319/91 93/320/100 91/321/98

vt -0.106473 -0.084022
vt 0.0635455 -0.117185
vt 0.162042 0.0199184
f 86/322/89 93/323/100 87/324/91

v -0.00359267 1.18909 -0.205621
vt -0.057236 -0.137277
vn 0.000250465 -0.905361 0.424643
f 94/325/101 93/303/100 86/287/89

vt 0.0977223 -7.08731
v -0.00235356 1.18843 -0.206028
vt 0.147243 -7.11641
vn 0.00209047 -0.526084 0.85043
vt 0.214763 -7.08473
f 94/326/101 95/327/102 93/328/100

vt -7.71033 -0.0266325
vn 0.0522315 -0.141281 0.988591
vt -7.6827 0.0237227
vn 0.41871 -0.131338 0.898572
v -0.00361824 1.17394 -0.207751
vt -8.285 0.0237227
vn 0.364658 -0.125983 0.92258
f 95/329/103 94/330/104 96/331/105

vt -8.285 -0.00842389
vt -7.6827 -0.00842389
v -0.00431896 1.18146 -0.206332
vt -7.98385 0.0229817
vn 0.551959 -0.117001 0.825622
f 96/332/105 94/333/104 97/334/106

vt -7.68318 -0.114052
vt -7.98367 -0.151817
vt -7.68194 -0.177078
f 86/335/88 97/336/106 94/337/104

v -0.00495282 1.17382 -0.206874
vt -8.285 0.018976
vn 0.688612 -0.0978453 0.718498
vt -7.98385 -0.0131167
vt -7.6827 0.018976
f 98/338/107 97/339/106 86/340/88

vt -7.97968 0.161284
vt -8.28017 0.199049
vt -8.28141 0.136023
f 97/341/106 98/342/107 96/343/105

f 9/35/6 96/325/6 98/287/6

v -0.00216779 1.17397 -0.208039
vt 2.38419e-07 -0.148046
f 9/35/6 99/344/6 96/325/6

f 99/344/6 9/35/6 62/36/6

f 62/256/5 9/13/5 11/20/5

v 0.0484389 1.18902 -0.277329
f 62/256/5 11/20/5 100/28/5

v -0.0542221 1.18666 -0.259307
f 100/26/3 11/32/3 101/24/3

vt -8.075 -2.24057
f 12/23/4 101/345/4 11/21/4

f 14/28/5 101/20/5 12/18/5

f 101/24/3 14/25/3 100/26/3

vt 8.075 -2.908
f 15/31/1 100/346/1 14/29/1

f 100/28/5 15/27/5 16/33/5

f 100/28/5 16/33/5 62/256/5

f 62/216/4 16/139/4 45/138/4

f 62/36/6 90/303/6 99/344/6

vt 8.2659 0.528295
v -0.00140012 1.18154 -0.206927
vt 7.96715 0.478897
vn -0.17775 -0.13697 0.974497
vt 8.26955 0.467421
vn -0.0179715 -0.133605 0.990872
f 90/347/94 102/348/108 99/349/109

vt 8.285 0.0157318
vt 7.6827 0.0157318
vn -0.340927 -0.134801 0.930375
vt 7.98385 -0.0158876
f 90/350/94 93/351/110 102/352/108

vt 7.6827 -0.0264876
f 91/306/96 93/353/110 90/304/94

vt 7.68815 -0.601776
vt 7.96374 -0.58408
vt 7.66568 -0.530657
f 95/354/103 102/355/108 93/356/110

vt 7.98351 0.0676017
vt 7.71023 0.0278108
vt 8.28484 0.0396954
f 102/357/108 95/358/103 99/359/109

vt -8.28278 0.161026
vt -7.70808 0.155901
vt -8.28146 0.219252
f 99/360/109 95/361/103 96/362/105

vt -0.145673 -0.0503948
f 98/287/6 85/363/6 9/35/6

vt -8.285 0.0395819
vt -8.285 -0.0239347
vt -7.6827 -0.0239347
f 85/364/87 98/365/107 86/366/88

f 79/81/6 9/35/6 85/363/6

f 8/7/6 9/35/6 79/81/6

vt -7.6827 -0.0264883
vt -7.6827 0.0370283
vt -8.285 0.0370283
vn 0.398895 0.129977 -0.907738
f 82/367/81 68/368/69 76/369/111

vt -8.285 -0.0100134
vt -7.6827 -0.0100134
vt -7.98385 0.021606
f 76/370/111 68/371/69 71/372/71

vt -8.2659 -0.524623
vt -7.96715 -0.475226
vt -8.26955 -0.46375
f 76/373/111 71/374/71 72/375/72

vt -8.285 -0.0264883
vn 0.725131 0.0989073 -0.681471
f 76/369/111 77/376/112 82/367/81

vt -7.98385 -0.0118803
vt -7.6827 0.0202124
vt -8.285 0.0202124
f 81/377/80 82/378/81 77/379/112

vt -7.98094 -0.0577234
vt -8.28236 -0.0283236
vt -8.28185 -0.09136
f 81/380/80 77/381/112 78/382/78

vt 7.97968 -0.151046
vt 8.28017 -0.188811
vt 8.28141 -0.125785
f 74/383/75 75/384/76 73/385/73

f 45/9/6 46/14/6 61/7/6

f 47/33/2 61/4/2 46/141/2

f 47/14/3 51/161/3 52/60/3

f 48/58/3 51/161/3 47/14/3

vt 7.30986 -0.137908
vt 7.61035 -0.175673
vt 7.61159 -0.112647
f 49/386/43 51/387/45 48/388/41

