# Alias OBJ Model File
# Exported from SketchUp, (c) 2000-2012 Trimble Navigation Limited
# File units = meters

mtllib banyawindow_glasss.mtl

g Mesh1 Group1 Model

usemtl Translucent_Glass_Blue
v 27.6178 -0.0534022 5.13816
vt -38.3672 51.2443
vn -1 0 -0
v 27.6178 0.237833 5.13816
vt -38.3672 62.7102
v 27.6178 0.237833 4.69359
vt -55.8699 62.7102
v 27.6178 -0.0534022 4.69359
vt -55.8699 51.2443
f 1/1/1 2/2/1 3/3/1 4/4/1 

vn 1 -0 0
f 4/4/2 3/3/2 2/2/2 1/1/2 

g Mesh2 Group1 Model

v 27.6233 -1.35501 5.11681
vt -39.2077 -0.00390259
vn -0.99996 -0.00889315 4.29806e-20
v 27.6122 -0.101698 5.11681
vt -39.2077 49.3409
v 27.6122 -0.101698 4.22767
vt -74.2131 49.3409
v 27.6233 -1.35501 4.22767
vt -74.2131 -0.00390259
f 5/5/3 6/6/3 7/7/3 8/8/3 

vn 0.99996 0.00889315 -4.29806e-20
f 8/8/4 7/7/4 6/6/4 5/5/4 

g Mesh3 Group1 Model

v 27.6178 0.27003 4.65089
vt -57.5509 63.9778
v 27.6178 0.561265 4.65089
vt -57.5509 75.4438
v 27.6178 0.561265 4.20633
vt -75.0536 75.4438
v 27.6178 0.27003 4.20633
vt -75.0536 63.9778
f 9/9/1 10/10/1 11/11/1 12/12/1 

f 12/12/2 11/11/2 10/10/2 9/9/2 

g Mesh4 Group1 Model

v 27.6178 -0.0534022 6.11269
vt 0 51.2443
v 27.6178 0.237833 6.11269
vt 0 62.7102
v 27.6178 0.237833 5.66812
vt -17.5027 62.7102
v 27.6178 -0.0534022 5.66812
vt -17.5027 51.2443
f 13/13/1 14/14/1 15/15/1 16/16/1 

f 16/16/2 15/15/2 14/14/2 13/13/2 

g Mesh5 Group1 Model

v 27.6178 -0.0534022 4.65089
vt -57.5509 51.2443
v 27.6178 0.237833 4.65089
vt -57.5509 62.7102
v 27.6178 0.237833 4.20633
vt -75.0536 62.7102
v 27.6178 -0.0534022 4.20633
vt -75.0536 51.2443
f 17/17/1 18/18/1 19/19/1 20/20/1 

f 20/20/2 19/19/2 18/18/2 17/17/2 

g Mesh6 Group1 Model

v 27.6178 0.27003 6.11269
vt -1.13687e-13 63.9778
v 27.6178 0.561265 6.11269
vt -1.13687e-13 75.4438
v 27.6178 0.561265 5.66812
vt -17.5027 75.4438
v 27.6178 0.27003 5.66812
vt -17.5027 63.9778
f 21/21/1 22/22/1 23/23/1 24/24/1 

f 24/24/2 23/23/2 22/22/2 21/21/2 

g Mesh7 Group1 Model

v 27.6233 -1.35501 6.09134
vt -0.840466 -0.00390259
v 27.6122 -0.101698 6.09134
vt -0.840466 49.3409
v 27.6122 -0.101698 5.2022
vt -35.8458 49.3409
v 27.6233 -1.35501 5.2022
vt -35.8458 -0.00390259
f 25/25/3 26/26/3 27/27/3 28/28/3 

f 28/28/4 27/27/4 26/26/4 25/25/4 

g Mesh8 Group1 Model

v 27.6178 0.27003 5.13816
vt -38.3672 63.9778
v 27.6178 0.561265 5.13816
vt -38.3672 75.4438
v 27.6178 0.561265 4.69359
vt -55.8699 75.4438
v 27.6178 0.27003 4.69359
vt -55.8699 63.9778
f 29/29/1 30/30/1 31/31/1 32/32/1 

f 32/32/2 31/31/2 30/30/2 29/29/2 

g Mesh9 Group1 Model

v 27.6178 -0.0534022 5.62542
vt -19.1836 51.2443
v 27.6178 0.237833 5.62542
vt -19.1836 62.7102
v 27.6178 0.237833 5.18085
vt -36.6863 62.7102
v 27.6178 -0.0534022 5.18085
vt -36.6863 51.2443
f 33/33/1 34/34/1 35/35/1 36/36/1 

f 36/36/2 35/35/2 34/34/2 33/33/2 

g Mesh10 Group1 Model

v 27.6178 0.27003 5.62542
vt -19.1836 63.9778
v 27.6178 0.561265 5.62542
vt -19.1836 75.4438
v 27.6178 0.561265 5.18085
vt -36.6863 75.4438
v 27.6178 0.27003 5.18085
vt -36.6863 63.9778
f 37/37/1 38/38/1 39/39/1 40/40/1 

f 40/40/2 39/39/2 38/38/2 37/37/2 

g Mesh11 Group1 Model

v 27.6178 0.27003 8.76661
vt 104.485 63.9778
v 27.6178 0.561265 8.76661
vt 104.485 75.4438
v 27.6178 0.561265 8.32204
vt 86.9823 75.4438
v 27.6178 0.27003 8.32204
vt 86.9823 63.9778
f 41/41/1 42/42/1 43/43/1 44/44/1 

f 44/44/2 43/43/2 42/42/2 41/41/2 

g Mesh12 Group1 Model

v 27.6178 0.27003 7.79208
vt 66.1178 63.9778
v 27.6178 0.561265 7.79208
vt 66.1178 75.4438
v 27.6178 0.561265 7.34751
vt 48.6151 75.4438
v 27.6178 0.27003 7.34751
vt 48.6151 63.9778
f 45/45/1 46/46/1 47/47/1 48/48/1 

f 48/48/2 47/47/2 46/46/2 45/45/2 

g Mesh13 Group1 Model

v 27.6178 -0.0534022 7.79208
vt 66.1178 51.2443
v 27.6178 0.237833 7.79208
vt 66.1178 62.7102
v 27.6178 0.237833 7.34751
vt 48.6151 62.7102
v 27.6178 -0.0534022 7.34751
vt 48.6151 51.2443
f 49/49/1 50/50/1 51/51/1 52/52/1 

f 52/52/2 51/51/2 50/50/2 49/49/2 

g Mesh14 Group1 Model

v 27.6233 -1.35501 8.74526
vt 103.645 -0.00390259
v 27.6122 -0.101698 8.74526
vt 103.645 49.3409
v 27.6122 -0.101698 7.85612
vt 68.6392 49.3409
v 27.6233 -1.35501 7.85612
vt 68.6392 -0.00390259
f 53/53/3 54/54/3 55/55/3 56/56/3 

f 56/56/4 55/55/4 54/54/4 53/53/4 

g Mesh15 Group1 Model

v 27.6178 -0.0534022 8.27934
vt 85.3014 51.2443
v 27.6178 0.237833 8.27934
vt 85.3014 62.7102
v 27.6178 0.237833 7.83477
vt 67.7987 62.7102
v 27.6178 -0.0534022 7.83477
vt 67.7987 51.2443
f 57/57/1 58/58/1 59/59/1 60/60/1 

f 60/60/2 59/59/2 58/58/2 57/57/2 

g Mesh16 Group1 Model

v 27.6178 0.27003 8.27934
vt 85.3014 63.9778
v 27.6178 0.561265 8.27934
vt 85.3014 75.4438
v 27.6178 0.561265 7.83477
vt 67.7987 75.4438
v 27.6178 0.27003 7.83477
vt 67.7987 63.9778
f 61/61/1 62/62/1 63/63/1 64/64/1 

f 64/64/2 63/63/2 62/62/2 61/61/2 

g Mesh17 Group1 Model

v 27.6178 -0.0534022 7.30481
vt 46.9342 51.2443
v 27.6178 0.237833 7.30481
vt 46.9342 62.7102
v 27.6178 0.237833 6.86025
vt 29.4315 62.7102
v 27.6178 -0.0534022 6.86025
vt 29.4315 51.2443
f 65/65/1 66/66/1 67/67/1 68/68/1 

f 68/68/2 67/67/2 66/66/2 65/65/2 

g Mesh18 Group1 Model

v 27.6178 -0.0534022 8.76661
vt 104.485 51.2443
v 27.6178 0.237833 8.76661
vt 104.485 62.7102
v 27.6178 0.237833 8.32204
vt 86.9823 62.7102
v 27.6178 -0.0534022 8.32204
vt 86.9823 51.2443
f 69/69/1 70/70/1 71/71/1 72/72/1 

f 72/72/2 71/71/2 70/70/2 69/69/2 

g Mesh19 Group1 Model

v 27.6178 0.27003 7.30481
vt 46.9342 63.9778
v 27.6178 0.561265 7.30481
vt 46.9342 75.4438
v 27.6178 0.561265 6.86025
vt 29.4315 75.4438
v 27.6178 0.27003 6.86025
vt 29.4315 63.9778
f 73/73/1 74/74/1 75/75/1 76/76/1 

f 76/76/2 75/75/2 74/74/2 73/73/2 

g Mesh20 Group1 Model

v 27.6233 -1.35501 7.77073
vt 65.2773 -0.00390259
v 27.6122 -0.101698 7.77073
vt 65.2773 49.3409
v 27.6122 -0.101698 6.88159
vt 30.2719 49.3409
v 27.6233 -1.35501 6.88159
vt 30.2719 -0.00390259
f 77/77/3 78/78/3 79/79/3 80/80/3 

f 80/80/4 79/79/4 78/78/4 77/77/4 

g Mesh21 Group1 Model

l 3 4

l 2 3

l 1 2

l 4 1

g Mesh22 Group1 Model

l 21 22

l 24 21

l 23 24

l 22 23

g Mesh23 Group1 Model

l 37 38

l 40 37

l 39 40

l 38 39

g Mesh24 Group1 Model

l 31 32

l 30 31

l 29 30

l 32 29

g Mesh25 Group1 Model

l 5 6

l 8 5

l 7 8

l 6 7

g Mesh26 Group1 Model

l 14 15

l 13 14

l 16 13

l 15 16

g Mesh27 Group1 Model

l 9 10

l 12 9

l 11 12

l 10 11

g Mesh28 Group1 Model

l 18 19

l 17 18

l 20 17

l 19 20

g Mesh29 Group1 Model

l 33 34

l 36 33

l 35 36

l 34 35

g Mesh30 Group1 Model

l 27 28

l 26 27

l 25 26

l 28 25

g Mesh31 Group1 Model

l 43 44

l 42 43

l 41 42

l 44 41

g Mesh32 Group1 Model

l 48 45

l 47 48

l 46 47

l 45 46

g Mesh33 Group1 Model

l 49 50

l 52 49

l 51 52

l 50 51

g Mesh34 Group1 Model

l 62 63

l 61 62

l 64 61

l 63 64

g Mesh35 Group1 Model

l 54 55

l 53 54

l 56 53

l 55 56

g Mesh36 Group1 Model

l 58 59

l 57 58

l 60 57

l 59 60

g Mesh37 Group1 Model

l 71 72

l 70 71

l 69 70

l 72 69

g Mesh38 Group1 Model

l 65 66

l 68 65

l 67 68

l 66 67

g Mesh39 Group1 Model

l 75 76

l 74 75

l 73 74

l 76 73

g Mesh40 Group1 Model

l 80 77

l 79 80

l 78 79

l 77 78

