# Alias OBJ Model File
# Exported from SketchUp, (c) 2000-2012 Trimble Navigation Limited
# File units = meters

mtllib COURT_STLBY.mtl

g Mesh1 Group2 Group1 Model

usemtl Aluminum
v -27.3113 -3.8862 -30.083
vt 7.13911 16.2513
vn 0 -1 -0
v -27.3374 -3.8862 -30.0021
vt 7.15628 16.1983
v -27.4453 -3.8862 -30.037
vt 7.22246 16.2197
v -27.4323 -3.8862 -30.0775
vt 7.21387 16.2462
v -27.4192 -3.8862 -30.1179
vt 7.20529 16.2727
f 1/1/1 2/2/1 3/3/1 4/4/1 5/5/1 

usemtl BackColor
vt -3.34646 3.34646
vn -0 1 0
vt -3.34646 1.67323
vt -3.34646 6.82121e-13
vt -7.81181 2.04636e-12
vt -7.81181 3.34646
f 5/6/2 4/7/2 3/8/2 2/9/2 1/10/2 

usemtl Aluminum
vt 13.2368 -2.55
vn 0.951445 2.13747e-20 0.307819
vt 13.2647 -2.55
v -27.4192 -1.4362 -30.1179
vt 13.2647 -0.942391
v -27.4323 -1.4362 -30.0775
vt 13.2368 -0.942391
f 4/11/3 5/12/3 6/13/3 7/14/3 

usemtl BackColor
vt 1.67323 96.4567
vn -0.951445 -2.13747e-20 -0.307819
vt 3.34646 96.4567
vt 3.34646 -4.63636e-17
vt 1.67323 -4.63636e-17
f 7/15/4 6/16/4 5/17/4 4/18/4 

usemtl Aluminum
v -27.3374 -1.4362 -30.0021
vt -7.15628 16.1983
vn 6.05589e-15 1 1.95925e-15
v -27.3113 -1.4362 -30.083
vt -7.13911 16.2513
vt -7.20529 16.2727
vt -7.21387 16.2462
v -27.4453 -1.4362 -30.037
vt -7.22246 16.2197
f 8/19/5 9/20/5 6/21/5 7/22/5 10/23/5 

usemtl BackColor
vt 3.34646 6.8482e-13
vn -6.05589e-15 -1 -1.95925e-15
vt 3.34646 1.67323
vt 3.34646 3.34646
vt 7.81181 3.34646
vt 7.81181 2.04906e-12
f 10/24/6 7/25/6 6/26/6 9/27/6 8/28/6 

usemtl Aluminum
vn 0.951445 -2.13747e-20 0.307819
vt 13.2089 -0.942391
vt 13.2089 -2.55
f 7/14/7 10/29/7 3/30/7 4/11/7 

usemtl BackColor
vt 1.67323 -4.62206e-17
vn -0.951445 2.13747e-20 -0.307819
vt 5.28864e-13 -4.62206e-17
vt 5.28864e-13 96.4567
f 4/31/8 3/32/8 10/33/8 7/15/8 

usemtl Aluminum
v -27.482 -3.8862 -30.1998
v -27.4012 -3.8862 -30.1736
vt 7.18328 16.207
vt 7.20287 16.2133
v -27.4858 -3.8862 -30.0501
v -27.5262 -3.8862 -30.0632
f 11/1/1 12/2/1 5/34/1 4/35/1 3/3/1 13/4/1 14/5/1 

vn 0.307819 3.97997e-15 -0.951445
v -27.482 -1.4362 -30.1998
v -27.4012 -1.4362 -30.1736
f 11/12/9 15/13/9 16/29/9 12/30/9 

usemtl BackColor
vt -3.34646 -2.26547e-14
vn -0.307819 -3.97997e-15 0.951445
vt -3.34646 96.4567
vt -2.16974e-11 96.4567
vt -2.16974e-11 -2.26547e-14
f 12/36/10 16/37/10 15/38/10 11/39/10 

usemtl Aluminum
vt -11.8233 -2.55
vn 0.951445 1.98348e-16 0.307819
vt -11.7949 -2.55
vt -11.7949 -0.942391
vt -11.8233 -0.942391
f 5/40/11 12/41/11 16/42/11 6/43/11 

usemtl BackColor
vt -2.251e-11 6.82121e-13
vt -1.67323 3.41061e-13
vt -3.34646 5.65246
vt -2.22826e-11 5.65246
f 14/44/2 13/45/2 3/8/2 4/7/2 5/6/2 12/46/2 11/47/2 

usemtl Aluminum
vt -13.2647 -2.55
vn -0.307819 -1.67649e-16 0.951445
vt -13.2368 -2.55
v -27.4858 -1.4362 -30.0501
vt -13.2368 -0.942391
v -27.5262 -1.4362 -30.0632
vt -13.2647 -0.942391
f 14/48/12 13/49/12 17/50/12 18/51/12 

usemtl BackColor
vt 2.251e-11 96.4567
vn 0.307819 1.67649e-16 -0.951445
vt 1.67323 -6.32862e-29
vt 2.251e-11 -1.33441e-28
f 18/52/13 17/15/13 13/53/13 14/54/13 

usemtl Aluminum
vn -9.79852e-16 1 -6.08508e-15
vt -7.20287 16.2133
vt -7.18328 16.207
f 16/19/14 15/20/14 18/21/14 17/22/14 10/23/14 7/55/14 6/56/14 

usemtl BackColor
vn 9.79852e-16 -1 6.08508e-15
vt 3.34646 1.55465e-13
vt 1.67323 -1.85596e-13
vt 2.27819e-11 1.55465e-13
vt 2.25546e-11 5.65246
vt 3.34646 5.65246
f 6/26/15 7/25/15 10/57/15 17/58/15 18/59/15 15/60/15 16/61/15 

usemtl Aluminum
vt -13.2089 -0.942391
vn -0.307819 2.13747e-20 0.951445
vt -13.2089 -2.55
f 10/62/16 17/50/16 13/49/16 3/63/16 

usemtl BackColor
vt 3.34646 1.97191e-29
vn 0.307819 -2.13747e-20 -0.951445
vt 1.67323 9.85957e-30
f 3/64/17 13/65/17 17/15/17 10/16/17 

usemtl Aluminum
vt -11.8645 -2.55
vn -0.307819 3.7912e-33 0.951445
vt -11.8645 -0.942391
f 3/66/18 2/41/18 8/42/18 10/67/18 

usemtl BackColor
vn 0.307819 -3.7912e-33 -0.951445
vt 7.81181 96.4567
vt 7.81181 1.11615e-29
vt 3.34646 1.02233e-29
f 10/16/19 8/68/19 2/69/19 3/70/19 

usemtl Aluminum
vn 0.951445 4.35988e-31 0.307819
f 2/30/20 1/12/20 9/13/20 8/29/20 

usemtl BackColor
vt 3.3668e-12 96.4567
vn -0.951445 -4.35988e-31 -0.307819
vt 3.34646 -1.08062e-16
vt 3.3668e-12 -1.08062e-16
f 8/71/21 9/16/21 1/72/21 2/73/21 

usemtl Aluminum
vt 11.7949 -2.55
vt 11.8645 -2.55
vt 11.8645 -0.942391
vt 11.7949 -0.942391
f 1/74/19 5/75/19 6/76/19 9/77/19 

usemtl BackColor
vt -7.81181 96.4567
vt -3.34646 -9.36252e-17
vt -7.81181 -9.36252e-17
f 9/78/18 6/37/18 5/79/18 1/80/18 

vn -0.951445 -1.98348e-16 -0.307819
vt 5.65246 96.4567
vt 5.65246 -7.10057e-16
vt 3.34646 -7.10057e-16
f 6/16/22 16/81/22 12/82/22 5/83/22 

usemtl Aluminum
vn -0.951445 3.77622e-17 -0.307819
f 11/74/23 14/75/23 18/76/23 15/77/23 

usemtl BackColor
vt -5.65246 96.4567
vn 0.951445 -3.77622e-17 0.307819
vt -6.82121e-13 96.4567
vt -6.82121e-13 5.38643e-28
vt -5.65246 5.31993e-28
f 15/84/24 18/85/24 14/86/24 11/87/24 

g Mesh2 Group2 Group1 Model

usemtl Aluminum
v -23.3375 -3.8862 -28.708
vn -0.307819 2.79774e-17 0.951445
v -23.2296 -3.8862 -28.6731
v -23.2296 -1.4362 -28.6731
v -23.3375 -1.4362 -28.708
f 19/66/25 20/41/25 21/42/25 22/67/25 

usemtl BackColor
vt 173.325 96.4567
vn 0.307819 -2.79774e-17 -0.951445
vt 177.79 96.4567
vt 177.79 4.20172e-43
vt 173.325 2.55755e-43
f 22/88/26 21/89/26 20/90/26 19/91/26 

usemtl Aluminum
v -23.2035 -1.4362 -28.754
v -23.3114 -1.4362 -28.7889
f 21/19/5 23/20/5 24/21/5 22/23/5 

usemtl BackColor
vt 173.325 9.12193e-13
vt 173.325 3.34646
vt 177.79 3.34646
vt 177.79 2.04906e-12
f 22/92/6 24/93/6 23/94/6 21/95/6 

usemtl Aluminum
vn -0.951445 -2.40741e-31 -0.307819
v -23.3114 -3.8862 -28.7889
f 22/62/27 24/51/27 25/48/27 19/63/27 

usemtl BackColor
vt 1.49467e-11 -2.39763e-15
vn 0.951445 2.40741e-31 0.307819
vt -3.34646 -2.39763e-15
vt 1.49467e-11 96.4567
f 19/96/28 25/97/28 24/37/28 22/98/28 

usemtl Aluminum
v -23.2035 -3.8862 -28.754
f 26/1/1 20/2/1 19/3/1 25/5/1 

usemtl BackColor
vt -173.325 3.34646
vt -173.325 9.09495e-13
vt -177.79 2.04636e-12
vt -177.79 3.34646
f 25/99/2 19/100/2 20/101/2 26/102/2 

usemtl Aluminum
f 26/74/26 25/75/26 24/76/26 23/77/26 

usemtl BackColor
vt -177.79 96.4567
vt -173.325 96.4567
vt -173.325 4.53731e-31
vt -177.79 4.53731e-31
f 23/103/25 24/104/25 25/105/25 26/106/25 

g Mesh3 Group2 Group1 Model

usemtl Aluminum
v -25.8319 -1.4362 -35.3004
vn -0.307819 -3.25411e-15 0.951445
v -25.8319 -3.8862 -35.3004
v -25.751 -3.8862 -35.2742
v -25.751 -1.4362 -35.2742
f 27/51/29 28/48/29 29/63/29 30/62/29 

usemtl BackColor
vn 0.307819 3.25411e-15 -0.951445
vt 3.34646 -6.82838e-13
vt -4.08089e-11 -6.82838e-13
vt -3.98994e-11 96.4567
f 30/16/30 29/107/30 28/108/30 27/109/30 

usemtl Aluminum
vt -11.8455 -2.55
vn 0.951445 1.48451e-15 0.307819
v -25.7188 -3.8862 -35.3735
v -25.7188 -1.4362 -35.3735
vt -11.8455 -0.942391
f 29/110/31 31/41/31 32/42/31 30/111/31 

v -25.7997 -3.8862 -35.3997
vn 1.75886e-19 -1 -5.4365e-19
vt 7.20439 16.2138
vt 7.18722 16.2669
f 33/1/32 31/2/32 29/112/32 28/113/32 

usemtl BackColor
vt -2.36469e-11 216.71
vn -1.75886e-19 1 5.4365e-19
vt -3.34646 216.71
vt -3.34646 220.819
vt -2.27374e-11 220.819
f 28/114/33 29/115/33 31/116/33 33/117/33 

vt 216.71 96.4567
vn -0.951445 -1.48451e-15 -0.307819
vt 220.819 96.4567
vt 220.819 2.34076e-14
vt 216.71 2.34076e-14
f 30/118/34 32/119/34 31/120/34 29/121/34 

usemtl Aluminum
vn 2.1289e-15 1 -6.58027e-15
v -25.7997 -1.4362 -35.3997
vt -7.18722 16.2669
vt -7.20439 16.2138
f 32/19/35 34/20/35 27/122/35 30/123/35 

usemtl BackColor
vt 3.34646 216.71
vn -2.1289e-15 -1 6.58027e-15
vt 2.45577e-11 216.71
vt 2.27387e-11 220.819
vt 3.34646 220.819
f 30/124/36 27/125/36 34/126/36 32/127/36 

usemtl Aluminum
vn -0.951445 1.64876e-16 -0.307819
vt 11.8455 -2.55
vt 11.8455 -0.942391
f 33/74/37 28/128/37 27/129/37 34/77/37 

usemtl BackColor
vt -220.819 96.4567
vn 0.951445 -1.64876e-16 0.307819
vt -216.71 96.4567
vt -216.71 2.84217e-14
vt -220.819 2.84217e-14
f 34/130/38 27/131/38 28/132/38 33/133/38 

g Mesh4 Group2 Group1 Model

usemtl Aluminum
v -24.1174 -3.8862 -40.5995
vn -5.15926e-16 -1 1.59469e-15
v -24.0365 -3.8862 -40.5734
v -24.0807 -3.8862 -40.4368
v -24.1616 -3.8862 -40.4629
f 35/1/39 36/2/39 37/3/39 38/5/39 

usemtl BackColor
vt -9.09495e-12 430.333
vn 5.15926e-16 1 -1.59469e-15
vt -3.34646 430.333
vt -3.34646 435.986
vt -7.7307e-12 435.986
f 38/134/40 37/135/40 36/136/40 35/137/40 

usemtl Aluminum
vn -0.307819 3.13444e-19 0.951445
v -24.0807 -1.4362 -40.4368
v -24.1616 -1.4362 -40.4629
f 37/63/41 39/62/41 40/51/41 38/48/41 

usemtl BackColor
vt 1.80902e-12 3.29156e-13
vn 0.307819 -3.13444e-19 -0.951445
vt 1.80902e-12 96.4567
vt 3.34646 3.29156e-13
f 38/138/42 40/139/42 39/16/42 37/140/42 

usemtl Aluminum
v -24.1174 -1.4362 -40.5995
f 35/74/23 38/75/23 40/76/23 41/77/23 

usemtl BackColor
vt -435.986 96.4567
vt -430.333 96.4567
vt -430.333 3.41061e-13
vt -435.986 3.41061e-13
f 41/141/24 40/142/24 38/143/24 35/144/24 

usemtl Aluminum
v -24.0365 -1.4362 -40.5734
vn 1.54778e-15 1 -4.78406e-15
f 42/19/43 41/20/43 40/21/43 39/23/43 

usemtl BackColor
vt 3.34646 430.333
vn -1.54778e-15 -1 4.78406e-15
vt 9.09628e-12 430.333
vt 7.73204e-12 435.986
vt 3.34646 435.986
f 39/145/44 40/146/44 41/147/44 42/148/44 

usemtl Aluminum
f 37/66/24 36/41/24 42/42/24 39/67/24 

usemtl BackColor
vt 430.333 96.4567
vt 435.986 96.4567
vt 435.986 3.41141e-13
vt 430.333 3.41141e-13
f 39/149/23 42/150/23 36/151/23 37/152/23 

g Mesh5 Group2 Group1 Model

usemtl Aluminum
v -22.4351 -3.8862 -45.7994
v -22.4793 -3.8862 -45.6628
v -22.4793 -1.4362 -45.6628
v -22.4351 -1.4362 -45.7994
f 43/74/23 44/75/23 45/76/23 46/77/23 

usemtl BackColor
vt -651.152 96.4567
vt -645.5 96.4567
vt -645.5 8.52651e-14
vt -651.152 8.52651e-14
f 46/153/24 45/154/24 44/155/24 43/156/24 

usemtl Aluminum
v -22.3542 -1.4362 -45.7732
v -22.3984 -1.4362 -45.6366
f 47/19/40 46/20/40 45/21/40 48/23/40 

usemtl BackColor
vt 3.34646 645.5
vt 9.10829e-13 645.5
vt 1.3343e-15 651.152
vt 3.34646 651.152
f 48/157/39 45/158/39 46/159/39 47/160/39 

usemtl Aluminum
vn -0.307819 1.21318e-31 0.951445
v -22.3984 -3.8862 -45.6366
f 48/62/45 45/51/45 44/48/45 49/63/45 

usemtl BackColor
vt 3.34646 6.72057e-14
vn 0.307819 -1.21318e-31 -0.951445
vt -1.6349e-10 6.72057e-14
vt -1.6349e-10 96.4567
f 49/161/46 44/162/46 45/163/46 48/16/46 

usemtl Aluminum
v -22.3542 -3.8862 -45.7732
f 43/1/1 50/2/1 49/3/1 44/5/1 

vn 0.307819 1.48739e-16 -0.951445
f 50/30/47 43/12/47 46/13/47 47/29/47 

usemtl BackColor
vn -0.307819 -1.48739e-16 0.951445
vt -8.53051e-12 96.4567
vt -8.53051e-12 -2.9804e-14
vt -3.34646 -2.9804e-14
f 47/37/48 46/164/48 43/165/48 50/166/48 

vt -9.09495e-13 645.5
vt -3.34646 645.5
vt -3.34646 651.152
vt -1.17949e-30 651.152
f 44/167/2 49/168/2 50/169/2 43/170/2 

usemtl Aluminum
f 49/66/24 50/41/24 47/42/24 48/67/24 

usemtl BackColor
vt 645.5 96.4567
vt 651.152 96.4567
vt 651.152 8.53452e-14
vt 645.5 8.53452e-14
f 48/171/23 47/172/23 50/173/23 49/174/23 

g Mesh6 Group2 Group1 Model

usemtl Aluminum
v -19.0956 -3.8862 -27.425
v -19.1218 -3.8862 -27.3441
v -19.2297 -3.8862 -27.3791
v -19.2035 -3.8862 -27.4599
f 51/1/1 52/2/1 53/3/1 54/5/1 

usemtl BackColor
vt -343.303 3.34646
vt -343.303 1.13687e-13
vt -347.769 1.7053e-12
vt -347.769 3.34646
f 54/175/2 53/176/2 52/177/2 51/178/2 

usemtl Aluminum
v -19.2297 -1.4362 -27.3791
vn -0.951445 9.478e-32 -0.307819
v -19.2035 -1.4362 -27.4599
f 55/62/49 56/51/49 54/48/49 53/63/49 

v -19.1218 -1.4362 -27.3441
vn 5.04657e-15 1 1.63271e-15
v -19.0956 -1.4362 -27.425
f 57/19/50 58/20/50 56/21/50 55/23/50 

usemtl BackColor
vt 343.303 1.16385e-13
vn -5.04657e-15 -1 -1.63271e-15
vt 343.303 3.34646
vt 347.769 3.34646
vt 347.769 1.708e-12
f 55/179/51 56/180/51 58/181/51 57/182/51 

vt 1.56085e-11 -4.74897e-15
vn 0.951445 -9.478e-32 0.307819
vt -3.34646 -4.74897e-15
vt 1.56085e-11 96.4567
f 53/183/52 54/184/52 56/37/52 55/185/52 

usemtl Aluminum
f 51/74/26 54/75/26 56/76/26 58/77/26 

usemtl BackColor
vt -347.769 96.4567
vt -343.303 96.4567
vt -343.303 4.53731e-31
vt -347.769 4.53731e-31
f 58/186/25 56/187/25 54/188/25 51/189/25 

usemtl Aluminum
f 53/66/25 52/41/25 57/42/25 55/67/25 

usemtl BackColor
vt 343.303 96.4567
vt 347.769 96.4567
vt 347.769 4.96215e-43
vt 343.303 2.67338e-43
f 55/190/26 57/191/26 52/192/26 53/193/26 

g Mesh7 Group2 Group1 Model

usemtl Aluminum
v -15.1219 -3.8862 -26.0501
v -15.014 -3.8862 -26.0151
v -15.014 -1.4362 -26.0151
v -15.1219 -1.4362 -26.0501
f 59/66/25 60/41/25 61/42/25 62/67/25 

usemtl BackColor
vt 513.281 96.4567
vt 517.747 96.4567
vt 517.747 6.85061e-43
vt 513.281 4.723e-43
f 62/194/26 61/195/26 60/196/26 59/197/26 

usemtl Aluminum
v -14.9878 -1.4362 -26.096
v -15.0957 -1.4362 -26.1309
f 61/19/50 63/20/50 64/21/50 62/23/50 

usemtl BackColor
vt 513.281 6.8482e-13
vt 513.281 3.34646
vt 517.747 3.34646
vt 517.747 2.16275e-12
f 62/198/51 64/199/51 63/200/51 61/201/51 

usemtl Aluminum
vn -0.951445 -1.70972e-19 -0.307819
v -15.0957 -3.8862 -26.1309
f 62/62/53 64/51/53 65/48/53 59/63/53 

usemtl BackColor
vt -9.37244e-12 -7.18806e-15
vn 0.951445 1.70972e-19 0.307819
vt -3.34646 -7.18806e-15
vt -9.37244e-12 96.4567
f 59/202/54 65/203/54 64/37/54 62/204/54 

usemtl Aluminum
v -14.9878 -3.8862 -26.096
f 66/1/1 60/2/1 59/3/1 65/5/1 

usemtl BackColor
vt -513.281 3.34646
vt -513.281 6.82121e-13
vt -517.747 2.16005e-12
vt -517.747 3.34646
f 65/205/2 59/206/2 60/207/2 66/208/2 

usemtl Aluminum
f 66/74/26 65/75/26 64/76/26 63/77/26 

usemtl BackColor
vt -517.747 96.4567
vt -513.281 96.4567
vt -513.281 4.53731e-31
vt -517.747 4.53731e-31
f 63/209/25 64/210/25 65/211/25 66/212/25 

g Mesh8 Group2 Group1 Model

usemtl Aluminum
v -11.0141 -3.8862 -24.7211
v -10.9062 -3.8862 -24.6862
v -10.9062 -1.4362 -24.6862
v -11.0141 -1.4362 -24.7211
f 67/66/25 68/41/25 69/42/25 70/67/25 

usemtl BackColor
vt 683.26 96.4567
vt 687.725 96.4567
vt 687.725 1.24455e-42
vt 683.26 9.9956e-43
f 70/213/26 69/214/26 68/215/26 67/216/26 

usemtl Aluminum
vn 1.01018e-15 1 3.2682e-16
v -10.88 -1.4362 -24.767
v -10.9879 -1.4362 -24.8019
f 69/19/55 71/20/55 72/21/55 70/23/55 

usemtl BackColor
vt 683.26 3.52699e-12
vn -1.01018e-15 -1 -3.2682e-16
vt 683.26 3.34646
vt 687.725 3.34646
vt 687.725 5.23229e-12
f 70/217/56 72/218/56 71/219/56 69/220/56 

usemtl Aluminum
vn -0.951445 -3.41208e-31 -0.307819
v -10.9879 -3.8862 -24.8019
f 70/62/57 72/51/57 73/48/57 67/63/57 

usemtl BackColor
vt 4.33554e-11 -9.45165e-15
vn 0.951445 3.41208e-31 0.307819
vt -3.34646 -9.45165e-15
vt 4.33554e-11 96.4567
f 67/221/58 73/222/58 72/37/58 70/223/58 

usemtl Aluminum
v -10.88 -3.8862 -24.767
vn -8.61032e-19 -1 -2.78568e-19
f 74/1/59 68/2/59 67/3/59 73/5/59 

vn 0.951445 -1.38332e-17 0.307819
f 68/30/60 74/12/60 71/13/60 69/29/60 

usemtl BackColor
vt 2.28484e-13 96.4567
vn -0.951445 1.38332e-17 -0.307819
vt 3.34646 3.92055e-29
vt 2.28484e-13 3.92055e-29
f 69/224/61 71/16/61 74/225/61 68/226/61 

usemtl Aluminum
f 74/74/26 73/75/26 72/76/26 71/77/26 

usemtl BackColor
vt -687.725 96.4567
vt -683.26 96.4567
vt -683.26 4.53731e-31
vt -687.725 4.53731e-31
f 71/227/25 72/228/25 73/229/25 74/230/25 

vt -683.26 3.34646
vn 8.61032e-19 1 2.78568e-19
vt -683.26 3.52429e-12
vt -687.725 5.22959e-12
vt -687.725 3.34646
f 73/231/62 67/232/62 68/233/62 74/234/62 

g Mesh9 Group2 Group1 Model

l 26 25

l 26 23

l 20 26

l 19 20

l 25 19

l 25 24

l 23 24

l 21 23

l 20 21

l 22 21

l 19 22

l 24 22

g Mesh10 Group2 Group1 Model

l 2 8

l 3 2

l 3 4

l 3 10

l 13 3

l 13 17

l 14 13

l 14 18

l 11 14

l 12 11

l 12 16

l 5 12

l 5 6

l 4 5

l 4 7

l 7 6

l 10 7

l 10 8

l 17 10

l 18 17

l 15 18

l 11 15

l 16 15

l 6 16

l 9 6

l 8 9

l 1 9

l 2 1

l 1 5

g Mesh11 Group2 Group1 Model

l 28 29

l 28 27

l 33 28

l 31 33

l 31 32

l 29 31

l 29 30

l 27 30

l 34 27

l 32 34

l 30 32

l 33 34

g Mesh12 Group2 Group1 Model

l 38 37

l 38 40

l 35 38

l 36 35

l 37 36

l 37 39

l 40 39

l 41 40

l 42 41

l 36 42

l 39 42

l 35 41

g Mesh13 Group2 Group1 Model

l 50 43

l 49 50

l 49 48

l 44 49

l 43 44

l 43 46

l 47 46

l 48 47

l 45 48

l 44 45

l 46 45

l 50 47

g Mesh14 Group2 Group1 Model

l 52 57

l 52 51

l 53 52

l 54 53

l 51 54

l 51 58

l 57 58

l 55 57

l 56 55

l 58 56

l 54 56

l 53 55

g Mesh15 Group2 Group1 Model

l 59 62

l 59 60

l 65 59

l 65 64

l 66 65

l 60 66

l 60 61

l 62 61

l 64 62

l 63 64

l 66 63

l 61 63

g Mesh16 Group2 Group1 Model

l 68 74

l 67 68

l 67 70

l 73 67

l 74 73

l 74 71

l 69 71

l 68 69

l 70 69

l 72 70

l 71 72

l 73 72

g Mesh17 Group1 Model

usemtl Aluminum
v -23.2035 -1.4362 -28.754
vn 0.951445 1.92333e-19 0.307819
v -23.2165 -1.4362 -28.7136
v -23.2165 -3.8862 -28.7136
v -23.2035 -3.8862 -28.754
f 75/13/63 76/14/63 77/11/63 78/12/63 

usemtl BackColor
vt 6.69291 7.01736e-15
vn -0.951445 -1.92333e-19 -0.307819
vt 5.01969 7.01736e-15
vt 5.01969 96.4567
vt 6.69291 96.4567
f 78/235/64 77/236/64 76/237/64 75/238/64 

g Mesh18 Group1 Model

usemtl Aluminum
v -14.9878 -1.4362 -26.096
vn 0.951445 -4.27494e-20 0.307819
v -15.0009 -1.4362 -26.0556
v -15.0009 -3.8862 -26.0556
f 79/13/65 80/14/65 81/11/65 66/12/65 

usemtl BackColor
vt 6.69291 2.2116e-15
vn -0.951445 4.27494e-20 -0.307819
vt 5.01969 2.2116e-15
f 66/239/66 81/240/66 80/237/66 79/238/66 

g Mesh19 Group1 Model

usemtl Aluminum
v -19.0956 -1.4362 -27.425
v -19.1087 -1.4362 -27.3846
v -19.1087 -3.8862 -27.3846
v -19.0956 -3.8862 -27.425
f 82/13/65 83/14/65 84/11/65 85/12/65 

usemtl BackColor
vt 6.69291 4.55567e-15
vt 5.01969 4.55567e-15
f 85/241/66 84/242/66 83/237/66 82/238/66 

g Mesh20 Group1 Model

v -25.724 -1.4362 -35.4956
v -25.7645 -1.4362 -35.5087
l 86 87

g Mesh21 Group1 Model

v -25.724 -3.8862 -35.4956
v -25.7645 -3.8862 -35.5087
l 88 89

g Mesh22 Group1 Model

v -24.0074 -3.8862 -40.8016
v -24.0478 -3.8862 -40.8147
l 90 91

g Mesh23 Group1 Model

v -24.0074 -1.4362 -40.8016
v -24.0478 -1.4362 -40.8147
l 92 93

g Mesh24 Group1 Model

l 78 75

l 77 78

l 77 76

l 76 75

g Mesh25 Group1 Model

l 85 82

l 84 85

l 84 83

l 83 82

g Mesh26 Group1 Model

l 81 80

l 81 66

l 66 79

l 80 79

