# Alias OBJ Model File
# Exported from SketchUp, (c) 2000-2012 Trimble Navigation Limited
# File units = meters

mtllib GH_barrier.mtl

g Mesh1 Group1 Model

usemtl Translucent_Glass_Blue
v 28.9965 2.17939 -30.2106
vt -76.8677 273.215
vn -7.29416e-16 -1 4.20462e-15
v 27.0583 2.17939 -24.0701
vt -0.557467 31.4628
v 27.0003 2.17939 -24.0405
vt 1.72309 30.2971
f 1/1/1 2/2/1 3/3/1

v 29.0302 2.17939 -30.165
vt -78.1909 271.422
f 2/2/1 1/1/1 4/4/1

v 31.3752 2.17939 -29.4411
vt -170.514 242.918
f 4/4/1 1/1/1 5/5/1

v 28.9965 3.28339 -30.2106
vt 10.9655 43.4646
vn 0.307819 -5.2808e-15 -0.951445
vt -87.4597 4.60298e-13
vt 10.9655 3.75033e-13
f 6/6/2 5/7/2 1/8/2

v 31.3752 3.28339 -29.4411
vt -87.4597 43.4646
f 5/7/2 6/6/2 7/9/2

vt 76.8677 273.215
vn 7.22171e-16 1 -4.17781e-15
v 29.0302 3.28339 -30.165
vt 78.1909 271.422
vt 170.514 242.918
f 6/10/3 8/11/3 7/12/3

v 27.0583 3.28339 -24.0701
vt 0.557467 31.4628
f 6/10/3 9/13/3 8/11/3

v 27.0003 3.28339 -24.0405
vt -1.72309 30.2971
f 9/13/3 6/10/3 10/14/3

vt -283.611 -1.11838e-12
vn -0.951445 -3.89725e-16 -0.307819
vt -28.2957 43.4646
vt -283.611 43.4646
f 1/15/4 10/16/4 6/17/4

vt -28.2957 -9.93735e-15
f 10/16/4 1/15/4 3/18/4

v 29.3789 2.17939 -23.2709
vt 87.4597 2.34689e-13
vn -0.307819 5.2808e-15 0.951445
vt -10.9655 43.4646
vt -10.9655 1.35213e-13
f 11/19/5 10/20/5 3/21/5

v 29.3789 3.28339 -23.2709
vt 87.4597 43.4646
f 10/20/5 11/19/5 12/22/5

v 29.3931 2.17939 -23.3147
vt 30.1067 -1.15453e-14
vn 0.951445 2.94492e-16 0.307819
vt 28.2957 43.4646
vt 28.2957 5.9509e-14
f 13/23/6 12/24/6 11/25/6

v 29.3931 3.28339 -23.3147
vt 30.1067 43.4646
f 12/24/6 13/23/6 14/26/6

vt -87.4597 1.73198e-13
vt 9.15443 43.4646
f 13/27/2 9/28/2 14/9/2

vt 9.15443 1.58987e-13
f 9/28/2 13/27/2 2/29/2

vt -91.9231 -6.40428e-28
vt -92.4805 1.72309
f 11/30/1 2/2/1 13/31/1

f 2/2/1 11/30/1 3/3/1

vt 282.311 -1.0347e-12
vt 30.1067 2.69591e-15
f 4/32/6 9/26/6 2/33/6

vt 282.311 43.4646
f 9/26/6 4/32/6 8/34/6

vt -9.15443 -1.03739e-12
vn -0.307819 0 0.951445
v 31.365 3.28339 -29.4097
vt -9.15443 43.4646
f 4/35/7 15/22/7 8/36/7

v 31.365 2.17939 -29.4097
vt 87.4597 -1.03739e-12
f 15/22/7 4/35/7 16/37/7

vt -170.114 241.682
f 4/4/1 5/5/1 16/38/1

vt 283.611 -1.03739e-12
vn 0.951445 0 0.307819
vt 282.311 -1.03739e-12
f 5/39/8 15/34/8 16/40/8

vt 283.611 43.4646
f 15/34/8 5/39/8 7/41/8

vt 170.114 241.682
f 7/12/3 8/11/3 15/42/3

vt 91.9231 -6.79001e-14
vt 92.4805 1.72309
f 9/13/3 12/43/3 14/44/3

f 12/43/3 9/13/3 10/14/3

g Mesh2 Group1 Model

l 13 11

l 2 13

l 4 2

l 4 8

l 4 16

l 16 15

l 16 5

l 1 5

l 3 1

l 11 3

l 11 12

l 12 10

l 14 12

l 9 14

l 8 9

l 8 15

l 15 7

l 6 7

l 10 6

l 3 10

l 1 6

l 5 7

l 2 9

l 13 14

