# Alias OBJ Model File
# Exported from SketchUp, (c) 2000-2012 Trimble Navigation Limited
# File units = meters

mtllib GH_win_glass.mtl

g Mesh1 Group1 Model

usemtl Translucent_Glass_Blue
v 30.6731 3.03163 -26.8544
vt 337.944 135.645
vn 0.947054 0 0.321073
v 29.6383 4.49014 -23.802
vt 211.051 193.067
v 29.6383 3.03163 -23.802
vt 211.051 135.645
f 1/1/1 2/2/1 3/3/1

v 30.6731 4.49014 -26.8544
vt 337.944 193.067
f 2/2/1 1/1/1 4/4/1

g Mesh2 Group1 Model

v 30.549 3.08057 -21.424
vt 133.897 137.572
v 30.0442 4.53908 -19.935
vt 72.0008 194.994
v 30.0442 3.08057 -19.935
vt 72.0008 137.572
f 5/5/1 6/6/1 7/7/1

v 30.549 4.53908 -21.424
vt 133.897 194.994
f 6/6/1 5/5/1 8/8/1

g Mesh3 Group1 Model

v 28.8063 -0.326839 -27.2566
vt 329.341 3.42214
v 28.5282 0.712026 -26.4364
vt 295.244 44.3223
v 28.5282 -0.326839 -26.4364
vt 295.244 3.42214
f 9/9/1 10/10/1 11/11/1

v 28.8063 0.712026 -27.2566
vt 329.341 44.3223
f 10/10/1 9/9/1 12/12/1

g Mesh4 Group1 Model

v 29.8496 1.26752 -22.3102
vt -3.65473 66.1922
vn 0.321073 5.57362e-19 -0.947054
v 30.4527 -0.19099 -22.1058
vt -28.7236 8.77053
v 29.8496 -0.19099 -22.3102
vt -3.65473 8.77053
f 13/13/2 14/14/2 15/15/2

v 30.4527 1.26752 -22.1058
vt -28.7236 66.1922
f 14/14/2 13/13/2 16/16/2

g Mesh5 Group1 Model

v 29.8496 4.53252 -22.3102
vt -3.65473 194.736
v 30.4527 3.07401 -22.1058
vt -28.7236 137.314
v 29.8496 3.07401 -22.3102
vt -3.65473 137.314
f 17/17/2 18/18/2 19/19/2

v 30.4527 4.53252 -22.1058
vt -28.7236 194.736
f 18/18/2 17/17/2 20/20/2

g Mesh6 Group1 Model

v 32.238 0.689474 -18.9588
vt -135.071 43.4344
vn 0.321073 0 -0.947054
v 33.3178 -0.310391 -18.5927
vt -179.959 4.06969
v 32.238 -0.310391 -18.9588
vt -135.071 4.06969
f 21/21/3 22/22/3 23/23/3

v 33.3178 0.689474 -18.5927
vt -179.959 43.4344
f 22/22/3 21/21/3 24/24/3

g Mesh7 Group1 Model

l 23 21

l 22 23

l 24 22

l 21 24

g Mesh8 Group1 Model

l 3 1

l 2 3

l 4 2

l 1 4

g Mesh9 Group1 Model

l 7 5

l 6 7

l 8 6

l 5 8

g Mesh10 Group1 Model

l 10 11

l 12 10

l 9 12

l 11 9

g Mesh11 Group1 Model

l 17 20

l 19 17

l 18 19

l 20 18

g Mesh12 Group1 Model

l 15 13

l 14 15

l 16 14

l 13 16

