# Alias OBJ Model File
# Exported from SketchUp, (c) 2000-2012 Trimble Navigation Limited
# File units = meters

mtllib GH_win_frames.mtl

g Mesh1 Group2 Group1 Model

usemtl Color_C08
v 29.7768 2.98709 -22.366
vt -1.13687e-13 2.32283
vn 1.1409e-14 -1 3.86791e-15
v 30.5255 2.98709 -22.0499
vt -31.9131 2.27374e-13
v 29.7578 2.98709 -22.3102
vt 0 0
f 1/1/1 2/2/1 3/3/1

v 30.5445 2.98709 -22.1058
vt -31.9131 2.32283
f 2/2/1 1/1/1 4/4/1

vt -1.11882e-13 1.38907e-17
vn 0.321073 -5.86249e-18 -0.947054
v 29.8591 3.0723 -22.3381
vt -3.42214 3.42214
vt -31.9131 3.83707e-13
f 1/5/2 5/6/2 4/7/2

v 29.7768 4.58509 -22.366
vt -1.11882e-13 64.1751
f 5/6/2 1/5/2 6/8/2

vn -0.947054 0 -0.321073
vt -2.32283 64.1751
vt -2.32283 0
f 3/3/3 6/9/3 1/10/3

v 29.7578 4.58509 -22.3102
vt 0 64.1751
f 6/9/3 3/3/3 7/11/3

vn -0.321073 5.86249e-18 0.947054
v 29.8402 3.0723 -22.2823
vt 3.42214 3.42214
f 3/3/4 8/12/4 7/11/4

vt 31.9131 3.83693e-13
f 8/12/4 3/3/4 2/13/4

v 30.4432 3.0723 -22.0778
vt 28.491 3.42214
f 2/13/4 9/14/4 8/12/4

v 30.5255 4.58509 -22.0499
vt 31.9131 64.1751
f 9/14/4 2/13/4 10/15/4

vt 2.32283 3.83693e-13
vn 0.947054 0 0.321073
vt -1.24123e-12 64.1751
vt -1.24123e-12 3.83693e-13
f 4/16/5 10/17/5 2/18/5

v 30.5445 4.58509 -22.1058
vt 2.32283 64.1751
f 10/17/5 4/16/5 11/19/5

v 30.4621 3.0723 -22.1337
vt -28.491 3.42214
vt -31.9131 64.1751
f 4/7/2 12/20/2 11/21/2

f 12/20/2 4/7/2 5/6/2

vt 3.42214 2.32283
vn -1.45239e-14 1 -4.92392e-15
vt 28.491 4.54747e-13
vt 28.491 2.32283
f 5/22/6 9/23/6 12/24/6

vt 3.42214 2.27374e-13
f 9/23/6 5/22/6 8/25/6

vt 2.32283 3.42214
v 29.8402 4.49987 -22.2823
vt 3.31855e-13 60.753
vt 3.31855e-13 3.42214
f 5/26/5 13/27/5 8/28/5

v 29.8591 4.49987 -22.3381
vt 2.32283 60.753
f 13/27/5 5/26/5 14/29/5

vt -3.42214 60.753
f 5/6/2 6/8/2 14/30/2

v 30.4621 4.49987 -22.1337
vt -28.491 60.753
f 14/30/2 6/8/2 15/31/2

f 11/21/2 15/31/2 6/8/2

f 11/21/2 12/20/2 15/31/2

vt 1.75628e-12 3.42214
vn -0.947054 -1.57818e-31 -0.321073
vt -2.32283 60.753
vt -2.32283 3.42214
f 9/32/7 15/33/7 12/34/7

v 30.4432 4.49987 -22.0778
vt 1.75628e-12 60.753
f 15/33/7 9/32/7 16/35/7

vt 28.491 60.753
f 9/14/4 10/15/4 16/36/4

f 16/36/4 10/15/4 7/11/4

vt 31.9131 2.27374e-13
vn -1.1409e-14 1 -3.86791e-15
vt 8.71592e-13 2.32283
vt 7.57906e-13 9.01128e-27
f 10/37/8 6/38/8 7/39/8

vt 31.9131 2.32283
f 6/38/8 10/37/8 11/40/8

vt 3.42214 60.753
f 7/11/4 13/41/4 16/36/4

f 7/11/4 8/12/4 13/41/4

vt -3.42214 2.32283
vn 1.45239e-14 -1 4.92392e-15
vt -28.491 4.54747e-13
vt -3.42214 2.27374e-13
f 14/42/9 16/43/9 13/44/9

vt -28.491 2.32283
f 16/43/9 14/42/9 15/45/9

g Mesh2 Group2 Group1 Model

l 2 10

l 3 2

l 3 1

l 7 3

l 10 7

l 10 11

l 4 11

l 1 4

l 6 1

l 11 6

l 7 6

l 2 4

g Mesh3 Group2 Group1 Model

l 9 8

l 16 9

l 13 16

l 13 14

l 8 13

l 8 5

l 5 14

l 12 5

l 15 12

l 14 15

l 16 15

l 9 12

g Mesh4 Group3 Group1 Model

v 29.6398 2.94471 -23.7147
vt 2.32283 0
vn -0.321073 0 0.947054
v 29.5839 4.54271 -23.7336
vt -2.22657e-12 64.1751
v 29.5839 2.94471 -23.7336
vt -2.22657e-12 0
f 17/46/10 18/47/10 19/48/10

v 29.6398 4.54271 -23.7147
f 18/47/10 17/46/10 20/19/10

vt -133.552 -2.16697e-17
vn 0.947054 9.14558e-18 0.321073
v 29.6677 3.02992 -23.797
vt -130.13 3.42214
vt -133.552 64.1751
f 17/49/11 21/50/11 20/51/11

v 30.7011 3.02992 -26.845
f 21/50/11 17/49/11 22/6/11

v 30.729 2.94471 -26.9273
vt 2.06309e-15 -2.16697e-17
f 23/52/11 22/6/11 17/49/11

v 30.729 4.54271 -26.9273
vt 2.06309e-15 64.1751
f 22/6/11 23/52/11 24/53/11

v 30.6731 2.94471 -26.9462
vn 0.321073 0 -0.947054
f 25/3/12 24/9/12 23/10/12

v 30.6731 4.54271 -26.9462
f 24/9/12 25/3/12 26/11/12

vn -0.947054 4.47732e-17 -0.321073
v 30.6452 3.02992 -26.8639
f 25/3/13 27/12/13 26/11/13

v 29.6119 3.02992 -23.8159
vt 130.13 3.42214
f 27/12/13 25/3/13 28/54/13

vt 133.552 -2.82209e-30
f 19/55/13 28/54/13 25/3/13

vt 133.552 64.1751
f 28/54/13 19/55/13 18/56/13

v 29.6119 4.4575 -23.8159
vt 130.13 60.753
f 28/54/13 18/56/13 29/57/13

v 30.6452 4.4575 -26.8639
f 29/57/13 18/56/13 30/41/13

f 26/11/13 30/41/13 18/56/13

f 26/11/13 27/12/13 30/41/13

vt 2.18169e-13 60.753
vt 2.18169e-13 3.42214
f 22/26/10 30/58/10 27/59/10

v 30.7011 4.4575 -26.845
f 30/58/10 22/26/10 31/29/10

f 22/6/11 24/53/11 31/30/11

v 29.6677 4.4575 -23.797
vt -130.13 60.753
f 31/30/11 24/53/11 32/60/11

f 20/51/11 32/60/11 24/53/11

f 20/51/11 21/50/11 32/60/11

vt 1.21935e-11 3.42214
vn 0.321073 3.47046e-19 -0.947054
f 28/61/14 32/33/14 21/34/14

vt 1.21935e-11 60.753
f 32/33/14 28/61/14 29/62/14

vt -3.42214 1.13687e-13
vn 0 -1 0
vt -130.13 2.32283
vt -130.13 0
f 30/63/15 32/64/15 29/65/15

f 32/64/15 30/63/15 31/42/15

vn 0 1 -0
vt 130.13 0
vt 130.13 2.32283
f 22/22/16 28/66/16 21/67/16

vt 3.42214 1.13687e-13
f 28/66/16 22/22/16 27/68/16

vt 0 2.32283
vt 133.552 -1.13687e-13
vt 133.552 2.32283
f 24/69/16 18/70/16 20/71/16

f 18/70/16 24/69/16 26/3/16

vt -133.552 2.32283
vt -133.552 -1.13687e-13
f 25/3/15 17/72/15 19/73/15

f 17/72/15 25/3/15 23/69/15

g Mesh5 Group3 Group1 Model

l 19 18

l 25 19

l 25 23

l 26 25

l 18 26

l 18 20

l 17 20

l 23 17

l 24 23

l 20 24

l 26 24

l 19 17

g Mesh6 Group3 Group1 Model

l 28 27

l 29 28

l 30 29

l 30 31

l 27 30

l 27 22

l 22 31

l 21 22

l 32 21

l 31 32

l 29 32

l 28 21

g Mesh7 Group4 Group1 Model

v 30.0442 2.99365 -19.8433
vt -68.7402 2.32283
v 30.5489 2.99365 -21.5158
v 30.6048 2.99365 -21.4968
f 33/74/15 34/3/15 35/69/15

v 29.9883 2.99365 -19.8622
vt -68.7402 2.27374e-13
f 34/3/15 33/74/15 36/75/15

v 29.9883 4.59165 -19.8622
vt 2.32609e-12 64.1751
vt 2.32609e-12 0
f 33/46/10 37/76/10 36/77/10

v 30.0442 4.59165 -19.8433
f 37/76/10 33/46/10 38/19/10

vt -68.7402 0
v 30.0721 3.07886 -19.9256
vt -65.318 3.42214
vt -68.7402 64.1751
f 33/78/5 39/79/5 38/80/5

v 30.5769 3.07886 -21.4145
f 39/79/5 33/78/5 40/6/5

vt -3.48147e-15 0
f 35/81/5 40/6/5 33/78/5

v 30.6048 4.59165 -21.4968
vt -3.48147e-15 64.1751
f 40/6/5 35/81/5 41/82/5

f 34/3/12 41/9/12 35/10/12

v 30.5489 4.59165 -21.5158
f 41/9/12 34/3/12 42/11/12

v 30.521 3.07886 -21.4334
f 34/3/3 43/12/3 42/11/3

v 30.0163 3.07886 -19.9445
vt 65.318 3.42214
f 43/12/3 34/3/3 44/83/3

vt 68.7402 0
f 36/84/3 44/83/3 34/3/3

vt 68.7402 64.1751
f 44/83/3 36/84/3 37/85/3

v 30.0163 4.50643 -19.9445
vt 65.318 60.753
f 44/83/3 37/85/3 45/86/3

v 30.521 4.50643 -21.4334
f 45/86/3 37/85/3 46/41/3

f 42/11/3 46/41/3 37/85/3

f 42/11/3 43/12/3 46/41/3

f 40/26/10 46/27/10 43/28/10

v 30.5769 4.50643 -21.4145
f 46/27/10 40/26/10 47/29/10

f 40/6/5 41/82/5 47/30/5

v 30.0721 4.50643 -19.9256
vt -65.318 60.753
f 47/30/5 41/82/5 48/87/5

f 38/80/5 48/87/5 41/82/5

f 38/80/5 39/79/5 48/87/5

vt 2.86187e-12 3.42214
f 44/88/14 48/33/14 39/34/14

vt 2.86187e-12 60.753
f 48/33/14 44/88/14 45/89/14

vt -65.318 2.32283
vt -65.318 2.27374e-13
f 46/44/15 48/90/15 45/91/15

f 48/90/15 46/44/15 47/42/15

vt 65.318 2.27374e-13
vt 65.318 2.32283
f 40/22/16 44/92/16 39/93/16

f 44/92/16 40/22/16 43/25/16

vt 68.7402 2.27374e-13
vt 68.7402 2.32283
f 41/69/16 37/94/16 38/95/16

f 37/94/16 41/69/16 42/3/16

g Mesh8 Group4 Group1 Model

l 36 37

l 34 36

l 34 35

l 42 34

l 37 42

l 37 38

l 33 38

l 35 33

l 41 35

l 38 41

l 42 41

l 36 33

g Mesh9 Group4 Group1 Model

l 44 43

l 45 44

l 46 45

l 46 47

l 43 46

l 43 40

l 40 47

l 39 40

l 48 39

l 47 48

l 45 48

l 44 39

g Mesh10 Group5 Group1 Model

v 33.4096 -0.397313 -18.5927
vt 2.32283 3.85469e-13
v 33.3906 0.774687 -18.5369
vt -2.96885e-12 47.0671
v 33.3906 -0.397313 -18.5369
vt -2.96885e-12 3.85469e-13
f 49/96/5 50/97/5 51/98/5

v 33.4096 0.774687 -18.5927
vt 2.32283 47.0671
f 50/97/5 49/96/5 52/99/5

vt -51.7323 3.86356e-13
vn 0.321073 -3.73983e-16 -0.947054
v 33.3273 -0.3121 -18.6207
vt -48.3101 3.42214
vt -51.7323 47.0671
f 49/100/17 53/101/17 52/102/17

v 32.2475 -0.3121 -18.9867
f 53/101/17 49/100/17 54/6/17

v 32.1651 -0.397313 -19.0146
vt 1.05177e-13 8.86123e-16
f 55/103/17 54/6/17 49/100/17

v 32.1651 0.774687 -19.0146
vt 1.05177e-13 47.0671
f 54/6/17 55/103/17 56/104/17

v 32.1462 -0.397313 -18.9588
vt -2.32283 47.0671
f 57/3/3 56/105/3 55/10/3

v 32.1462 0.774687 -18.9588
vt 0 47.0671
f 56/105/3 57/3/3 58/106/3

vn -0.321073 8.92771e-16 0.947054
v 32.2285 -0.3121 -18.9309
f 57/3/18 59/12/18 58/106/18

vt 51.7323 3.85469e-13
f 59/12/18 57/3/18 51/107/18

vn 7.17343e-15 -1 2.43196e-15
vt -51.7323 2.32283
vt -51.7323 2.27374e-13
f 57/3/19 49/108/19 51/109/19

vt 1.13687e-13 2.32283
f 49/108/19 57/3/19 55/110/19

v 33.3083 -0.3121 -18.5648
vt 48.3101 3.42214
f 51/107/18 60/111/18 59/12/18

vt 51.7323 47.0671
f 60/111/18 51/107/18 50/112/18

v 33.3083 0.689474 -18.5648
vt 48.3101 43.645
f 60/111/18 50/112/18 61/113/18

v 32.2285 0.689474 -18.9309
vt 3.42214 43.645
f 61/113/18 50/112/18 62/114/18

f 62/114/18 50/112/18 58/106/18

vt 51.7323 2.32283
vn -8.66225e-15 1 -2.9367e-15
vt 4.22036e-13 7.93462e-27
vt 51.7323 2.27374e-13
f 52/115/20 58/116/20 50/117/20

vt 3.0835e-13 2.32283
f 58/116/20 52/115/20 56/118/20

v 33.3273 0.689474 -18.6207
vt -48.3101 43.645
f 52/102/17 63/119/17 56/104/17

f 52/102/17 53/101/17 63/119/17

vt 2.75742e-12 3.42214
vt -2.32283 43.645
f 60/120/3 63/121/3 53/34/3

vt 2.75742e-12 43.645
f 63/121/3 60/120/3 61/122/3

vt -48.3101 2.27374e-13
vn 0 -1 -0
v 32.2475 0.689474 -18.9867
vt -48.3101 2.32283
f 61/123/21 64/42/21 63/124/21

vt -3.42214 0
f 64/42/21 61/123/21 62/125/21

vt 1.59572e-13 43.645
vt 2.32283 43.645
f 62/126/5 54/26/5 64/127/5

vt 1.59572e-13 3.42214
f 54/26/5 62/126/5 59/128/5

f 58/106/18 59/12/18 62/114/18

vt 48.3101 2.27374e-13
vn -8.2282e-15 1 -2.78955e-15
vt 3.42214 -2.47836e-28
f 60/129/22 54/22/22 59/130/22

vt 48.3101 2.32283
f 54/22/22 60/129/22 53/131/22

vt -3.42214 43.645
f 54/6/17 56/104/17 64/132/17

f 64/132/17 56/104/17 63/119/17

g Mesh11 Group5 Group1 Model

l 51 50

l 57 51

l 57 55

l 58 57

l 50 58

l 50 52

l 49 52

l 55 49

l 56 55

l 52 56

l 58 56

l 51 49

g Mesh12 Group5 Group1 Model

l 60 59

l 61 60

l 62 61

l 62 64

l 59 62

l 59 54

l 54 64

l 53 54

l 63 53

l 64 63

l 61 63

l 60 53

g Mesh13 Group6 Group1 Model

v 28.5282 -0.413761 -26.3446
vt -40.9409 2.32283
v 28.8062 -0.413761 -27.3484
v 28.8621 -0.413761 -27.3294
vt 2.27374e-13 2.32283
f 65/133/15 66/3/15 67/134/15

v 28.4724 -0.413761 -26.3635
vt -40.9409 3.41061e-13
f 66/3/15 65/133/15 68/135/15

v 28.4724 0.797239 -26.3635
vt 1.59103e-12 48.6333
vt 1.59103e-12 0
f 65/46/10 69/136/10 68/137/10

v 28.5282 0.797239 -26.3446
vt 2.32283 48.6333
f 69/136/10 65/46/10 70/138/10

vt -40.9409 3.56312e-17
vn 0.947054 -1.5038e-17 0.321073
v 28.5561 -0.328548 -26.4269
vt -37.5188 3.42214
vt -40.9409 48.6333
f 65/139/23 71/140/23 70/141/23

v 28.8342 -0.328548 -27.2471
f 71/140/23 65/139/23 72/6/23

vt 2.22345e-13 3.56312e-17
f 67/142/23 72/6/23 65/139/23

v 28.8621 0.797239 -27.3294
vt 2.22345e-13 48.6333
f 72/6/23 67/142/23 73/143/23

vt -2.32283 48.6333
f 66/3/12 73/144/12 67/10/12

v 28.8062 0.797239 -27.3484
vt 0 48.6333
f 73/144/12 66/3/12 74/145/12

vn -0.947054 8.95956e-16 -0.321073
v 28.7783 -0.328548 -27.2661
f 66/3/24 75/12/24 74/145/24

v 28.5003 -0.328548 -26.4459
vt 37.5188 3.42214
f 75/12/24 66/3/24 76/146/24

vt 40.9409 1.78772e-28
f 68/147/24 76/146/24 66/3/24

vt 40.9409 48.6333
f 76/146/24 68/147/24 69/148/24

v 28.5003 0.712026 -26.4459
vt 37.5188 45.2112
f 76/146/24 69/148/24 77/149/24

v 28.7783 0.712026 -27.2661
vt 3.42214 45.2112
f 77/149/24 69/148/24 78/150/24

f 74/145/24 78/150/24 69/148/24

f 74/145/24 75/12/24 78/150/24

vt 5.59039e-13 45.2112
vt 5.59039e-13 3.42214
f 72/26/10 78/151/10 75/152/10

v 28.8342 0.712026 -27.2471
vt 2.32283 45.2112
f 78/151/10 72/26/10 79/153/10

vt -3.42214 45.2112
f 72/6/23 73/143/23 79/154/23

v 28.5561 0.712026 -26.4269
vt -37.5188 45.2112
f 79/154/23 73/143/23 80/155/23

f 70/141/23 80/155/23 73/143/23

f 70/141/23 71/140/23 80/155/23

vt 3.28616e-12 3.42214
vt -2.32283 45.2112
f 76/156/12 80/157/12 71/34/12

vt 3.28616e-12 45.2112
f 80/157/12 76/156/12 77/158/12

vt -3.42214 4.54747e-13
vt -37.5188 2.32283
vt -37.5188 2.27374e-13
f 78/159/15 80/160/15 77/161/15

f 80/160/15 78/159/15 79/42/15

vt 37.5188 2.27374e-13
vt 37.5188 2.32283
f 72/22/16 76/162/16 71/163/16

vt 3.42214 4.54747e-13
f 76/162/16 72/22/16 75/164/16

vt 40.9409 2.32283
vt -2.27374e-13 2.32283
f 74/3/16 70/165/16 73/166/16

vt 40.9409 3.41061e-13
f 70/165/16 74/3/16 69/167/16

g Mesh14 Group6 Group1 Model

l 68 69

l 66 68

l 66 67

l 74 66

l 69 74

l 69 70

l 65 70

l 67 65

l 73 67

l 70 73

l 74 73

l 68 65

g Mesh15 Group6 Group1 Model

l 76 75

l 77 76

l 78 77

l 78 79

l 75 78

l 75 72

l 72 79

l 71 72

l 80 71

l 79 80

l 77 80

l 76 71

g Mesh16 Group7 Group1 Model

v 29.7768 -0.277912 -22.366
v 30.5255 -0.277912 -22.0499
v 29.7578 -0.277912 -22.3102
f 81/1/1 82/2/1 83/3/1

v 30.5445 -0.277912 -22.1058
f 82/2/1 81/1/1 84/4/1

v 29.8591 -0.192699 -22.3381
f 81/5/2 85/6/2 84/7/2

v 29.7768 1.32009 -22.366
f 85/6/2 81/5/2 86/8/2

f 83/3/3 86/9/3 81/10/3

v 29.7578 1.32009 -22.3102
f 86/9/3 83/3/3 87/11/3

v 29.8402 -0.192699 -22.2823
f 83/3/4 88/12/4 87/11/4

f 88/12/4 83/3/4 82/13/4

v 30.4432 -0.192699 -22.0778
f 82/13/4 89/14/4 88/12/4

v 30.5255 1.32009 -22.0499
f 89/14/4 82/13/4 90/15/4

f 84/16/5 90/17/5 82/18/5

v 30.5445 1.32009 -22.1058
f 90/17/5 84/16/5 91/19/5

v 30.4621 -0.192699 -22.1337
f 84/7/2 92/20/2 91/21/2

f 92/20/2 84/7/2 85/6/2

f 85/22/6 89/23/6 92/24/6

f 89/23/6 85/22/6 88/25/6

v 29.8402 1.23487 -22.2823
f 85/26/5 93/27/5 88/28/5

v 29.8591 1.23487 -22.3381
f 93/27/5 85/26/5 94/29/5

f 85/6/2 86/8/2 94/30/2

v 30.4621 1.23487 -22.1337
f 94/30/2 86/8/2 95/31/2

f 91/21/2 95/31/2 86/8/2

f 91/21/2 92/20/2 95/31/2

f 89/32/7 95/33/7 92/34/7

v 30.4432 1.23487 -22.0778
f 95/33/7 89/32/7 96/35/7

f 89/14/4 90/15/4 96/36/4

f 96/36/4 90/15/4 87/11/4

f 90/37/8 86/38/8 87/39/8

f 86/38/8 90/37/8 91/40/8

f 87/11/4 93/41/4 96/36/4

f 87/11/4 88/12/4 93/41/4

f 94/42/9 96/43/9 93/44/9

f 96/43/9 94/42/9 95/45/9

g Mesh17 Group7 Group1 Model

l 82 90

l 83 82

l 83 81

l 87 83

l 90 87

l 90 91

l 84 91

l 81 84

l 86 81

l 91 86

l 87 86

l 82 84

g Mesh18 Group7 Group1 Model

l 89 88

l 96 89

l 93 96

l 93 94

l 88 93

l 88 85

l 85 94

l 92 85

l 95 92

l 94 95

l 96 95

l 89 92

