# Alias OBJ Model File
# Exported from SketchUp, (c) 2000-2012 Trimble Navigation Limited
# File units = meters

mtllib grass.mtl

g Mesh1 Group1 Model

usemtl Grass_Dark_Green
v 28.8706 0.113796 -27.8721
vt 31.5514 27.6491
vn 0 1 -0
v 27.6105 0.113796 -36.7705
vt 30.1743 36.4764
v 25.1343 0.113796 -29.1168
vt 27.4682 28.8839
f 1/1/1 2/2/1 3/3/1

v 30.1617 0.113796 -31.8628
vt 32.9624 31.6079
f 2/2/1 1/1/1 4/4/1

v 31.9815 0.113796 -35.3143
vt 34.9512 35.0319
f 2/2/1 4/4/1 5/5/1

v 30.7982 0.113796 -31.6568
vt 33.658 31.4036
f 5/5/1 4/4/1 6/6/1

g Mesh2 Group1 Model

v 4.0588 -1.9862 -39.5249
vt 4.43568 39.2087
vn 3.30082e-16 1 -4.76418e-16
v 1.34782 -1.9862 -43.4481
vt 1.47298 43.1006
v 0.456009 -1.9862 -40.6916
vt 0.498352 40.3662
f 7/7/2 8/8/2 9/9/2

v 2.19633 -1.9862 -46.0708
vt 2.40027 45.7023
f 8/8/2 7/7/2 10/10/2

v 5.75671 -1.9862 -44.773
vt 6.29125 44.4149
f 10/10/2 7/7/2 11/11/2

v -1.80967 -1.9862 -47.8072
vt -1.97771 47.4249
f 12/12/2 8/8/2 10/10/2

v -2.78716 -1.9862 -44.7859
vt -3.04596 44.4277
f 8/8/2 12/12/2 13/13/2

g Mesh3 Group1 Model

v -9.08574 -2.7862 -43.7816
vt -9.9294 43.4315
vn -1.11239e-16 1 4.39715e-16
v -10.2065 -2.7862 -51.5563
vt -11.1542 51.1439
v -12.377 -2.7862 -44.8475
vt -13.5263 44.4888
f 14/14/3 15/15/3 16/16/3

v -9.0844 -2.7862 -43.7858
vt -9.92794 43.4356
f 15/15/3 14/14/3 17/17/3

v -8.19481 -2.7862 -46.5354
vt -8.95574 46.1632
f 15/15/3 17/17/3 18/18/3

v -6.79867 -2.7862 -49.9672
vt -7.42996 49.5675
f 15/15/3 18/18/3 19/19/3

v -3.06879 -2.7862 -44.877
vt -3.35374 44.5181
f 19/19/3 18/18/3 20/20/3

v -2.08256 -2.7862 -47.9254
vt -2.27593 47.5421
f 19/19/3 20/20/3 21/21/3

g Mesh4 Group1 Model

v -27.7711 -3.8862 -19.6498
vt -30.3498 19.4926
vn 5.23837e-17 1 -2.44217e-19
v -26.5268 -3.8862 -24.2694
vt -28.99 24.0753
v -28.6388 -3.8862 -24.9527
vt -31.2981 24.7531
f 22/22/4 23/23/4 24/24/4

v -18.3374 -3.8862 -16.5977
vt -20.0402 16.465
f 23/23/4 22/22/4 25/25/4

v -16.8666 -3.8862 -21.144
vt -18.4327 20.9749
f 23/23/4 25/25/4 26/26/4

v -17.1501 -3.8862 -20.2677
vt -18.7426 20.1056
f 26/26/4 25/25/4 27/27/4

g Mesh5 Group1 Model

v -6.18247 -2.5362 9.53832
vt -6.75655 -9.46203
vn 2.22477e-16 1 -3.81858e-17
v -11.4602 -2.5362 7.32643
vt -12.5244 -7.26783
v -11.9238 -2.5362 9.53832
vt -13.031 -9.46203
f 28/28/5 29/29/5 30/30/5

v -10.9432 -2.5362 5.0696
vt -11.9593 -5.02905
f 29/29/5 28/28/5 31/31/5

v -10.3842 -2.5362 2.82279
vt -11.3484 -2.80021
f 31/31/5 28/28/5 32/32/5

v -9.78345 -2.5362 0.586768
vt -10.6919 -0.582075
f 32/32/5 28/28/5 33/33/5

v -9.14122 -2.5362 -1.63768
vt -9.99003 1.62458
f 33/33/5 28/28/5 34/34/5

v -8.45769 -2.5362 -3.84979
vt -9.24304 3.819
f 34/34/5 28/28/5 35/35/5

v -7.73311 -2.5362 -6.0488
vt -8.45117 6.00042
f 35/35/5 28/28/5 36/36/5

v -6.96771 -2.5362 -8.23393
vt -7.6147 8.16808
f 36/36/5 28/28/5 37/37/5

v -6.18247 -2.5362 1.38032
vt -6.75655 -1.36928
f 37/37/5 28/28/5 38/38/5

v -6.16178 -2.5362 -10.4044
vt -6.73393 10.3212
f 37/37/5 38/38/5 39/39/5

v -3.70048 -2.5362 -4.5101
vt -4.04409 4.47403
f 39/39/5 38/38/5 40/40/5

v -3.63579 -2.5362 -4.42579
vt -3.97339 4.3904
f 40/40/5 38/38/5 41/41/5

v 0.828139 -2.5362 1.38032
vt 0.905036 -1.36928
f 41/41/5 38/38/5 42/42/5

v -3.55148 -2.5362 -4.3611
vt -3.88125 4.32622
f 41/41/5 42/42/5 43/43/5

v -3.4533 -2.5362 -4.32043
vt -3.77396 4.28588
f 43/43/5 42/42/5 44/44/5

v -3.34794 -2.5362 -4.30656
vt -3.65881 4.27212
f 44/44/5 42/42/5 45/45/5

v -3.24258 -2.5362 -4.32043
vt -3.54367 4.28588
f 45/45/5 42/42/5 46/46/5

v -3.1444 -2.5362 -4.3611
vt -3.43637 4.32622
f 46/46/5 42/42/5 47/47/5

v -3.06009 -2.5362 -4.42579
vt -3.34424 4.3904
f 47/47/5 42/42/5 48/48/5

v -2.9954 -2.5362 -4.5101
vt -3.27354 4.47403
f 48/48/5 42/42/5 49/49/5

v -2.95473 -2.5362 -4.60828
vt -3.22909 4.57143
f 49/49/5 42/42/5 50/50/5

v -2.94086 -2.5362 -4.71364
vt -3.21394 4.67594
f 50/50/5 42/42/5 51/51/5

v 0.828139 -2.5362 -15.4193
vt 0.905036 15.296
f 52/52/5 51/51/5 42/42/5

v -2.95473 -2.5362 -4.819
vt -3.22909 4.78046
f 52/52/5 53/53/5 51/51/5

v -2.9954 -2.5362 -4.91718
vt -3.27354 4.87785
f 52/52/5 54/54/5 53/53/5

v -3.06009 -2.5362 -5.00149
vt -3.34424 4.96149
f 52/52/5 55/55/5 54/54/5

v -3.1444 -2.5362 -5.06618
vt -3.43637 5.02566
f 52/52/5 56/56/5 55/55/5

v -3.24258 -2.5362 -5.10685
vt -3.54367 5.066
f 52/52/5 57/57/5 56/56/5

v -3.34794 -2.5362 -5.12072
vt -3.65881 5.07976
f 52/52/5 58/58/5 57/57/5

v -3.4533 -2.5362 -5.10685
vt -3.77396 5.066
f 52/52/5 59/59/5 58/58/5

v -3.50359 -2.5362 -16.8207
vt -3.82891 16.6862
f 60/60/5 59/59/5 52/52/5

v -3.55148 -2.5362 -5.06618
vt -3.88125 5.02566
f 60/60/5 61/61/5 59/59/5

v -3.63579 -2.5362 -5.00149
vt -3.97339 4.96149
f 60/60/5 62/62/5 61/61/5

v -3.70048 -2.5362 -4.91718
vt -4.04409 4.87785
f 60/60/5 63/63/5 62/62/5

v -3.74115 -2.5362 -4.819
vt -4.08853 4.78046
f 60/60/5 64/64/5 63/63/5

v -3.75502 -2.5362 -4.71364
vt -4.10369 4.67594
f 60/60/5 65/65/5 64/64/5

v -4.42941 -2.5362 -14.6986
vt -4.84071 14.581
f 65/65/5 60/60/5 66/66/5

v -5.31558 -2.5362 -12.5596
vt -5.80916 12.4591
f 67/67/5 65/65/5 66/66/5

v -3.74115 -2.5362 -4.60828
vt -4.08853 4.57143
f 67/67/5 68/68/5 65/65/5

f 39/39/5 68/68/5 67/67/5

f 39/39/5 40/40/5 68/68/5

g Mesh6 Group1 Model

v -21.432 -4.2862 -47.7799
vt -23.4221 47.3977
vn 3.03286e-16 1 -4.31149e-16
v -19.9618 -4.2862 -53.354
vt -21.8154 52.9273
v -21.7352 -4.2862 -47.8781
vt -23.7534 47.4951
f 69/69/6 70/70/6 71/71/6

v -19.7992 -4.2862 -52.8269
vt -21.6376 52.4044
f 70/70/6 69/69/6 72/72/6

v -19.8508 -4.2862 -53.6971
vt -21.6941 53.2676
f 70/70/6 72/72/6 73/73/6

v -19.5734 -4.2862 -53.5248
vt -21.3909 53.0967
f 73/73/6 72/72/6 74/74/6

v -26.7859 -4.2862 -58.0041
vt -29.2731 57.5402
f 75/75/6 70/70/6 73/73/6

v -26.9501 -4.2862 -57.6941
vt -29.4526 57.2327
f 75/75/6 76/76/6 70/70/6

v -27.0688 -4.2862 -58.1798
vt -29.5823 57.7145
f 77/77/6 76/76/6 75/75/6

v -27.8217 -4.2862 -58.6474
vt -30.405 58.1783
f 78/78/6 76/76/6 77/77/6

v -29.3036 -4.2862 -53.9048
vt -32.0246 53.4736
f 78/78/6 79/79/6 76/76/6

v -29.1466 -4.2862 -63.4046
vt -31.853 62.8975
f 80/80/6 79/79/6 78/78/6

v -30.4436 -4.2862 -54.6128
vt -33.2704 54.176
f 80/80/6 81/81/6 79/79/6

v -31.1939 -4.2862 -53.4046
vt -34.0905 52.9775
f 80/80/6 82/82/6 81/81/6

v -31.289 -4.2862 -64.4572
vt -34.1943 63.9417
f 83/83/6 82/82/6 80/80/6

v -31.4269 -4.2862 -53.5493
vt -34.3451 53.121
f 83/83/6 84/84/6 82/82/6

v -32.2095 -4.2862 -52.2636
vt -35.2003 51.8456
f 83/83/6 85/85/6 84/84/6

v -33.9139 -4.2862 -65.3728
vt -37.063 64.85
f 86/86/6 85/85/6 83/83/6

v -35.5502 -4.2862 -65.8149
vt -38.8512 65.2885
f 87/87/6 85/85/6 86/86/6

v -36.7419 -4.2862 -65.8892
vt -40.1536 65.3623
f 88/88/6 85/85/6 87/87/6

v -36.8688 -4.2862 -55.1573
vt -40.2923 54.7162
f 88/88/6 89/89/6 85/85/6

v -37.8059 -4.2862 -65.677
vt -41.3164 65.1517
f 90/90/6 89/89/6 88/88/6

v -38.5404 -4.2862 -65.3728
vt -42.1191 64.85
f 89/89/6 90/90/6 91/91/6

v -27.6075 -4.2862 -61.9554
vt -30.1711 61.4598
f 78/78/6 92/92/6 80/80/6

v -26.4038 -4.2862 -60.9303
vt -28.8556 60.443
f 92/92/6 78/78/6 93/93/6

g Mesh7 Group1 Model

v 28.8214 -1.4362 -5.18115
vt 31.4976 5.13971
vn -2.15119e-16 1 1.89806e-16
v 23.727 -1.4362 -11.9736
vt 25.9302 11.8779
v 23.6962 -1.4362 -11.8785
vt 25.8965 11.7835
f 94/94/7 95/95/7 96/96/7

v 23.9582 -1.4362 -12.6883
vt 26.1829 12.5868
f 95/95/7 94/94/7 97/97/7

v 25.4977 -1.4362 -17.4467
vt 27.8653 17.3071
f 97/97/7 94/94/7 98/98/7

v 30.0721 -1.4362 -15.9227
vt 32.8644 15.7954
f 98/98/7 94/94/7 99/99/7

v 37.0624 -1.4362 -13.5939
vt 40.5038 13.4851
f 99/99/7 94/94/7 100/100/7

v 39.3346 -1.4362 -12.8368
vt 42.9871 12.7342
f 100/100/7 94/94/7 101/101/7

g Mesh8 Group1 Model

v 5.5306 -1.4362 -4.34336
vt 6.04415 4.30862
vn -3.02108e-16 1 -7.18813e-17
v 5.56943 -1.4362 -6.98759
vt 6.08658 6.9317
v 5.49014 -1.4362 -5.66635
vt 5.99993 5.62103
f 102/102/8 103/103/8 104/104/8

v 5.69049 -1.4362 -3.02944
vt 6.21888 3.00521
f 103/103/8 102/102/8 105/105/8

v 5.76782 -1.4362 -8.29625
vt 6.3034 8.2299
f 103/103/8 105/105/8 106/106/8

v 5.96848 -1.4362 -1.73535
vt 6.52269 1.72147
f 106/106/8 105/105/8 107/107/8

v 6.0837 -1.4362 -9.58162
vt 6.6486 9.50499
f 106/106/8 107/107/8 108/108/8

v 6.36232 -1.4362 -0.471684
vt 6.95309 0.467912
f 108/108/8 107/107/8 109/109/8

v 6.51446 -1.4362 -10.8332
vt 7.11936 10.7465
f 108/108/8 109/109/8 110/110/8

v 6.86876 -1.4362 0.751209
vt 7.50656 -0.7452
f 110/110/8 109/109/8 111/111/8

v 7.05659 -1.4362 -12.0407
vt 7.71183 11.9444
f 110/110/8 111/111/8 112/112/8

v 7.48367 -1.4362 1.92332
vt 8.17857 -1.90793
f 112/112/8 111/111/8 113/113/8

v 7.70565 -1.4362 -13.1942
vt 8.42116 13.0887
f 112/112/8 113/113/8 114/114/8

v 13.1192 -1.4362 1.92332
vt 14.3374 -1.90793
f 114/114/8 113/113/8 115/115/8

v 17.0338 -1.4362 -10.1763
vt 18.6154 10.0949
f 114/114/8 115/115/8 116/116/8

g Mesh9 Group1 Model

v -2.42927 0.513796 30.9655
vt -2.65485 -30.7178
vn 2.52217e-16 1 6.68558e-17
v -5.22483 0.513796 28.8141
vt -5.70998 -28.5836
v -5.22483 0.513796 30.9655
vt -5.70998 -30.7178
f 117/117/9 118/118/9 119/119/9

v -5.22483 0.513796 24.1233
vt -5.70998 -23.9304
f 118/118/9 117/117/9 120/120/9

v -2.42927 0.513796 24.1233
vt -2.65485 -23.9304
f 120/120/9 117/117/9 121/121/9

g Mesh10 Group1 Model

v 0.80405 2.26791 33.9405
vt 0.878711 -33.669
vn 1.74632e-16 1 1.3369e-15
v -5.22483 2.26791 30.9655
v -5.22483 2.26791 34.1583
vt -5.70998 -33.8851
f 122/122/10 123/119/10 124/123/10

v -2.42927 2.26791 30.9655
f 123/119/10 122/122/10 125/117/10

v 6.71623 2.26791 30.9655
vt 7.33986 -30.7178
f 125/117/10 122/122/10 126/124/10

v 6.71623 2.26791 32.9354
vt 7.33986 -32.672
f 126/124/10 122/122/10 127/125/10

g Mesh11 Group1 Model

v -9.79319 -1.4862 22.5524
vt -10.7025 -22.372
vn -1.61018e-16 1 2.163e-17
v -9.8053 -1.4862 21.9141
vt -10.7158 -21.7388
v -10.0726 -1.4862 22.475
vt -11.0079 -22.2952
f 128/126/11 129/127/11 130/128/11

v -9.72629 -1.4862 12.2955
vt -10.6294 -12.1972
f 131/129/11 130/128/11 129/127/11

v -10.0925 -1.4862 12.5052
vt -11.0296 -12.4052
f 132/130/11 130/128/11 131/129/11

v -10.3538 -1.4862 22.4041
vt -11.3152 -22.2249
f 132/130/11 133/131/11 130/128/11

v -10.4809 -1.4862 12.6701
vt -11.4541 -12.5688
f 134/132/11 133/131/11 132/130/11

v -10.6366 -1.4862 22.3399
vt -11.6242 -22.1613
f 134/132/11 135/133/11 133/131/11

v -10.886 -1.4862 12.7881
vt -11.8969 -12.6858
f 136/134/11 135/133/11 134/132/11

v -10.9207 -1.4862 22.2824
vt -11.9348 -22.1042
f 136/134/11 137/135/11 135/133/11

v -11.2062 -1.4862 22.2316
vt -12.2468 -22.0538
f 136/134/11 138/136/11 137/135/11

v -11.3023 -1.4862 12.8574
vt -12.3517 -12.7545
f 139/137/11 138/136/11 136/134/11

v -11.4928 -1.4862 22.1875
vt -12.56 -22.01
f 139/137/11 140/138/11 138/136/11

v -11.7238 -1.4862 12.877
vt -12.8124 -12.7741
f 141/139/11 140/138/11 139/137/11

v -11.7803 -1.4862 22.1501
vt -12.8742 -21.9729
f 141/139/11 142/140/11 140/138/11

v -12.0687 -1.4862 22.1195
vt -13.1893 -21.9426
f 141/139/11 143/141/11 142/140/11

v -12.1447 -1.4862 12.8468
vt -13.2724 -12.7441
f 144/142/11 143/141/11 141/139/11

v -12.3576 -1.4862 22.0957
vt -13.5051 -21.9189
f 144/142/11 145/143/11 143/141/11

v -12.559 -1.4862 12.7671
vt -13.7252 -12.665
f 146/144/11 145/143/11 144/142/11

v -12.6471 -1.4862 22.0786
vt -13.8214 -21.9021
f 146/144/11 147/145/11 145/143/11

v -12.9368 -1.4862 22.0684
vt -14.1381 -21.8919
f 146/144/11 148/146/11 147/145/11

v -12.9611 -1.4862 12.6391
vt -14.1646 -12.538
f 149/147/11 148/146/11 146/144/11

v -13.2268 -1.4862 22.065
vt -14.455 -21.8885
f 149/147/11 150/148/11 148/146/11

v -13.3452 -1.4862 12.4645
vt -14.5844 -12.3648
f 151/149/11 150/148/11 149/147/11

v -13.7061 -1.4862 12.2457
vt -14.9788 -12.1478
f 152/150/11 150/148/11 151/149/11

v -13.776 -1.4862 12.1911
vt -15.0552 -12.0935
f 153/151/11 150/148/11 152/150/11

v -13.7988 -1.4862 22.0931
vt -15.0801 -21.9164
f 153/151/11 154/152/11 150/148/11

v -14.3652 -1.4862 22.1771
vt -15.6991 -21.9998
f 153/151/11 155/153/11 154/152/11

v -14.3963 -1.4862 11.9944
vt -15.733 -11.8985
f 156/154/11 155/153/11 153/151/11

v -14.8113 -1.4862 17.5527
vt -16.1866 -17.4123
f 157/155/11 155/153/11 156/154/11

v -14.8372 -1.4862 17.7228
vt -16.2149 -17.581
f 158/156/11 155/153/11 157/155/11

v -14.9062 -1.4862 17.8804
vt -16.2903 -17.7374
f 159/157/11 155/153/11 158/156/11

v -14.9207 -1.4862 22.3163
vt -16.3062 -22.1378
f 159/157/11 160/158/11 155/153/11

v -15.0136 -1.4862 18.0147
vt -16.4078 -17.8706
f 161/159/11 160/158/11 159/157/11

v -15.1522 -1.4862 18.1167
vt -16.5592 -17.9718
f 162/160/11 160/158/11 161/159/11

v -15.3124 -1.4862 18.1793
vt -16.7343 -18.0339
f 163/161/11 160/158/11 162/160/11

v -15.4599 -1.4862 22.5092
vt -16.8955 -22.3292
f 163/161/11 164/162/11 160/158/11

v -15.4834 -1.4862 18.1983
vt -16.9211 -18.0527
f 165/163/11 164/162/11 163/161/11

v -15.6535 -1.4862 18.1724
vt -17.107 -18.0271
f 166/164/11 164/162/11 165/163/11

v -15.8111 -1.4862 18.1034
vt -17.2792 -17.9586
f 167/165/11 164/162/11 166/164/11

v -15.9454 -1.4862 17.9959
vt -17.426 -17.852
f 168/166/11 164/162/11 167/165/11

v -15.9776 -1.4862 22.7541
vt -17.4612 -22.5721
f 168/166/11 169/167/11 164/162/11

v -16.0474 -1.4862 17.8574
vt -17.5375 -17.7145
f 170/168/11 169/167/11 168/166/11

v -16.11 -1.4862 17.6971
vt -17.6059 -17.5556
f 171/169/11 169/167/11 170/168/11

v -16.129 -1.4862 17.5262
vt -17.6267 -17.386
f 172/170/11 169/167/11 171/169/11

v -16.3883 -1.4862 11.9276
vt -17.91 -11.8322
f 173/171/11 169/167/11 172/170/11

v -16.4688 -1.4862 23.0485
vt -17.998 -22.8641
f 173/171/11 174/172/11 169/167/11

v -16.9288 -1.4862 23.3896
vt -18.5007 -23.2025
f 173/171/11 175/173/11 174/172/11

v -17.3531 -1.4862 23.7742
vt -18.9645 -23.5841
f 173/171/11 176/174/11 175/173/11

v -17.3603 -1.4862 12.1653
vt -18.9723 -12.068
f 177/175/11 176/174/11 173/171/11

v -17.5454 -1.4862 23.9864
vt -19.1746 -23.7945
f 177/175/11 178/176/11 176/174/11

v -17.7452 -1.4862 24.1916
vt -19.393 -23.9981
f 177/175/11 179/177/11 178/176/11

v -17.9591 -1.4862 24.3821
vt -19.6267 -24.1871
f 177/175/11 180/178/11 179/177/11

v -18.1861 -1.4862 24.5568
vt -19.8748 -24.3604
f 177/175/11 181/179/11 180/178/11

v -18.2732 -1.4862 12.5753
vt -19.9699 -12.4747
f 182/180/11 181/179/11 177/175/11

v -18.3055 -1.4862 24.6359
vt -20.0053 -24.4389
f 182/180/11 183/181/11 181/179/11

v -19.0966 -1.4862 13.144
vt -20.8698 -13.0389
f 184/182/11 183/181/11 182/180/11

v -19.2752 -1.4862 23.4914
vt -21.065 -23.3036
f 184/182/11 185/183/11 183/181/11

v -19.4129 -1.4862 23.3301
vt -21.2155 -23.1435
f 184/182/11 186/184/11 185/183/11

v -19.8033 -1.4862 13.8526
vt -21.6421 -13.7418
f 187/185/11 186/184/11 184/182/11

v -20.04 -1.4862 22.5952
vt -21.9008 -22.4145
f 187/185/11 188/186/11 186/184/11

v -20.3698 -1.4862 14.6775
vt -22.2612 -14.5601
f 189/187/11 188/186/11 187/185/11

v -20.6249 -1.4862 21.5724
vt -22.54 -21.3998
f 189/187/11 190/188/11 188/186/11

v -20.7774 -1.4862 15.5914
vt -22.7067 -15.4667
f 191/189/11 190/188/11 189/187/11

v -20.9981 -1.4862 17.5402
vt -22.9479 -17.3999
f 192/190/11 190/188/11 191/189/11

v -21.0095 -1.4862 20.4587
vt -22.9603 -20.2951
f 192/190/11 193/191/11 190/188/11

v -21.0323 -1.4862 17.6873
vt -22.9853 -17.5459
f 194/192/11 193/191/11 192/190/11

v -21.1318 -1.4862 18.1157
vt -23.094 -17.9709
f 195/193/11 193/191/11 194/192/11

v -21.1805 -1.4862 19.293
vt -23.1472 -19.1387
f 193/191/11 195/193/11 196/194/11

v -21.0126 -1.4862 16.5641
vt -22.9637 -16.4316
f 197/195/11 192/190/11 191/189/11

v -21.0675 -1.4862 17.5633
vt -23.0238 -17.4228
f 192/190/11 197/195/11 198/196/11

v -15.3892 -1.4862 11.87
vt -16.8182 -11.775
f 172/170/11 199/197/11 173/171/11

v -16.1031 -1.4862 17.3561
vt -17.5984 -17.2173
f 199/197/11 172/170/11 200/198/11

v -16.0341 -1.4862 17.1985
vt -17.523 -17.0609
f 199/197/11 200/198/11 201/199/11

v -15.9266 -1.4862 17.0642
vt -17.4055 -16.9277
f 199/197/11 201/199/11 202/200/11

v -15.7881 -1.4862 16.9622
vt -17.2541 -16.8265
f 199/197/11 202/200/11 203/201/11

v -15.6278 -1.4862 16.8996
vt -17.079 -16.7644
f 199/197/11 203/201/11 204/202/11

v -15.4569 -1.4862 16.8806
vt -16.8921 -16.7456
f 199/197/11 204/202/11 205/203/11

v -15.2868 -1.4862 16.9065
vt -16.7063 -16.7712
f 199/197/11 205/203/11 206/204/11

f 199/197/11 206/204/11 156/154/11

v -15.1292 -1.4862 16.9755
vt -16.534 -16.8397
f 156/154/11 206/204/11 207/205/11

v -14.9949 -1.4862 17.0829
vt -16.3872 -16.9463
f 156/154/11 207/205/11 208/206/11

v -14.8929 -1.4862 17.2215
vt -16.2758 -17.0838
f 156/154/11 208/206/11 209/207/11

v -14.8303 -1.4862 17.3817
vt -16.2074 -17.2427
f 156/154/11 209/207/11 210/208/11

f 156/154/11 210/208/11 157/155/11

v -9.74118 -1.4862 21.279
vt -10.6457 -21.1088
f 131/129/11 129/127/11 211/209/11

v -9.60173 -1.4862 20.656
vt -10.4933 -20.4908
f 131/129/11 211/209/11 212/210/11

v -9.3854 -1.4862 12.0426
vt -10.2569 -11.9463
f 131/129/11 212/210/11 213/211/11

v -9.38897 -1.4862 20.0541
vt -10.2608 -19.8937
f 213/211/11 212/210/11 214/212/11

v -9.10591 -1.4862 19.482
vt -9.95144 -19.3261
f 213/211/11 214/212/11 215/213/11

v -9.23054 -1.4862 11.9177
vt -10.0876 -11.8224
f 213/211/11 215/213/11 216/214/11

v -9.06909 -1.4862 11.7973
vt -9.91121 -11.703
f 216/214/11 215/213/11 217/215/11

v -8.75661 -1.4862 18.9476
vt -9.56971 -18.7961
f 217/215/11 215/213/11 218/216/11

v -8.90322 -1.4862 11.683
vt -9.72993 -11.5896
f 217/215/11 218/216/11 219/217/11

v -8.73316 -1.4862 11.5751
vt -9.54408 -11.4825
f 219/217/11 218/216/11 220/218/11

v -8.34606 -1.4862 18.4588
vt -9.12104 -18.3112
f 220/218/11 218/216/11 221/219/11

v -8.55915 -1.4862 11.4736
vt -9.35392 -11.3819
f 220/218/11 221/219/11 222/220/11

v -8.38145 -1.4862 11.3788
vt -9.15971 -11.2878
f 222/220/11 221/219/11 223/221/11

v -8.2003 -1.4862 11.2908
vt -8.96174 -11.2005
f 223/221/11 221/219/11 224/222/11

v -7.88012 -1.4862 18.0224
vt -8.61183 -17.8783
f 224/222/11 221/219/11 225/223/11

v -8.01596 -1.4862 11.2096
vt -8.76028 -11.1199
f 224/222/11 225/223/11 226/224/11

v -7.82869 -1.4862 11.1354
vt -8.55563 -11.0464
f 226/224/11 225/223/11 227/225/11

v -7.36544 -1.4862 17.6448
vt -8.04936 -17.5036
f 227/225/11 225/223/11 228/226/11

v -7.63876 -1.4862 11.0683
vt -8.34806 -10.9798
f 227/225/11 228/226/11 229/227/11

v -7.44644 -1.4862 11.0085
vt -8.13788 -10.9204
f 229/227/11 228/226/11 230/228/11

v -7.25197 -1.4862 10.9559
vt -7.92536 -10.8683
f 230/228/11 228/226/11 231/229/11

v -6.80939 -1.4862 17.3312
vt -7.44168 -17.1926
f 231/229/11 228/226/11 232/230/11

v -7.13781 -1.4862 10.9297
vt -7.80059 -10.8423
f 231/229/11 232/230/11 233/231/11

v -7.02266 -1.4862 10.908
vt -7.67476 -10.8208
f 233/231/11 232/230/11 234/232/11

v -6.90676 -1.4862 10.8909
vt -7.54809 -10.8038
f 234/232/11 232/230/11 235/233/11

v -6.79027 -1.4862 10.8784
vt -7.42078 -10.7914
f 235/233/11 232/230/11 236/234/11

v -6.21989 -1.4862 17.0862
vt -6.79745 -16.9496
f 236/234/11 232/230/11 237/235/11

v -6.67337 -1.4862 10.8704
vt -7.29303 -10.7835
f 236/234/11 237/235/11 238/236/11

v -6.55626 -1.4862 10.8671
vt -7.16504 -10.7802
f 238/236/11 237/235/11 239/237/11

v -6.4391 -1.4862 10.8684
vt -7.03701 -10.7815
f 239/237/11 237/235/11 240/238/11

v -6.32209 -1.4862 10.8743
vt -6.90913 -10.7874
f 240/238/11 237/235/11 241/239/11

v -6.2054 -1.4862 10.8849
vt -6.7816 -10.7978
f 241/239/11 237/235/11 242/240/11

v -5.96282 -1.4862 17.0139
vt -6.5165 -16.8778
f 242/240/11 237/235/11 243/241/11

v -6.08922 -1.4862 10.9
vt -6.65463 -10.8128
f 242/240/11 243/241/11 244/242/11

v -5.97372 -1.4862 10.9197
vt -6.52841 -10.8323
f 244/242/11 243/241/11 245/243/11

v -5.92729 -1.4862 10.9295
vt -6.47768 -10.8421
f 245/243/11 243/241/11 246/244/11

v -5.60538 -1.4862 16.9133
vt -6.12588 -16.778
f 246/244/11 243/241/11 247/245/11

v -5.86338 -1.4862 10.9979
vt -6.40783 -10.91
f 246/244/11 247/245/11 248/246/11

v -5.60538 -1.4862 10.9979
vt -6.12588 -10.91
f 248/246/11 247/245/11 249/247/11

v -5.60538 -1.4862 16.1044
vt -6.12588 -15.9756
f 249/247/11 247/245/11 250/248/11

v -5.60538 -1.4862 13.7978
vt -6.12588 -13.6874
f 249/247/11 250/248/11 251/249/11

v -5.86338 -1.4862 10.9295
vt -6.40783 -10.8421
f 252/250/11 246/244/11 248/246/11

g Mesh12 Group1 Model

v 17.2333 -1.4362 -11.7871
vt 18.8335 11.6928
vn -8.39239e-17 1 3.24187e-17
v 9.89725 -1.4362 -17.0893
vt 10.8163 16.9526
v 8.50313 -1.4362 -14.6116
vt 9.29269 14.4947
f 253/251/12 254/252/12 255/253/12

v 13.6417 -1.4362 -15.9371
vt 14.9084 15.8096
f 254/252/12 253/251/12 256/254/12

v 15.8653 -1.4362 -15.8001
vt 17.3385 15.6737
f 256/254/12 253/251/12 257/255/12

v 15.9221 -1.4362 -15.6823
vt 17.4005 15.5568
f 257/255/12 253/251/12 258/256/12

v 16.0074 -1.4362 -15.5831
vt 17.4938 15.4585
f 258/256/12 253/251/12 259/257/12

v 16.1155 -1.4362 -15.5095
vt 17.6119 15.3854
f 259/257/12 253/251/12 260/258/12

v 16.2389 -1.4362 -15.4663
vt 17.7468 15.3426
f 260/258/12 253/251/12 261/259/12

v 16.3693 -1.4362 -15.4565
vt 17.8893 15.3329
f 261/259/12 253/251/12 262/260/12

v 16.4978 -1.4362 -15.4808
vt 18.0297 15.357
f 262/260/12 253/251/12 263/261/12

v 16.6157 -1.4362 -15.5376
vt 18.1585 15.4133
f 263/261/12 253/251/12 264/262/12

v 16.7148 -1.4362 -15.6229
vt 18.2669 15.4979
f 264/262/12 253/251/12 265/263/12

v 16.7885 -1.4362 -15.7309
vt 18.3474 15.6051
f 265/263/12 253/251/12 266/264/12

v 16.8317 -1.4362 -15.8544
vt 18.3946 15.7276
f 266/264/12 253/251/12 267/265/12

v 16.8414 -1.4362 -15.9848
vt 18.4053 15.8569
f 267/265/12 253/251/12 268/266/12

v 19.4005 -1.4362 -17.4919
vt 21.202 17.352
f 269/267/12 268/266/12 253/251/12

v 16.8171 -1.4362 -16.1133
vt 18.3787 15.9844
f 269/267/12 270/268/12 268/266/12

v 16.7604 -1.4362 -16.2311
vt 18.3167 16.1013
f 269/267/12 271/269/12 270/268/12

v 16.6751 -1.4362 -16.3303
vt 18.2235 16.1997
f 269/267/12 272/270/12 271/269/12

v 16.567 -1.4362 -16.4039
vt 18.1054 16.2727
f 269/267/12 273/271/12 272/270/12

v 16.4436 -1.4362 -16.4471
vt 17.9704 16.3156
f 269/267/12 274/272/12 273/271/12

v 16.3132 -1.4362 -16.4569
vt 17.8279 16.3253
f 269/267/12 275/273/12 274/272/12

v 16.1846 -1.4362 -16.4326
vt 17.6875 16.3012
f 269/267/12 276/274/12 275/273/12

v 15.7065 -1.4362 -22.3191
vt 17.1649 22.1406
f 277/275/12 276/274/12 269/267/12

v 16.0668 -1.4362 -16.3759
vt 17.5587 16.2449
f 276/274/12 277/275/12 278/276/12

v 15.9677 -1.4362 -16.2905
vt 17.4504 16.1603
f 278/276/12 277/275/12 279/277/12

v 15.894 -1.4362 -16.1825
vt 17.3698 16.0531
f 279/277/12 277/275/12 280/278/12

v 15.8508 -1.4362 -16.059
vt 17.3226 15.9306
f 280/278/12 277/275/12 281/279/12

v 15.841 -1.4362 -15.9286
vt 17.312 15.8012
f 281/279/12 277/275/12 282/280/12

f 256/254/12 282/280/12 277/275/12

f 256/254/12 257/255/12 282/280/12

v 17.4293 -1.4362 -11.7237
vt 19.0477 11.6299
f 269/267/12 253/251/12 283/281/12

v 17.5244 -1.4362 -11.6929
vt 19.1517 11.5994
f 269/267/12 283/281/12 284/282/12

g Mesh13 Group1 Model

v -34.3712 -5.5862 -43.8418
vt -37.5628 43.7134
vn -1.55243e-16 1 1.80385e-16
v -34.406 -5.5862 -46.2763
vt -37.6008 46.1284
v -34.4433 -5.5862 -45.0583
vt -37.6416 44.9201
f 285/283/13 286/284/13 287/285/13

v -34.2596 -5.5862 -47.486
vt -37.4408 47.3284
f 286/284/13 285/283/13 288/286/13

v -34.1903 -5.5862 -42.6367
vt -37.365 42.5179
f 288/286/13 285/283/13 289/287/13

v -34.0526 -5.5862 -48.4554
vt -37.2146 48.2901
f 288/286/13 289/287/13 290/288/13

v -33.902 -5.5862 -41.4528
vt -37.0499 41.3434
f 290/288/13 289/287/13 291/289/13

v -30.4333 -5.5862 -46.4906
vt -33.2592 46.341
f 290/288/13 291/289/13 292/290/13

v -33.5086 -5.5862 -40.2994
vt -36.62 40.1993
f 292/290/13 291/289/13 293/291/13

v -33.0133 -5.5862 -39.186
vt -36.0788 39.0948
f 292/290/13 293/291/13 294/292/13

v -32.4202 -5.5862 -38.1215
vt -35.4306 38.0388
f 292/290/13 294/292/13 295/293/13

v -31.734 -5.5862 -37.1145
vt -34.6806 37.0399
f 292/290/13 295/293/13 296/294/13

v -30.9601 -5.5862 -36.1732
vt -33.835 36.1061
f 292/290/13 296/294/13 297/295/13

v -30.1211 -5.5862 -35.3214
vt -32.9181 35.2611
f 292/290/13 297/295/13 298/296/13

v -29.8376 -5.5862 -45.6838
vt -32.6082 45.5406
f 292/290/13 298/296/13 299/297/13

v -28.6515 -5.5862 -34.9364
vt -31.312 34.8792
f 299/297/13 298/296/13 300/298/13

v -29.3055 -5.5862 -44.8127
vt -32.0266 44.6765
f 299/297/13 300/298/13 301/299/13

v -28.8516 -5.5862 -43.8985
vt -31.5306 43.7696
f 301/299/13 300/298/13 302/300/13

v -28.4794 -5.5862 -42.948
vt -31.1239 42.8267
f 302/300/13 300/298/13 303/301/13

v -28.6192 -5.5862 -35.0313
vt -31.2767 34.9734
f 303/301/13 300/298/13 304/302/13

v -28.3193 -5.5862 -35.9138
vt -30.9489 35.8488
f 303/301/13 304/302/13 305/303/13

v -28.1918 -5.5862 -41.9686
vt -30.8096 41.8551
f 303/301/13 305/303/13 306/304/13

v -28.0766 -5.5862 -36.9053
vt -30.6836 36.8323
f 306/304/13 305/303/13 307/305/13

v -27.9911 -5.5862 -40.9678
vt -30.5902 40.8623
f 306/304/13 307/305/13 308/306/13

v -27.9215 -5.5862 -37.9142
vt -30.5142 37.8331
f 308/306/13 307/305/13 309/307/13

v -27.8786 -5.5862 -39.9532
vt -30.4673 39.8559
f 308/306/13 309/307/13 310/308/13

v -27.8554 -5.5862 -38.9328
vt -30.4419 38.8436
f 310/308/13 309/307/13 311/309/13

g Mesh14 Group1 Model

v -27.6047 -3.8862 17.3547
vt -30.168 -17.2158
vn -9.7573e-17 1 5.99332e-17
v -28.9088 -3.8862 12.8169
vt -31.5931 -12.7144
v -28.9088 -3.8862 16.9389
vt -31.5931 -16.8035
f 312/310/14 313/311/14 314/312/14

v -26.6536 -3.8862 13.5358
vt -29.1285 -13.4275
f 313/311/14 312/310/14 315/313/14

v -26.4955 -3.8862 13.8752
vt -28.9558 -13.7642
f 315/313/14 312/310/14 316/314/14

v -26.621 -3.8862 13.5487
vt -29.0929 -13.4403
f 315/313/14 316/314/14 317/315/14

v -26.5905 -3.8862 13.566
vt -29.0596 -13.4575
f 317/315/14 316/314/14 318/316/14

v -26.5627 -3.8862 13.5872
vt -29.0292 -13.4786
f 318/316/14 316/314/14 319/317/14

v -26.5381 -3.8862 13.6121
vt -29.0023 -13.5033
f 319/317/14 316/314/14 320/318/14

v -26.5171 -3.8862 13.6402
vt -28.9794 -13.5311
f 320/318/14 316/314/14 321/319/14

v -26.5002 -3.8862 13.6708
vt -28.9608 -13.5615
f 321/319/14 316/314/14 322/320/14

v -26.4876 -3.8862 13.7035
vt -28.9471 -13.5939
f 322/320/14 316/314/14 323/321/14

v -26.4844 -3.8862 13.8419
vt -28.9437 -13.7312
f 323/321/14 316/314/14 324/322/14

v -26.4796 -3.8862 13.7376
vt -28.9384 -13.6278
f 323/321/14 324/322/14 325/323/14

v -26.478 -3.8862 13.8075
vt -28.9367 -13.6971
f 325/323/14 324/322/14 326/324/14

v -26.4764 -3.8862 13.7725
vt -28.9349 -13.6624
f 325/323/14 326/324/14 327/325/14

g Mesh15 Group1 Model

v -25.2219 0.513796 34.8449
vt -27.5639 -34.5662
vn -1.49685e-17 1 7.20357e-18
v -13.7988 0.513796 33.708
vt -15.0801 -33.4384
v -25.2219 0.513796 32.9939
vt -27.5639 -32.73
f 328/326/15 329/327/15 330/328/15

v -5.46283 0.513796 34.1583
vt -5.97008 -33.8851
f 329/327/15 328/326/15 331/329/15

v -13.2268 0.513796 33.7361
vt -14.455 -33.4662
f 329/327/15 331/329/15 332/330/15

v -12.6548 0.513796 33.708
vt -13.8299 -33.4384
f 332/330/15 331/329/15 333/331/15

v -12.0883 0.513796 33.6239
vt -13.2108 -33.355
f 333/331/15 331/329/15 334/332/15

v -11.5328 0.513796 33.4848
vt -12.6037 -33.217
f 334/332/15 331/329/15 335/333/15

v -10.9936 0.513796 33.2919
vt -12.0144 -33.0256
f 335/333/15 331/329/15 336/334/15

v -10.4759 0.513796 33.047
vt -11.4487 -32.7827
f 336/334/15 331/329/15 337/335/15

v -9.98474 0.513796 32.7526
vt -10.9119 -32.4906
f 337/335/15 331/329/15 338/336/15

v -9.52477 0.513796 32.4115
vt -10.4092 -32.1522
f 338/336/15 331/329/15 339/337/15

v -9.10045 0.513796 32.0269
vt -9.94547 -31.7707
f 339/337/15 331/329/15 340/338/15

v -8.71586 0.513796 31.6026
vt -9.52518 -31.3498
f 340/338/15 331/329/15 341/339/15

v -8.37472 0.513796 31.1426
vt -9.15236 -30.8935
f 341/339/15 331/329/15 342/340/15

v -8.08031 0.513796 30.6514
vt -8.83061 -30.4062
f 342/340/15 331/329/15 343/341/15

v -7.83546 0.513796 30.1337
vt -8.56303 -29.8927
f 343/341/15 331/329/15 344/342/15

v -7.64254 0.513796 29.5945
vt -8.35219 -29.3578
f 344/342/15 331/329/15 345/343/15

v -7.50339 0.513796 29.039
vt -8.20012 -28.8067
f 345/343/15 331/329/15 346/344/15

v -7.41936 0.513796 28.4725
vt -8.10829 -28.2448
f 346/344/15 331/329/15 347/345/15

v -7.39126 0.513796 27.9005
vt -8.07758 -27.6774
f 347/345/15 331/329/15 348/346/15

v -7.2598 0.513796 25.2428
vt -7.93392 -25.0409
f 348/346/15 331/329/15 349/347/15

v -7.08629 0.513796 24.981
vt -7.74429 -24.7812
f 349/347/15 331/329/15 350/348/15

v -6.87744 0.513796 24.7464
vt -7.51605 -24.5485
f 350/348/15 331/329/15 351/349/15

v -6.63748 0.513796 24.5438
vt -7.25381 -24.3475
f 351/349/15 331/329/15 352/350/15

v -6.37124 0.513796 24.3773
vt -6.96285 -24.1823
f 352/350/15 331/329/15 353/351/15

v -6.08409 0.513796 24.2501
vt -6.64903 -24.0561
f 353/351/15 331/329/15 354/352/15

v -5.78182 0.513796 24.1649
vt -6.31869 -23.9716
f 354/352/15 331/329/15 355/353/15

v -5.47052 0.513796 24.1233
vt -5.97849 -23.9304
f 355/353/15 331/329/15 356/354/15

v -5.46283 0.513796 24.1233
vt -5.97008 -23.9304
f 356/354/15 331/329/15 357/355/15

v -5.46283 0.513796 30.9655
vt -5.97008 -30.7178
f 357/355/15 331/329/15 358/356/15

v -7.39449 0.513796 25.5265
vt -8.08111 -25.3223
f 359/357/15 348/346/15 349/347/15

v -7.41936 0.513796 27.3286
vt -8.10829 -27.11
f 359/357/15 360/358/15 348/346/15

v -7.42036 0.513796 27.3218
vt -8.10938 -27.1033
f 359/357/15 361/359/15 360/358/15

v -7.4798 0.513796 26.9211
vt -8.17434 -26.7058
f 359/357/15 362/360/15 361/359/15

v -7.48763 0.513796 25.8264
vt -8.1829 -25.6198
f 363/361/15 362/360/15 359/357/15

v -7.50339 0.513796 26.7621
vt -8.20012 -26.548
f 363/361/15 364/362/15 362/360/15

v -7.53734 0.513796 26.1365
vt -8.23723 -25.9274
f 365/363/15 364/362/15 363/361/15

v -7.54263 0.513796 26.4505
vt -8.24301 -26.2389
f 364/362/15 365/363/15 366/364/15

v -25.0152 0.513796 32.9939
vt -27.338 -32.73
f 330/328/15 329/327/15 367/365/15

v -24.9124 0.513796 32.9857
vt -27.2257 -32.7219
f 367/365/15 329/327/15 368/366/15

v -24.8109 0.513796 32.9678
vt -27.1148 -32.7041
f 368/366/15 329/327/15 369/367/15

v -24.7116 0.513796 32.9402
vt -27.0062 -32.6768
f 369/367/15 329/327/15 370/368/15

v -24.6473 0.513796 32.9156
vt -26.936 -32.6523
f 370/368/15 329/327/15 371/369/15

v -24.6154 0.513796 32.9033
vt -26.901 -32.6402
f 371/369/15 329/327/15 372/370/15

v -24.5231 0.513796 32.8574
vt -26.8002 -32.5946
f 372/370/15 329/327/15 373/371/15

v -24.4356 0.513796 32.8028
vt -26.7046 -32.5405
f 373/371/15 329/327/15 374/372/15

v -24.3538 0.513796 32.7402
vt -26.6152 -32.4783
f 374/372/15 329/327/15 375/373/15

v -24.2783 0.513796 32.67
vt -26.5327 -32.4087
f 375/373/15 329/327/15 376/374/15

v -24.2099 0.513796 32.5929
vt -26.4579 -32.3322
f 376/374/15 329/327/15 377/375/15

v -24.1491 0.513796 32.5096
vt -26.3915 -32.2496
f 377/375/15 329/327/15 378/376/15

v -24.0966 0.513796 32.4209
vt -26.3341 -32.1616
f 378/376/15 329/327/15 379/377/15

v -24.0528 0.513796 32.3276
vt -26.2862 -32.0691
f 379/377/15 329/327/15 380/378/15

v -14.3652 0.513796 33.6239
vt -15.6991 -33.355
f 380/378/15 329/327/15 381/379/15

v -14.9207 0.513796 33.4848
vt -16.3062 -33.217
f 380/378/15 381/379/15 382/380/15

v -24.0528 0.513796 31.1451
vt -26.2862 -30.896
f 380/378/15 382/380/15 383/381/15

v -24.0447 0.513796 31.1066
vt -26.2774 -30.8578
f 383/381/15 382/380/15 384/382/15

v -24.0345 0.513796 31.0686
vt -26.2662 -30.8201
f 384/382/15 382/380/15 385/383/15

v -24.0222 0.513796 31.0313
vt -26.2527 -30.7831
f 385/383/15 382/380/15 386/384/15

v -24.0078 0.513796 30.9946
vt -26.237 -30.7467
f 386/384/15 382/380/15 387/385/15

v -23.9914 0.513796 30.9589
vt -26.2191 -30.7113
f 387/385/15 382/380/15 388/386/15

v -23.9731 0.513796 30.9241
vt -26.1991 -30.6767
f 388/386/15 382/380/15 389/387/15

v -23.9528 0.513796 30.8903
vt -26.177 -30.6433
f 389/387/15 382/380/15 390/388/15

v -23.9307 0.513796 30.8578
vt -26.1528 -30.611
f 390/388/15 382/380/15 391/389/15

v -23.9069 0.513796 30.8265
vt -26.1267 -30.58
f 391/389/15 382/380/15 392/390/15

v -23.8813 0.513796 30.7966
vt -26.0988 -30.5503
f 392/390/15 382/380/15 393/391/15

v -23.8541 0.513796 30.7682
vt -26.0691 -30.5221
f 393/391/15 382/380/15 394/392/15

v -23.8254 0.513796 30.7413
vt -26.0377 -30.4955
f 394/392/15 382/380/15 395/393/15

v -23.6318 0.513796 30.5114
vt -25.8261 -30.2674
f 395/393/15 382/380/15 396/394/15

v -15.4599 0.513796 33.2919
vt -16.8955 -33.0256
f 396/394/15 382/380/15 397/395/15

v -15.9776 0.513796 33.047
vt -17.4612 -32.7827
f 396/394/15 397/395/15 398/396/15

v -16.4688 0.513796 32.7526
vt -17.998 -32.4906
f 396/394/15 398/396/15 399/397/15

v -22.956 0.513796 28.1851
vt -25.0876 -27.9597
f 396/394/15 399/397/15 400/398/15

v -16.9288 0.513796 32.4115
vt -18.5007 -32.1522
f 400/398/15 399/397/15 401/399/15

v -22.7218 0.513796 27.9945
vt -24.8316 -27.7706
f 400/398/15 401/399/15 402/400/15

v -22.4598 0.513796 27.8441
vt -24.5453 -27.6214
f 402/400/15 401/399/15 403/401/15

v -22.1771 0.513796 27.7379
vt -24.2363 -27.5161
f 403/401/15 401/399/15 404/402/15

v -17.3531 0.513796 32.0269
vt -18.9645 -31.7707
f 404/402/15 401/399/15 405/403/15

v -21.8809 0.513796 27.6787
vt -23.9127 -27.4573
f 404/402/15 405/403/15 406/404/15

v -21.5791 0.513796 27.668
vt -23.5828 -27.4467
f 406/404/15 405/403/15 407/405/15

v -21.2794 0.513796 27.706
vt -23.2553 -27.4844
f 407/405/15 405/403/15 408/406/15

v -17.7377 0.513796 31.6026
vt -19.3847 -31.3498
f 408/406/15 405/403/15 409/407/15

v -20.9899 0.513796 27.7919
vt -22.9389 -27.5696
f 408/406/15 409/407/15 410/408/15

v -20.7179 0.513796 27.9233
vt -22.6417 -27.7
f 410/408/15 409/407/15 411/409/15

v -19.9379 0.513796 28.82
vt -21.7893 -28.5895
f 411/409/15 409/407/15 412/410/15

v -18.0788 0.513796 31.1426
vt -19.7576 -30.8935
f 412/410/15 409/407/15 413/411/15

v -20.4707 0.513796 28.0969
vt -22.3715 -27.8721
f 411/409/15 412/410/15 414/412/15

v -20.2547 0.513796 28.308
vt -22.1355 -28.0816
f 414/412/15 412/410/15 415/413/15

v -20.0755 0.513796 28.5511
vt -21.9397 -28.3228
f 415/413/15 412/410/15 416/414/15

v -23.8202 0.513796 30.3528
vt -26.032 -30.11
f 400/398/15 417/415/15 396/394/15

v -24.0138 0.513796 30.5827
vt -26.2436 -30.3381
f 400/398/15 418/416/15 417/415/15

v -24.0518 0.513796 30.6205
vt -26.2851 -30.3756
f 400/398/15 419/417/15 418/416/15

v -24.0876 0.513796 30.6604
vt -26.3242 -30.4152
f 400/398/15 420/418/15 419/417/15

v -24.7855 0.513796 29.9377
vt -27.0869 -29.6983
f 420/418/15 400/398/15 421/419/15

g Mesh16 Group1 Model

v -28.2838 -1.3862 26.0309
vt -30.9101 -25.8227
vn -6.92775e-16 1 -1.45017e-16
v -28.9088 -1.3862 17.264
vt -31.5931 -17.1259
v -28.9088 -1.3862 26.0309
vt -31.5931 -25.8227
f 422/420/16 423/421/16 424/422/16

v -28.1268 -1.3862 20.5694
vt -30.7385 -20.4049
f 423/421/16 422/420/16 425/423/16

v -28.2619 -1.3862 26.0244
vt -30.8862 -25.8162
f 425/423/16 422/420/16 426/424/16

v -28.241 -1.3862 26.0154
vt -30.8633 -25.8073
f 425/423/16 426/424/16 427/425/16

v -28.2211 -1.3862 26.0042
vt -30.8416 -25.7962
f 425/423/16 427/425/16 428/426/16

v -28.2027 -1.3862 25.9908
vt -30.8214 -25.783
f 425/423/16 428/426/16 429/427/16

v -28.1858 -1.3862 25.9755
vt -30.803 -25.7678
f 425/423/16 429/427/16 430/428/16

v -28.1707 -1.3862 25.9584
vt -30.7865 -25.7508
f 425/423/16 430/428/16 431/429/16

v -28.1576 -1.3862 25.9397
vt -30.7722 -25.7323
f 425/423/16 431/429/16 432/430/16

v -28.1467 -1.3862 25.9197
vt -30.7603 -25.7124
f 425/423/16 432/430/16 433/431/16

v -28.1381 -1.3862 25.8986
vt -30.7508 -25.6915
f 425/423/16 433/431/16 434/432/16

v -28.1318 -1.3862 25.8767
vt -30.744 -25.6698
f 425/423/16 434/432/16 435/433/16

v -28.128 -1.3862 25.8542
vt -30.7399 -25.6475
f 425/423/16 435/433/16 436/434/16

v -28.1268 -1.3862 25.8315
vt -30.7385 -25.6249
f 425/423/16 436/434/16 437/435/16

v -27.4285 -1.3862 17.7358
vt -29.9754 -17.594
f 423/421/16 425/423/16 438/436/16

v -27.3076 -1.3862 17.9998
vt -29.8433 -17.8559
f 438/436/16 425/423/16 439/437/16

v -27.4032 -1.3862 17.7459
vt -29.9478 -17.604
f 438/436/16 439/437/16 440/438/16

v -27.3796 -1.3862 17.7593
vt -29.9219 -17.6173
f 440/438/16 439/437/16 441/439/16

v -27.358 -1.3862 17.7759
vt -29.8983 -17.6337
f 441/439/16 439/437/16 442/440/16

v -27.3389 -1.3862 17.7953
vt -29.8775 -17.653
f 442/440/16 439/437/16 443/441/16

v -27.3227 -1.3862 17.8172
vt -29.8598 -17.6747
f 443/441/16 439/437/16 444/442/16

v -27.3097 -1.3862 17.8411
vt -29.8456 -17.6984
f 444/442/16 439/437/16 445/443/16

v -27.3001 -1.3862 17.8666
vt -29.8351 -17.7237
f 445/443/16 439/437/16 446/444/16

v -27.2987 -1.3862 17.9741
vt -29.8335 -17.8304
f 446/444/16 439/437/16 447/445/16

v -27.2941 -1.3862 17.8931
vt -29.8286 -17.75
f 446/444/16 447/445/16 448/446/16

v -27.2934 -1.3862 17.9474
vt -29.8278 -17.8039
f 448/446/16 447/445/16 449/447/16

v -27.2919 -1.3862 17.9202
vt -29.8261 -17.7769
f 448/446/16 449/447/16 450/448/16

g Mesh17 Group1 Model

v -12.7071 -3.6862 -44.9544
vt -13.887 44.5948
vn -1.77778e-16 1 4.5997e-17
v -19.7992 -3.6862 -52.8269
v -21.432 -3.6862 -47.7799
f 451/449/17 452/72/17 453/69/17

v -18.9905 -3.6862 -52.3247
vt -20.7539 51.9062
f 452/72/17 451/449/17 454/450/17

v -17.893 -3.6862 -55.717
vt -19.5545 55.2713
f 454/450/17 451/449/17 455/451/17

v -13.9514 -3.6862 -53.3025
vt -15.2468 52.8762
f 455/451/17 451/449/17 456/452/17

v -10.5234 -3.6862 -51.704
vt -11.5006 51.2905
f 456/452/17 451/449/17 457/453/17

g Mesh18 Group1 Model

l 5 6

l 2 5

l 3 2

l 1 3

l 4 1

l 6 4

g Mesh19 Group1 Model

l 90 91

l 88 90

l 87 88

l 86 87

l 83 86

l 80 83

l 92 80

l 93 92

l 78 93

l 77 78

l 75 77

l 73 75

l 74 73

l 72 74

l 69 72

l 71 69

l 70 71

l 76 70

l 79 76

l 81 79

l 82 81

l 84 82

l 85 84

l 85 89

l 89 91

g Mesh20 Group1 Model

l 453 452

l 453 451

l 451 457

l 457 456

l 456 455

l 454 455

l 452 454

g Mesh21 Group1 Model

l 42 52

l 38 42

l 28 38

l 28 30

l 30 29

l 29 31

l 31 32

l 32 33

l 33 34

l 34 35

l 35 36

l 36 37

l 37 39

l 39 67

l 67 66

l 66 60

l 52 60

g Mesh22 Group1 Model

l 8 13

l 9 8

l 9 7

l 11 7

l 10 11

l 12 10

l 13 12

g Mesh23 Group1 Model

l 115 116

l 113 115

l 111 113

l 109 111

l 107 109

l 105 107

l 102 105

l 104 102

l 103 104

l 106 103

l 108 106

l 110 108

l 112 110

l 114 112

l 116 114

g Mesh24 Group1 Model

l 19 15

l 21 19

l 20 21

l 20 18

l 18 17

l 17 14

l 16 14

l 16 15

g Mesh25 Group1 Model

l 251 249

l 250 251

l 247 250

l 243 247

l 237 243

l 232 237

l 228 232

l 225 228

l 221 225

l 218 221

l 215 218

l 214 215

l 212 214

l 211 212

l 129 211

l 128 129

l 130 128

l 133 130

l 135 133

l 137 135

l 138 137

l 140 138

l 142 140

l 143 142

l 145 143

l 147 145

l 148 147

l 150 148

l 150 154

l 154 155

l 155 160

l 160 164

l 164 169

l 169 174

l 174 175

l 175 176

l 176 178

l 178 179

l 179 180

l 180 181

l 181 183

l 183 185

l 185 186

l 186 188

l 188 190

l 190 193

l 193 196

l 196 195

l 195 194

l 194 192

l 198 192

l 197 198

l 191 197

l 189 191

l 187 189

l 184 187

l 182 184

l 177 182

l 173 177

l 199 173

l 156 199

l 153 156

l 153 152

l 152 151

l 151 149

l 149 146

l 146 144

l 144 141

l 141 139

l 139 136

l 136 134

l 134 132

l 132 131

l 131 213

l 213 216

l 216 217

l 217 219

l 219 220

l 220 222

l 222 223

l 223 224

l 224 226

l 226 227

l 227 229

l 229 230

l 230 231

l 231 233

l 233 234

l 234 235

l 235 236

l 236 238

l 238 239

l 239 240

l 240 241

l 241 242

l 242 244

l 244 245

l 245 246

l 246 252

l 252 248

l 248 249

g Mesh26 Group1 Model

l 384 385

l 383 384

l 383 380

l 379 380

l 378 379

l 377 378

l 376 377

l 375 376

l 374 375

l 373 374

l 372 373

l 371 372

l 370 371

l 369 370

l 368 369

l 367 368

l 367 330

l 330 328

l 328 331

l 331 358

l 358 357

l 356 357

l 355 356

l 354 355

l 353 354

l 352 353

l 351 352

l 350 351

l 349 350

l 359 349

l 363 359

l 365 363

l 366 365

l 364 366

l 362 364

l 361 362

l 360 361

l 348 360

l 347 348

l 346 347

l 345 346

l 344 345

l 343 344

l 342 343

l 341 342

l 340 341

l 339 340

l 338 339

l 337 338

l 336 337

l 335 336

l 334 335

l 333 334

l 332 333

l 329 332

l 381 329

l 382 381

l 397 382

l 398 397

l 399 398

l 401 399

l 405 401

l 409 405

l 413 409

l 413 412

l 416 412

l 415 416

l 414 415

l 411 414

l 410 411

l 408 410

l 407 408

l 406 407

l 404 406

l 403 404

l 402 403

l 400 402

l 421 400

l 421 420

l 420 419

l 419 418

l 418 417

l 417 396

l 396 395

l 394 395

l 393 394

l 392 393

l 391 392

l 390 391

l 389 390

l 388 389

l 387 388

l 386 387

l 385 386

g Mesh27 Group1 Model

l 99 98

l 100 99

l 101 100

l 94 101

l 94 96

l 96 95

l 95 97

l 97 98

g Mesh28 Group1 Model

l 283 253

l 283 284

l 269 284

l 269 277

l 256 277

l 254 256

l 255 254

l 255 253

g Mesh29 Group1 Model

l 127 126

l 122 127

l 124 122

l 124 123

l 125 123

l 126 125

g Mesh30 Group1 Model

l 63 62

l 64 63

l 65 64

l 68 65

l 40 68

l 41 40

l 43 41

l 44 43

l 45 44

l 46 45

l 47 46

l 48 47

l 49 48

l 50 49

l 51 50

l 53 51

l 54 53

l 55 54

l 56 55

l 57 56

l 58 57

l 59 58

l 61 59

l 62 61

g Mesh31 Group1 Model

l 205 206

l 204 205

l 203 204

l 202 203

l 201 202

l 200 201

l 172 200

l 171 172

l 170 171

l 168 170

l 167 168

l 166 167

l 165 166

l 163 165

l 162 163

l 161 162

l 159 161

l 158 159

l 157 158

l 210 157

l 209 210

l 208 209

l 207 208

l 206 207

g Mesh32 Group1 Model

l 24 23

l 24 22

l 25 22

l 27 25

l 26 27

l 23 26

g Mesh33 Group1 Model

l 273 272

l 274 273

l 275 274

l 276 275

l 278 276

l 279 278

l 280 279

l 281 280

l 282 281

l 257 282

l 258 257

l 259 258

l 260 259

l 261 260

l 262 261

l 263 262

l 264 263

l 265 264

l 266 265

l 267 266

l 268 267

l 270 268

l 271 270

l 272 271

g Mesh34 Group1 Model

l 121 117

l 121 120

l 118 120

l 119 118

l 117 119

g Mesh35 Group1 Model

l 287 285

l 286 287

l 288 286

l 290 288

l 292 290

l 299 292

l 301 299

l 302 301

l 303 302

l 306 303

l 308 306

l 310 308

l 311 310

l 309 311

l 307 309

l 305 307

l 304 305

l 304 300

l 298 300

l 297 298

l 296 297

l 295 296

l 294 295

l 293 294

l 291 293

l 289 291

l 285 289

g Mesh36 Group1 Model

l 323 325

l 322 323

l 321 322

l 320 321

l 319 320

l 318 319

l 317 318

l 315 317

l 313 315

l 314 313

l 312 314

l 312 316

l 324 316

l 326 324

l 327 326

l 325 327

g Mesh37 Group1 Model

l 444 445

l 443 444

l 442 443

l 441 442

l 440 441

l 438 440

l 438 423

l 424 423

l 424 422

l 426 422

l 427 426

l 428 427

l 429 428

l 430 429

l 431 430

l 432 431

l 433 432

l 434 433

l 435 434

l 436 435

l 437 436

l 437 425

l 425 439

l 447 439

l 449 447

l 450 449

l 448 450

l 446 448

l 445 446

