# Alias OBJ Model File
# Exported from SketchUp, (c) 2000-2012 Trimble Navigation Limited
# File units = meters

mtllib MH_Roof.mtl

g Mesh1 Group2 Group1 Model

usemtl Roofing_Scalloped
v 12.9115 12.8928 18.6404
vt -23.1058 36.6318
vn 1.04731e-14 0.922076 -0.387008
v 19.8307 11.2928 14.8283
vt -35.4879 29.579
v 10.1192 11.2928 14.8283
vt -18.1088 29.579
f 1/1/1 2/2/1 3/3/1

v 17.0384 12.8928 18.6404
vt -30.491 36.6318
f 2/2/1 1/1/1 4/4/1

vt 23.1058 -26.1636
vn 3.45116e-15 0.93417 0.356829
v 19.8307 11.2928 22.8292
vt 35.4879 -33.8703
vt 30.491 -26.1636
f 1/5/2 5/6/2 4/7/2

v 10.1192 11.2928 22.8292
vt 18.1088 -33.8703
f 5/6/2 1/5/2 6/8/2

vt 32.1268 29.1361
vn -0.497172 0.867652 3.2872e-15
v 10.1192 11.2928 18.6404
vt 32.1268 23.8284
vt 39.6227 23.8284
f 1/9/3 7/10/3 6/11/3

vt 25.3048 23.8284
vn -0.497172 0.867652 2.38514e-14
f 3/12/4 7/10/4 1/9/4

v 10.1192 11.2928 17.4829
vt 30.0552 23.8284
f 7/10/4 3/12/4 8/13/4

vt 25.3048 20.4953
vn -1 -1.36323e-13 -9.44972e-15
v 10.1192 11.1328 17.4829
vt 30.0552 20.209
vt 30.0552 20.4953
f 3/14/5 9/15/5 8/16/5

v 10.1192 11.1328 14.8283
vt 25.3048 20.209
f 9/15/5 3/14/5 10/17/5

vt -35.4879 20.4953
vn -4.46017e-16 -6.31672e-14 -1
vt -18.1088 20.209
vt -18.1088 20.4953
f 2/18/6 10/19/6 3/20/6

v 19.8307 11.1328 14.8283
vt -35.4879 20.209
f 10/19/6 2/18/6 11/21/6

vt -39.6227 20.4953
vn 1 2.40637e-14 -5.02189e-16
vt -25.3048 20.209
vt -25.3048 20.4953
f 5/22/7 11/23/7 2/24/7

v 19.8307 11.1328 22.8292
vt -39.6227 20.209
f 11/23/7 5/22/7 12/25/7

vt 35.4879 20.4953
vn 5.95038e-16 2.12639e-17 1
v 10.1192 11.1328 22.8292
vt 18.1088 20.209
vt 35.4879 20.209
f 5/26/8 13/27/8 12/28/8

vt 18.1088 20.4953
f 13/27/8 5/26/8 6/29/8

vt 32.1268 20.4953
vn -1 -8.70201e-14 1.83188e-15
vt 39.6227 20.209
vt 39.6227 20.4953
f 7/30/9 13/31/9 6/32/9

v 10.1192 11.1328 20.9111
vt 36.1901 20.209
f 13/31/9 7/30/9 14/33/9

v 10.1192 11.1328 18.6404
vt 32.1268 20.209
f 14/33/9 7/30/9 15/34/9

vn -1 5.86553e-14 1.68383e-14
f 8/16/10 15/34/10 7/30/10

f 15/34/10 8/16/10 9/15/10

vt 18.1088 -32.1268
vn 8.88562e-15 1 -6.37425e-16
vt 18.1088 -25.3048
vt 18.1088 -30.0552
f 15/35/11 10/36/11 9/37/11

vt 18.1088 -36.1901
f 10/36/11 15/35/11 14/38/11

vt 35.4879 -39.6227
f 14/38/11 12/39/11 10/36/11

vt 18.1088 -39.6227
f 12/39/11 14/38/11 13/40/11

vt 35.4879 -25.3048
f 10/36/11 12/39/11 11/41/11

vt -39.6227 -26.6301
vn 0.497172 0.867652 5.07367e-15
vt -25.3048 -26.6301
vt -32.1268 -21.3224
f 5/42/12 2/43/12 4/44/12

g Mesh2 Group2 Group1 Model

l 2 3

l 2 4

l 2 5

l 11 2

l 11 12

l 11 10

l 10 9

l 10 3

l 3 1

l 3 8

l 8 7

l 8 9

l 9 15

l 15 14

l 7 15

l 1 7

l 4 1

l 4 5

l 6 5

l 1 6

l 7 6

l 13 6

l 13 12

l 14 13

v 10.1392 11.1328 20.895
l 16 14

l 5 12

g Mesh3 Group5 Group4 Group3 Group1 Model

v 0.767407 12.8928 20.207
vt 36.1614 6.89053
vn -0.390324 0.920677 -2.95046e-15
v -3.00659 11.2928 16.4333
vt 29.4082 -0.0962958
v -3.00659 11.2928 23.6413
vt 42.3073 -0.0962958
f 17/45/13 18/46/13 19/47/13

vt -1.37331 40.5184
vn -2.33193e-15 0.920665 -0.390354
v 10.1192 11.2928 16.4333
vt -18.1088 33.5321
vt 5.38045 33.5321
f 17/48/14 20/49/14 18/50/14

v 6.34522 12.8928 20.207
vt -11.3551 40.5184
f 20/49/14 17/48/14 21/51/14

vt 1.37331 -28.6475
vn -4.57808e-15 0.906455 0.422302
v 10.1192 11.2928 23.6413
vt 18.1088 -35.0486
vt 11.3551 -28.6475
f 17/52/15 22/53/15 21/54/15

vt -5.38045 -35.0486
f 22/53/15 17/52/15 19/55/15

vt -63.9554 10.9815
vn 0 0 1
v 10.1192 11.0658 23.6413
vt -42.3073 10.6071
vt -42.3073 10.9815
f 19/56/16 23/57/16 22/58/16

v -3.00659 11.0658 23.6413
vt -63.9554 10.6071
f 23/57/16 19/56/16 24/59/16

vt 29.4082 19.9298
vn -1 -3.97528e-15 2.50385e-17
vt 42.3073 19.6759
vt 42.3073 19.9298
f 18/60/17 24/61/17 19/62/17

v -3.00659 11.0658 16.4333
vt 29.4082 19.6759
f 24/61/17 18/60/17 25/63/17

vt 5.38045 19.9298
vn 0 -1.27209e-14 -1
v 10.1192 11.0658 16.4333
vt -18.1088 19.6759
vt 5.38045 19.6759
f 18/64/18 26/65/18 25/66/18

vt -18.1088 19.9298
f 26/65/18 18/64/18 20/67/18

v 10.1192 11.2928 20.207
vt -36.1614 10.9815
vn 1 2.12542e-14 7.58476e-16
vt -29.4082 10.6071
vt -29.4082 10.9815
f 27/68/19 26/69/19 20/70/19

v 10.1192 11.2928 20.2231
vt -36.1901 10.9815
f 28/71/19 26/69/19 27/68/19

v 10.1192 11.2928 22.1412
vt -39.6227 10.9815
f 29/72/19 26/69/19 28/71/19

f 22/58/19 26/69/19 29/72/19

f 26/69/19 22/58/19 23/57/19

usemtl FrontColor
vt -4.26326e-14 -9.53311e-26
vn 1.48498e-15 -1 1.97304e-14
vt -516.764 283.78
vt -516.764 -1.10472e-25
f 24/73/20 26/74/20 23/75/20

vt -2.84217e-14 283.78
f 26/74/20 24/73/20 25/76/20

usemtl Roofing_Scalloped
vt -42.3073 -12.4001
vn 0.390324 0.920677 -6.83313e-15
vt -39.6227 -12.4001
vt -36.1614 -5.41327
f 22/77/21 29/78/21 21/79/21

vt -36.1614 -12.4001
f 29/78/21 27/80/21 21/79/21

vt -36.1901 -12.4001
f 27/80/21 29/78/21 28/81/21

vt -29.4082 -12.4001
vn 0.390324 0.920677 6.9812e-15
f 20/82/22 21/79/22 27/80/22

g Mesh4 Group5 Group4 Group3 Group1 Model

l 19 17

l 19 18

l 19 24

l 19 22

l 22 21

l 29 22

l 28 29

v 10.1392 11.2928 20.207
l 30 28

l 27 28

l 21 27

l 21 20

l 17 21

l 17 18

l 25 18

l 24 25

l 24 23

l 22 23

l 23 26

l 26 20

l 25 26

l 18 20

l 20 27

v 10.1392 11.2928 22.1412
l 29 31

g Mesh5 Group6 Group4 Group3 Group1 Model

v 6.52304 12.8928 25.7848
vn -2.94006e-15 0.920677 0.390324
v 2.57156 11.2928 29.5588
v 10.1192 11.2928 29.5588
f 32/45/23 33/46/23 34/47/23

vn -0.405777 0.913972 2.47033e-15
v 2.57156 11.2928 16.433
f 32/48/24 35/49/24 33/50/24

v 6.52304 12.8928 20.207
f 35/49/24 32/48/24 36/51/24

vn 0.438446 0.898757 4.37134e-15
v 10.1192 11.2928 16.433
f 32/52/25 37/53/25 36/54/25

f 37/53/25 32/52/25 34/55/25

vn 1 0 -3.82857e-16
v 10.1192 11.0658 16.433
f 34/56/26 38/57/26 37/58/26

v 10.1192 11.0658 29.5588
f 38/57/26 34/56/26 39/59/26

vn 4.09075e-16 -3.97528e-15 1
f 33/60/27 39/61/27 34/62/27

v 2.57156 11.0658 29.5588
f 39/61/27 33/60/27 40/63/27

vn -1 -1.21484e-14 3.82857e-16
v 2.57156 11.0658 16.433
f 33/64/28 41/65/28 40/66/28

f 41/65/28 33/64/28 35/67/28

v 6.52304 11.2928 16.433
vn 4.1136e-16 2.12542e-14 -1
f 42/68/29 41/69/29 35/70/29

v 6.53988 11.2928 16.433
f 43/71/29 41/69/29 42/68/29

v 8.54841 11.2928 16.433
f 44/72/29 41/69/29 43/71/29

f 37/58/29 41/69/29 44/72/29

f 41/69/29 37/58/29 38/57/29

usemtl FrontColor
vn 2.06601e-14 -1 -1.48498e-15
f 39/73/30 41/74/30 38/75/30

f 41/74/30 39/73/30 40/76/30

usemtl Roofing_Scalloped
vn -7.30456e-15 0.920677 -0.390324
f 37/77/31 44/78/31 36/79/31

f 44/78/31 42/80/31 36/79/31

f 42/80/31 44/78/31 43/81/31

vn 7.16073e-15 0.920677 -0.390324
f 35/82/32 36/79/32 42/80/32

g Mesh6 Group6 Group4 Group3 Group1 Model

l 34 32

l 34 33

l 34 39

l 34 37

l 37 36

l 44 37

l 43 44

v 6.52304 11.2928 16.413
l 45 43

l 42 43

l 36 42

l 36 35

l 32 36

l 32 33

l 40 33

l 39 40

l 39 38

l 37 38

l 38 41

l 41 35

l 40 41

l 33 35

l 35 42

v 8.54841 11.2928 16.413
l 44 46

g Mesh7 Group7 Group1 Model

v 0.767407 9.13479 27.2453
vt -1.37331 52.7889
vn -4.75022e-15 0.913979 -0.405762
v 10.1192 7.53479 23.6413
vt -18.1088 46.0957
v -3.00659 7.53479 23.6413
vt 5.38045 46.0957
f 47/83/33 48/84/33 49/85/33

v 6.34522 9.13479 27.2453
vt -11.3551 52.7889
f 48/84/33 47/83/33 50/86/33

vt 1.37331 -41.1747
vn -8.0178e-15 0.913979 0.405762
v 10.1192 7.53479 30.8493
vt 18.1088 -47.8679
vt 11.3551 -41.1747
f 47/87/34 51/88/34 50/89/34

v -3.00659 7.53479 30.8493
vt -5.38045 -47.8679
f 51/88/34 47/87/34 52/90/34

vt 48.7568 6.89053
vn -0.390324 0.920677 -2.94468e-15
vt 55.2064 -0.0962958
f 47/91/35 49/47/35 52/92/35

vn 0.390324 0.920677 -1.01483e-14
vt -48.7568 -5.41327
vt -55.2064 -12.4001
f 48/77/36 50/93/36 51/94/36

g Mesh8 Group7 Group1 Model

l 52 51

l 52 49

l 47 52

l 49 47

l 49 48

l 48 50

l 51 48

l 50 51

l 47 50

g Mesh9 Group1 Model

v 10.1192 11.2928 30.8493
v 10.1392 11.2928 30.8493
l 53 54

