# Alias OBJ Model File
# Exported from SketchUp, (c) 2000-2012 Trimble Navigation Limited
# File units = meters

mtllib MH_win_glass.mtl

g Mesh1 Group1 Model

usemtl Translucent_Glass_Blue
v 2.0888 7.53479 17.2233
vt 149.449 322.913
vn 1 0 2.62513e-13
v 2.0888 8.63879 17.2563
vt 148.15 366.378
v 2.0888 7.53479 17.2563
vt 148.15 322.913
f 1/1/1 2/2/1 3/3/1

v 2.0888 8.63879 17.2233
vt 149.449 366.378
f 2/2/1 1/1/1 4/4/1

vt -188.431 322.913
vn -5.88411e-15 -4.2839e-31 -1
v -2.81873 8.63879 17.2233
vt 4.77928 366.378
vt -188.431 366.378
f 1/5/2 5/6/2 4/7/2

v -2.81873 7.53479 17.2233
vt 4.77928 322.913
f 5/6/2 1/5/2 6/8/2

v -2.77273 7.53479 17.2563
vt 2.96826 148.15
vn 3.13789e-16 -1 4.39525e-15
vt 4.77928 149.449
vt -188.431 149.449
f 7/9/3 6/10/3 1/11/3

v -2.81873 7.53479 23.2452
vt 4.77928 -87.6353
f 6/10/3 7/9/3 8/12/3

v -2.77273 7.53479 23.1992
vt 2.96826 -85.8243
f 9/13/3 8/12/3 7/9/3

v -2.12319 7.53479 23.2452
vt -22.6041 -87.6353
f 8/12/3 9/13/3 10/14/3

v -2.12319 7.53479 23.1992
vt -22.6041 -85.8243
f 10/14/3 9/13/3 11/15/3

v -2.77273 8.63879 23.1992
vt 2.96826 366.378
vn 7.11312e-14 0 -1
vt -22.6041 322.913
vt 2.96826 322.913
f 12/16/4 11/17/4 9/18/4

v -2.12319 8.63879 23.1992
vt -22.6041 366.378
f 11/17/4 12/16/4 13/19/4

vt -2.96826 -85.8243
vn -2.93342e-16 1 -4.32725e-15
v -2.12319 8.63879 23.2452
vt 22.6041 -87.6353
vt 22.6041 -85.8243
f 12/20/5 14/21/5 13/22/5

v -2.81873 8.63879 23.2452
vt -4.77928 -87.6353
f 12/20/5 15/23/5 14/21/5

v -2.77273 8.63879 17.2563
vt -2.96826 148.15
f 15/23/5 12/20/5 16/24/5

vt -85.8243 366.378
vn 1 -3.31818e-31 -1.154e-15
f 12/25/6 7/3/6 16/2/6

vt -85.8243 322.913
f 7/3/6 12/25/6 9/26/6

vt -2.96826 322.913
vn 7.12775e-15 0 1
vt 188.431 366.378
vt -2.96826 366.378
f 7/27/7 2/28/7 16/29/7

vt 188.431 322.913
f 2/28/7 7/27/7 3/30/7

vt -188.431 148.15
f 7/9/3 1/11/3 3/31/3

vt 188.431 149.449
vt 188.431 148.15
f 4/32/5 16/24/5 2/33/5

vt -4.77928 149.449
f 5/34/5 16/24/5 4/32/5

f 16/24/5 5/34/5 15/23/5

vt -149.449 366.378
vn -1 -9.34434e-32 4.19581e-16
vt 87.6353 322.913
vt 87.6353 366.378
f 5/35/8 8/36/8 15/37/8

vt -149.449 322.913
f 8/36/8 5/35/8 6/38/8

vt 22.6041 322.913
vn -4.56685e-14 4.23687e-31 1
vt -4.77928 366.378
vt -4.77928 322.913
f 10/39/9 15/40/9 8/41/9

vt 22.6041 366.378
f 15/40/9 10/39/9 14/42/9

vn 1 -3.02103e-32 3.13875e-14
vt -87.6353 366.378
vt -87.6353 322.913
f 11/26/10 14/43/10 10/44/10

f 14/43/10 11/26/10 13/25/10

g Mesh2 Group1 Model

v 15.0265 8.63879 15.1713
vt 697.787 366.378
vn 8.04919e-15 0 1
v 10.7215 7.53479 15.1713
vt 528.299 322.913
v 15.0265 7.53479 15.1713
vt 697.787 322.913
f 17/45/11 18/46/11 19/47/11

v 10.7215 8.63879 15.1713
vt 528.299 366.378
f 18/46/11 17/45/11 20/48/11

v 15.0265 8.63879 15.1383
vt 697.787 231.535
vn -3.38483e-16 1 -1.26362e-14
vt 528.299 230.236
vt 697.787 230.236
f 21/49/12 20/50/12 17/51/12

v 10.6755 8.63879 15.1383
vt 526.488 231.535
f 22/52/12 20/50/12 21/49/12

v 10.6755 8.63879 17.2133
vt 526.488 149.843
f 20/50/12 22/52/12 23/53/12

vt -231.535 366.378
vn -1 6.9239e-33 1.39164e-15
v 10.6755 7.53479 17.2133
vt -149.843 322.913
vt -149.843 366.378
f 22/54/13 24/55/13 23/56/13

v 10.6755 7.53479 15.1383
vt -231.535 322.913
f 24/55/13 22/54/13 25/57/13

vt -526.488 366.378
vn -6.63674e-15 2.79886e-31 -1
v 15.0265 7.53479 15.1383
vt -697.787 322.913
vt -526.488 322.913
f 22/58/14 26/59/14 25/60/14

vt -697.787 366.378
f 26/59/14 22/58/14 21/61/14

vt 230.236 366.378
vt 231.535 322.913
vt 231.535 366.378
f 17/62/1 26/63/1 21/64/1

vt 230.236 322.913
f 26/63/1 17/62/1 19/65/1

vt -528.299 230.236
vn 3.4022e-16 -1 1.29887e-14
vt -697.787 231.535
vt -697.787 230.236
f 18/66/15 26/67/15 19/68/15

vt -526.488 231.535
f 18/66/15 25/69/15 26/67/15

vt -526.488 149.843
f 25/69/15 18/66/15 24/70/15

v 10.7215 7.53479 17.2133
vt -528.299 149.843
f 27/71/15 24/70/15 18/66/15

vn 3.13875e-13 -3.02103e-31 1
vt 526.488 366.378
vt 526.488 322.913
f 27/46/16 23/72/16 24/73/16

v 10.7215 8.63879 17.2133
f 23/72/16 27/46/16 28/48/16

vn 1 3.18683e-31 -3.20456e-15
vt 149.843 366.378
vt 149.843 322.913
f 18/65/17 28/74/17 27/75/17

f 28/74/17 18/65/17 20/62/17

vt 528.299 149.843
f 28/76/12 20/50/12 23/53/12

g Mesh3 Group1 Model

v 10.6755 4.64392 15.1383
vt -526.488 209.099
v 15.0265 3.53992 15.1383
vt -697.787 165.635
v 10.6755 3.53992 15.1383
vt -526.488 165.635
f 29/77/14 30/78/14 31/79/14

v 15.0265 4.64392 15.1383
vt -697.787 209.099
f 30/78/14 29/77/14 32/80/14

v 10.7215 4.64392 15.1713
f 29/52/12 33/50/12 32/49/12

v 10.6755 4.64392 17.2133
f 33/50/12 29/52/12 34/53/12

vt -231.535 209.099
v 10.6755 3.53992 17.2133
vt -149.843 165.635
vt -149.843 209.099
f 29/81/13 35/82/13 34/83/13

vt -231.535 165.635
f 35/82/13 29/81/13 31/84/13

v 10.7215 3.53992 15.1713
f 31/69/15 36/66/15 35/70/15

f 36/66/15 31/69/15 30/67/15

v 15.0265 3.53992 15.1713
f 36/66/15 30/67/15 37/68/15

vt 231.535 165.635
v 15.0265 4.64392 15.1713
vt 230.236 209.099
vt 230.236 165.635
f 30/85/1 38/86/1 37/87/1

vt 231.535 209.099
f 38/86/1 30/85/1 32/88/1

f 32/49/12 33/50/12 38/51/12

vt 528.299 165.635
vt 697.787 209.099
vt 528.299 209.099
f 36/89/11 38/90/11 33/91/11

vt 697.787 165.635
f 38/90/11 36/89/11 37/92/11

v 10.7215 4.64392 17.2133
vt 149.843 209.099
f 39/93/17 36/87/17 33/86/17

v 10.7215 3.53992 17.2133
vt 149.843 165.635
f 36/87/17 39/93/17 40/94/17

vt 526.488 209.099
f 34/95/16 40/89/16 39/91/16

vt 526.488 165.635
f 40/89/16 34/95/16 35/96/16

f 40/71/15 35/70/15 36/66/15

f 39/76/12 33/50/12 34/53/12

g Mesh4 Group1 Model

v 19.5674 3.30184 17.2133
vt -876.563 156.262
vn 4.9779e-16 4.99039e-33 -1
v 25.3683 4.40584 17.2133
vt -1104.95 199.726
v 25.3683 3.30184 17.2133
vt -1104.95 156.262
f 41/97/18 42/98/18 43/99/18

v 19.5674 4.40584 17.2133
vt -876.563 199.726
f 42/98/18 41/97/18 44/100/18

v 19.5674 3.30184 17.3683
vt -143.74 156.262
vn -1 -2.86901e-31 -1.863e-13
vt -149.843 199.726
vt -149.843 156.262
f 45/101/19 44/102/19 41/103/19

v 19.5674 4.40584 17.3683
vt -143.74 199.726
f 44/102/19 45/101/19 46/104/19

vt 876.563 156.262
vn -2.511e-13 2.30528e-31 1
v 19.6134 4.40584 17.3683
vt 878.374 199.726
vt 876.563 199.726
f 45/105/20 47/106/20 46/107/20

v 19.6134 3.30184 17.3683
vt 878.374 156.262
f 47/106/20 45/105/20 48/108/20

vt -876.563 149.843
vn -4.69981e-15 -1 9.56872e-15
vt -878.374 143.74
vt -876.563 143.74
f 41/109/21 48/110/21 45/111/21

v 19.6134 3.30184 17.2593
vt -878.374 148.031
f 48/110/21 41/109/21 49/112/21

vt -1104.95 149.843
f 49/112/21 41/109/21 43/113/21

v 25.3353 3.30184 17.2593
vt -1103.65 148.031
f 49/112/21 43/113/21 50/114/21

v 25.3353 3.30184 17.3683
vt -1103.65 143.74
f 50/114/21 43/113/21 51/115/21

v 25.3683 3.30184 17.3683
vt -1104.95 143.74
f 51/115/21 43/113/21 52/116/21

vt 149.843 156.262
vn 1 1.98623e-30 -2.2356e-13
v 25.3683 4.40584 17.3683
vt 143.74 199.726
vt 143.74 156.262
f 43/117/22 53/118/22 52/119/22

vt 149.843 199.726
f 53/118/22 43/117/22 42/120/22

vt 1104.95 149.843
vn 4.63665e-15 1 -6.99023e-15
v 25.3353 4.40584 17.3683
vt 1103.65 143.74
vt 1104.95 143.74
f 42/121/23 54/122/23 53/123/23

v 25.3353 4.40584 17.2593
vt 1103.65 148.031
f 42/121/23 55/124/23 54/122/23

v 19.6134 4.40584 17.2593
vt 878.374 148.031
f 42/121/23 56/125/23 55/124/23

vt 876.563 149.843
f 44/126/23 56/125/23 42/121/23

vt 878.374 143.74
f 44/126/23 47/127/23 56/125/23

vt 876.563 143.74
f 47/127/23 44/126/23 46/128/23

vn 1 0 4.76859e-13
vt 148.031 156.262
vt 148.031 199.726
f 47/118/24 49/129/24 56/130/24

f 49/129/24 47/118/24 48/119/24

vn 0 0 1
vt 1103.65 199.726
f 49/108/25 55/131/25 56/106/25

vt 1103.65 156.262
f 55/131/25 49/108/25 50/132/25

vn -1 0 2.11937e-13
vt -148.031 199.726
vt -148.031 156.262
f 51/101/26 55/133/26 50/134/26

f 55/133/26 51/101/26 54/104/26

vn -3.50018e-13 0 1
vt 1104.95 199.726
f 51/132/27 53/135/27 54/131/27

vt 1104.95 156.262
f 53/135/27 51/132/27 52/136/27

g Mesh5 Group1 Model

v 42.7435 3.84904 17.1983
vt 150.433 177.805
vn 1 0 -2.511e-13
v 42.7435 4.40584 17.2443
vt 148.622 199.726
v 42.7435 3.84904 17.2443
vt 148.622 177.805
f 57/137/28 58/138/28 59/139/28

v 42.7435 4.40584 17.1983
vt 150.433 199.726
f 58/138/28 57/137/28 60/140/28

v 25.4464 3.84904 17.1983
vt -1108.02 177.805
vn 1.66944e-16 -5.66339e-32 -1
vt -1789.01 199.726
vt -1789.01 177.805
f 61/141/29 60/142/29 57/143/29

v 25.4464 4.40584 17.1983
vt -1108.02 199.726
f 60/142/29 61/141/29 62/144/29

v 25.4464 3.84904 17.3533
vt -144.331 177.805
vn -1 -5.68858e-31 -1.863e-13
vt -150.433 199.726
vt -150.433 177.805
f 63/145/30 62/146/30 61/147/30

v 25.4464 4.40584 17.3533
vt -144.331 199.726
f 62/146/30 63/145/30 64/148/30

vt 1108.02 177.805
vn -2.511e-13 4.57084e-31 1
v 25.4924 4.40584 17.3533
vt 1109.83 199.726
vt 1108.02 199.726
f 63/149/31 65/150/31 64/151/31

v 25.4924 3.84904 17.3533
vt 1109.83 177.805
f 65/150/31 63/149/31 66/152/31

vt -1108.02 150.433
vn -8.36279e-16 -1 2.36074e-17
vt -1109.83 144.331
vt -1108.02 144.331
f 61/153/32 66/154/32 63/155/32

v 25.4924 3.84904 17.2443
vt -1109.83 148.622
f 66/154/32 61/153/32 67/156/32

vt -1789.01 150.433
f 67/156/32 61/153/32 57/157/32

vt -1789.01 148.622
f 67/156/32 57/157/32 59/158/32

vt 1789.01 199.726
vn -3.3606e-16 -1.18568e-30 1
vt 1789.01 177.805
f 58/159/33 67/152/33 59/160/33

v 25.4924 4.40584 17.2443
f 67/152/33 58/159/33 68/150/33

vt 1789.01 150.433
vn 1.00354e-15 1 -2.83288e-17
vt 1109.83 148.622
vt 1789.01 148.622
f 60/161/34 68/162/34 58/163/34

vt 1108.02 150.433
f 62/164/34 68/162/34 60/161/34

vt 1109.83 144.331
f 62/164/34 65/165/34 68/162/34

vt 1108.02 144.331
f 65/165/34 62/164/34 64/166/34

vt 144.331 199.726
f 65/167/24 67/139/24 68/138/24

vt 144.331 177.805
f 67/139/24 65/167/24 66/168/24

g Mesh6 Group1 Model

v 19.5335 7.46482 18.5018
vt -875.228 320.158
vn 0 -4.23018e-16 -1
v 25.2454 3.30184 18.5018
vt -1100.11 156.262
v 19.5335 3.30184 18.5018
vt -875.228 156.262
f 69/169/35 70/170/35 71/171/35

v 25.2454 7.46482 18.5018
vt -1100.11 320.158
f 70/170/35 69/169/35 72/172/35

g Mesh7 Group1 Model

v 36.639 5.66937 18.2178
vt -1548.67 249.471
vn 0 0 -1
v 38.2095 3.92747 18.2178
vt -1610.5 180.893
v 36.639 3.92747 18.2178
vt -1548.67 180.893
f 73/173/36 74/174/36 75/175/36

v 38.2095 5.66937 18.2178
vt -1610.5 249.471
f 74/174/36 73/173/36 76/176/36

g Mesh8 Group1 Model

v 31.5541 5.66937 18.2178
vt -1348.48 249.471
v 33.1245 3.92747 18.2178
vt -1410.31 180.893
v 31.5541 3.92747 18.2178
vt -1348.48 180.893
f 77/177/36 78/178/36 79/179/36

v 33.1245 5.66937 18.2178
vt -1410.31 249.471
f 78/178/36 77/177/36 80/180/36

g Mesh9 Group1 Model

v 32.1397 9.32812 16.2238
vt -1371.54 393.517
v 34.3324 7.43555 16.2238
vt -1457.86 319.006
v 32.1397 7.43555 16.2238
vt -1371.54 319.006
f 81/181/36 82/182/36 83/183/36

v 34.3324 9.32812 16.2238
vt -1457.86 393.517
f 82/182/36 81/181/36 84/184/36

g Mesh10 Group1 Model

v 26.1075 6.28792 18.8278
vt -1134.05 273.824
v 27.9177 4.74635 18.8278
vt -1205.31 213.132
v 26.1075 4.74635 18.8278
vt -1134.05 213.132
f 85/185/36 86/186/36 87/187/36

v 27.9177 6.28792 18.8278
vt -1205.31 273.824
f 86/186/36 85/185/36 88/188/36

g Mesh11 Group1 Model

v 26.1075 9.34692 18.8278
vt -1134.05 394.257
v 27.9177 7.80535 18.8278
vt -1205.31 333.565
v 26.1075 7.80535 18.8278
vt -1134.05 333.565
f 89/189/36 90/190/36 91/191/36

v 27.9177 9.34692 18.8278
vt -1205.31 394.257
f 90/190/36 89/189/36 92/192/36

g Mesh12 Group1 Model

v 36.8727 9.32812 16.2238
vt -1557.88 393.517
v 39.0654 7.43555 16.2238
vt -1644.2 319.006
v 36.8727 7.43555 16.2238
vt -1557.88 319.006
f 93/193/36 94/194/36 95/195/36

v 39.0654 9.32812 16.2238
vt -1644.2 393.517
f 94/194/36 93/193/36 96/196/36

g Mesh13 Group1 Model

v 29.7732 9.32812 16.2238
vt -1278.37 393.517
v 31.9659 7.43555 16.2238
vt -1364.69 319.006
v 29.7732 7.43555 16.2238
vt -1278.37 319.006
f 97/197/36 98/198/36 99/199/36

v 31.9659 9.32812 16.2238
vt -1364.69 393.517
f 98/198/36 97/197/36 100/200/36

g Mesh14 Group1 Model

v 34.944 5.66937 18.2178
vt -1481.94 249.471
v 36.5145 3.92747 18.2178
vt -1543.77 180.893
v 34.944 3.92747 18.2178
vt -1481.94 180.893
f 101/201/36 102/202/36 103/203/36

v 36.5145 5.66937 18.2178
vt -1543.77 249.471
f 102/202/36 101/201/36 104/204/36

g Mesh15 Group1 Model

v 33.2491 5.66937 18.2178
vt -1415.21 249.471
v 34.8195 3.92747 18.2178
vt -1477.04 180.893
v 33.2491 3.92747 18.2178
vt -1415.21 180.893
f 105/205/36 106/206/36 107/207/36

v 34.8195 5.66937 18.2178
vt -1477.04 249.471
f 106/206/36 105/205/36 108/208/36

g Mesh16 Group1 Model

v 34.5062 9.32812 16.2238
vt -1464.71 393.517
v 36.6989 7.43555 16.2238
vt -1551.03 319.006
v 34.5062 7.43555 16.2238
vt -1464.71 319.006
f 109/209/36 110/210/36 111/211/36

v 36.6989 9.32812 16.2238
vt -1551.03 393.517
f 110/210/36 109/209/36 112/212/36

g Mesh17 Group1 Model

v 38.334 5.66937 18.2178
vt -1615.41 249.471
v 39.9044 3.92747 18.2178
vt -1677.23 180.893
v 38.334 3.92747 18.2178
vt -1615.41 180.893
f 113/213/36 114/214/36 115/215/36

v 39.9044 5.66937 18.2178
vt -1677.23 249.471
f 114/214/36 113/213/36 116/216/36

g Mesh18 Group1 Model

v 21.354 9.88802 17.6358
vt -946.903 415.56
v 23.4249 8.45113 17.6358
vt -1028.43 358.989
v 21.354 8.45113 17.6358
vt -946.903 358.989
f 117/217/36 118/218/36 119/219/36

v 23.4249 9.88802 17.6358
vt -1028.43 415.56
f 118/218/36 117/217/36 120/220/36

g Mesh19 Group1 Model

v 24.5297 9.88802 17.6358
vt -1071.93 415.56
v 25.1832 8.45113 17.6358
vt -1097.66 358.989
v 24.5297 8.45113 17.6358
vt -1071.93 358.989
f 121/221/36 122/222/36 123/223/36

v 25.1832 9.88802 17.6358
vt -1097.66 415.56
f 122/222/36 121/221/36 124/224/36

g Mesh20 Group1 Model

v 19.5957 9.88802 17.6358
vt -877.679 415.56
v 20.2492 8.45113 17.6358
vt -903.407 358.989
v 19.5957 8.45113 17.6358
vt -877.679 358.989
f 125/225/36 126/226/36 127/227/36

v 20.2492 9.88802 17.6358
vt -903.407 415.56
f 126/226/36 125/225/36 128/228/36

g Mesh21 Group1 Model

v 20.4749 9.88802 17.6358
vt -912.291 415.56
v 21.1283 8.45113 17.6358
vt -938.019 358.989
v 20.4749 8.45113 17.6358
vt -912.291 358.989
f 129/229/36 130/230/36 131/231/36

v 21.1283 9.88802 17.6358
vt -938.019 415.56
f 130/230/36 129/229/36 132/232/36

g Mesh22 Group1 Model

v 15.097 6.32393 15.7332
vt -208.114 275.242
vn -1 0 4.79855e-15
v 15.097 3.97707 16.9368
vt -160.73 182.845
v 15.097 6.32393 16.9368
vt -160.73 275.242
f 133/233/37 134/234/37 135/235/37

v 15.097 3.97707 15.7332
vt -208.114 182.845
f 134/234/37 133/233/37 136/236/37

g Mesh23 Group1 Model

v 26.5422 1.11866 17.2278
vt -1151.16 70.3096
v 27.4416 -1.22323 17.2278
vt -1186.57 -21.8909
v 26.5422 -1.22323 17.2278
vt -1151.16 -21.8909
f 137/237/36 138/238/36 139/239/36

v 27.4416 1.11866 17.2278
vt -1186.57 70.3096
f 138/238/36 137/237/36 140/240/36

g Mesh24 Group1 Model

v 15.097 10.3537 15.7332
vt -208.114 433.894
v 15.097 8.00685 16.9368
vt -160.73 341.498
v 15.097 10.3537 16.9368
vt -160.73 433.894
f 141/241/37 142/242/37 143/243/37

v 15.097 8.00685 15.7332
vt -208.114 341.498
f 142/242/37 141/241/37 144/244/37

g Mesh25 Group1 Model

v -2.62684 5.92871 18.8022
vt -87.2865 259.682
vn -1 -1.00065e-31 1.52107e-15
v -2.62684 3.81691 22.5991
vt 62.1965 176.54
v -2.62684 5.92871 22.5991
vt 62.1965 259.682
f 145/245/38 146/246/38 147/247/38

v -2.62684 3.81691 18.8022
vt -87.2865 176.54
f 146/246/38 145/245/38 148/248/38

g Mesh26 Group1 Model

v 16.5069 5.92871 15.2088
vt -756.071 259.682
v 18.08 4.23245 15.2088
vt -818.007 192.9
v 16.5069 4.23245 15.2088
vt -756.071 192.9
f 149/249/36 150/250/36 151/251/36

v 18.08 5.92871 15.2088
vt -818.007 259.682
f 150/250/36 149/249/36 152/252/36

g Mesh27 Group1 Model

v 16.5069 2.40818 15.2088
vt -756.071 121.078
v 18.08 0.711918 15.2088
vt -818.007 54.2961
v 16.5069 0.711918 15.2088
vt -756.071 54.2961
f 153/253/36 154/254/36 155/255/36

v 18.08 2.40818 15.2088
vt -818.007 121.078
f 154/254/36 153/253/36 156/256/36

g Mesh28 Group1 Model

v 16.5069 10.3537 15.2088
vt -756.071 433.894
v 18.08 8.00685 15.2088
vt -818.007 341.498
v 16.5069 8.00685 15.2088
vt -756.071 341.498
f 157/257/36 158/258/36 159/259/36

v 18.08 10.3537 15.2088
vt -818.007 433.894
f 158/258/36 157/257/36 160/260/36

g Mesh29 Group1 Model

v 11.2484 9.92358 17.2838
vt -549.045 416.96
v 14.9395 7.62172 17.2838
vt -694.365 326.335
v 11.2484 7.62172 17.2838
vt -549.045 326.335
f 161/261/36 162/262/36 163/263/36

v 14.9395 9.92358 17.2838
vt -694.365 416.96
f 162/262/36 161/261/36 164/264/36

g Mesh30 Group1 Model

v 11.2484 5.92871 17.5838
vt -549.045 259.682
v 14.9395 3.62684 17.5838
vt -694.365 169.057
v 11.2484 3.62684 17.5838
vt -549.045 169.057
f 165/265/36 166/266/36 167/267/36

v 14.9395 5.92871 17.5838
vt -694.365 259.682
f 166/266/36 165/265/36 168/268/36

g Mesh31 Group1 Model

v 11.2484 2.21124 17.5838
vt -549.045 113.325
v 14.9395 -0.581991 17.5838
vt -694.365 3.35485
v 11.2484 -0.581991 17.5838
vt -549.045 3.35485
f 169/269/36 170/270/36 171/271/36

v 14.9395 2.21124 17.5838
vt -694.365 113.325
f 170/270/36 169/269/36 172/272/36

g Mesh32 Group1 Model

v 6.20928 9.94725 17.2838
vt -350.654 417.892
v 7.17588 8.48874 17.2838
vt -388.709 360.47
v 6.20928 8.48874 17.2838
vt -350.654 360.47
f 173/273/36 174/274/36 175/275/36

v 7.17588 9.94725 17.2838
vt -388.709 417.892
f 174/274/36 173/273/36 176/276/36

g Mesh33 Group1 Model

v -1.48341 5.92871 17.5838
vt -47.7922 259.682
v 5.47676 3.82403 17.5838
vt -321.815 176.82
v -1.48341 3.82403 17.5838
vt -47.7922 176.82
f 177/277/36 178/278/36 179/279/36

v 5.47676 5.92871 17.5838
vt -321.815 259.682
f 178/278/36 177/277/36 180/280/36

g Mesh34 Group1 Model

v 6.20928 2.20954 17.5838
vt -350.654 113.257
v 8.72125 -0.590565 17.5838
vt -449.551 3.01729
v 6.20928 -0.590565 17.5838
vt -350.654 3.01729
f 181/281/36 182/282/36 183/283/36

v 8.72125 2.20954 17.5838
vt -449.551 113.257
f 182/282/36 181/281/36 184/284/36

g Mesh35 Group1 Model

v 6.20928 5.98007 17.5838
vt -350.654 261.704
v 8.72125 3.45438 17.5838
vt -449.551 162.267
v 6.20928 3.45438 17.5838
vt -350.654 162.267
f 185/285/36 186/286/36 187/287/36

v 8.72125 5.98007 17.5838
vt -449.551 261.704
f 186/286/36 185/285/36 188/288/36

g Mesh36 Group1 Model

v 23.6506 9.88802 17.6358
vt -1037.32 415.56
v 24.304 8.45113 17.6358
vt -1063.05 358.989
v 23.6506 8.45113 17.6358
vt -1037.32 358.989
f 189/289/36 190/290/36 191/291/36

v 24.304 9.88802 17.6358
vt -1063.05 415.56
f 190/290/36 189/289/36 192/292/36

g Mesh37 Group1 Model

v 29.2944 5.66937 18.2178
vt -1259.52 249.471
v 30.2561 3.32747 18.2178
vt -1297.38 157.271
v 29.2944 3.32747 18.2178
vt -1259.52 157.271
f 193/293/36 194/294/36 195/295/36

v 30.2561 5.66937 18.2178
vt -1297.38 249.471
f 194/294/36 193/293/36 196/296/36

g Mesh38 Group1 Model

v 2.1183 9.51027 18.1482
vt -113.035 400.688
vn -1 0 3.23733e-16
v 2.1183 7.62172 20.3782
vt -25.2409 326.335
v 2.1183 9.51027 20.3782
vt -25.2409 400.688
f 197/297/39 198/298/39 199/299/39

v 2.1183 7.62172 18.1482
vt -113.035 326.335
f 198/298/39 197/297/39 200/300/39

g Mesh39 Group1 Model

v -1.50108 9.51027 20.9898
vt -47.0967 400.688
v 2.00188 7.62172 20.9898
vt -185.008 326.335
v -1.50108 7.62172 20.9898
vt -47.0967 326.335
f 201/301/36 202/302/36 203/303/36

v 2.00188 9.51027 20.9898
vt -185.008 400.688
f 202/302/36 201/301/36 204/304/36

g Mesh40 Group1 Model

l 11 10

l 9 11

l 7 9

l 7 3

l 7 16

l 16 12

l 16 2

l 3 2

l 3 1

l 1 4

l 6 1

l 8 6

l 10 8

l 10 14

l 14 15

l 13 14

l 12 13

l 9 12

l 11 13

l 8 15

l 15 5

l 5 4

l 6 5

l 2 4

g Mesh41 Group1 Model

l 19 17

l 18 19

l 18 20

l 18 27

l 27 24

l 27 28

l 28 23

l 20 28

l 20 17

l 17 21

l 22 21

l 23 22

l 24 23

l 24 25

l 25 26

l 25 22

l 19 26

l 26 21

g Mesh42 Group1 Model

l 31 29

l 31 30

l 35 31

l 35 34

l 40 35

l 40 39

l 36 40

l 36 33

l 36 37

l 37 38

l 37 30

l 30 32

l 29 32

l 34 29

l 39 34

l 33 39

l 33 38

l 38 32

g Mesh43 Group1 Model

l 41 43

l 41 44

l 45 41

l 45 46

l 48 45

l 49 48

l 50 49

l 50 51

l 50 55

l 55 56

l 55 54

l 54 53

l 51 54

l 51 52

l 43 52

l 43 42

l 44 42

l 46 44

l 47 46

l 56 47

l 49 56

l 48 47

l 42 53

l 52 53

g Mesh44 Group1 Model

l 57 59

l 57 60

l 61 57

l 63 61

l 63 64

l 66 63

l 67 66

l 67 59

l 67 68

l 68 58

l 68 65

l 65 64

l 66 65

l 64 62

l 61 62

l 62 60

l 60 58

l 59 58

g Mesh45 Group1 Model

l 71 69

l 70 71

l 72 70

l 69 72

g Mesh46 Group1 Model

l 76 74

l 73 76

l 75 73

l 74 75

g Mesh47 Group1 Model

l 80 78

l 77 80

l 79 77

l 78 79

g Mesh48 Group1 Model

l 83 81

l 82 83

l 84 82

l 81 84

g Mesh49 Group1 Model

l 85 88

l 87 85

l 86 87

l 88 86

g Mesh50 Group1 Model

l 92 90

l 89 92

l 91 89

l 90 91

g Mesh51 Group1 Model

l 96 94

l 93 96

l 95 93

l 94 95

g Mesh52 Group1 Model

l 98 99

l 100 98

l 97 100

l 99 97

g Mesh53 Group1 Model

l 103 101

l 102 103

l 104 102

l 101 104

g Mesh54 Group1 Model

l 106 107

l 108 106

l 105 108

l 107 105

g Mesh55 Group1 Model

l 112 110

l 109 112

l 111 109

l 110 111

g Mesh56 Group1 Model

l 115 113

l 114 115

l 116 114

l 113 116

g Mesh57 Group1 Model

l 117 120

l 119 117

l 118 119

l 120 118

g Mesh58 Group1 Model

l 122 123

l 124 122

l 121 124

l 123 121

g Mesh59 Group1 Model

l 127 125

l 126 127

l 128 126

l 125 128

g Mesh60 Group1 Model

l 191 189

l 190 191

l 192 190

l 189 192

g Mesh61 Group1 Model

l 131 129

l 130 131

l 132 130

l 129 132

g Mesh62 Group1 Model

l 134 135

l 136 134

l 133 136

l 135 133

g Mesh63 Group1 Model

l 137 140

l 139 137

l 138 139

l 140 138

g Mesh64 Group1 Model

l 143 141

l 142 143

l 144 142

l 141 144

g Mesh65 Group1 Model

l 145 148

l 147 145

l 146 147

l 148 146

g Mesh66 Group1 Model

l 193 196

l 195 193

l 194 195

l 196 194

g Mesh67 Group1 Model

l 152 150

l 149 152

l 151 149

l 150 151

g Mesh68 Group1 Model

l 154 155

l 156 154

l 153 156

l 155 153

g Mesh69 Group1 Model

l 159 157

l 158 159

l 160 158

l 157 160

g Mesh70 Group1 Model

l 162 163

l 164 162

l 161 164

l 163 161

g Mesh71 Group1 Model

l 182 183

l 184 182

l 181 184

l 183 181

g Mesh72 Group1 Model

l 166 167

l 168 166

l 165 168

l 167 165

g Mesh73 Group1 Model

l 172 170

l 169 172

l 171 169

l 170 171

g Mesh74 Group1 Model

l 176 174

l 173 176

l 175 173

l 174 175

g Mesh75 Group1 Model

l 179 177

l 178 179

l 180 178

l 177 180

g Mesh76 Group1 Model

l 187 185

l 186 187

l 188 186

l 185 188

g Mesh77 Group1 Model

l 198 199

l 200 198

l 197 200

l 199 197

g Mesh78 Group1 Model

l 203 201

l 202 203

l 204 202

l 201 204

