# Alias OBJ Model File
# Exported from SketchUp, (c) 2000-2012 Trimble Navigation Limited
# File units = meters

mtllib PERILA.mtl

g Mesh1 Group2 Group1 Model

usemtl FrontColor
v 9.00912 2.77415 -62.48
vt 5.46646 -0.274927
vn 0.249451 0.965926 0.0690048
v 9.01493 2.77165 -62.4784
vt 5.46646 -0.531868
vn 0.481902 0.866025 0.133307
v 14.4649 2.77165 -82.1798
vt 810.244 -0.531868
v 14.4591 2.77415 -82.1814
vt 810.244 -0.274927
f 1/1/1 2/2/2 3/3/2 4/4/1 

usemtl BackColor
vn -0.249451 -0.965926 -0.0690048
vn -0.481902 -0.866025 -0.133307
f 4/4/3 3/3/4 2/2/4 1/1/3 

usemtl FrontColor
v 14.4408 2.72835 -82.1865
vt -0.352199 0.131865
vn 0.266614 0 -0.963803
v 14.4358 2.73232 -82.1878
vt -0.148354 0.288281
v 14.432 2.7375 -82.1889
vt 0.00806237 0.492126
v 14.4296 2.74353 -82.1896
vt 0.10639 0.729509
v 14.4287 2.75 -82.1898
vt 0.139927 0.984252
v 14.4296 2.75647 -82.1896
vt 0.10639 1.239
v 14.432 2.7625 -82.1889
vt 0.00806237 1.47638
v 14.4358 2.76768 -82.1878
vt -0.148354 1.68022
v 14.4408 2.77165 -82.1865
vt -0.352199 1.83664
v 14.4466 2.77415 -82.1849
vt -0.589582 1.93497
v 14.4528 2.775 -82.1831
vt -0.844325 1.9685
vt -1.09907 1.93497
vt -1.33645 1.83664
v 14.4699 2.76768 -82.1784
vt -1.5403 1.68022
v 14.4737 2.7625 -82.1774
vt -1.69671 1.47638
v 14.4761 2.75647 -82.1767
vt -1.79504 1.239
v 14.4769 2.75 -82.1765
vt -1.82858 0.984252
v 14.4761 2.74353 -82.1767
vt -1.79504 0.729509
v 14.4737 2.7375 -82.1774
vt -1.69671 0.492126
v 14.4699 2.73232 -82.1784
vt -1.5403 0.288281
v 14.4649 2.72835 -82.1798
vt -1.33645 0.131865
v 14.4591 2.72585 -82.1814
vt -1.09907 0.0335376
v 14.4528 2.725 -82.1831
vt -0.844325 0
v 14.4466 2.72585 -82.1849
vt -0.589582 0.0335376
f 5/5/5 6/6/5 7/7/5 8/8/5 9/9/5 10/10/5 11/11/5 12/12/5 13/13/5 14/14/5 15/15/5 4/16/5 3/17/5 16/18/5 17/19/5 18/20/5 19/21/5 20/22/5 21/23/5 22/24/5 23/25/5 24/26/5 25/27/5 26/28/5 

v 8.99084 2.72835 -62.485
vt -5.46646 -0.199144
v 8.98585 2.73232 -62.4864
vt -5.46646 0.0577974
vn -0.681512 -0.707107 -0.188525
vt -810.244 0.0577974
vt -810.244 -0.199144
f 27/29/4 28/30/6 6/31/6 5/32/4 

usemtl BackColor
vn 0.681512 0.707107 0.188525
f 5/32/2 6/31/7 28/30/7 27/29/2 

vn -0.266614 -0 0.963803
f 26/28/8 25/27/8 24/26/8 23/25/8 22/24/8 21/23/8 20/22/8 19/21/8 18/20/8 17/19/8 16/18/8 3/17/8 4/16/8 15/15/8 14/14/8 13/13/8 12/12/8 11/11/8 10/10/8 9/9/8 8/8/8 7/7/8 6/6/8 5/5/8 

usemtl FrontColor
v 9.00288 2.725 -62.4817
vt -5.46646 -0.837102
vn 2.38546e-13 -1 6.59844e-14
v 8.99665 2.72585 -62.4834
vt -5.46646 -0.58016
vt -810.244 -0.58016
vt -810.244 -0.837102
f 29/33/9 30/34/3 26/35/3 25/36/9 

usemtl BackColor
vn -2.38546e-13 1 -6.59844e-14
f 25/36/10 26/35/1 30/34/1 29/33/10 

usemtl FrontColor
vt -5.46646 -0.531868
vt -5.46646 -0.274927
vt -810.244 -0.274927
vt -810.244 -0.531868
f 30/37/3 27/38/4 5/39/4 26/40/3 

usemtl BackColor
f 26/40/1 5/39/2 27/38/2 30/37/1 

usemtl FrontColor
vt 0.589582 0.0335376
vn -0.266614 -6.7809e-18 0.963803
vt 0.844325 -3.70676e-17
v 9.00912 2.72585 -62.48
vt 1.09907 0.0335376
v 9.01493 2.72835 -62.4784
vt 1.33645 0.131865
v 9.01992 2.73232 -62.477
vt 1.5403 0.288281
v 9.02375 2.7375 -62.4759
vt 1.69671 0.492126
v 9.02616 2.74353 -62.4752
vt 1.79504 0.729509
v 9.02698 2.75 -62.475
vt 1.82858 0.984252
v 9.02616 2.75647 -62.4752
vt 1.79504 1.239
v 9.02375 2.7625 -62.4759
vt 1.69671 1.47638
v 9.01992 2.76768 -62.477
vt 1.5403 1.68022
vt 1.33645 1.83664
vt 1.09907 1.93497
v 9.00288 2.775 -62.4817
vt 0.844325 1.9685
v 8.99665 2.77415 -62.4834
vt 0.589582 1.93497
v 8.99084 2.77165 -62.485
vt 0.352199 1.83664
v 8.98585 2.76768 -62.4864
vt 0.148354 1.68022
v 8.98202 2.7625 -62.4875
vt -0.00806237 1.47638
v 8.97961 2.75647 -62.4881
vt -0.10639 1.239
v 8.97879 2.75 -62.4884
vt -0.139927 0.984252
v 8.97961 2.74353 -62.4881
vt -0.10639 0.729509
v 8.98202 2.7375 -62.4875
vt -0.00806237 0.492126
vt 0.148354 0.288281
vt 0.352199 0.131865
f 30/41/11 29/42/11 31/43/11 32/44/11 33/45/11 34/46/11 35/47/11 36/48/11 37/49/11 38/50/11 39/51/11 2/52/11 1/53/11 40/54/11 41/55/11 42/56/11 43/57/11 44/58/11 45/59/11 46/60/11 47/61/11 48/62/11 28/63/11 27/64/11 

usemtl BackColor
vn 0.266614 6.7809e-18 -0.963803
f 27/64/12 28/63/12 48/62/12 47/61/12 46/60/12 45/59/12 44/58/12 43/57/12 42/56/12 41/55/12 40/54/12 1/53/12 2/52/12 39/51/12 38/50/12 37/49/12 36/48/12 35/47/12 34/46/12 33/45/12 32/44/12 31/43/12 29/42/12 30/41/12 

usemtl FrontColor
vt -5.46646 0.138397
vt -5.46646 0.395338
vn -0.834678 -0.5 -0.230894
vt -810.244 0.395338
vt -810.244 0.138397
f 28/65/6 48/66/13 7/67/13 6/68/6 

usemtl BackColor
vn 0.834678 0.5 0.230894
f 6/68/7 7/67/14 48/66/14 28/65/7 

usemtl FrontColor
vt -5.46646 0.45775
vt -5.46646 0.714692
vn -0.930963 -0.258819 -0.257529
vt -810.244 0.714692
vt -810.244 0.45775
f 48/69/13 47/70/15 8/71/15 7/72/13 

usemtl BackColor
vn 0.930963 0.258819 0.257529
f 7/72/14 8/71/16 47/70/16 48/69/14 

usemtl FrontColor
vt -5.46646 0.737154
vt -5.46646 0.994096
vn -0.963803 1.74409e-14 -0.266614
v 12.0038 2.75 -73.4235
vt -452.154 0.994096
vt -810.244 0.994096
vt -810.244 0.737154
f 47/73/15 46/74/17 49/75/17 9/76/17 8/77/15 

usemtl BackColor
vn 0.963803 -1.74409e-14 0.266614
f 8/77/16 9/76/18 49/75/18 46/74/18 47/73/16 

usemtl FrontColor
vt -5.46646 0.957567
vt -5.46646 1.21451
vn -0.930963 0.258819 -0.257529
vt -810.244 1.21451
vt -810.244 0.957567
vt -452.154 0.957567
f 46/78/17 45/79/19 10/80/19 9/81/17 49/82/17 

usemtl BackColor
vn 0.930963 -0.258819 0.257529
f 49/82/18 9/81/18 10/80/20 45/79/20 46/78/18 

usemtl FrontColor
vt -5.46646 1.10397
vt -5.46646 1.36091
vn -0.834678 0.5 -0.230894
vt -810.244 1.36091
vt -810.244 1.10397
f 45/83/19 44/84/21 11/85/21 10/86/19 

usemtl BackColor
vn 0.834678 -0.5 0.230894
f 10/86/20 11/85/22 44/84/22 45/83/20 

usemtl FrontColor
vt -5.46646 1.16638
vt -5.46646 1.42332
vn -0.681512 0.707107 -0.188525
vt -810.244 1.42332
vt -810.244 1.16638
f 44/87/21 43/88/23 12/89/23 11/90/21 

usemtl BackColor
vn 0.681512 -0.707107 0.188525
f 11/90/22 12/89/24 43/88/24 44/87/22 

usemtl FrontColor
vt -5.46646 1.14055
vt -5.46646 1.39749
vn -0.481902 0.866025 -0.133307
vt -810.244 1.39749
vt -810.244 1.14055
f 43/91/23 42/92/25 13/93/25 12/94/23 

usemtl BackColor
vn 0.481902 -0.866025 0.133307
f 12/94/24 13/93/26 42/92/26 43/91/24 

usemtl FrontColor
vt -5.46646 1.02824
vt -5.46646 1.28518
vn -0.249451 0.965926 -0.0690048
vt -810.244 1.28518
vt -810.244 1.02824
f 42/95/25 41/96/27 14/97/27 13/98/25 

usemtl BackColor
vn 0.249451 -0.965926 0.0690048
f 13/98/26 14/97/28 41/96/28 42/95/26 

usemtl FrontColor
vt -5.46646 0.837102
vt -5.46646 1.09404
vn 2.38546e-13 1 6.59844e-14
vt -810.244 1.09404
vt -810.244 0.837102
f 41/99/27 40/100/29 15/101/29 14/102/27 

usemtl BackColor
vn -2.38546e-13 -1 -6.59844e-14
f 14/102/28 15/101/30 40/100/30 41/99/28 

usemtl FrontColor
vt 5.46646 -0.58016
vt 5.46646 -0.837102
vt 810.244 -0.837102
vt 810.244 -0.58016
f 40/103/29 1/104/1 4/105/1 15/106/29 

usemtl BackColor
f 15/106/30 4/105/3 1/104/3 40/103/30 

usemtl FrontColor
vt 5.46646 0.0577974
vt 5.46646 -0.199144
vt 810.244 -0.199144
vt 810.244 0.0577974
f 2/107/2 39/108/7 16/109/7 3/110/2 

usemtl BackColor
f 3/110/4 16/109/6 39/108/6 2/107/4 

usemtl FrontColor
vt 5.46646 0.395338
vt 5.46646 0.138397
vt 810.244 0.138397
vt 810.244 0.395338
f 39/111/7 38/112/14 17/113/14 16/114/7 

usemtl BackColor
f 16/114/6 17/113/13 38/112/13 39/111/6 

usemtl FrontColor
vt 5.46646 0.714692
vt 5.46646 0.45775
vt 810.244 0.45775
vt 810.244 0.714692
f 38/115/14 37/116/16 18/117/16 17/118/14 

usemtl BackColor
f 17/118/13 18/117/15 37/116/15 38/115/13 

usemtl FrontColor
vt 5.46646 0.994096
vt 5.46646 0.737154
vn 0.963803 0 0.266614
vt 810.244 0.737154
vt 810.244 0.994096
f 37/119/16 36/120/31 19/121/31 18/122/16 

usemtl BackColor
vn -0.963803 -0 -0.266614
f 18/122/15 19/121/32 36/120/32 37/119/15 

usemtl FrontColor
vt 5.46646 1.21451
vt 5.46646 0.957567
vt 810.244 0.957567
vt 810.244 1.21451
f 36/123/31 35/124/20 20/125/20 19/126/31 

usemtl BackColor
f 19/126/32 20/125/19 35/124/19 36/123/32 

usemtl FrontColor
vt 5.46646 1.36091
vt 5.46646 1.10397
vt 810.244 1.10397
vt 810.244 1.36091
f 35/127/20 34/128/22 21/129/22 20/130/20 

usemtl BackColor
f 20/130/19 21/129/21 34/128/21 35/127/19 

usemtl FrontColor
vt 5.46646 1.42332
vt 5.46646 1.16638
vt 810.244 1.16638
vt 810.244 1.42332
f 34/131/22 33/132/24 22/133/24 21/134/22 

usemtl BackColor
f 21/134/21 22/133/23 33/132/23 34/131/21 

usemtl FrontColor
vt 5.46646 1.39749
vt 5.46646 1.14055
vt 810.244 1.14055
vt 810.244 1.39749
f 33/135/24 32/136/26 23/137/26 22/138/24 

usemtl BackColor
f 22/138/23 23/137/25 32/136/25 33/135/23 

usemtl FrontColor
vt 5.46646 1.28518
vt 5.46646 1.02824
vt 810.244 1.02824
vt 810.244 1.28518
f 32/139/26 31/140/28 24/141/28 23/142/26 

usemtl BackColor
f 23/142/25 24/141/27 31/140/27 32/139/25 

usemtl FrontColor
vt 5.46646 1.09404
vt 5.46646 0.837102
vt 810.244 0.837102
vt 810.244 1.09404
f 31/143/28 29/144/9 25/145/9 24/146/28 

usemtl BackColor
f 24/146/27 25/145/10 29/144/10 31/143/27 

g Mesh2 Group2 Group1 Model

l 35 34

l 36 35

l 37 36

l 38 37

l 39 38

l 2 39

l 1 2

l 40 1

l 41 40

l 42 41

l 43 42

l 44 43

l 45 44

l 46 45

l 47 46

l 48 47

l 28 48

l 27 28

l 30 27

l 29 30

l 31 29

l 32 31

l 33 32

l 34 33

g Mesh3 Group2 Group1 Model

v 14.4178 2.75 -82.2249
l 50 49

g Mesh4 Group2 Group1 Model

l 6 7

l 5 6

l 26 5

l 25 26

l 24 25

l 23 24

l 22 23

l 21 22

l 20 21

l 19 20

l 18 19

l 17 18

l 16 17

l 3 16

l 4 3

l 15 4

l 14 15

l 13 14

l 12 13

l 11 12

l 10 11

l 9 10

l 8 9

l 7 8

g Mesh5 Component_8_1 Group1 Model

usemtl FrontColor
v 9.0309 1.95 -62.5137
vt -1.56896 0.852258
vn 0 -1 -0
v 9.03003 1.95 -62.5059
vt -1.53518 0.546892
v 9.02625 1.95 -62.4991
vt -1.38712 0.277696
v 9.02015 1.95 -62.4943
vt -1.14731 0.0856529
v 9.01265 1.95 -62.4921
vt -0.852258 -2.27374e-13
v 9.0049 1.95 -62.493
vt -0.546892 0.0337769
v 8.99807 1.95 -62.4967
vt -0.277696 0.181841
v 8.9932 1.95 -62.5028
vt -0.0856529 0.421652
v 8.99105 1.95 -62.5103
vt -2.27374e-13 0.7167
v 8.99192 1.95 -62.5181
vt -0.0337769 1.02207
v 8.9957 1.95 -62.5249
vt -0.181841 1.29126
v 9.0018 1.95 -62.5298
vt -0.421652 1.4833
v 9.0093 1.95 -62.532
vt -0.7167 1.56896
v 9.01705 1.95 -62.5311
vt -1.02207 1.53518
v 9.02388 1.95 -62.5273
vt -1.29126 1.38712
v 9.02875 1.95 -62.5212
vt -1.4833 1.14731
f 51/147/33 52/148/33 53/149/33 54/150/33 55/151/33 56/152/33 57/153/33 58/154/33 59/155/33 60/156/33 61/157/33 62/158/33 63/159/33 64/160/33 65/161/33 66/162/33 

usemtl BackColor
vn -0 1 0
f 66/162/34 65/161/34 64/160/34 63/159/34 62/158/34 61/157/34 60/156/34 59/155/34 58/154/34 57/153/34 56/152/34 55/151/34 54/150/34 53/149/34 52/148/34 51/147/34 

usemtl FrontColor
vt -0.0316442 0
vn 0.888536 0 -0.458807
vt 0.275585 0
vn 0.645322 0 -0.76391
v 9.02388 2.75 -62.5273
vt 0.275585 31.4961
v 9.02875 2.75 -62.5212
vt -0.0316442 31.4961
f 66/163/35 65/164/36 67/165/36 68/166/35 

usemtl BackColor
vn -0.888536 -0 0.458807
vn -0.645322 -0 0.76391
f 68/166/37 67/165/38 65/164/38 66/163/37 

usemtl FrontColor
v 9.03003 2.75 -62.5059
vt 1.53518 0.546892
vn 0 1 -0
v 9.0309 2.75 -62.5137
vt 1.56896 0.852258
vt 1.4833 1.14731
vt 1.29126 1.38712
v 9.01705 2.75 -62.5311
vt 1.02207 1.53518
v 9.0093 2.75 -62.532
vt 0.7167 1.56896
v 9.0018 2.75 -62.5298
vt 0.421652 1.4833
v 8.9957 2.75 -62.5249
vt 0.181841 1.29126
v 8.99192 2.75 -62.5181
vt 0.0337769 1.02207
v 8.99105 2.75 -62.5103
vt 2.27374e-13 0.7167
v 8.9932 2.75 -62.5028
vt 0.0856529 0.421652
v 8.99807 2.75 -62.4967
vt 0.277696 0.181841
v 9.0049 2.75 -62.493
vt 0.546892 0.0337769
v 9.01265 2.75 -62.4921
vt 0.852258 -2.27374e-13
v 9.02015 2.75 -62.4943
vt 1.14731 0.0856529
v 9.02625 2.75 -62.4991
vt 1.38712 0.277696
f 69/167/39 70/168/39 68/169/39 67/170/39 71/171/39 72/172/39 73/173/39 74/174/39 75/175/39 76/176/39 77/177/39 78/178/39 79/179/39 80/180/39 81/181/39 82/182/39 

vt 0.712355 0
vn 0.952715 0 0.303864
vt 1.01958 0
vn 0.996478 0 -0.0838544
vt 1.01958 31.4961
vt 0.712355 31.4961
f 52/183/40 51/184/41 70/185/41 69/186/40 

usemtl BackColor
vn -0.952715 -0 -0.303864
vn -0.996478 -0 0.0838544
f 69/186/42 70/185/43 51/184/43 52/183/42 

vn -0 -1 0
f 82/182/44 81/181/44 80/180/44 79/179/44 78/178/44 77/177/44 76/176/44 75/175/44 74/174/44 73/173/44 72/172/44 71/171/44 67/170/44 68/169/44 70/168/44 69/167/44 

usemtl FrontColor
vt 0.949081 0
vn 0.458807 0 0.888536
vt 1.25631 0
vn 0.76391 0 0.645322
vt 1.25631 31.4961
vt 0.949081 31.4961
f 54/187/45 53/188/46 82/189/46 81/190/45 

usemtl BackColor
vn -0.458807 -0 -0.888536
vn -0.76391 -0 -0.645322
f 81/190/47 82/189/48 53/188/48 54/187/47 

usemtl FrontColor
vt 0.911819 0
vt 1.21905 0
vt 1.21905 31.4961
vt 0.911819 31.4961
f 53/191/46 52/192/40 69/193/40 82/194/46 

usemtl BackColor
f 82/194/48 69/193/42 52/192/42 53/191/48 

usemtl FrontColor
vt 0.818468 0
vn 0.0838544 0 0.996478
vt 1.1257 0
vt 1.1257 31.4961
vt 0.818468 31.4961
f 55/195/49 54/196/45 81/197/45 80/198/49 

usemtl BackColor
vn -0.0838544 -0 -0.996478
f 80/198/50 81/197/47 54/196/47 55/195/50 

usemtl FrontColor
vt 0.539863 0
vn -0.303864 0 0.952715
vt 0.847092 0
vt 0.847092 31.4961
vt 0.539863 31.4961
f 56/199/51 55/200/49 80/201/49 79/202/51 

usemtl BackColor
vn 0.303864 -0 -0.952715
f 79/202/52 80/201/50 55/200/50 56/199/52 

usemtl FrontColor
vt 0.155683 0
vn -0.645322 0 0.76391
vt 0.462912 0
vt 0.462912 31.4961
vt 0.155683 31.4961
f 57/203/53 56/204/51 79/205/51 78/206/53 

usemtl BackColor
vn 0.645322 -0 -0.76391
f 78/206/54 79/205/52 56/204/52 57/203/54 

usemtl FrontColor
vt -0.275585 0
vn -0.888536 0 0.458807
vt 0.0316442 0
vt 0.0316442 31.4961
vt -0.275585 31.4961
f 58/207/55 57/208/53 78/209/53 77/210/55 

usemtl BackColor
vn 0.888536 -0 -0.458807
f 77/210/56 78/209/54 57/208/54 58/207/56 

usemtl FrontColor
vt -0.688284 0
vn -0.996478 0 0.0838544
vt -0.381055 0
vt -0.381055 31.4961
vt -0.688284 31.4961
f 59/211/57 58/212/55 77/213/55 76/214/57 

usemtl BackColor
vn 0.996478 -0 -0.0838544
f 76/214/58 77/213/56 58/212/56 59/211/58 

usemtl FrontColor
vt -1.01958 0
vn -0.952715 0 -0.303864
vt -0.712355 0
vt -0.712355 31.4961
vt -1.01958 31.4961
f 60/215/59 59/216/57 76/217/57 75/218/59 

usemtl BackColor
vn 0.952715 -0 0.303864
f 75/218/60 76/217/58 59/216/58 60/215/60 

usemtl FrontColor
vt -1.21905 0
vn -0.76391 0 -0.645322
vt -0.911819 0
vt -0.911819 31.4961
vt -1.21905 31.4961
f 61/219/61 60/220/59 75/221/59 74/222/61 

usemtl BackColor
vn 0.76391 -0 0.645322
f 74/222/62 75/221/60 60/220/60 61/219/62 

usemtl FrontColor
vt -1.25631 0
vn -0.458807 0 -0.888536
vt -0.949081 0
vt -0.949081 31.4961
vt -1.25631 31.4961
f 62/223/63 61/224/61 74/225/61 73/226/63 

usemtl BackColor
vn 0.458807 -0 0.888536
f 73/226/64 74/225/62 61/224/62 62/223/64 

usemtl FrontColor
vt -1.1257 0
vn -0.0838544 0 -0.996478
vt -0.818468 0
vt -0.818468 31.4961
vt -1.1257 31.4961
f 63/227/65 62/228/63 73/229/63 72/230/65 

usemtl BackColor
vn 0.0838544 -0 0.996478
f 72/230/66 73/229/64 62/228/64 63/227/66 

usemtl FrontColor
vt -0.847092 0
vn 0.303864 0 -0.952715
vt -0.539863 0
vt -0.539863 31.4961
vt -0.847092 31.4961
f 64/231/67 63/232/65 72/233/65 71/234/67 

usemtl BackColor
vn -0.303864 -0 0.952715
f 71/234/68 72/233/66 63/232/66 64/231/68 

usemtl FrontColor
vt -0.462912 0
vt -0.155683 0
vt -0.155683 31.4961
vt -0.462912 31.4961
f 65/235/36 64/236/67 71/237/67 67/238/36 

usemtl BackColor
f 67/238/38 71/237/68 64/236/68 65/235/38 

usemtl FrontColor
vt 0.381055 0
vt 0.688284 0
vt 0.688284 31.4961
vt 0.381055 31.4961
f 51/239/41 66/240/35 68/241/35 70/242/41 

usemtl BackColor
f 70/242/43 68/241/37 66/240/37 51/239/43 

g Mesh6 Component_8_1 Group1 Model

l 64 63

l 65 64

l 66 65

l 51 66

l 52 51

l 53 52

l 54 53

l 55 54

l 56 55

l 57 56

l 58 57

l 59 58

l 60 59

l 61 60

l 62 61

l 63 62

g Mesh7 Component_8_1 Group1 Model

l 67 71

l 68 67

l 70 68

l 69 70

l 82 69

l 81 82

l 80 81

l 79 80

l 78 79

l 77 78

l 76 77

l 75 76

l 74 75

l 73 74

l 72 73

l 71 72

g Mesh8 Component_8_2 Group1 Model

usemtl FrontColor
v 9.69757 1.95 -64.9232
v 9.69669 1.95 -64.9154
v 9.69292 1.95 -64.9086
v 9.68681 1.95 -64.9037
v 9.67932 1.95 -64.9016
v 9.67156 1.95 -64.9024
v 9.66473 1.95 -64.9062
v 9.65987 1.95 -64.9123
v 9.65771 1.95 -64.9198
v 9.65858 1.95 -64.9276
v 9.66236 1.95 -64.9344
v 9.66846 1.95 -64.9393
v 9.67596 1.95 -64.9414
v 9.68372 1.95 -64.9405
v 9.69054 1.95 -64.9368
v 9.69541 1.95 -64.9307
f 83/147/33 84/148/33 85/149/33 86/150/33 87/151/33 88/152/33 89/153/33 90/154/33 91/155/33 92/156/33 93/157/33 94/158/33 95/159/33 96/160/33 97/161/33 98/162/33 

usemtl BackColor
f 98/162/34 97/161/34 96/160/34 95/159/34 94/158/34 93/157/34 92/156/34 91/155/34 90/154/34 89/153/34 88/152/34 87/151/34 86/150/34 85/149/34 84/148/34 83/147/34 

usemtl FrontColor
v 9.69054 2.75 -64.9368
v 9.69541 2.75 -64.9307
f 98/163/35 97/164/36 99/165/36 100/166/35 

usemtl BackColor
f 100/166/37 99/165/38 97/164/38 98/163/37 

usemtl FrontColor
v 9.69669 2.75 -64.9154
v 9.69757 2.75 -64.9232
v 9.68372 2.75 -64.9405
v 9.67596 2.75 -64.9414
v 9.66846 2.75 -64.9393
v 9.66236 2.75 -64.9344
v 9.65858 2.75 -64.9276
v 9.65771 2.75 -64.9198
v 9.65987 2.75 -64.9123
v 9.66473 2.75 -64.9062
v 9.67156 2.75 -64.9024
v 9.67932 2.75 -64.9016
v 9.68681 2.75 -64.9037
v 9.69292 2.75 -64.9086
f 101/167/39 102/168/39 100/169/39 99/170/39 103/171/39 104/172/39 105/173/39 106/174/39 107/175/39 108/176/39 109/177/39 110/178/39 111/179/39 112/180/39 113/181/39 114/182/39 

f 84/183/40 83/184/41 102/185/41 101/186/40 

usemtl BackColor
f 101/186/42 102/185/43 83/184/43 84/183/42 

f 114/182/44 113/181/44 112/180/44 111/179/44 110/178/44 109/177/44 108/176/44 107/175/44 106/174/44 105/173/44 104/172/44 103/171/44 99/170/44 100/169/44 102/168/44 101/167/44 

usemtl FrontColor
f 86/187/45 85/188/46 114/189/46 113/190/45 

usemtl BackColor
f 113/190/47 114/189/48 85/188/48 86/187/47 

usemtl FrontColor
f 85/191/46 84/192/40 101/193/40 114/194/46 

usemtl BackColor
f 114/194/48 101/193/42 84/192/42 85/191/48 

usemtl FrontColor
f 87/195/49 86/196/45 113/197/45 112/198/49 

usemtl BackColor
f 112/198/50 113/197/47 86/196/47 87/195/50 

usemtl FrontColor
f 88/199/51 87/200/49 112/201/49 111/202/51 

usemtl BackColor
f 111/202/52 112/201/50 87/200/50 88/199/52 

usemtl FrontColor
f 89/203/53 88/204/51 111/205/51 110/206/53 

usemtl BackColor
f 110/206/54 111/205/52 88/204/52 89/203/54 

usemtl FrontColor
f 90/207/55 89/208/53 110/209/53 109/210/55 

usemtl BackColor
f 109/210/56 110/209/54 89/208/54 90/207/56 

usemtl FrontColor
f 91/211/57 90/212/55 109/213/55 108/214/57 

usemtl BackColor
f 108/214/58 109/213/56 90/212/56 91/211/58 

usemtl FrontColor
f 92/215/59 91/216/57 108/217/57 107/218/59 

usemtl BackColor
f 107/218/60 108/217/58 91/216/58 92/215/60 

usemtl FrontColor
f 93/219/61 92/220/59 107/221/59 106/222/61 

usemtl BackColor
f 106/222/62 107/221/60 92/220/60 93/219/62 

usemtl FrontColor
f 94/223/63 93/224/61 106/225/61 105/226/63 

usemtl BackColor
f 105/226/64 106/225/62 93/224/62 94/223/64 

usemtl FrontColor
f 95/227/65 94/228/63 105/229/63 104/230/65 

usemtl BackColor
f 104/230/66 105/229/64 94/228/64 95/227/66 

usemtl FrontColor
f 96/231/67 95/232/65 104/233/65 103/234/67 

usemtl BackColor
f 103/234/68 104/233/66 95/232/66 96/231/68 

usemtl FrontColor
f 97/235/36 96/236/67 103/237/67 99/238/36 

usemtl BackColor
f 99/238/38 103/237/68 96/236/68 97/235/38 

usemtl FrontColor
f 83/239/41 98/240/35 100/241/35 102/242/41 

usemtl BackColor
f 102/242/43 100/241/37 98/240/37 83/239/43 

g Mesh9 Component_8_2 Group1 Model

l 96 95

l 97 96

l 98 97

l 83 98

l 84 83

l 85 84

l 86 85

l 87 86

l 88 87

l 89 88

l 90 89

l 91 90

l 92 91

l 93 92

l 94 93

l 95 94

g Mesh10 Component_8_2 Group1 Model

l 99 103

l 100 99

l 102 100

l 101 102

l 114 101

l 113 114

l 112 113

l 111 112

l 110 111

l 109 110

l 108 109

l 107 108

l 106 107

l 105 106

l 104 105

l 103 104

g Mesh11 Component_8_3 Group1 Model

usemtl FrontColor
v 10.3642 1.95 -67.3326
v 10.3634 1.95 -67.3249
v 10.3596 1.95 -67.3181
v 10.3535 1.95 -67.3132
v 10.346 1.95 -67.311
v 10.3382 1.95 -67.3119
v 10.3314 1.95 -67.3157
v 10.3265 1.95 -67.3218
v 10.3244 1.95 -67.3293
v 10.3252 1.95 -67.337
v 10.329 1.95 -67.3439
v 10.3351 1.95 -67.3487
v 10.3426 1.95 -67.3509
v 10.3504 1.95 -67.35
v 10.3572 1.95 -67.3462
v 10.3621 1.95 -67.3401
f 115/147/33 116/148/33 117/149/33 118/150/33 119/151/33 120/152/33 121/153/33 122/154/33 123/155/33 124/156/33 125/157/33 126/158/33 127/159/33 128/160/33 129/161/33 130/162/33 

usemtl BackColor
f 130/162/34 129/161/34 128/160/34 127/159/34 126/158/34 125/157/34 124/156/34 123/155/34 122/154/34 121/153/34 120/152/34 119/151/34 118/150/34 117/149/34 116/148/34 115/147/34 

usemtl FrontColor
v 10.3572 2.75 -67.3462
v 10.3621 2.75 -67.3401
f 130/163/35 129/164/36 131/165/36 132/166/35 

usemtl BackColor
f 132/166/37 131/165/38 129/164/38 130/163/37 

usemtl FrontColor
v 10.3634 2.75 -67.3249
v 10.3642 2.75 -67.3326
v 10.3504 2.75 -67.35
v 10.3426 2.75 -67.3509
v 10.3351 2.75 -67.3487
v 10.329 2.75 -67.3439
v 10.3252 2.75 -67.337
v 10.3244 2.75 -67.3293
v 10.3265 2.75 -67.3218
v 10.3314 2.75 -67.3157
v 10.3382 2.75 -67.3119
v 10.346 2.75 -67.311
v 10.3535 2.75 -67.3132
v 10.3596 2.75 -67.3181
f 133/167/39 134/168/39 132/169/39 131/170/39 135/171/39 136/172/39 137/173/39 138/174/39 139/175/39 140/176/39 141/177/39 142/178/39 143/179/39 144/180/39 145/181/39 146/182/39 

f 116/183/40 115/184/41 134/185/41 133/186/40 

usemtl BackColor
f 133/186/42 134/185/43 115/184/43 116/183/42 

f 146/182/44 145/181/44 144/180/44 143/179/44 142/178/44 141/177/44 140/176/44 139/175/44 138/174/44 137/173/44 136/172/44 135/171/44 131/170/44 132/169/44 134/168/44 133/167/44 

usemtl FrontColor
f 118/187/45 117/188/46 146/189/46 145/190/45 

usemtl BackColor
f 145/190/47 146/189/48 117/188/48 118/187/47 

usemtl FrontColor
f 117/191/46 116/192/40 133/193/40 146/194/46 

usemtl BackColor
f 146/194/48 133/193/42 116/192/42 117/191/48 

usemtl FrontColor
f 119/195/49 118/196/45 145/197/45 144/198/49 

usemtl BackColor
f 144/198/50 145/197/47 118/196/47 119/195/50 

usemtl FrontColor
f 120/199/51 119/200/49 144/201/49 143/202/51 

usemtl BackColor
f 143/202/52 144/201/50 119/200/50 120/199/52 

usemtl FrontColor
f 121/203/53 120/204/51 143/205/51 142/206/53 

usemtl BackColor
f 142/206/54 143/205/52 120/204/52 121/203/54 

usemtl FrontColor
f 122/207/55 121/208/53 142/209/53 141/210/55 

usemtl BackColor
f 141/210/56 142/209/54 121/208/54 122/207/56 

usemtl FrontColor
f 123/211/57 122/212/55 141/213/55 140/214/57 

usemtl BackColor
f 140/214/58 141/213/56 122/212/56 123/211/58 

usemtl FrontColor
f 124/215/59 123/216/57 140/217/57 139/218/59 

usemtl BackColor
f 139/218/60 140/217/58 123/216/58 124/215/60 

usemtl FrontColor
f 125/219/61 124/220/59 139/221/59 138/222/61 

usemtl BackColor
f 138/222/62 139/221/60 124/220/60 125/219/62 

usemtl FrontColor
f 126/223/63 125/224/61 138/225/61 137/226/63 

usemtl BackColor
f 137/226/64 138/225/62 125/224/62 126/223/64 

usemtl FrontColor
f 127/227/65 126/228/63 137/229/63 136/230/65 

usemtl BackColor
f 136/230/66 137/229/64 126/228/64 127/227/66 

usemtl FrontColor
f 128/231/67 127/232/65 136/233/65 135/234/67 

usemtl BackColor
f 135/234/68 136/233/66 127/232/66 128/231/68 

usemtl FrontColor
f 129/235/36 128/236/67 135/237/67 131/238/36 

usemtl BackColor
f 131/238/38 135/237/68 128/236/68 129/235/38 

usemtl FrontColor
f 115/239/41 130/240/35 132/241/35 134/242/41 

usemtl BackColor
f 134/242/43 132/241/37 130/240/37 115/239/43 

g Mesh12 Component_8_3 Group1 Model

l 128 127

l 129 128

l 130 129

l 115 130

l 116 115

l 117 116

l 118 117

l 119 118

l 120 119

l 121 120

l 122 121

l 123 122

l 124 123

l 125 124

l 126 125

l 127 126

g Mesh13 Component_8_3 Group1 Model

l 131 135

l 132 131

l 134 132

l 133 134

l 146 133

l 145 146

l 144 145

l 143 144

l 142 143

l 141 142

l 140 141

l 139 140

l 138 139

l 137 138

l 136 137

l 135 136

g Mesh14 Component_8_4 Group1 Model

usemtl FrontColor
v 11.0309 1.95 -69.7421
v 11.03 1.95 -69.7344
v 11.0262 1.95 -69.7275
v 11.0201 1.95 -69.7227
v 11.0126 1.95 -69.7205
v 11.0049 1.95 -69.7214
v 10.9981 1.95 -69.7252
v 10.9932 1.95 -69.7313
v 10.991 1.95 -69.7388
v 10.9919 1.95 -69.7465
v 10.9957 1.95 -69.7533
v 11.0018 1.95 -69.7582
v 11.0093 1.95 -69.7604
v 11.017 1.95 -69.7595
v 11.0239 1.95 -69.7557
v 11.0287 1.95 -69.7496
f 147/147/33 148/148/33 149/149/33 150/150/33 151/151/33 152/152/33 153/153/33 154/154/33 155/155/33 156/156/33 157/157/33 158/158/33 159/159/33 160/160/33 161/161/33 162/162/33 

usemtl BackColor
f 162/162/34 161/161/34 160/160/34 159/159/34 158/158/34 157/157/34 156/156/34 155/155/34 154/154/34 153/153/34 152/152/34 151/151/34 150/150/34 149/149/34 148/148/34 147/147/34 

usemtl FrontColor
v 11.0239 2.75 -69.7557
v 11.0287 2.75 -69.7496
f 162/163/35 161/164/36 163/165/36 164/166/35 

usemtl BackColor
f 164/166/37 163/165/38 161/164/38 162/163/37 

usemtl FrontColor
v 11.03 2.75 -69.7344
v 11.0309 2.75 -69.7421
v 11.017 2.75 -69.7595
v 11.0093 2.75 -69.7604
v 11.0018 2.75 -69.7582
v 10.9957 2.75 -69.7533
v 10.9919 2.75 -69.7465
v 10.991 2.75 -69.7388
v 10.9932 2.75 -69.7313
v 10.9981 2.75 -69.7252
v 11.0049 2.75 -69.7214
v 11.0126 2.75 -69.7205
v 11.0201 2.75 -69.7227
v 11.0262 2.75 -69.7275
f 165/167/39 166/168/39 164/169/39 163/170/39 167/171/39 168/172/39 169/173/39 170/174/39 171/175/39 172/176/39 173/177/39 174/178/39 175/179/39 176/180/39 177/181/39 178/182/39 

f 148/183/40 147/184/41 166/185/41 165/186/40 

usemtl BackColor
f 165/186/42 166/185/43 147/184/43 148/183/42 

f 178/182/44 177/181/44 176/180/44 175/179/44 174/178/44 173/177/44 172/176/44 171/175/44 170/174/44 169/173/44 168/172/44 167/171/44 163/170/44 164/169/44 166/168/44 165/167/44 

usemtl FrontColor
f 150/187/45 149/188/46 178/189/46 177/190/45 

usemtl BackColor
f 177/190/47 178/189/48 149/188/48 150/187/47 

usemtl FrontColor
f 149/191/46 148/192/40 165/193/40 178/194/46 

usemtl BackColor
f 178/194/48 165/193/42 148/192/42 149/191/48 

usemtl FrontColor
f 151/195/49 150/196/45 177/197/45 176/198/49 

usemtl BackColor
f 176/198/50 177/197/47 150/196/47 151/195/50 

usemtl FrontColor
f 152/199/51 151/200/49 176/201/49 175/202/51 

usemtl BackColor
f 175/202/52 176/201/50 151/200/50 152/199/52 

usemtl FrontColor
f 153/203/53 152/204/51 175/205/51 174/206/53 

usemtl BackColor
f 174/206/54 175/205/52 152/204/52 153/203/54 

usemtl FrontColor
f 154/207/55 153/208/53 174/209/53 173/210/55 

usemtl BackColor
f 173/210/56 174/209/54 153/208/54 154/207/56 

usemtl FrontColor
f 155/211/57 154/212/55 173/213/55 172/214/57 

usemtl BackColor
f 172/214/58 173/213/56 154/212/56 155/211/58 

usemtl FrontColor
f 156/215/59 155/216/57 172/217/57 171/218/59 

usemtl BackColor
f 171/218/60 172/217/58 155/216/58 156/215/60 

usemtl FrontColor
f 157/219/61 156/220/59 171/221/59 170/222/61 

usemtl BackColor
f 170/222/62 171/221/60 156/220/60 157/219/62 

usemtl FrontColor
f 158/223/63 157/224/61 170/225/61 169/226/63 

usemtl BackColor
f 169/226/64 170/225/62 157/224/62 158/223/64 

usemtl FrontColor
f 159/227/65 158/228/63 169/229/63 168/230/65 

usemtl BackColor
f 168/230/66 169/229/64 158/228/64 159/227/66 

usemtl FrontColor
f 160/231/67 159/232/65 168/233/65 167/234/67 

usemtl BackColor
f 167/234/68 168/233/66 159/232/66 160/231/68 

usemtl FrontColor
f 161/235/36 160/236/67 167/237/67 163/238/36 

usemtl BackColor
f 163/238/38 167/237/68 160/236/68 161/235/38 

usemtl FrontColor
f 147/239/41 162/240/35 164/241/35 166/242/41 

usemtl BackColor
f 166/242/43 164/241/37 162/240/37 147/239/43 

g Mesh15 Component_8_4 Group1 Model

l 160 159

l 161 160

l 162 161

l 147 162

l 148 147

l 149 148

l 150 149

l 151 150

l 152 151

l 153 152

l 154 153

l 155 154

l 156 155

l 157 156

l 158 157

l 159 158

g Mesh16 Component_8_4 Group1 Model

l 163 167

l 164 163

l 166 164

l 165 166

l 178 165

l 177 178

l 176 177

l 175 176

l 174 175

l 173 174

l 172 173

l 171 172

l 170 171

l 169 170

l 168 169

l 167 168

g Mesh17 Component_8_5 Group1 Model

usemtl FrontColor
v 11.6976 1.95 -72.1516
v 11.6967 1.95 -72.1438
v 11.6929 1.95 -72.137
v 11.6868 1.95 -72.1321
v 11.6793 1.95 -72.13
v 11.6716 1.95 -72.1309
v 11.6647 1.95 -72.1346
v 11.6599 1.95 -72.1407
v 11.6577 1.95 -72.1482
v 11.6586 1.95 -72.156
v 11.6624 1.95 -72.1628
v 11.6685 1.95 -72.1677
v 11.676 1.95 -72.1698
v 11.6837 1.95 -72.169
v 11.6905 1.95 -72.1652
v 11.6954 1.95 -72.1591
f 179/147/33 180/148/33 181/149/33 182/150/33 183/151/33 184/152/33 185/153/33 186/154/33 187/155/33 188/156/33 189/157/33 190/158/33 191/159/33 192/160/33 193/161/33 194/162/33 

usemtl BackColor
f 194/162/34 193/161/34 192/160/34 191/159/34 190/158/34 189/157/34 188/156/34 187/155/34 186/154/34 185/153/34 184/152/34 183/151/34 182/150/34 181/149/34 180/148/34 179/147/34 

usemtl FrontColor
v 11.6905 2.75 -72.1652
v 11.6954 2.75 -72.1591
f 194/163/35 193/164/36 195/165/36 196/166/35 

usemtl BackColor
f 196/166/37 195/165/38 193/164/38 194/163/37 

usemtl FrontColor
v 11.6967 2.75 -72.1438
v 11.6976 2.75 -72.1516
v 11.6837 2.75 -72.169
v 11.676 2.75 -72.1698
v 11.6685 2.75 -72.1677
v 11.6624 2.75 -72.1628
v 11.6586 2.75 -72.156
v 11.6577 2.75 -72.1482
v 11.6599 2.75 -72.1407
v 11.6647 2.75 -72.1346
v 11.6716 2.75 -72.1309
v 11.6793 2.75 -72.13
v 11.6868 2.75 -72.1321
v 11.6929 2.75 -72.137
f 197/167/39 198/168/39 196/169/39 195/170/39 199/171/39 200/172/39 201/173/39 202/174/39 203/175/39 204/176/39 205/177/39 206/178/39 207/179/39 208/180/39 209/181/39 210/182/39 

f 180/183/40 179/184/41 198/185/41 197/186/40 

usemtl BackColor
f 197/186/42 198/185/43 179/184/43 180/183/42 

f 210/182/44 209/181/44 208/180/44 207/179/44 206/178/44 205/177/44 204/176/44 203/175/44 202/174/44 201/173/44 200/172/44 199/171/44 195/170/44 196/169/44 198/168/44 197/167/44 

usemtl FrontColor
f 182/187/45 181/188/46 210/189/46 209/190/45 

usemtl BackColor
f 209/190/47 210/189/48 181/188/48 182/187/47 

usemtl FrontColor
f 181/191/46 180/192/40 197/193/40 210/194/46 

usemtl BackColor
f 210/194/48 197/193/42 180/192/42 181/191/48 

usemtl FrontColor
f 183/195/49 182/196/45 209/197/45 208/198/49 

usemtl BackColor
f 208/198/50 209/197/47 182/196/47 183/195/50 

usemtl FrontColor
f 184/199/51 183/200/49 208/201/49 207/202/51 

usemtl BackColor
f 207/202/52 208/201/50 183/200/50 184/199/52 

usemtl FrontColor
f 185/203/53 184/204/51 207/205/51 206/206/53 

usemtl BackColor
f 206/206/54 207/205/52 184/204/52 185/203/54 

usemtl FrontColor
f 186/207/55 185/208/53 206/209/53 205/210/55 

usemtl BackColor
f 205/210/56 206/209/54 185/208/54 186/207/56 

usemtl FrontColor
f 187/211/57 186/212/55 205/213/55 204/214/57 

usemtl BackColor
f 204/214/58 205/213/56 186/212/56 187/211/58 

usemtl FrontColor
f 188/215/59 187/216/57 204/217/57 203/218/59 

usemtl BackColor
f 203/218/60 204/217/58 187/216/58 188/215/60 

usemtl FrontColor
f 189/219/61 188/220/59 203/221/59 202/222/61 

usemtl BackColor
f 202/222/62 203/221/60 188/220/60 189/219/62 

usemtl FrontColor
f 190/223/63 189/224/61 202/225/61 201/226/63 

usemtl BackColor
f 201/226/64 202/225/62 189/224/62 190/223/64 

usemtl FrontColor
f 191/227/65 190/228/63 201/229/63 200/230/65 

usemtl BackColor
f 200/230/66 201/229/64 190/228/64 191/227/66 

usemtl FrontColor
f 192/231/67 191/232/65 200/233/65 199/234/67 

usemtl BackColor
f 199/234/68 200/233/66 191/232/66 192/231/68 

usemtl FrontColor
f 193/235/36 192/236/67 199/237/67 195/238/36 

usemtl BackColor
f 195/238/38 199/237/68 192/236/68 193/235/38 

usemtl FrontColor
f 179/239/41 194/240/35 196/241/35 198/242/41 

usemtl BackColor
f 198/242/43 196/241/37 194/240/37 179/239/43 

g Mesh18 Component_8_5 Group1 Model

l 192 191

l 193 192

l 194 193

l 179 194

l 180 179

l 181 180

l 182 181

l 183 182

l 184 183

l 185 184

l 186 185

l 187 186

l 188 187

l 189 188

l 190 189

l 191 190

g Mesh19 Component_8_5 Group1 Model

l 195 199

l 196 195

l 198 196

l 197 198

l 210 197

l 209 210

l 208 209

l 207 208

l 206 207

l 205 206

l 204 205

l 203 204

l 202 203

l 201 202

l 200 201

l 199 200

g Mesh20 Component_8_6 Group1 Model

usemtl FrontColor
v 12.3642 1.95 -74.5611
v 12.3633 1.95 -74.5533
v 12.3596 1.95 -74.5465
v 12.3535 1.95 -74.5416
v 12.346 1.95 -74.5395
v 12.3382 1.95 -74.5403
v 12.3314 1.95 -74.5441
v 12.3265 1.95 -74.5502
v 12.3244 1.95 -74.5577
v 12.3252 1.95 -74.5655
v 12.329 1.95 -74.5723
v 12.3351 1.95 -74.5772
v 12.3426 1.95 -74.5793
v 12.3504 1.95 -74.5784
v 12.3572 1.95 -74.5747
v 12.3621 1.95 -74.5686
f 211/147/33 212/148/33 213/149/33 214/150/33 215/151/33 216/152/33 217/153/33 218/154/33 219/155/33 220/156/33 221/157/33 222/158/33 223/159/33 224/160/33 225/161/33 226/162/33 

usemtl BackColor
f 226/162/34 225/161/34 224/160/34 223/159/34 222/158/34 221/157/34 220/156/34 219/155/34 218/154/34 217/153/34 216/152/34 215/151/34 214/150/34 213/149/34 212/148/34 211/147/34 

usemtl FrontColor
v 12.3572 2.75 -74.5747
v 12.3621 2.75 -74.5686
f 226/163/35 225/164/36 227/165/36 228/166/35 

usemtl BackColor
f 228/166/37 227/165/38 225/164/38 226/163/37 

usemtl FrontColor
v 12.3633 2.75 -74.5533
v 12.3642 2.75 -74.5611
v 12.3504 2.75 -74.5784
v 12.3426 2.75 -74.5793
v 12.3351 2.75 -74.5772
v 12.329 2.75 -74.5723
v 12.3252 2.75 -74.5655
v 12.3244 2.75 -74.5577
v 12.3265 2.75 -74.5502
v 12.3314 2.75 -74.5441
v 12.3382 2.75 -74.5403
v 12.346 2.75 -74.5395
v 12.3535 2.75 -74.5416
v 12.3596 2.75 -74.5465
f 229/167/39 230/168/39 228/169/39 227/170/39 231/171/39 232/172/39 233/173/39 234/174/39 235/175/39 236/176/39 237/177/39 238/178/39 239/179/39 240/180/39 241/181/39 242/182/39 

f 212/183/40 211/184/41 230/185/41 229/186/40 

usemtl BackColor
f 229/186/42 230/185/43 211/184/43 212/183/42 

f 242/182/44 241/181/44 240/180/44 239/179/44 238/178/44 237/177/44 236/176/44 235/175/44 234/174/44 233/173/44 232/172/44 231/171/44 227/170/44 228/169/44 230/168/44 229/167/44 

usemtl FrontColor
f 214/187/45 213/188/46 242/189/46 241/190/45 

usemtl BackColor
f 241/190/47 242/189/48 213/188/48 214/187/47 

usemtl FrontColor
f 213/191/46 212/192/40 229/193/40 242/194/46 

usemtl BackColor
f 242/194/48 229/193/42 212/192/42 213/191/48 

usemtl FrontColor
f 215/195/49 214/196/45 241/197/45 240/198/49 

usemtl BackColor
f 240/198/50 241/197/47 214/196/47 215/195/50 

usemtl FrontColor
f 216/199/51 215/200/49 240/201/49 239/202/51 

usemtl BackColor
f 239/202/52 240/201/50 215/200/50 216/199/52 

usemtl FrontColor
f 217/203/53 216/204/51 239/205/51 238/206/53 

usemtl BackColor
f 238/206/54 239/205/52 216/204/52 217/203/54 

usemtl FrontColor
f 218/207/55 217/208/53 238/209/53 237/210/55 

usemtl BackColor
f 237/210/56 238/209/54 217/208/54 218/207/56 

usemtl FrontColor
f 219/211/57 218/212/55 237/213/55 236/214/57 

usemtl BackColor
f 236/214/58 237/213/56 218/212/56 219/211/58 

usemtl FrontColor
f 220/215/59 219/216/57 236/217/57 235/218/59 

usemtl BackColor
f 235/218/60 236/217/58 219/216/58 220/215/60 

usemtl FrontColor
f 221/219/61 220/220/59 235/221/59 234/222/61 

usemtl BackColor
f 234/222/62 235/221/60 220/220/60 221/219/62 

usemtl FrontColor
f 222/223/63 221/224/61 234/225/61 233/226/63 

usemtl BackColor
f 233/226/64 234/225/62 221/224/62 222/223/64 

usemtl FrontColor
f 223/227/65 222/228/63 233/229/63 232/230/65 

usemtl BackColor
f 232/230/66 233/229/64 222/228/64 223/227/66 

usemtl FrontColor
f 224/231/67 223/232/65 232/233/65 231/234/67 

usemtl BackColor
f 231/234/68 232/233/66 223/232/66 224/231/68 

usemtl FrontColor
f 225/235/36 224/236/67 231/237/67 227/238/36 

usemtl BackColor
f 227/238/38 231/237/68 224/236/68 225/235/38 

usemtl FrontColor
f 211/239/41 226/240/35 228/241/35 230/242/41 

usemtl BackColor
f 230/242/43 228/241/37 226/240/37 211/239/43 

g Mesh21 Component_8_6 Group1 Model

l 224 223

l 225 224

l 226 225

l 211 226

l 212 211

l 213 212

l 214 213

l 215 214

l 216 215

l 217 216

l 218 217

l 219 218

l 220 219

l 221 220

l 222 221

l 223 222

g Mesh22 Component_8_6 Group1 Model

l 227 231

l 228 227

l 230 228

l 229 230

l 242 229

l 241 242

l 240 241

l 239 240

l 238 239

l 237 238

l 236 237

l 235 236

l 234 235

l 233 234

l 232 233

l 231 232

g Mesh23 Component_8_7 Group1 Model

usemtl FrontColor
v 13.0309 1.95 -76.9705
v 13.03 1.95 -76.9628
v 13.0262 1.95 -76.956
v 13.0201 1.95 -76.9511
v 13.0126 1.95 -76.9489
v 13.0049 1.95 -76.9498
v 12.998 1.95 -76.9536
v 12.9932 1.95 -76.9597
v 12.991 1.95 -76.9672
v 12.9919 1.95 -76.9749
v 12.9957 1.95 -76.9818
v 13.0018 1.95 -76.9866
v 13.0093 1.95 -76.9888
v 13.017 1.95 -76.9879
v 13.0239 1.95 -76.9841
v 13.0287 1.95 -76.978
f 243/147/33 244/148/33 245/149/33 246/150/33 247/151/33 248/152/33 249/153/33 250/154/33 251/155/33 252/156/33 253/157/33 254/158/33 255/159/33 256/160/33 257/161/33 258/162/33 

usemtl BackColor
f 258/162/34 257/161/34 256/160/34 255/159/34 254/158/34 253/157/34 252/156/34 251/155/34 250/154/34 249/153/34 248/152/34 247/151/34 246/150/34 245/149/34 244/148/34 243/147/34 

usemtl FrontColor
v 13.0239 2.75 -76.9841
v 13.0287 2.75 -76.978
f 258/163/35 257/164/36 259/165/36 260/166/35 

usemtl BackColor
f 260/166/37 259/165/38 257/164/38 258/163/37 

usemtl FrontColor
v 13.03 2.75 -76.9628
v 13.0309 2.75 -76.9705
v 13.017 2.75 -76.9879
v 13.0093 2.75 -76.9888
v 13.0018 2.75 -76.9866
v 12.9957 2.75 -76.9818
v 12.9919 2.75 -76.9749
v 12.991 2.75 -76.9672
v 12.9932 2.75 -76.9597
v 12.998 2.75 -76.9536
v 13.0049 2.75 -76.9498
v 13.0126 2.75 -76.9489
v 13.0201 2.75 -76.9511
v 13.0262 2.75 -76.956
f 261/167/39 262/168/39 260/169/39 259/170/39 263/171/39 264/172/39 265/173/39 266/174/39 267/175/39 268/176/39 269/177/39 270/178/39 271/179/39 272/180/39 273/181/39 274/182/39 

f 244/183/40 243/184/41 262/185/41 261/186/40 

usemtl BackColor
f 261/186/42 262/185/43 243/184/43 244/183/42 

f 274/182/44 273/181/44 272/180/44 271/179/44 270/178/44 269/177/44 268/176/44 267/175/44 266/174/44 265/173/44 264/172/44 263/171/44 259/170/44 260/169/44 262/168/44 261/167/44 

usemtl FrontColor
f 246/187/45 245/188/46 274/189/46 273/190/45 

usemtl BackColor
f 273/190/47 274/189/48 245/188/48 246/187/47 

usemtl FrontColor
f 245/191/46 244/192/40 261/193/40 274/194/46 

usemtl BackColor
f 274/194/48 261/193/42 244/192/42 245/191/48 

usemtl FrontColor
f 247/195/49 246/196/45 273/197/45 272/198/49 

usemtl BackColor
f 272/198/50 273/197/47 246/196/47 247/195/50 

usemtl FrontColor
f 248/199/51 247/200/49 272/201/49 271/202/51 

usemtl BackColor
f 271/202/52 272/201/50 247/200/50 248/199/52 

usemtl FrontColor
f 249/203/53 248/204/51 271/205/51 270/206/53 

usemtl BackColor
f 270/206/54 271/205/52 248/204/52 249/203/54 

usemtl FrontColor
f 250/207/55 249/208/53 270/209/53 269/210/55 

usemtl BackColor
f 269/210/56 270/209/54 249/208/54 250/207/56 

usemtl FrontColor
f 251/211/57 250/212/55 269/213/55 268/214/57 

usemtl BackColor
f 268/214/58 269/213/56 250/212/56 251/211/58 

usemtl FrontColor
f 252/215/59 251/216/57 268/217/57 267/218/59 

usemtl BackColor
f 267/218/60 268/217/58 251/216/58 252/215/60 

usemtl FrontColor
f 253/219/61 252/220/59 267/221/59 266/222/61 

usemtl BackColor
f 266/222/62 267/221/60 252/220/60 253/219/62 

usemtl FrontColor
f 254/223/63 253/224/61 266/225/61 265/226/63 

usemtl BackColor
f 265/226/64 266/225/62 253/224/62 254/223/64 

usemtl FrontColor
f 255/227/65 254/228/63 265/229/63 264/230/65 

usemtl BackColor
f 264/230/66 265/229/64 254/228/64 255/227/66 

usemtl FrontColor
f 256/231/67 255/232/65 264/233/65 263/234/67 

usemtl BackColor
f 263/234/68 264/233/66 255/232/66 256/231/68 

usemtl FrontColor
f 257/235/36 256/236/67 263/237/67 259/238/36 

usemtl BackColor
f 259/238/38 263/237/68 256/236/68 257/235/38 

usemtl FrontColor
f 243/239/41 258/240/35 260/241/35 262/242/41 

usemtl BackColor
f 262/242/43 260/241/37 258/240/37 243/239/43 

g Mesh24 Component_8_7 Group1 Model

l 256 255

l 257 256

l 258 257

l 243 258

l 244 243

l 245 244

l 246 245

l 247 246

l 248 247

l 249 248

l 250 249

l 251 250

l 252 251

l 253 252

l 254 253

l 255 254

g Mesh25 Component_8_7 Group1 Model

l 259 263

l 260 259

l 262 260

l 261 262

l 274 261

l 273 274

l 272 273

l 271 272

l 270 271

l 269 270

l 268 269

l 267 268

l 266 267

l 265 266

l 264 265

l 263 264

g Mesh26 Component_8_8 Group1 Model

usemtl FrontColor
v 13.6975 1.95 -79.38
v 13.6967 1.95 -79.3723
v 13.6929 1.95 -79.3654
v 13.6868 1.95 -79.3606
v 13.6793 1.95 -79.3584
v 13.6715 1.95 -79.3593
v 13.6647 1.95 -79.3631
v 13.6598 1.95 -79.3692
v 13.6577 1.95 -79.3767
v 13.6586 1.95 -79.3844
v 13.6623 1.95 -79.3912
v 13.6684 1.95 -79.3961
v 13.6759 1.95 -79.3983
v 13.6837 1.95 -79.3974
v 13.6905 1.95 -79.3936
v 13.6954 1.95 -79.3875
f 275/147/33 276/148/33 277/149/33 278/150/33 279/151/33 280/152/33 281/153/33 282/154/33 283/155/33 284/156/33 285/157/33 286/158/33 287/159/33 288/160/33 289/161/33 290/162/33 

usemtl BackColor
f 290/162/34 289/161/34 288/160/34 287/159/34 286/158/34 285/157/34 284/156/34 283/155/34 282/154/34 281/153/34 280/152/34 279/151/34 278/150/34 277/149/34 276/148/34 275/147/34 

usemtl FrontColor
v 13.6905 2.75 -79.3936
v 13.6954 2.75 -79.3875
f 290/163/35 289/164/36 291/165/36 292/166/35 

usemtl BackColor
f 292/166/37 291/165/38 289/164/38 290/163/37 

usemtl FrontColor
v 13.6967 2.75 -79.3723
v 13.6975 2.75 -79.38
v 13.6837 2.75 -79.3974
v 13.6759 2.75 -79.3983
v 13.6684 2.75 -79.3961
v 13.6623 2.75 -79.3912
v 13.6586 2.75 -79.3844
v 13.6577 2.75 -79.3767
v 13.6598 2.75 -79.3692
v 13.6647 2.75 -79.3631
v 13.6715 2.75 -79.3593
v 13.6793 2.75 -79.3584
v 13.6868 2.75 -79.3606
v 13.6929 2.75 -79.3654
f 293/167/39 294/168/39 292/169/39 291/170/39 295/171/39 296/172/39 297/173/39 298/174/39 299/175/39 300/176/39 301/177/39 302/178/39 303/179/39 304/180/39 305/181/39 306/182/39 

f 276/183/40 275/184/41 294/185/41 293/186/40 

usemtl BackColor
f 293/186/42 294/185/43 275/184/43 276/183/42 

f 306/182/44 305/181/44 304/180/44 303/179/44 302/178/44 301/177/44 300/176/44 299/175/44 298/174/44 297/173/44 296/172/44 295/171/44 291/170/44 292/169/44 294/168/44 293/167/44 

usemtl FrontColor
f 278/187/45 277/188/46 306/189/46 305/190/45 

usemtl BackColor
f 305/190/47 306/189/48 277/188/48 278/187/47 

usemtl FrontColor
f 277/191/46 276/192/40 293/193/40 306/194/46 

usemtl BackColor
f 306/194/48 293/193/42 276/192/42 277/191/48 

usemtl FrontColor
f 279/195/49 278/196/45 305/197/45 304/198/49 

usemtl BackColor
f 304/198/50 305/197/47 278/196/47 279/195/50 

usemtl FrontColor
f 280/199/51 279/200/49 304/201/49 303/202/51 

usemtl BackColor
f 303/202/52 304/201/50 279/200/50 280/199/52 

usemtl FrontColor
f 281/203/53 280/204/51 303/205/51 302/206/53 

usemtl BackColor
f 302/206/54 303/205/52 280/204/52 281/203/54 

usemtl FrontColor
f 282/207/55 281/208/53 302/209/53 301/210/55 

usemtl BackColor
f 301/210/56 302/209/54 281/208/54 282/207/56 

usemtl FrontColor
f 283/211/57 282/212/55 301/213/55 300/214/57 

usemtl BackColor
f 300/214/58 301/213/56 282/212/56 283/211/58 

usemtl FrontColor
f 284/215/59 283/216/57 300/217/57 299/218/59 

usemtl BackColor
f 299/218/60 300/217/58 283/216/58 284/215/60 

usemtl FrontColor
f 285/219/61 284/220/59 299/221/59 298/222/61 

usemtl BackColor
f 298/222/62 299/221/60 284/220/60 285/219/62 

usemtl FrontColor
f 286/223/63 285/224/61 298/225/61 297/226/63 

usemtl BackColor
f 297/226/64 298/225/62 285/224/62 286/223/64 

usemtl FrontColor
f 287/227/65 286/228/63 297/229/63 296/230/65 

usemtl BackColor
f 296/230/66 297/229/64 286/228/64 287/227/66 

usemtl FrontColor
f 288/231/67 287/232/65 296/233/65 295/234/67 

usemtl BackColor
f 295/234/68 296/233/66 287/232/66 288/231/68 

usemtl FrontColor
f 289/235/36 288/236/67 295/237/67 291/238/36 

usemtl BackColor
f 291/238/38 295/237/68 288/236/68 289/235/38 

usemtl FrontColor
f 275/239/41 290/240/35 292/241/35 294/242/41 

usemtl BackColor
f 294/242/43 292/241/37 290/240/37 275/239/43 

g Mesh27 Component_8_8 Group1 Model

l 288 287

l 289 288

l 290 289

l 275 290

l 276 275

l 277 276

l 278 277

l 279 278

l 280 279

l 281 280

l 282 281

l 283 282

l 284 283

l 285 284

l 286 285

l 287 286

g Mesh28 Component_8_8 Group1 Model

l 291 295

l 292 291

l 294 292

l 293 294

l 306 293

l 305 306

l 304 305

l 303 304

l 302 303

l 301 302

l 300 301

l 299 300

l 298 299

l 297 298

l 296 297

l 295 296

g Mesh29 Component_8_9 Group1 Model

usemtl FrontColor
v 14.3642 1.95 -81.7895
v 14.3633 1.95 -81.7817
v 14.3596 1.95 -81.7749
v 14.3535 1.95 -81.77
v 14.346 1.95 -81.7679
v 14.3382 1.95 -81.7688
v 14.3314 1.95 -81.7725
v 14.3265 1.95 -81.7786
v 14.3244 1.95 -81.7861
v 14.3252 1.95 -81.7939
v 14.329 1.95 -81.8007
v 14.3351 1.95 -81.8056
v 14.3426 1.95 -81.8077
v 14.3504 1.95 -81.8069
v 14.3572 1.95 -81.8031
v 14.3621 1.95 -81.797
f 307/147/33 308/148/33 309/149/33 310/150/33 311/151/33 312/152/33 313/153/33 314/154/33 315/155/33 316/156/33 317/157/33 318/158/33 319/159/33 320/160/33 321/161/33 322/162/33 

usemtl BackColor
f 322/162/34 321/161/34 320/160/34 319/159/34 318/158/34 317/157/34 316/156/34 315/155/34 314/154/34 313/153/34 312/152/34 311/151/34 310/150/34 309/149/34 308/148/34 307/147/34 

usemtl FrontColor
v 14.3572 2.75 -81.8031
v 14.3621 2.75 -81.797
f 322/163/35 321/164/36 323/165/36 324/166/35 

usemtl BackColor
f 324/166/37 323/165/38 321/164/38 322/163/37 

usemtl FrontColor
v 14.3633 2.75 -81.7817
v 14.3642 2.75 -81.7895
v 14.3504 2.75 -81.8069
v 14.3426 2.75 -81.8077
v 14.3351 2.75 -81.8056
v 14.329 2.75 -81.8007
v 14.3252 2.75 -81.7939
v 14.3244 2.75 -81.7861
v 14.3265 2.75 -81.7786
v 14.3314 2.75 -81.7725
v 14.3382 2.75 -81.7688
v 14.346 2.75 -81.7679
v 14.3535 2.75 -81.77
v 14.3596 2.75 -81.7749
f 325/167/39 326/168/39 324/169/39 323/170/39 327/171/39 328/172/39 329/173/39 330/174/39 331/175/39 332/176/39 333/177/39 334/178/39 335/179/39 336/180/39 337/181/39 338/182/39 

f 308/183/40 307/184/41 326/185/41 325/186/40 

usemtl BackColor
f 325/186/42 326/185/43 307/184/43 308/183/42 

f 338/182/44 337/181/44 336/180/44 335/179/44 334/178/44 333/177/44 332/176/44 331/175/44 330/174/44 329/173/44 328/172/44 327/171/44 323/170/44 324/169/44 326/168/44 325/167/44 

usemtl FrontColor
f 310/187/45 309/188/46 338/189/46 337/190/45 

usemtl BackColor
f 337/190/47 338/189/48 309/188/48 310/187/47 

usemtl FrontColor
f 309/191/46 308/192/40 325/193/40 338/194/46 

usemtl BackColor
f 338/194/48 325/193/42 308/192/42 309/191/48 

usemtl FrontColor
f 311/195/49 310/196/45 337/197/45 336/198/49 

usemtl BackColor
f 336/198/50 337/197/47 310/196/47 311/195/50 

usemtl FrontColor
f 312/199/51 311/200/49 336/201/49 335/202/51 

usemtl BackColor
f 335/202/52 336/201/50 311/200/50 312/199/52 

usemtl FrontColor
f 313/203/53 312/204/51 335/205/51 334/206/53 

usemtl BackColor
f 334/206/54 335/205/52 312/204/52 313/203/54 

usemtl FrontColor
f 314/207/55 313/208/53 334/209/53 333/210/55 

usemtl BackColor
f 333/210/56 334/209/54 313/208/54 314/207/56 

usemtl FrontColor
f 315/211/57 314/212/55 333/213/55 332/214/57 

usemtl BackColor
f 332/214/58 333/213/56 314/212/56 315/211/58 

usemtl FrontColor
f 316/215/59 315/216/57 332/217/57 331/218/59 

usemtl BackColor
f 331/218/60 332/217/58 315/216/58 316/215/60 

usemtl FrontColor
f 317/219/61 316/220/59 331/221/59 330/222/61 

usemtl BackColor
f 330/222/62 331/221/60 316/220/60 317/219/62 

usemtl FrontColor
f 318/223/63 317/224/61 330/225/61 329/226/63 

usemtl BackColor
f 329/226/64 330/225/62 317/224/62 318/223/64 

usemtl FrontColor
f 319/227/65 318/228/63 329/229/63 328/230/65 

usemtl BackColor
f 328/230/66 329/229/64 318/228/64 319/227/66 

usemtl FrontColor
f 320/231/67 319/232/65 328/233/65 327/234/67 

usemtl BackColor
f 327/234/68 328/233/66 319/232/66 320/231/68 

usemtl FrontColor
f 321/235/36 320/236/67 327/237/67 323/238/36 

usemtl BackColor
f 323/238/38 327/237/68 320/236/68 321/235/38 

usemtl FrontColor
f 307/239/41 322/240/35 324/241/35 326/242/41 

usemtl BackColor
f 326/242/43 324/241/37 322/240/37 307/239/43 

g Mesh30 Component_8_9 Group1 Model

l 320 319

l 321 320

l 322 321

l 307 322

l 308 307

l 309 308

l 310 309

l 311 310

l 312 311

l 313 312

l 314 313

l 315 314

l 316 315

l 317 316

l 318 317

l 319 318

g Mesh31 Component_8_9 Group1 Model

l 323 327

l 324 323

l 326 324

l 325 326

l 338 325

l 337 338

l 336 337

l 335 336

l 334 335

l 333 334

l 332 333

l 331 332

l 330 331

l 329 330

l 328 329

l 327 328

