# Alias OBJ Model File
# Exported from SketchUp, (c) 2000-2012 Trimble Navigation Limited
# File units = meters

mtllib pool_WALLS.mtl

g Mesh1 Group1 Model

usemtl Tile_Large_Brown
v 16.2112 -5.5862 5.04132
vt 10.6373 -3.79188
vn -4.87596e-34 -3.61077e-16 1
v 16.2112 -1.58754 5.04132
vt 10.6373 -1.07762
v -3.77847 -1.58754 5.04132
vt -2.47931 -1.07762
v -3.77847 -5.5862 5.04132
vt -2.47931 -3.79188
f 1/1/1 2/2/1 3/3/1 4/4/1 

usemtl Stone_Coursed_Rough
vt -1.77094 -4.33133
vn 4.87596e-34 3.61077e-16 -1
vt -1.77094 -2.45719
vt 7.59806 -2.45719
vt 7.59806 -4.33133
f 4/5/2 3/6/2 2/7/2 1/8/2 

usemtl Tile_Large_Brown
vt -3.30795 -3.79188
vn 1 -4.51346e-16 -6.05974e-17
vt -3.30795 -1.07762
v -3.77847 -1.58754 10.9979
vt -7.21649 -1.07762
v -3.77847 -5.5862 10.9979
vt -7.21649 -3.79188
f 4/9/3 3/10/3 5/11/3 6/12/3 

usemtl Stone_Coursed_Rough
vt -5.15464 -2.61821
vn -1 4.51346e-16 6.05974e-17
vt -5.15464 -0.744068
vt -2.36282 -0.744068
vt -2.36282 -2.61821
f 6/13/4 5/14/4 3/15/4 4/16/4 

usemtl Tile_Large_Brown
vt 2.47931 -3.79188
vn -7.22284e-17 -3.61077e-16 -1
vt 2.47931 -1.07762
v 16.2112 -1.58754 10.9979
vt -10.6373 -1.07762
v 16.2112 -5.5862 10.9979
vt -10.6373 -3.79188
f 6/17/5 5/18/5 7/19/5 8/20/5 

usemtl Stone_Coursed_Rough
vt 5.15464 -2.61821
vn 7.22284e-17 3.61077e-16 1
vt 5.15464 -0.744068
vt 14.5236 -0.744068
vt 14.5236 -2.61821
f 8/21/6 7/22/6 5/23/6 6/24/6 

usemtl Tile_Large_Brown
vt 7.21649 -3.79188
vn -1 0 -0
vt 7.21649 -1.07762
vt 3.30795 -1.07762
vt 3.30795 -3.79188
f 8/25/7 7/26/7 2/27/7 1/28/7 

usemtl Stone_Coursed_Rough
vt 2.36282 -2.61821
vn 1 -0 0
vt 2.36282 -0.744068
f 1/29/8 2/30/8 7/22/8 8/21/8 

usemtl FrontColor
vt -71.9257 -1.7302e-29
vn 2.40895e-17 -1 1.54545e-16
vt -71.9257 234.513
vt -858.921 234.513
vt -858.921 1.13687e-13
f 6/31/9 4/32/9 1/33/9 8/34/9 

usemtl Stone_Coursed_Rough
vt -7.59806 -5.15464
vn -2.40895e-17 1 -1.54545e-16
vt -7.59806 -2.36282
vt 1.77094 -2.36282
vt 1.77094 -5.15464
f 8/35/10 1/36/10 4/37/10 6/38/10 

g Mesh2 Group1 Model

usemtl Tile_Large_Brown
v -5.60538 -5.5862 2.10232
vt -1.37947 -3.79188
vn 1 -6.53329e-17 4.32119e-17
v -5.60538 -2.14195 2.10232
vt -1.37947 -1.45394
v -5.60538 -2.14195 9.53832
vt -6.25874 -1.45394
v -5.60538 -5.5862 9.53832
vt -6.25874 -3.79188
f 9/39/11 10/40/11 11/41/11 12/42/11 

usemtl Stone_Coursed_Rough
vt -6.11239 -2.61821
vn -1 6.53329e-17 -4.32119e-17
vt -6.11239 -1.00391
vt -2.6272 -1.00391
vt -2.6272 -2.61821
f 12/43/12 11/44/12 10/45/12 9/46/12 

usemtl Tile_Large_Brown
vn 1 0 -0
v -5.60538 -2.14195 10.9979
vt -7.21649 -1.45394
v -5.60538 -5.5862 10.9979
f 12/42/13 11/41/13 13/47/13 14/12/13 

usemtl Stone_Coursed_Rough
vt -2.6272 -5.15464
vn -1 -0 0
vt -4.24149 -5.15464
vt -4.24149 -4.47053
vt -2.6272 -4.47053
f 14/48/14 13/49/14 11/50/14 12/51/14 

usemtl Tile_Large_Brown
vt 3.67807 -3.79188
vn 0 0 -1
vt 3.67807 -1.45394
v -4.02147 -2.14195 10.9979
vt 2.63876 -1.45394
v -4.02147 -5.5862 10.9979
vt 2.63876 -3.79188
f 14/52/15 13/53/15 15/54/15 16/55/15 

usemtl Stone_Coursed_Rough
vt 4.8196 -2.61821
vn -0 -0 1
vt 4.8196 -1.00391
vt 5.56196 -1.00391
vt 5.56196 -2.61821
f 16/56/16 15/57/16 13/58/16 14/59/16 

usemtl Tile_Large_Brown
vn -1 3.14398e-16 5.76457e-17
vt 7.21649 -1.45394
v -4.02147 -2.14195 4.73632
vt 3.10782 -1.45394
v -4.02147 -5.5862 4.73632
vt 3.10782 -3.79188
f 16/25/17 15/60/17 17/61/17 18/62/17 

usemtl Stone_Coursed_Rough
vt 1.88483 -2.61821
vn 1 -3.14398e-16 -5.76457e-17
vt 1.88483 -1.00391
f 18/63/18 17/64/18 15/57/18 16/56/18 

usemtl Tile_Large_Brown
vn 1.28608e-31 4.19197e-16 -1
v 0.828139 -2.14195 4.73632
vt -0.543398 -1.45394
v 0.828139 -5.5862 4.73632
vt -0.543398 -3.79188
f 18/55/19 17/54/19 19/65/19 20/66/19 

usemtl Stone_Coursed_Rough
vt -0.388142 -2.61821
vn -1.28608e-31 -4.19197e-16 1
vt -0.388142 -1.00391
f 20/67/20 19/68/20 17/64/20 18/63/20 

usemtl Tile_Large_Brown
vn -1 1.04799e-16 3.15778e-33
v 0.828139 -2.14195 2.10232
vt 1.37947 -1.45394
v 0.828139 -5.5862 2.10232
vt 1.37947 -3.79188
f 20/62/21 19/61/21 21/69/21 22/70/21 

usemtl Stone_Coursed_Rough
vt -1.62267 -2.61821
vn 1 -1.04799e-16 -3.15778e-33
vt -1.62267 -1.00391
f 22/71/22 21/72/22 19/68/22 20/67/22 

usemtl Tile_Large_Brown
vt -3.67807 -3.79188
vn -1.68316e-16 -1.04799e-16 1
vt 0.543398 -3.79188
vt 0.543398 -1.45394
vt -3.67807 -1.45394
f 9/73/23 22/74/23 21/75/23 10/76/23 

usemtl Stone_Coursed_Rough
vn 1.68316e-16 1.04799e-16 -1
vt 0.388142 -1.00391
vt 0.388142 -2.61821
f 10/45/24 21/77/24 22/78/24 9/46/24 

usemtl Tile_Large_Brown
vt -2.63876 -3.21499
vn 5.14092e-16 1 1.46599e-16
vt 0.543398 -3.21499
vt 0.543398 -1.42704
vt -3.67807 -1.42704
vt -3.67807 -6.47456
vt -3.67807 -7.46534
vt -2.63876 -7.46534
f 18/79/25 20/80/25 22/81/25 9/82/25 12/83/25 14/84/25 16/85/25 

usemtl Stone_Coursed_Rough
vt -1.88483 -5.15464
vn -5.14092e-16 -1 -1.46599e-16
vt -2.6272 -0.985338
vt 0.388142 -0.985338
vt 0.388142 -2.21987
vt -1.88483 -2.21987
f 16/86/26 14/48/26 12/51/26 9/87/26 22/88/26 20/89/26 18/90/26 

g Mesh3 Group1 Model

l 22 21

l 9 22

l 12 9

l 11 12

l 10 11

l 9 10

l 21 10

l 19 21

l 17 19

l 15 17

l 13 15

l 14 13

l 14 16

l 14 12

l 16 18

l 16 15

l 18 17

l 18 20

l 20 19

l 22 20

l 11 13

g Mesh4 Group1 Model

l 6 8

l 6 5

l 4 6

l 4 3

l 1 4

l 1 2

l 8 1

l 8 7

l 7 5

l 2 7

l 3 2

l 5 3

