# Alias OBJ Model File
# Exported from SketchUp, (c) 2000-2012 Trimble Navigation Limited
# File units = meters

mtllib pool_deck.mtl

g Mesh1 Group1 Model

usemtl Beadboard
v -4.42786 -1.3862 13.7978
vt -4.84237 -15.0894
vn -8.65263e-17 1 -2.40086e-16
v -5.60538 -1.3862 10.9979
vt -6.13012 -12.0275
v -5.60538 -1.3862 13.7978
vt -6.13012 -15.0894
f 1/1/1 2/2/1 3/3/1

v -4.02147 -1.3862 10.9979
vt -4.39793 -12.0275
f 2/2/1 1/1/1 4/4/1

v -3.18821 -1.3862 13.7978
vt -3.48667 -15.0894
f 4/4/1 1/1/1 5/5/1

v -3.77847 -1.3862 10.9979
vt -4.13219 -12.0275
f 4/4/1 5/5/1 6/6/1

v 16.2112 -1.3862 10.9979
vt 17.7288 -12.0275
f 6/6/1 5/5/1 7/7/1

v 9.29964 -1.3862 13.7978
vt 10.1702 -15.0894
f 7/7/1 5/5/1 8/8/1

v 9.76335 -1.3862 13.7978
vt 10.6773 -15.0894
f 7/7/1 8/8/1 9/9/1

v 14.7671 -1.3862 13.7978
vt 16.1494 -15.0894
f 7/7/1 9/9/1 10/10/1

v 23.6946 -1.3862 13.7978
vt 25.9127 -15.0894
f 7/7/1 10/10/1 11/11/1

v 19.6109 -1.3862 11.8784
vt 21.4467 -12.9904
f 7/7/1 11/11/1 12/12/1

v 21.6336 -1.3862 12.1766
vt 23.6588 -13.3165
f 12/12/1 11/11/1 13/13/1

v 21.721 -1.3862 12.2436
vt 23.7543 -13.3897
f 13/13/1 11/11/1 14/14/1

v 21.8227 -1.3862 12.2857
vt 23.8656 -13.4358
f 14/14/1 11/11/1 15/15/1

v 21.9318 -1.3862 12.3001
vt 23.9849 -13.4515
f 15/15/1 11/11/1 16/16/1

v 22.0409 -1.3862 12.2857
vt 24.1043 -13.4358
f 16/16/1 11/11/1 17/17/1

v 22.1426 -1.3862 12.2436
vt 24.2155 -13.3897
f 17/17/1 11/11/1 18/18/1

v 22.23 -1.3862 12.1766
vt 24.311 -13.3165
f 18/18/1 11/11/1 19/19/1

v 22.297 -1.3862 12.0892
vt 24.3843 -13.221
f 19/19/1 11/11/1 20/20/1

v 22.3391 -1.3862 11.9875
vt 24.4303 -13.1097
f 20/20/1 11/11/1 21/21/1

v 22.3535 -1.3862 11.8784
vt 24.446 -12.9904
f 21/21/1 11/11/1 22/22/1

v 23.6946 -1.3862 11.8784
vt 25.9127 -12.9904
f 22/22/1 11/11/1 23/23/1

v 21.5666 -1.3862 12.0892
vt 23.5856 -13.221
f 12/12/1 13/13/1 24/24/1

v 21.5245 -1.3862 11.9875
vt 23.5395 -13.1097
f 12/12/1 24/24/1 25/25/1

v 21.5101 -1.3862 11.8784
vt 23.5238 -12.9904
f 12/12/1 25/25/1 26/26/1

v 16.2112 -1.3862 5.04132
vt 17.7288 -5.51325
f 7/7/1 12/12/1 27/27/1

v 19.6109 -1.3862 4.17332
vt 21.4467 -4.564
f 28/28/1 27/27/1 12/12/1

v 23.6946 -1.3862 1.92332
vt 25.9127 -2.10337
f 29/29/1 27/27/1 28/28/1

v 13.1192 -1.3862 1.92332
vt 14.3473 -2.10337
f 30/30/1 27/27/1 29/29/1

v 7.48367 -1.3862 1.92332
vt 8.18424 -2.10337
f 31/31/1 27/27/1 30/30/1

v 7.4023 -1.3862 1.92332
vt 8.09526 -2.10337
f 32/32/1 27/27/1 31/31/1

v 2.80049 -1.3862 1.92332
vt 3.06265 -2.10337
f 33/33/1 27/27/1 32/32/1

v 2.48349 -1.3862 1.92332
vt 2.71597 -2.10337
f 34/34/1 27/27/1 33/33/1

v 0.988139 -1.3862 4.73632
vt 1.08064 -5.1797
f 35/35/1 27/27/1 34/34/1

v 0.988139 -1.3862 5.04132
vt 1.08064 -5.51325
f 27/27/1 35/35/1 36/36/1

v 0.988139 -1.3862 1.92332
vt 1.08064 -2.10337
f 34/34/1 37/37/1 35/35/1

v 21.6336 -1.3862 3.87516
vt 23.6588 -4.23793
f 29/29/1 28/28/1 38/38/1

v 21.5666 -1.3862 3.96249
vt 23.5856 -4.33343
f 38/38/1 28/28/1 39/39/1

v 21.5245 -1.3862 4.06419
vt 23.5395 -4.44465
f 39/39/1 28/28/1 40/40/1

v 21.5101 -1.3862 4.17332
vt 23.5238 -4.564
f 40/40/1 28/28/1 41/41/1

v 21.721 -1.3862 3.80815
vt 23.7543 -4.16465
f 29/29/1 38/38/1 42/42/1

v 21.8227 -1.3862 3.76603
vt 23.8656 -4.11858
f 29/29/1 42/42/1 43/43/1

v 21.9318 -1.3862 3.75166
vt 23.9849 -4.10287
f 29/29/1 43/43/1 44/44/1

v 22.0409 -1.3862 3.76603
vt 24.1043 -4.11858
f 29/29/1 44/44/1 45/45/1

v 22.1426 -1.3862 3.80815
vt 24.2155 -4.16465
f 29/29/1 45/45/1 46/46/1

v 22.23 -1.3862 3.87516
vt 24.311 -4.23793
f 29/29/1 46/46/1 47/47/1

v 22.297 -1.3862 3.96249
vt 24.3843 -4.33343
f 29/29/1 47/47/1 48/48/1

v 22.3391 -1.3862 4.06419
vt 24.4303 -4.44465
f 29/29/1 48/48/1 49/49/1

v 22.3535 -1.3862 4.17332
vt 24.446 -4.564
f 29/29/1 49/49/1 50/50/1

v 23.6946 -1.3862 4.17332
vt 25.9127 -4.564
f 29/29/1 50/50/1 51/51/1

v 19.6109 -1.3862 8.65332
vt 21.4467 -9.46338
f 28/28/1 12/12/1 52/52/1

v 19.6109 -1.3862 7.42332
vt 21.4467 -8.11824
f 28/28/1 52/52/1 53/53/1

v 21.5101 -1.3862 8.65332
vt 23.5238 -9.46338
f 54/54/1 53/53/1 52/52/1

v 21.5101 -1.3862 7.42332
vt 23.5238 -8.11824
f 53/53/1 54/54/1 55/55/1

v 22.3535 -1.3862 8.65332
vt 24.446 -9.46338
f 55/55/1 54/54/1 56/56/1

v 22.3535 -1.3862 7.42332
vt 24.446 -8.11824
f 55/55/1 56/56/1 57/57/1

v 23.6946 -1.3862 8.65332
vt 25.9127 -9.46338
f 57/57/1 56/56/1 58/58/1

v 23.6946 -1.3862 7.42332
vt 25.9127 -8.11824
f 57/57/1 58/58/1 59/59/1

v 25.6122 -1.3862 8.65332
vt 28.0099 -9.46338
f 59/59/1 58/58/1 60/60/1

v 24.0712 -1.3862 7.42332
vt 26.3246 -8.11824
f 59/59/1 60/60/1 61/61/1

v 25.2312 -1.3862 7.42332
vt 27.5932 -8.11824
f 61/61/1 60/60/1 62/62/1

v 25.6122 -1.3862 7.42332
vt 28.0099 -8.11824
f 62/62/1 60/60/1 63/63/1

g Mesh2 Group1 Model

v -2.67038 -1.3872 16.1044
vt -2.92037 -17.612
vn 1.33817e-16 1 9.01632e-16
v -5.60538 -1.3872 13.7978
v -5.60538 -1.3872 16.1044
vt -6.13012 -17.612
f 64/64/2 65/3/2 66/65/2

v -4.42786 -1.3872 13.7978
f 65/3/2 64/64/2 67/1/2

v -3.18821 -1.3872 13.7978
f 67/1/2 64/64/2 68/5/2

v -1.56465 -1.3872 14.1037
vt -1.71112 -15.424
f 68/5/2 64/64/2 69/66/2

v -1.56465 -1.3872 16.1044
vt -1.71112 -17.612
f 69/66/2 64/64/2 70/67/2

v 9.29964 -1.3872 13.7978
f 68/5/2 69/66/2 71/8/2

v 9.76335 -1.3872 14.1037
vt 10.6773 -15.424
f 71/8/2 69/66/2 72/68/2

v 9.76335 -1.3872 13.7978
f 71/8/2 72/68/2 73/9/2

g Mesh3 Group1 Model

l 6 7

l 4 6

l 2 4

l 3 2

l 3 1

l 1 5

l 5 8

l 8 9

l 9 10

l 10 11

l 23 11

l 22 23

l 21 22

l 20 21

l 19 20

l 18 19

l 17 18

l 16 17

l 15 16

l 14 15

l 13 14

l 24 13

l 25 24

l 26 25

l 12 26

l 52 12

l 52 54

l 54 56

l 56 58

l 58 60

l 60 63

l 62 63

l 62 61

l 61 59

l 59 57

l 57 55

l 55 53

l 28 53

l 41 28

l 41 40

l 40 39

l 39 38

l 38 42

l 42 43

l 43 44

l 44 45

l 45 46

l 46 47

l 47 48

l 48 49

l 49 50

l 51 50

l 29 51

l 30 29

l 31 30

l 32 31

l 33 32

l 34 33

l 37 34

l 35 37

l 35 36

l 27 36

l 7 27

g Mesh4 Group1 Model

l 71 73

l 68 71

l 67 68

l 65 67

l 66 65

l 66 64

l 64 70

l 70 69

l 69 72

l 72 73

