# Alias OBJ Model File
# Exported from SketchUp, (c) 2000-2012 Trimble Navigation Limited
# File units = meters

mtllib tennis_court_surface.mtl

g Mesh1 Group1 Model

usemtl Groundcover_Sand_Smooth
v 2.5148 -4.9362 -34.5255
vt 0.604185 77.1012
vn -9.62238e-16 1 2.89505e-15
v -3.17381 -4.9362 -37.862
vt -11.8381 84.399
v -3.61174 -4.9362 -36.5102
vt -12.796 81.4422
f 1/1/1 2/2/1 3/3/1

v 8.20353 -4.9362 -34.1763
vt 13.0467 76.3375
f 2/2/1 1/1/1 4/4/1

v 7.7656 -4.9362 -32.8245
vt 12.0889 73.3807
f 4/4/1 1/1/1 5/5/1

vn -4.57673e-16 1 -4.24927e-16
v 5.23879 -4.9362 -25.0245
vt 6.56217 56.3205
f 1/1/2 6/6/2 5/5/2

v 1.25956 -4.9362 -30.6507
vt -2.14131 68.6262
f 7/7/2 6/6/2 1/1/2

v -0.0120143 -4.9362 -26.7255
vt -4.92252 60.041
f 6/6/2 7/7/2 8/8/2

v -4.86698 -4.9362 -32.6354
vt -15.5414 72.9672
vn 1.31799e-16 1 5.02493e-16
f 9/9/3 8/8/3 7/7/3

v -6.13856 -4.9362 -28.7103
vt -18.3227 64.382
f 8/8/3 9/9/3 10/10/3

v -10.9574 -4.9362 -34.6084
vt -28.8625 77.2826
vn 2.68472e-16 1 -9.69461e-17
f 11/11/4 10/10/4 9/9/4

v -12.2289 -4.9362 -30.6833
vt -31.6437 68.6974
f 10/10/4 11/11/4 12/12/4

v -14.9202 -4.9362 -40.1736
vt -37.53 89.4549
vn 1.90209e-16 1 -4.47323e-16
f 13/13/5 12/12/5 11/11/5

v -17.447 -4.9362 -32.3737
vt -43.0567 72.3947
f 12/12/5 13/13/5 14/14/5

v -14.4822 -4.9362 -41.5254
vt -31.6759 90.8255
vn 2.05541e-17 1 -8.31655e-17
vt -38.1605 70.8085
vt -32.6338 87.8687
f 15/15/6 14/16/6 13/17/6

v -21.6014 -4.9362 -47.2564
vt -47.2471 103.36
f 15/15/6 16/18/6 14/16/6

v 17.2595 -4.9362 -34.6673
vt 37.7504 75.8252
f 16/18/6 15/15/6 17/19/6

vt -6.94185 82.8128
f 17/19/6 15/15/6 2/20/6

vt -36.5722 92.4117
vn -7.57133e-16 1 2.42801e-15
v -9.70214 -4.9362 -38.4832
vt -26.117 85.7576
f 15/21/7 18/22/7 2/2/7

f 18/22/7 15/21/7 13/13/7

f 13/13/5 11/11/5 18/22/5

vn 1.37546e-16 1 -6.07532e-16
f 9/9/8 18/22/8 11/11/8

f 18/22/8 9/9/8 3/3/8

vn 5.12411e-16 1 -6.72405e-16
f 7/7/9 3/3/9 9/9/9

f 3/3/9 7/7/9 1/1/9

f 2/2/7 18/22/7 3/3/7

vt 17.943 74.7513
f 17/19/6 2/20/6 4/23/6

v 11.7211 -4.9362 -17.5486
vt 25.6368 38.3828
f 17/19/6 4/23/6 19/24/6

vt 16.9851 71.7945
f 5/25/6 19/24/6 4/23/6

vt 11.4584 54.7343
f 6/26/6 19/24/6 5/25/6

v 4.82397 -4.9362 -23.744
vt 10.5511 51.9336
f 20/27/6 19/24/6 6/26/6

v -6.55337 -4.9362 -27.4298
vt -14.3337 59.9951
f 21/28/6 19/24/6 20/27/6

v -9.21864 -4.9362 -24.3252
vt -20.1633 53.2047
f 21/28/6 22/29/6 19/24/6

v -10.7999 -4.9362 -24.8368
vt -23.6219 54.3236
f 21/28/6 23/30/6 22/29/6

v -17.8618 -4.9362 -31.0932
vt -39.0678 68.0078
f 24/31/6 23/30/6 21/28/6

v -27.144 -4.9362 -30.1245
vt -59.3701 65.8892
f 24/31/6 25/32/6 23/30/6

v -22.1376 -4.9362 -45.5988
vt -48.42 99.735
f 25/32/6 24/31/6 26/33/6

f 26/33/6 24/31/6 16/18/6

f 14/16/6 16/18/6 24/31/6

vt -19.23 61.5813
vn 4.14704e-16 1 -1.36591e-15
vt -43.964 69.594
f 21/34/10 14/14/10 24/35/10

f 14/14/10 21/34/10 12/12/10

f 12/12/10 21/34/10 10/10/10

vt 5.65487 53.5198
vn 1.13706e-15 1 -3.77585e-15
f 20/36/11 10/10/11 21/34/11

f 10/10/11 20/36/11 8/8/11

f 8/8/11 20/36/11 6/6/11

v -9.5212 -4.9362 -23.39
vt -20.825 51.1592
f 22/29/6 23/30/6 27/37/6

v -11.1025 -4.9362 -23.9016
vt -24.2837 52.2782
f 27/37/6 23/30/6 28/38/6

g Mesh2 Group1 Model

l 5 6

l 1 5

l 3 1

l 2 3

l 2 4

l 15 2

l 13 15

l 13 18

l 14 13

l 12 14

l 11 12

l 9 11

l 9 10

l 7 9

l 7 1

l 8 7

l 6 8

l 6 20

l 20 21

l 21 24

l 10 21

l 8 10

l 10 12

l 24 14

l 3 9

l 18 3

l 18 11

l 4 5

g Mesh3 Group1 Model

l 17 19

l 17 16

l 26 16

l 26 25

l 23 25

l 23 28

l 28 27

l 22 27

l 19 22

