# Alias OBJ Model File
# Exported from SketchUp, (c) 2000-2012 Trimble Navigation Limited
# File units = meters

mtllib tennis_court_lines.mtl

g Mesh1 Group1 Model

usemtl Color_M00
v 38.7685 0.655 -61.975
vt 702.413 119.169
vn -1.70228e-17 1 -1.43915e-16
v 39.9471 0.655 -65.8078
vt 748.814 270.068
v 38.7397 0.655 -62.0809
vt 701.281 123.338
f 1/1/1 2/2/1 3/3/1

v 38.7968 0.655 -62.0624
vt 703.528 122.61
f 2/2/1 1/1/1 4/4/1

v 41.2583 0.655 -69.6607
vt 800.438 421.758
f 2/2/1 4/4/1 5/5/1

v 39.9656 0.655 -65.8649
vt 749.542 272.315
f 2/2/1 5/5/1 6/6/1

v 41.2013 0.655 -69.6792
vt 798.191 422.486
f 6/6/1 5/5/1 7/7/1

v 46.4915 0.655 -68.0285
vt 1006.47 357.496
f 8/8/1 7/7/1 5/5/1

v 35.2343 0.655 -71.6753
vt 563.27 501.072
f 9/9/1 7/7/1 8/8/1

v 35.2158 0.655 -71.6182
vt 562.542 498.825
f 7/7/1 9/9/1 10/10/1

v 35.6026 0.655 -73.0071
vt 577.772 553.503
f 11/11/1 10/10/1 9/9/1

v 35.1772 0.655 -71.6938
vt 561.023 501.8
f 12/12/1 10/10/1 11/11/1

v 35.1587 0.655 -71.6367
vt 560.295 499.553
f 13/13/1 10/10/1 12/12/1

v 33.9801 0.655 -67.8039
vt 513.894 348.654
f 13/13/1 14/14/1 10/10/1

v 33.9616 0.655 -67.7468
vt 513.166 346.407
f 13/13/1 15/15/1 14/14/1

v 33.923 0.655 -67.8224
vt 511.646 349.382
f 16/16/1 15/15/1 13/13/1

v 33.9045 0.655 -67.7653
vt 510.918 347.135
f 17/17/1 15/15/1 16/16/1

v 32.7259 0.655 -63.9325
vt 464.517 196.236
f 17/17/1 18/18/1 15/15/1

v 32.7075 0.655 -63.8754
vt 463.789 193.989
f 17/17/1 19/19/1 18/18/1

v 32.6689 0.655 -63.951
vt 462.27 196.964
f 20/20/1 19/19/1 17/17/1

v 32.6504 0.655 -63.8939
vt 461.542 194.717
f 21/21/1 19/19/1 20/20/1

v 32.3171 0.655 -62.6705
vt 448.422 146.551
f 21/21/1 22/22/1 19/19/1

v 32.26 0.655 -62.689
vt 446.174 147.279
f 22/22/1 21/21/1 23/23/1

v 43.613 0.655 -58.9481
vt 893.14 -1.82635e-29
f 23/23/1 24/24/1 22/22/1

v 21.0028 0.655 -66.3358
vt 2.97522 290.855
f 25/25/1 24/24/1 23/23/1

v 20.9272 0.655 -66.2972
vt 4.83818e-31 289.336
f 24/24/1 25/25/1 26/26/1

v 24.3068 0.655 -76.7294
vt 133.054 700.054
f 25/25/1 27/27/1 26/26/1

v 21.3931 0.655 -67.5407
vt 18.3428 338.293
f 27/27/1 25/25/1 28/28/1

v 21.4116 0.655 -67.5978
vt 19.0708 340.54
f 27/27/1 28/28/1 29/29/1

f 21/21/1 29/29/1 28/28/1

v 26.5574 0.655 -65.9308
vt 221.66 274.91
f 29/29/1 21/21/1 30/30/1

v 26.6145 0.655 -65.9123
vt 223.908 274.182
f 30/30/1 21/21/1 31/31/1

f 31/31/1 21/21/1 20/20/1

v 29.0472 0.655 -73.6166
vt 319.685 577.499
f 31/31/1 32/32/1 30/30/1

v 27.8501 0.655 -69.7266
vt 272.556 424.353
f 32/32/1 31/31/1 33/33/1

v 27.8686 0.655 -69.7837
vt 273.284 426.6
f 32/32/1 33/33/1 34/34/1

f 17/17/1 34/34/1 33/33/1

f 34/34/1 17/17/1 16/16/1

v 29.1043 0.655 -73.5981
vt 321.932 576.771
f 32/32/1 34/34/1 35/35/1

f 12/12/1 32/32/1 35/35/1

v 23.9199 0.655 -75.3406
vt 117.824 645.376
f 36/36/1 32/32/1 12/12/1

v 23.9014 0.655 -75.2836
vt 117.096 643.129
f 32/32/1 36/36/1 37/37/1

f 27/27/1 37/37/1 36/36/1

f 27/27/1 29/29/1 37/37/1

v 24.3454 0.655 -76.6539
vt 134.573 697.079
f 27/27/1 36/36/1 38/38/1

v 46.9925 0.655 -69.3803
vt 1026.19 410.718
f 27/27/1 38/38/1 39/39/1

f 39/39/1 38/38/1 11/11/1

v 35.6597 0.655 -72.9886
vt 580.019 552.775
f 39/39/1 11/11/1 40/40/1

f 11/11/1 9/9/1 40/40/1

v 46.917 0.655 -69.3417
vt 1023.22 409.199
f 39/39/1 40/40/1 41/41/1

f 8/8/1 39/39/1 41/41/1

v 46.473 0.655 -67.9714
vt 1005.74 355.249
f 42/42/1 39/39/1 8/8/1

v 43.9832 0.655 -60.2856
vt 907.717 52.66
f 43/43/1 39/39/1 42/42/1

v 43.9647 0.655 -60.2286
vt 906.989 50.4128
f 44/44/1 39/39/1 43/43/1

f 44/44/1 24/24/1 39/39/1

v 43.5744 0.655 -59.0236
vt 891.621 2.97522
f 45/45/1 24/24/1 44/44/1

f 22/22/1 24/24/1 45/45/1

f 1/1/1 44/44/1 43/43/1

v 38.7114 0.655 -61.9935
vt 700.166 119.897
f 46/46/1 44/44/1 1/1/1

f 18/18/1 44/44/1 46/46/1

f 44/44/1 18/18/1 19/19/1

f 46/46/1 1/1/1 3/3/1

f 8/8/1 5/5/1 42/42/1

f 12/12/1 35/35/1 13/13/1

f 2/2/1 14/14/1 15/15/1

f 14/14/1 2/2/1 6/6/1

g Mesh2 Group1 Model

l 38 36

l 11 38

l 40 11

l 41 40

l 8 41

l 9 8

l 9 40

l 12 11

l 36 12

g Mesh3 Group1 Model

l 5 42

l 5 4

l 4 1

l 1 43

l 43 42

g Mesh4 Group1 Model

l 34 35

l 34 16

l 16 13

l 35 13

g Mesh5 Group1 Model

l 3 46

l 2 3

l 15 2

l 18 15

l 18 46

g Mesh6 Group1 Model

l 26 27

l 24 26

l 39 24

l 27 39

g Mesh7 Group1 Model

l 10 7

l 14 10

l 14 6

l 7 6

g Mesh8 Group1 Model

l 30 32

l 29 30

l 37 29

l 37 32

g Mesh9 Group1 Model

l 31 20

l 31 33

l 33 17

l 20 17

g Mesh10 Group1 Model

l 23 21

l 23 22

l 25 23

l 28 25

l 28 21

l 22 19

l 22 45

l 45 44

l 19 44

