# Alias OBJ Model File
# Exported from SketchUp, (c) 2000-2012 Trimble Navigation Limited
# File units = meters

mtllib water.mtl

g Mesh1 Group1 Model

usemtl Water_Pool_Light
v 16.2112 -1.58754 10.9979
vt 6.6483 -4.51031
vn 0 1 -0
v -3.77847 -1.58754 5.04132
vt -1.54957 -2.06747
v -3.77847 -1.58754 10.9979
vt -1.54957 -4.51031
f 1/1/1 2/2/1 3/3/1

v 16.2112 -1.58754 5.04132
vt 6.6483 -2.06747
f 2/2/1 1/1/1 4/4/1

g Mesh2 Group1 Model

v -4.02147 -2.14195 10.9979
vt -1.64923 -4.51031
v -5.60538 -2.14195 9.53832
vt -2.2988 -3.91171
v -5.60538 -2.14195 10.9979
vt -2.2988 -4.51031
f 5/5/1 6/6/1 7/7/1

v -5.60538 -2.14195 2.10232
vt -2.2988 -0.862171
f 6/6/1 5/5/1 8/8/1

v -4.02147 -2.14195 4.73632
vt -1.64923 -1.94239
f 8/8/1 5/5/1 9/9/1

v 0.828139 -2.14195 2.10232
vt 0.339624 -0.862171
f 8/8/1 9/9/1 10/10/1

v 0.828139 -2.14195 4.73632
vt 0.339624 -1.94239
f 10/10/1 9/9/1 11/11/1

g Mesh3 Group1 Model

l 8 6

l 10 8

l 11 10

l 9 11

l 5 9

l 7 5

l 6 7

g Mesh4 Group1 Model

l 1 3

l 4 1

l 2 4

l 3 2

