# Alias OBJ Model File
# Exported from SketchUp, (c) 2000-2012 Trimble Navigation Limited
# File units = meters

mtllib stand_bot.mtl

g Mesh1 Group1 Model

usemtl FrontColor
v -0.0408282 -0.068 0.0930869
vt 3.00407 0.15748
vn -0.0877697 0 0.996141
v -0.0458034 -0.068 0.0929386
vt 2.80811 0.15748
vn 0.0282959 0 0.9996
v -0.0458034 -0.072 0.0929386
vt 2.80811 0
v -0.0408282 -0.072 0.0930869
vt 3.00407 0
f 1/1/1 2/2/2 3/3/2 4/4/1 

v -0.0413831 -0.068 -0.0931217
vt 3.02744 8.80357
vn 0 1 -0
vt 2.85342 1.47836
vt 3.04929 1.47253
f 5/5/3 2/6/3 1/7/3

v -0.0463597 -0.068 -0.093034
vt 2.83151 8.80012
f 6/8/3 2/6/3 5/5/3

v -0.0507622 -0.068 0.0933681
vt 2.65819 1.46146
f 6/8/3 7/9/3 2/6/3

v -0.051313 -0.068 -0.0935238
vt 2.6365 8.8194
f 8/10/3 7/9/3 6/8/3

v -0.0556378 -0.068 0.0943695
vt 2.46624 1.42203
f 8/10/3 9/11/3 7/9/3

v -0.056176 -0.068 -0.0945845
vt 2.44504 8.86116
f 10/12/3 9/11/3 8/10/3

v -0.0603644 -0.068 0.0959293
vt 2.28015 1.36062
f 10/12/3 11/13/3 9/11/3

v -0.0605471 -0.068 0.095994
vt 2.27296 1.35807
f 10/12/3 12/14/3 11/13/3

v -0.0608833 -0.068 -0.0962018
vt 2.25972 8.92484
f 13/15/3 12/14/3 10/12/3

v -0.0608833 -0.068 0.0961131
vt 2.25972 1.35338
f 13/15/3 14/16/3 12/14/3

v -0.0662474 -0.068 -0.097391
vt 2.04853 8.97166
f 15/17/3 14/16/3 13/15/3

v -0.0662474 -0.068 0.0973023
vt 2.04853 1.30657
f 15/17/3 16/18/3 14/16/3

v -0.0717165 -0.068 -0.0979176
vt 1.83321 8.99239
f 17/19/3 16/18/3 15/17/3

v -0.0717165 -0.068 0.0978289
vt 1.83321 1.28583
f 17/19/3 18/20/3 16/18/3

v -0.077209 -0.068 -0.0977738
vt 1.61697 8.98673
f 19/21/3 18/20/3 17/19/3

v -0.077209 -0.068 0.0976851
vt 1.61697 1.2915
f 19/21/3 20/22/3 18/20/3

v -0.0772305 -0.068 -0.0586642
vt 1.61613 7.44698
f 19/21/3 21/23/3 20/22/3

v -0.0772514 -0.068 -0.0595776
vt 1.6153 7.48294
f 19/21/3 22/24/3 21/23/3

v -0.0775081 -0.068 -0.0604545
vt 1.6052 7.51746
f 19/21/3 23/25/3 22/24/3

v -0.0779829 -0.068 -0.0612351
vt 1.5865 7.5482
f 19/21/3 24/26/3 23/25/3

v -0.0786436 -0.068 -0.0618662
vt 1.56049 7.57304
f 19/21/3 25/27/3 24/26/3

v -0.0794452 -0.068 -0.0623048
vt 1.52894 7.59031
f 19/21/3 26/28/3 25/27/3

v -0.0803329 -0.068 -0.062521
vt 1.49399 7.59882
f 19/21/3 27/29/3 26/28/3

v -0.0812464 -0.068 -0.0625
vt 1.45802 7.59799
f 19/21/3 28/30/3 27/29/3

v -0.0821233 -0.068 -0.0622434
vt 1.4235 7.58789
f 19/21/3 29/31/3 28/30/3

v -0.082643 -0.068 -0.0969617
vt 1.40304 8.95475
f 30/32/3 29/31/3 19/21/3

v -0.0829039 -0.068 -0.0617685
vt 1.39277 7.5692
f 30/32/3 31/33/3 29/31/3

v -0.0835349 -0.068 -0.0611078
vt 1.36792 7.54318
f 30/32/3 32/34/3 31/33/3

v -0.0839735 -0.068 -0.0603063
vt 1.35065 7.51163
f 30/32/3 33/35/3 32/34/3

v -0.0841897 -0.068 -0.0594185
vt 1.34214 7.47668
f 30/32/3 34/36/3 33/35/3

v -0.0879376 -0.068 -0.0954934
vt 1.19459 8.89695
f 35/37/3 34/36/3 30/32/3

v -0.0845745 -0.068 0.0588696
vt 1.327 2.81966
f 34/36/3 35/37/3 36/38/3

v -0.0879376 -0.068 0.0954046
vt 1.19459 1.38128
f 35/37/3 37/39/3 36/38/3

v -0.0930137 -0.068 -0.0933908
vt 0.994742 8.81417
f 38/40/3 37/39/3 35/37/3

v -0.0930137 -0.068 0.093302
vt 0.994742 1.46406
f 38/40/3 39/41/3 37/39/3

v -0.0977958 -0.068 -0.0906852
vt 0.806472 8.70765
f 40/42/3 39/41/3 38/40/3

v -0.0977958 -0.068 0.0905965
vt 0.806472 1.57057
f 40/42/3 41/43/3 39/41/3

v -0.100426 -0.068 0.000234872
vt 0.702906 5.12812
f 40/42/3 42/44/3 41/43/3

v -0.100685 -0.068 -0.00473578
vt 0.692721 5.32381
f 40/42/3 43/45/3 42/44/3

v -0.101518 -0.068 -0.00964293
vt 0.659918 5.51701
f 40/42/3 44/46/3 43/45/3

v -0.102212 -0.068 -0.087417
vt 0.632587 8.57898
f 45/47/3 44/46/3 40/42/3

v -0.102915 -0.068 -0.0144204
vt 0.604941 5.7051
f 45/47/3 46/48/3 44/46/3

v -0.104855 -0.068 -0.0190038
vt 0.528532 5.88555
f 45/47/3 47/49/3 46/48/3

v -0.106198 -0.068 -0.083635
vt 0.475678 8.43008
f 48/50/3 47/49/3 45/47/3

v -0.107314 -0.068 -0.0233314
vt 0.431719 6.05592
f 48/50/3 49/51/3 47/49/3

v -0.109693 -0.068 -0.0793954
vt 0.338086 8.26317
f 50/52/3 49/51/3 48/50/3

v -0.110259 -0.068 -0.0273446
vt 0.315809 6.21392
f 50/52/3 51/53/3 49/51/3

v -0.110377 -0.068 -0.0274984
vt 0.311166 6.21998
f 50/52/3 52/54/3 51/53/3

v -0.110594 -0.068 -0.0277814
vt 0.302616 6.23112
f 50/52/3 53/55/3 52/54/3

v -0.112645 -0.068 -0.0747615
vt 0.221861 8.08073
f 54/56/3 53/55/3 50/52/3

v -0.113382 -0.068 -0.0325155
vt 0.192829 6.4175
f 54/56/3 55/57/3 53/55/3

v -0.11501 -0.068 -0.0698023
vt 0.128735 7.88549
f 56/58/3 55/57/3 54/56/3

v -0.115573 -0.068 -0.0375541
vt 0.106574 6.61587
f 56/58/3 57/59/3 55/57/3

v -0.116754 -0.068 -0.0645919
vt 0.0600978 7.68035
f 58/60/3 57/59/3 56/58/3

v -0.117134 -0.068 -0.0428222
vt 0.0451375 6.82328
f 58/60/3 59/61/3 57/59/3

v -0.117849 -0.068 -0.0592078
vt 0.0169718 7.46838
f 60/62/3 59/61/3 58/60/3

v -0.11804 -0.068 -0.0482413
vt 0.00943547 7.03663
f 60/62/3 61/63/3 59/61/3

v -0.11828 -0.068 -0.0537304
vt 0 7.25273
f 61/63/3 60/62/3 62/64/3

vt -7.23038 0.15748
vn -0.999848 0 -0.0174524
vt -7.44669 0.15748
vn -0.990268 0 -0.139173
v -0.117849 -0.072 -0.0592078
vt -7.44669 0
v -0.11828 -0.072 -0.0537304
vt -7.23038 0
f 62/65/4 60/66/5 63/67/5 64/68/4 

vt -7.32183 0.15748
vt -7.53815 0.15748
vn -0.965926 0 -0.258819
v -0.116754 -0.072 -0.0645919
vt -7.53815 0
vt -7.32183 0
f 60/69/5 58/70/6 65/71/6 63/72/5 

vt -7.30253 0.15748
vt -7.51884 0.15748
vn -0.927184 0 -0.374607
v -0.11501 -0.072 -0.0698023
vt -7.51884 0
vt -7.30253 0
f 58/73/6 56/74/7 66/75/7 65/76/6 

vt -7.17275 0.15748
vt -7.38906 0.15748
vn -0.87462 0 -0.48481
v -0.112645 -0.072 -0.0747615
vt -7.38906 0
vt -7.17275 0
f 56/77/7 54/78/8 67/79/8 66/80/7 

vt -6.93442 0.15748
vt -7.15074 0.15748
vn -0.809017 0 -0.587785
v -0.109693 -0.072 -0.0793954
vt -7.15074 0
vt -6.93442 0
f 54/81/8 50/82/9 68/83/9 67/84/8 

vt -6.59111 0.15748
vt -6.80743 0.15748
vn -0.731354 0 -0.681998
v -0.106198 -0.072 -0.083635
vt -6.80743 0
vt -6.59111 0
f 50/85/9 48/86/10 69/87/10 68/88/9 

vt -6.14793 0.15748
vt -6.36424 0.15748
vn -0.642788 0 -0.766044
v -0.102212 -0.072 -0.087417
vt -6.36424 0
vt -6.14793 0
f 48/89/10 45/90/11 70/91/11 69/92/10 

vt -5.61148 0.15748
vt -5.8278 0.15748
vn -0.544639 0 -0.838671
v -0.0977958 -0.072 -0.0906852
vt -5.8278 0
vt -5.61148 0
f 45/93/11 40/94/12 71/95/12 70/96/11 

vt -4.98977 0.15748
vt -5.20608 0.15748
vn -0.438371 0 -0.898794
v -0.0930137 -0.072 -0.0933908
vt -5.20608 0
vt -4.98977 0
f 40/97/12 38/98/13 72/99/13 71/100/12 

vt -4.29206 0.15748
vt -4.50837 0.15748
vn -0.325568 0 -0.945519
v -0.0879376 -0.072 -0.0954934
vt -4.50837 0
vt -4.29206 0
f 38/101/13 35/102/14 73/103/14 72/104/13 

vt -3.52875 0.15748
vt -3.74506 0.15748
vn -0.207912 0 -0.978148
v -0.082643 -0.072 -0.0969617
vt -3.74506 0
vt -3.52875 0
f 35/105/14 30/106/15 74/107/15 73/108/14 

vt -2.71122 0.15748
vt -2.92754 0.15748
vn -0.0871557 0 -0.996195
v -0.077209 -0.072 -0.0977738
vt -2.92754 0
vt -2.71122 0
f 30/109/15 19/110/16 75/111/16 74/112/15 

vt -1.85166 0.15748
vt -2.06798 0.15748
vn 0.0348995 0 -0.999391
v -0.0717165 -0.072 -0.0979176
vt -2.06798 0
vt -1.85166 0
f 19/113/16 17/114/17 76/115/17 75/116/16 

vt -0.962892 0.15748
vt -1.17921 0.15748
vn 0.156434 0 -0.987688
v -0.0662474 -0.072 -0.097391
vt -1.17921 0
vt -0.962892 0
f 17/117/17 15/118/18 77/119/18 76/120/17 

vt -0.0581512 0.15748
vt -0.274465 0.15748
vn 0.271113 0 -0.962547
v -0.0608833 -0.072 -0.0962018
vt -0.274465 0
vt -0.0581512 0
f 15/121/18 13/122/19 78/123/19 77/124/18 

vt 0.762804 0.15748
vt 0.566845 0.15748
vn 0.269469 0 -0.963009
v -0.056176 -0.072 -0.0945845
vt 0.566845 0
vt 0.762804 0
f 13/125/19 10/126/20 79/127/20 78/128/19 

vt -0.500533 0.15748
vt -0.696493 0.15748
vn 0.156019 0 -0.987754
v -0.051313 -0.072 -0.0935238
vt -0.696493 0
vt -0.500533 0
f 10/129/20 8/130/21 80/131/21 79/132/20 

vt -1.7558 0.15748
vt -1.95176 0.15748
vn 0.0404658 0 -0.999181
v -0.0463597 -0.072 -0.093034
vt -1.95176 0
vt -1.7558 0
f 8/133/21 6/134/22 81/135/22 80/136/21 

vt -2.98607 0.15748
vt -3.18203 0.15748
vn -0.0756334 0 -0.997136
v -0.0413831 -0.072 -0.0931217
vt -3.18203 0
vt -2.98607 0
f 6/137/22 5/138/23 82/139/23 81/140/22 

vt -4.17476 0.15748
v -0.0364502 -0.068 -0.0937857
vt -4.37072 0.15748
vn -0.190713 0 -0.981646
v -0.0364502 -0.072 -0.0937857
vt -4.37072 0
vt -4.17476 0
f 5/141/23 83/142/24 84/143/24 82/144/23 

vt 3.22165 8.82971
f 5/5/3 1/7/3 83/145/3

v -0.0359037 -0.068 0.0938109
vt 3.24317 1.44402
f 83/145/3 1/7/3 85/146/3

vt 2.99863 0.15748
vn -0.202652 0 0.979251
vt 2.80267 0.15748
vt 2.80267 0
v -0.0359037 -0.072 0.0938109
vt 2.99863 0
f 85/147/25 1/148/1 4/149/1 86/150/25 

v -0.02209 -0.072 0.0993017
vt -3.78702 1.22785
vn 0 -1 -0
v -0.026471 -0.072 0.0969394
vt -3.61453 1.32085
v -0.0310964 -0.072 0.0951008
vt -3.43243 1.39324
vt -3.24317 1.44402
vt -3.04929 1.47253
vt -2.85342 1.47836
v -0.0507622 -0.072 0.0933681
vt -2.65819 1.46146
v -0.0556378 -0.072 0.0943695
vt -2.46624 1.42203
v -0.0603644 -0.072 0.0959293
vt -2.28015 1.36062
v -0.0605471 -0.072 0.095994
vt -2.27296 1.35807
v -0.0608833 -0.072 0.0961131
vt -2.25972 1.35338
v -0.0662474 -0.072 0.0973023
vt -2.04853 1.30657
v -0.0717165 -0.072 0.0978289
vt -1.83321 1.28583
v -0.077209 -0.072 0.0976851
vt -1.61697 1.2915
v -0.082643 -0.072 0.0968729
vt -1.40304 1.32347
v -0.0879376 -0.072 0.0954046
vt -1.19459 1.38128
v -0.0930137 -0.072 0.093302
vt -0.994742 1.46406
v -0.0977958 -0.072 0.0905965
vt -0.806472 1.57057
v -0.102212 -0.072 0.0873283
vt -0.632587 1.69924
v -0.106198 -0.072 0.0835462
vt -0.475678 1.84814
v -0.109693 -0.072 0.0793066
vt -0.338086 2.01506
v -0.112645 -0.072 0.0746727
vt -0.221861 2.19749
v -0.11501 -0.072 0.0697136
vt -0.128735 2.39273
v -0.116754 -0.072 0.0645032
vt -0.0600978 2.59787
v -0.117849 -0.072 0.0591191
vt -0.0169718 2.80984
v -0.11828 -0.072 0.0536417
vt 0 3.02549
v -0.11804 -0.072 0.0481525
vt -0.00943547 3.2416
v -0.117134 -0.072 0.0427335
vt -0.0451375 3.45494
v -0.115573 -0.072 0.0374654
vt -0.106574 3.66235
v -0.113382 -0.072 0.0324267
vt -0.192829 3.86072
v -0.110594 -0.072 0.0276926
vt -0.302616 4.0471
v -0.107601 -0.072 0.0237155
vt -0.420442 4.20368
v -0.105089 -0.072 0.0194182
vt -0.519322 4.37287
v -0.103093 -0.072 0.0148588
vt -0.597923 4.55237
v -0.101638 -0.072 0.0100987
vt -0.655186 4.73978
v -0.100746 -0.072 0.00520201
vt -0.690338 4.93256
v -0.100426 -0.072 0.000234872
vt -0.702906 5.12812
v -0.100685 -0.072 -0.00473578
vt -0.692721 5.32381
v -0.101518 -0.072 -0.00964293
vt -0.659918 5.51701
v -0.102915 -0.072 -0.0144204
vt -0.604941 5.7051
v -0.104855 -0.072 -0.0190038
vt -0.528532 5.88555
v -0.107314 -0.072 -0.0233314
vt -0.431719 6.05592
v -0.110259 -0.072 -0.0273446
vt -0.315809 6.21392
v -0.110377 -0.072 -0.0274984
vt -0.311166 6.21998
v -0.110594 -0.072 -0.0277814
vt -0.302616 6.23112
v -0.113382 -0.072 -0.0325155
vt -0.192829 6.4175
v -0.115573 -0.072 -0.0375541
vt -0.106574 6.61587
v -0.117134 -0.072 -0.0428222
vt -0.0451375 6.82328
v -0.11804 -0.072 -0.0482413
vt -0.00943547 7.03663
vt -0.0169718 7.46838
vt -0.0600978 7.68035
vt -0.128735 7.88549
vt -0.221861 8.08073
vt -0.338086 8.26317
vt -0.475678 8.43008
vt -0.632587 8.57898
vt -0.806472 8.70765
vt -0.994742 8.81417
vt -1.19459 8.89695
vt -1.40304 8.95475
vt -1.61697 8.98673
vt -1.83321 8.99239
vt -2.04853 8.97166
vt -2.25972 8.92484
vt -2.44504 8.86116
vt -2.6365 8.8194
vt -2.83151 8.80012
vt -3.02744 8.80357
vt -3.22165 8.82971
v -0.0316276 -0.072 -0.095017
vt -3.41152 8.87819
v -0.0269801 -0.072 -0.0967991
vt -3.59449 8.94835
v -0.0225706 -0.072 -0.0991079
vt -3.76809 9.03925
v -0.0184585 -0.072 -0.101912
vt -3.92999 9.14966
v -0.0146991 -0.072 -0.105174
vt -4.07799 9.27809
v -0.0113433 -0.072 -0.10885
vt -4.21011 9.42281
v -0.00843621 -0.072 -0.112891
vt -4.32456 9.58187
v -0.00832647 -0.072 -0.11305
vt -4.32888 9.58816
v -0.00812443 -0.072 -0.113344
vt -4.33684 9.59973
v -0.00448375 -0.072 -0.117459
vt -4.48017 9.76174
v -0.000368708 -0.072 -0.1211
vt -4.64218 9.90508
v 0.00415934 -0.072 -0.124212
vt -4.82045 10.0276
v 0.00903291 -0.072 -0.126749
vt -5.01233 10.1275
v 0.0141793 -0.072 -0.128673
vt -5.21494 10.2032
v 0.0195219 -0.072 -0.129956
vt -5.42528 10.2537
v 0.0249809 -0.072 -0.130578
vt -5.6402 10.2782
v 0.0304751 -0.072 -0.13053
vt -5.85651 10.2763
v 0.0359225 -0.072 -0.129813
vt -6.07097 10.2481
v 0.0412418 -0.072 -0.128437
vt -6.28039 10.1939
v 0.0463539 -0.072 -0.126423
vt -6.48165 10.1147
v 0.0511824 -0.072 -0.123802
vt -6.67175 10.0114
v 0.0556555 -0.072 -0.120611
vt -6.84786 9.88583
v 0.0597063 -0.072 -0.116899
vt -7.00734 9.73969
v 0.0632747 -0.072 -0.112721
vt -7.14783 9.5752
v 0.0663072 -0.072 -0.108139
vt -7.26722 9.39482
v 0.0687588 -0.072 -0.103222
vt -7.36374 9.20124
v 0.0705928 -0.072 -0.0980431
vt -7.43594 8.99733
v 0.071782 -0.072 -0.092679
vt -7.48276 8.78614
v 0.0723086 -0.072 -0.0872099
vt -7.5035 8.57083
v 0.0722252 -0.072 -0.0822333
vt -7.50021 8.37489
v 0.0727191 -0.072 -0.0772804
vt -7.51966 8.1799
v 0.0737839 -0.072 -0.0724183
vt -7.56158 7.98848
v 0.0754052 -0.072 -0.0677123
vt -7.62541 7.8032
v 0.077561 -0.072 -0.0632261
vt -7.71028 7.62658
v 0.0802223 -0.072 -0.0590199
vt -7.81506 7.46098
v 0.0833533 -0.072 -0.0551506
vt -7.93833 7.30865
v 0.0869117 -0.072 -0.0516704
vt -8.07842 7.17163
v 0.0908496 -0.072 -0.0486261
vt -8.23345 7.05178
v 0.0951138 -0.072 -0.0460589
vt -8.40134 6.9507
v 0.0996468 -0.072 -0.0440032
vt -8.5798 6.86977
v 0.104388 -0.072 -0.0424869
vt -8.76645 6.81008
v 0.104573 -0.072 -0.0424319
vt -8.77376 6.80791
v 0.104915 -0.072 -0.0423305
vt -8.78723 6.80392
v 0.109954 -0.072 -0.0401397
vt -8.9856 6.71767
v 0.114688 -0.072 -0.0373511
vt -9.17198 6.60788
v 0.119047 -0.072 -0.0340063
vt -9.3436 6.47619
v 0.122966 -0.072 -0.0301552
vt -9.49788 6.32458
v 0.126386 -0.072 -0.0258553
vt -9.63254 6.15529
v 0.129257 -0.072 -0.0211706
vt -9.74556 5.97085
v 0.131536 -0.072 -0.0161709
vt -9.83527 5.77401
v 0.133188 -0.072 -0.0109309
vt -9.90031 5.56771
v 0.134189 -0.072 -0.00552849
vt -9.93973 5.35502
v 0.134525 -0.072 -4.43702e-05
vt -9.95294 5.13911
v 0.134189 -0.072 0.00543975
vt -9.93973 4.9232
v 0.133188 -0.072 0.0108421
vt -9.90031 4.71051
v 0.131536 -0.072 0.0160822
vt -9.83527 4.50421
v 0.129257 -0.072 0.0210819
vt -9.74556 4.30737
v 0.126386 -0.072 0.0257666
vt -9.63254 4.12293
v 0.122966 -0.072 0.0300665
vt -9.49788 3.95364
v 0.119047 -0.072 0.0339176
vt -9.3436 3.80203
v 0.114688 -0.072 0.0372623
vt -9.17198 3.67034
v 0.109954 -0.072 0.0400509
vt -8.9856 3.56056
v 0.104915 -0.072 0.0422418
vt -8.78723 3.4743
v 0.100157 -0.072 0.0437003
vt -8.59987 3.41688
v 0.0955988 -0.072 0.0457006
vt -8.42043 3.33813
v 0.0913036 -0.072 0.0482157
vt -8.25133 3.23911
v 0.087329 -0.072 0.0512118
vt -8.09485 3.12115
v 0.0837285 -0.072 0.0546485
vt -7.9531 2.98585
v 0.0805506 -0.072 0.0584794
vt -7.82798 2.83503
v 0.0778382 -0.072 0.0626528
vt -7.7212 2.67072
v 0.0756279 -0.072 0.0671125
vt -7.63418 2.49514
v 0.0739495 -0.072 0.0717983
vt -7.5681 2.31066
v 0.0728256 -0.072 0.0766472
vt -7.52385 2.11976
v 0.0722714 -0.072 0.0815936
vt -7.50203 1.92502
v 0.0722942 -0.072 0.0865709
vt -7.50293 1.72906
v 0.0722993 -0.072 0.0867646
vt -7.50313 1.72143
v 0.0723086 -0.072 0.0871212
vt -7.5035 1.7074
v 0.071782 -0.072 0.0925903
vt -7.48276 1.49208
v 0.0705928 -0.072 0.0979544
vt -7.43594 1.28089
v 0.0687588 -0.072 0.103134
vt -7.36374 1.07699
v 0.0663072 -0.072 0.108051
vt -7.26722 0.883399
v 0.0632747 -0.072 0.112632
vt -7.14783 0.703018
v 0.0597063 -0.072 0.11681
vt -7.00734 0.538532
v 0.0556555 -0.072 0.120522
vt -6.84786 0.392392
v 0.0511824 -0.072 0.123713
vt -6.67175 0.266778
v 0.0463539 -0.072 0.126335
vt -6.48165 0.163562
v 0.0412418 -0.072 0.128348
vt -6.28039 0.0842829
v 0.0359225 -0.072 0.129724
vt -6.07097 0.0301223
v 0.0304751 -0.072 0.130441
vt -5.85651 0.00188767
v 0.0249809 -0.072 0.130489
vt -5.6402 0
v 0.0195219 -0.072 0.129867
vt -5.42528 0.0244874
v 0.0141793 -0.072 0.128584
vt -5.21494 0.0749848
v 0.00903291 -0.072 0.12666
vt -5.01233 0.15074
v 0.00415934 -0.072 0.124123
vt -4.82045 0.250622
v -0.000368708 -0.072 0.121011
vt -4.64218 0.373144
v -0.00448375 -0.072 0.117371
vt -4.48017 0.516477
v -0.00812443 -0.072 0.113255
vt -4.33684 0.678487
v -0.0109821 -0.072 0.10918
vt -4.22433 0.838931
v -0.0142929 -0.072 0.105464
vt -4.09398 0.985252
v -0.0180123 -0.072 0.102156
vt -3.94755 1.11548
f 87/151/26 88/152/26 89/153/26 86/154/26 4/155/26 3/156/26 90/157/26 91/158/26 92/159/26 93/160/26 94/161/26 95/162/26 96/163/26 97/164/26 98/165/26 99/166/26 100/167/26 101/168/26 102/169/26 103/170/26 104/171/26 105/172/26 106/173/26 107/174/26 108/175/26 109/176/26 110/177/26 111/178/26 112/179/26 113/180/26 114/181/26 115/182/26 116/183/26 117/184/26 118/185/26 119/186/26 120/187/26 121/188/26 122/189/26 123/190/26 124/191/26 125/192/26 126/193/26 127/194/26 128/195/26 129/196/26 130/197/26 131/198/26 132/199/26 64/64/26 63/200/26 65/201/26 66/202/26 67/203/26 68/204/26 69/205/26 70/206/26 71/207/26 72/208/26 73/209/26 74/210/26 75/211/26 76/212/26 77/213/26 78/214/26 79/215/26 80/216/26 81/217/26 82/218/26 84/219/26 133/220/26 134/221/26 135/222/26 136/223/26 137/224/26 138/225/26 139/226/26 140/227/26 141/228/26 142/229/26 143/230/26 144/231/26 145/232/26 146/233/26 147/234/26 148/235/26 149/236/26 150/237/26 151/238/26 152/239/26 153/240/26 154/241/26 155/242/26 156/243/26 157/244/26 158/245/26 159/246/26 160/247/26 161/248/26 162/249/26 163/250/26 164/251/26 165/252/26 166/253/26 167/254/26 168/255/26 169/256/26 170/257/26 171/258/26 172/259/26 173/260/26 174/261/26 175/262/26 176/263/26 177/264/26 178/265/26 179/266/26 180/267/26 181/268/26 182/269/26 183/270/26 184/271/26 185/272/26 186/273/26 187/274/26 188/275/26 189/276/26 190/277/26 191/278/26 192/279/26 193/280/26 194/281/26 195/282/26 196/283/26 197/284/26 198/285/26 199/286/26 200/287/26 201/288/26 202/289/26 203/290/26 204/291/26 205/292/26 206/293/26 207/294/26 208/295/26 209/296/26 210/297/26 211/298/26 212/299/26 213/300/26 214/301/26 215/302/26 216/303/26 217/304/26 218/305/26 219/306/26 220/307/26 221/308/26 222/309/26 223/310/26 224/311/26 225/312/26 226/313/26 227/314/26 228/315/26 229/316/26 230/317/26 231/318/26 232/319/26 

v -0.02209 -0.068 0.0993017
vt 2.75057 0.15748
vn -0.524913 0 0.851156
v -0.026471 -0.068 0.0969394
vt 2.55461 0.15748
vn -0.422707 0 0.906266
vt 2.55461 0
vt 2.75057 0
f 233/320/27 234/321/28 88/322/28 87/323/27 

v -0.0225706 -0.068 -0.0991079
vt 3.76809 9.03925
vt 3.61453 1.32085
vt 3.78702 1.22785
f 235/324/3 234/325/3 233/326/3

v -0.0269801 -0.068 -0.0967991
vt 3.59449 8.94835
f 236/327/3 234/325/3 235/324/3

v -0.0310964 -0.068 0.0951008
vt 3.43243 1.39324
f 236/327/3 237/328/3 234/325/3

v -0.0316276 -0.068 -0.095017
vt 3.41152 8.87819
f 238/329/3 237/328/3 236/327/3

f 238/329/3 85/146/3 237/328/3

f 83/145/3 85/146/3 238/329/3

vt -5.30584 0.15748
vt -5.5018 0.15748
vn -0.303221 0 -0.95292
vt -5.5018 0
vt -5.30584 0
f 83/330/24 238/331/29 133/332/29 84/333/24 

vt -6.36406 0.15748
vt -6.56002 0.15748
vn -0.41164 0 -0.911346
vt -6.56002 0
vt -6.36406 0
f 238/334/29 236/335/30 134/336/30 133/337/29 

vt -7.33515 0.15748
vt -7.53111 0.15748
vn -0.51451 0 -0.857485
vt -7.53111 0
vt -7.33515 0
f 236/338/30 235/339/31 135/340/31 134/341/30 

vt -8.20602 0.15748
v -0.0184585 -0.068 -0.101912
vt -8.40198 0.15748
vn -0.610442 0 -0.792061
vt -8.40198 0
vt -8.20602 0
f 235/342/31 239/343/32 136/344/32 135/345/31 

vt 3.92999 9.14966
f 235/324/3 233/326/3 239/346/3

v -0.0180123 -0.068 0.102156
vt 3.94755 1.11548
f 239/346/3 233/326/3 240/347/3

vt 2.59435 0.15748
vn -0.620041 0 0.784569
vt 2.39839 0.15748
vt 2.39839 0
vt 2.59435 0
f 240/348/33 233/349/27 87/350/27 232/351/33 

v -0.0142929 -0.068 0.105464
vt 2.40447 0.15748
vn -0.70681 0 0.707404
vt 2.20851 0.15748
vt 2.20851 0
vt 2.40447 0
f 241/352/34 240/353/33 232/354/33 231/355/34 

v -0.0146991 -0.068 -0.105174
vt 4.07799 9.27809
vt 4.09398 0.985252
f 242/356/3 240/347/3 241/357/3

f 239/346/3 240/347/3 242/356/3

vt -8.96492 0.15748
vt -9.16088 0.15748
vn -0.698143 0 -0.715958
vt -9.16088 0
vt -8.96492 0
f 239/358/32 242/359/35 137/360/35 136/361/32 

vt -9.60163 0.15748
v -0.0113433 -0.068 -0.10885
vt -9.79759 0.15748
vn -0.776431 0 -0.630202
vt -9.79759 0
vt -9.60163 0
f 242/362/35 243/363/36 138/364/36 137/365/35 

vt 4.21011 9.42281
f 242/356/3 241/357/3 243/366/3

v -0.0109821 -0.068 0.10918
vt 4.22433 0.838931
f 243/366/3 241/357/3 244/367/3

vt 2.1835 0.15748
vn -0.784048 0 0.620701
vt 1.98754 0.15748
vt 1.98754 0
vt 2.1835 0
f 244/368/37 241/369/34 231/370/34 230/371/37 

v -0.00812443 -0.068 0.113255
vt 1.9344 0.15748
vn -0.785107 0 0.619361
vt 1.73844 0.15748
vt 1.73844 0
vt 1.9344 0
f 245/372/38 244/373/37 230/374/37 229/375/38 

v -0.00843621 -0.068 -0.112891
vt 4.32456 9.58187
vt 4.33684 0.678487
f 246/376/3 244/367/3 245/377/3

f 243/366/3 244/367/3 246/376/3

vt -10.1076 0.15748
vt -10.3035 0.15748
vn -0.817966 0 -0.575267
vt -10.3035 0
vt -10.1076 0
f 243/378/36 246/379/39 139/380/39 138/381/36 

vt -10.3461 0.15748
v -0.00832647 -0.068 -0.11305
vt -10.3538 0.15748
vn -0.824126 0 -0.566406
vt -10.3538 0
vt -10.3461 0
f 246/382/39 247/383/40 140/384/40 139/385/39 

vt 4.32888 9.58816
f 246/376/3 245/377/3 247/386/3

v -0.00812443 -0.068 -0.113344
vt 4.33684 9.59973
f 247/386/3 245/377/3 248/387/3

v -0.00448375 -0.068 0.117371
vt 4.48017 0.516477
f 248/387/3 245/377/3 249/388/3

vt 2.58183 0.15748
vn -0.707107 0 0.707107
vt 2.36552 0.15748
vt 2.36552 0
vt 2.58183 0
f 249/389/41 245/390/38 229/391/38 228/392/41 

v -0.000368708 -0.068 0.121011
vt 3.22954 0.15748
vn -0.615661 0 0.788011
vt 3.01322 0.15748
vt 3.01322 0
vt 3.22954 0
f 250/393/42 249/394/41 228/395/41 227/396/42 

v -0.00448375 -0.068 -0.117459
vt 4.48017 9.76174
vt 4.64218 0.373144
f 251/397/3 249/388/3 250/398/3

f 248/387/3 249/388/3 251/397/3

vt -10.0635 0.15748
vn -0.788011 0 -0.615661
vt -10.2798 0.15748
vn -0.707107 0 -0.707107
vt -10.2798 0
vt -10.0635 0
f 248/399/43 251/400/44 142/401/44 141/402/43 

vt -9.82378 0.15748
v -0.000368708 -0.068 -0.1211
vt -10.0401 0.15748
vn -0.615661 0 -0.788011
vt -10.0401 0
vt -9.82378 0
f 251/403/44 252/404/45 143/405/45 142/406/44 

vt 4.64218 9.90508
f 251/397/3 250/398/3 252/407/3

v 0.00415934 -0.068 0.124123
vt 4.82045 0.250622
f 252/407/3 250/398/3 253/408/3

vt 3.83071 0.15748
vn -0.515038 0 0.857167
vt 3.61439 0.15748
vt 3.61439 0
vt 3.83071 0
f 253/409/46 250/410/42 227/411/42 226/412/46 

v 0.00903291 -0.068 0.12666
vt 4.37638 0.15748
vn -0.406737 0 0.913545
vt 4.16007 0.15748
vt 4.16007 0
vt 4.37638 0
f 254/413/47 253/414/46 226/415/46 225/416/47 

v 0.00415934 -0.068 -0.124212
vt 4.82045 10.0276
vt 5.01233 0.15074
f 255/417/3 253/408/3 254/418/3

f 252/407/3 253/408/3 255/417/3

vt -9.43604 0.15748
vt -9.65236 0.15748
vn -0.515038 0 -0.857167
vt -9.65236 0
vt -9.43604 0
f 252/419/45 255/420/48 144/421/48 143/422/45 

vt -8.90602 0.15748
v 0.00903291 -0.068 -0.126749
vt -9.12234 0.15748
vn -0.406737 0 -0.913545
vt -9.12234 0
vt -8.90602 0
f 255/423/48 256/424/49 145/425/49 144/426/48 

vt 5.01233 10.1275
f 255/417/3 254/418/3 256/427/3

v 0.0141793 -0.068 0.128584
vt 5.21494 0.0749848
f 256/427/3 254/418/3 257/428/3

vt 4.85843 0.15748
vn -0.292372 0 0.956305
vt 4.64212 0.15748
vt 4.64212 0
vt 4.85843 0
f 257/429/50 254/430/47 225/431/47 224/432/50 

v 0.0195219 -0.068 0.129867
vt 5.26966 0.15748
vn -0.173648 0 0.984808
vt 5.05335 0.15748
vt 5.05335 0
vt 5.26966 0
f 258/433/51 257/434/50 224/435/50 223/436/51 

v 0.0141793 -0.068 -0.128673
vt 5.21494 10.2032
vt 5.42528 0.0244874
f 259/437/3 257/428/3 258/438/3

f 256/427/3 257/428/3 259/437/3

vt -8.24162 0.15748
vt -8.45794 0.15748
vn -0.292372 0 -0.956305
vt -8.45794 0
vt -8.24162 0
f 256/439/49 259/440/52 146/441/52 145/442/49 

vt -7.45275 0.15748
v 0.0195219 -0.068 -0.129956
vt -7.66906 0.15748
vn -0.173648 0 -0.984808
vt -7.66906 0
vt -7.45275 0
f 259/443/52 260/444/53 147/445/53 146/446/52 

vt 5.42528 10.2537
f 259/437/3 258/438/3 260/447/3

v 0.0249809 -0.068 0.130489
vt 5.6402 0
f 260/447/3 258/438/3 261/448/3

vt 5.60394 0.15748
vn -0.052336 0 0.99863
vt 5.38763 0.15748
vt 5.38763 0
vt 5.60394 0
f 261/449/54 258/450/51 223/451/51 222/452/54 

v 0.0304751 -0.068 0.130441
vt 5.8563 0.15748
vn 0.0697565 0 0.997564
vt 5.63999 0.15748
vt 5.63999 0
vt 5.8563 0
f 262/453/55 261/454/54 222/455/54 221/456/55 

v 0.0270964 -0.068 0.0953775
vt 5.72349 1.38235
vt 5.85651 0.00188767
f 263/457/3 261/448/3 262/458/3

v 0.0249809 -0.068 -0.130578
vt 5.6402 10.2782
f 264/459/3 261/448/3 263/457/3

f 260/447/3 261/448/3 264/459/3

vt -6.55116 0.15748
vt -6.76747 0.15748
vn -0.052336 0 -0.99863
vt -6.76747 0
vt -6.55116 0
f 260/460/53 264/461/56 148/462/56 147/463/53 

vt -5.55029 0.15748
v 0.0304751 -0.068 -0.13053
vt -5.76661 0.15748
vn 0.0697565 0 -0.997564
vt -5.76661 0
vt -5.55029 0
f 264/464/56 265/465/57 149/466/57 148/467/56 

v 0.0277163 -0.068 -0.0951992
vt 5.74789 8.88536
vt 5.85651 10.2763
f 264/459/3 266/468/3 265/469/3

f 266/468/3 264/459/3 263/457/3

v 0.0271711 -0.068 0.0944668
vt 5.72643 1.4182
f 266/468/3 263/457/3 267/470/3

v 0.0282418 -0.068 0.097799
vt 5.76858 1.28701
v 0.0289931 -0.068 0.098319
vt 5.79816 1.26654
v 0.0298534 -0.068 0.0986268
vt 5.83203 1.25442
v 0.030764 -0.068 0.0987014
vt 5.86788 1.25148
v 0.0316629 -0.068 0.0985379
vt 5.90327 1.25792
v 0.0324889 -0.068 0.0981472
vt 5.93579 1.2733
v 0.0331856 -0.068 0.0975561
vt 5.96322 1.29657
v 0.0337055 -0.068 0.0968048
vt 5.98369 1.32615
v 0.0340133 -0.068 0.0959445
vt 5.99581 1.36002
v 0.034088 -0.068 0.0950339
vt 5.99874 1.39587
v 0.0339244 -0.068 0.0941349
vt 5.9923 1.43126
v 0.0335337 -0.068 0.093309
vt 5.97692 1.46378
v 0.0329426 -0.068 0.0926123
vt 5.95365 1.49121
v 0.0321913 -0.068 0.0920923
vt 5.92407 1.51168
v 0.031331 -0.068 0.0917845
vt 5.8902 1.5238
v 0.0304204 -0.068 0.0917099
vt 5.85435 1.52674
v 0.0295215 -0.068 0.0918735
vt 5.81896 1.5203
v 0.0286955 -0.068 0.0922641
vt 5.78644 1.50492
v 0.0279988 -0.068 0.0928553
vt 5.75901 1.48165
v 0.0274789 -0.068 0.0936066
vt 5.73854 1.45207
v 0.02726 -0.068 0.0962764
vt 5.72993 1.34696
v 0.0276507 -0.068 0.0971023
vt 5.74531 1.31444
f 268/471/3 269/472/3 270/473/3 271/474/3 272/475/3 273/476/3 274/477/3 275/478/3 276/479/3 277/480/3 278/481/3 279/482/3 280/483/3 281/484/3 282/485/3 283/486/3 284/487/3 285/488/3 286/489/3 287/490/3 267/470/3 263/457/3 288/491/3 289/492/3 

f 268/471/3 262/458/3 269/472/3

f 289/492/3 262/458/3 268/471/3

f 288/491/3 262/458/3 289/492/3

f 263/457/3 262/458/3 288/491/3

f 269/472/3 262/458/3 270/473/3

f 270/473/3 262/458/3 271/474/3

v 0.0359225 -0.068 0.129724
vt 6.07097 0.0301223
f 271/474/3 262/458/3 290/493/3

vt 6.02296 0.15748
vn 0.190809 0 0.981627
vt 5.80665 0.15748
vt 5.80665 0
vt 6.02296 0
f 290/494/58 262/495/55 221/496/55 220/497/58 

v 0.0412418 -0.068 0.128348
vt 6.10145 0.15748
vn 0.309017 0 0.951057
vt 5.88514 0.15748
vt 5.88514 0
vt 6.10145 0
f 291/498/59 290/499/58 220/500/58 219/501/59 

v 0.0359225 -0.068 -0.129813
vt 6.07097 10.2481
vt 6.28039 0.0842829
f 292/502/3 290/493/3 291/503/3

v 0.0347055 -0.068 -0.0948101
vt 6.02306 8.87004
f 292/502/3 293/504/3 290/493/3

v 0.0346367 -0.068 -0.0957212
vt 6.02035 8.90591
f 292/502/3 294/505/3 293/504/3

v 0.0343346 -0.068 -0.0965835
vt 6.00845 8.93986
f 292/502/3 295/506/3 294/505/3

v 0.0338195 -0.068 -0.0973381
vt 5.98817 8.96957
f 292/502/3 296/507/3 295/506/3

v 0.0331267 -0.068 -0.0979338
vt 5.9609 8.99302
f 292/502/3 297/508/3 296/507/3

v 0.0323033 -0.068 -0.0983298
vt 5.92848 9.00862
f 292/502/3 298/509/3 297/508/3

v 0.0314054 -0.068 -0.0984992
vt 5.89313 9.01529
f 292/502/3 299/510/3 298/509/3

v 0.0304943 -0.068 -0.0984305
vt 5.85726 9.01258
f 292/502/3 300/511/3 299/510/3

f 265/469/3 300/511/3 292/502/3

v 0.0296321 -0.068 -0.0981283
vt 5.82332 9.00068
f 265/469/3 301/512/3 300/511/3

v 0.0288774 -0.068 -0.0976132
vt 5.7936 8.98041
f 265/469/3 302/513/3 301/512/3

v 0.0282817 -0.068 -0.0969204
vt 5.77015 8.95313
f 265/469/3 303/514/3 302/513/3

v 0.0278857 -0.068 -0.096097
vt 5.75456 8.92071
f 265/469/3 304/515/3 303/514/3

f 265/469/3 266/468/3 304/515/3

v 0.027785 -0.068 -0.0942881
vt 5.7506 8.84949
v 0.0280872 -0.068 -0.0934258
vt 5.76249 8.81555
v 0.0286023 -0.068 -0.0926712
vt 5.78277 8.78583
v 0.0292951 -0.068 -0.0920755
vt 5.81005 8.76238
v 0.0301185 -0.068 -0.0916795
vt 5.84247 8.74679
v 0.0310163 -0.068 -0.09151
vt 5.87781 8.74012
v 0.0319274 -0.068 -0.0915788
vt 5.91368 8.74283
v 0.0327897 -0.068 -0.091881
vt 5.94763 8.75472
v 0.0335444 -0.068 -0.092396
vt 5.97734 8.775
v 0.03414 -0.068 -0.0930889
vt 6.00079 8.80228
v 0.034536 -0.068 -0.0939123
vt 6.01639 8.8347
f 294/505/3 295/506/3 296/507/3 297/508/3 298/509/3 299/510/3 300/511/3 301/512/3 302/513/3 303/514/3 304/515/3 266/468/3 305/516/3 306/517/3 307/518/3 308/519/3 309/520/3 310/521/3 311/522/3 312/523/3 313/524/3 314/525/3 315/526/3 293/504/3 

f 266/468/3 286/489/3 305/516/3

f 286/489/3 266/468/3 287/490/3

f 266/468/3 267/470/3 287/490/3

f 305/516/3 286/489/3 306/517/3

f 306/517/3 286/489/3 285/488/3

f 306/517/3 285/488/3 307/518/3

f 307/518/3 285/488/3 308/519/3

f 308/519/3 285/488/3 284/487/3

f 308/519/3 284/487/3 309/520/3

f 309/520/3 284/487/3 283/486/3

f 309/520/3 283/486/3 310/521/3

f 310/521/3 283/486/3 282/485/3

f 310/521/3 282/485/3 311/522/3

f 311/522/3 282/485/3 281/484/3

f 311/522/3 281/484/3 312/523/3

f 312/523/3 281/484/3 280/483/3

f 312/523/3 280/483/3 313/524/3

f 313/524/3 280/483/3 279/482/3

f 313/524/3 279/482/3 278/481/3

f 313/524/3 278/481/3 314/525/3

f 314/525/3 278/481/3 277/480/3

f 277/480/3 290/493/3 314/525/3

f 276/479/3 290/493/3 277/480/3

f 275/478/3 290/493/3 276/479/3

f 274/477/3 290/493/3 275/478/3

f 273/476/3 290/493/3 274/477/3

f 272/475/3 290/493/3 273/476/3

f 271/474/3 290/493/3 272/475/3

f 314/525/3 290/493/3 315/526/3

f 315/526/3 290/493/3 293/504/3

vt -4.46507 0.15748
vt -4.68139 0.15748
vn 0.190809 0 -0.981627
vt -4.68139 0
vt -4.46507 0
f 265/527/57 292/528/60 150/529/60 149/530/57 

vt -3.31168 0.15748
v 0.0412418 -0.068 -0.128437
vt -3.52799 0.15748
vn 0.309017 0 -0.951057
vt -3.52799 0
vt -3.31168 0
f 292/531/60 316/532/61 151/533/61 150/534/60 

vt 6.28039 10.1939
f 292/502/3 291/503/3 316/535/3

v 0.0463539 -0.068 0.126335
vt 6.48165 0.163562
f 316/535/3 291/503/3 317/536/3

vt 6.09059 0.15748
vn 0.422618 0 0.906308
vt 5.87428 0.15748
vt 5.87428 0
vt 6.09059 0
f 317/537/62 291/538/59 219/539/59 218/540/62 

v 0.0511824 -0.068 0.123713
vt 5.99055 0.15748
vn 0.529919 0 0.848048
vt 5.77423 0.15748
vt 5.77423 0
vt 5.99055 0
f 318/541/63 317/542/62 218/543/62 217/544/63 

v 0.0463539 -0.068 -0.126423
vt 6.48165 10.1147
vt 6.67175 0.266778
f 319/545/3 317/536/3 318/546/3

f 316/535/3 317/536/3 319/545/3

vt -2.1073 0.15748
vt -2.32361 0.15748
vn 0.422618 0 -0.906308
vt -2.32361 0
vt -2.1073 0
f 316/547/61 319/548/64 152/549/64 151/550/61 

vt -0.869891 0.15748
v 0.0511824 -0.068 -0.123802
vt -1.0862 0.15748
vn 0.529919 0 -0.848048
vt -1.0862 0
vt -0.869891 0
f 319/551/64 320/552/65 153/553/65 152/554/64 

vt 6.67175 10.0114
f 319/545/3 318/546/3 320/555/3

v 0.0556555 -0.068 0.120522
vt 6.84786 0.392392
f 320/555/3 318/546/3 321/556/3

vt 5.80281 0.15748
vn 0.62932 0 0.777146
vt 5.5865 0.15748
vt 5.5865 0
vt 5.80281 0
f 321/557/66 318/558/63 217/559/63 216/560/66 

v 0.0597063 -0.068 0.11681
vt 5.53018 0.15748
vn 0.71934 0 0.694658
vt 5.31387 0.15748
vt 5.31387 0
vt 5.53018 0
f 322/561/67 321/562/66 216/563/66 215/564/67 

v 0.0556555 -0.068 -0.120611
vt 6.84786 9.88583
vt 7.00734 0.538532
f 323/565/3 321/556/3 322/566/3

f 320/555/3 321/556/3 323/565/3

vt 0.382096 0.15748
vt 0.165782 0.15748
vn 0.62932 0 -0.777146
vt 0.165782 0
vt 0.382096 0
f 320/567/65 323/568/68 154/569/68 153/570/65 

vt 1.63 0.15748
v 0.0597063 -0.068 -0.116899
vt 1.41368 0.15748
vn 0.71934 0 -0.694658
vt 1.41368 0
vt 1.63 0
f 323/571/68 324/572/69 155/573/69 154/574/68 

vt 7.00734 9.73969
f 323/565/3 322/566/3 324/575/3

v 0.0632747 -0.068 0.112632
vt 7.14783 0.703018
f 324/575/3 322/566/3 325/576/3

vt 5.17672 0.15748
vn 0.798636 0 0.601815
vt 4.96041 0.15748
vt 4.96041 0
vt 5.17672 0
f 325/577/70 322/578/67 215/579/67 214/580/70 

v 0.0663072 -0.068 0.108051
vt 4.7477 0.15748
vn 0.866025 0 0.5
vt 4.53139 0.15748
vt 4.53139 0
vt 4.7477 0
f 326/581/71 325/582/70 214/583/70 213/584/71 

v 0.0632747 -0.068 -0.112721
vt 7.14783 9.5752
vt 7.26722 0.883399
f 327/585/3 325/576/3 326/586/3

f 324/575/3 325/576/3 327/585/3

vt 2.85521 0.15748
vt 2.6389 0.15748
vn 0.798636 0 -0.601815
vt 2.6389 0
vt 2.85521 0
f 324/587/69 327/588/72 156/589/72 155/590/69 

vt 4.03948 0.15748
v 0.0663072 -0.068 -0.108139
vt 3.82316 0.15748
vn 0.866025 0 -0.5
vt 3.82316 0
vt 4.03948 0
f 327/591/72 328/592/73 157/593/73 156/594/72 

vt 7.26722 9.39482
f 327/585/3 326/586/3 328/595/3

v 0.0687588 -0.068 0.103134
vt 7.36374 1.07699
f 328/595/3 326/586/3 329/596/3

vt 4.24951 0.15748
vn 0.920505 0 0.390731
vt 4.0332 0.15748
vt 4.0332 0
vt 4.24951 0
f 329/597/74 326/598/71 213/599/71 212/600/74 

v 0.0705928 -0.068 0.0979544
vt 3.68959 0.15748
vn 0.961262 0 0.275637
vt 3.47328 0.15748
vt 3.47328 0
vt 3.68959 0
f 330/601/75 329/602/74 212/603/74 211/604/75 

v 0.0687588 -0.068 -0.103222
vt 7.36374 9.20124
vt 7.43594 1.28089
f 331/605/3 329/596/3 330/606/3

f 328/595/3 329/596/3 331/605/3

vt 5.16513 0.15748
vt 4.94882 0.15748
vn 0.920505 0 -0.390731
vt 4.94882 0
vt 5.16513 0
f 328/607/73 331/608/76 158/609/76 157/610/73 

vt 6.2154 0.15748
v 0.0705928 -0.068 -0.0980431
vt 5.99909 0.15748
vn 0.961262 0 -0.275637
vt 5.99909 0
vt 6.2154 0
f 331/611/76 332/612/77 159/613/77 158/614/76 

vt 7.43594 8.99733
f 331/605/3 330/606/3 332/615/3

v 0.071782 -0.068 0.0925903
vt 7.48276 1.49208
f 332/615/3 330/606/3 333/616/3

vt 3.07628 0.15748
vn 0.987688 0 0.156434
vt 2.85996 0.15748
vt 2.85996 0
vt 3.07628 0
f 333/617/78 330/618/75 211/619/75 210/620/78 

v 0.0723086 -0.068 0.0871212
vt 2.41871 0.15748
vn 0.999391 0 0.0348995
vt 2.2024 0.15748
vt 2.2024 0
vt 2.41871 0
f 334/621/79 333/622/78 210/623/78 209/624/79 

v 0.0722942 -0.068 0.0865709
vt 7.50293 1.72906
vt 7.5035 1.7074
f 335/625/3 333/616/3 334/626/3

v 0.0722714 -0.068 0.0815936
vt 7.50203 1.92502
f 336/627/3 333/616/3 335/625/3

v 0.071782 -0.068 -0.092679
vt 7.48276 8.78614
f 337/628/3 333/616/3 336/627/3

f 332/615/3 333/616/3 337/628/3

vt 7.17462 0.15748
vt 6.95831 0.15748
vn 0.987688 0 -0.156434
vt 6.95831 0
vt 7.17462 0
f 332/629/77 337/630/80 160/631/80 159/632/77 

vt 8.0285 0.15748
v 0.0723086 -0.068 -0.0872099
vt 7.81219 0.15748
vn 0.999216 0 -0.0395993
vt 7.81219 0
vt 8.0285 0
f 337/633/80 338/634/81 161/635/81 160/636/80 

vt 7.5035 8.57083
v 0.0722252 -0.068 -0.0822333
vt 7.50021 8.37489
f 338/637/3 337/628/3 339/638/3

f 337/628/3 336/627/3 339/638/3

v 0.0727191 -0.068 -0.0772804
vt 7.51966 8.1799
f 336/627/3 340/639/3 339/638/3

v 0.0728256 -0.068 0.0766472
vt 7.52385 2.11976
f 340/639/3 336/627/3 341/640/3

vt 2.94439 0.15748
vn 0.985639 0 0.168864
vt 2.74843 0.15748
vn 0.99857 0 0.053469
vt 2.74843 0
vt 2.94439 0
f 341/641/82 336/642/83 206/643/83 205/644/82 

vt 1.89051 0.15748
vt 1.69455 0.15748
vn 0.999882 0 -0.0153877
vt 1.69455 0
vt 1.89051 0
f 336/645/83 335/646/84 207/647/84 206/648/83 

vt 1.53206 0.15748
v 0.0722993 -0.068 0.0867646
vt 1.52444 0.15748
vn 0.999657 0 -0.0261769
vt 1.52444 0
vt 1.53206 0
f 335/649/84 342/650/85 208/651/85 207/652/84 

vt 7.50313 1.72143
f 335/625/3 334/626/3 342/653/3

vt 1.51039 0.15748
vt 1.51039 0
f 342/650/85 334/654/79 209/655/79 208/651/85 

v 0.0739495 -0.068 0.0717983
vt 3.95989 0.15748
vn 0.95942 0 0.281982
vt 3.76393 0.15748
vt 3.76393 0
vt 3.95989 0
f 343/656/86 341/657/82 205/658/82 204/659/86 

v 0.0737839 -0.068 -0.0724183
vt 7.56158 7.98848
vt 7.5681 2.31066
f 344/660/3 341/640/3 343/661/3

f 340/639/3 341/640/3 344/660/3

vt 6.3819 0.15748
vn 0.987623 0 -0.15685
vt 6.18594 0.15748
vn 0.962782 0 -0.270279
vt 6.18594 0
vt 6.3819 0
f 340/662/87 344/663/88 164/664/88 163/665/87 

vt 5.08987 0.15748
v 0.0754052 -0.068 -0.0677123
vt 4.89391 0.15748
vn 0.92496 0 -0.380063
vt 4.89391 0
vt 5.08987 0
f 344/666/88 345/667/89 165/668/89 164/669/88 

vt 7.62541 7.8032
f 344/660/3 343/661/3 345/670/3

v 0.0756279 -0.068 0.0671125
vt 7.63418 2.49514
f 345/670/3 343/661/3 346/671/3

vt 4.92331 0.15748
vn 0.920264 0 0.391298
vt 4.72735 0.15748
vt 4.72735 0
vt 4.92331 0
f 346/672/90 343/673/86 204/674/86 203/675/90 

v 0.0778382 -0.068 0.0626528
vt 5.82168 0.15748
vn 0.8687 0 0.495339
vt 5.62572 0.15748
vt 5.62572 0
vt 5.82168 0
f 347/676/91 346/677/90 203/678/90 202/679/91 

v 0.077561 -0.068 -0.0632261
vt 7.71028 7.62658
vt 7.7212 2.67072
f 348/680/3 346/671/3 347/681/3

f 345/670/3 346/671/3 348/680/3

vt 3.73055 0.15748
vt 3.53459 0.15748
vn 0.874667 0 -0.484724
vt 3.53459 0
vt 3.73055 0
f 345/682/89 348/683/92 166/684/92 165/685/89 

vt 2.32224 0.15748
v 0.0802223 -0.068 -0.0590199
vt 2.12628 0.15748
vn 0.812581 0 -0.582849
vt 2.12628 0
vt 2.32224 0
f 348/686/92 349/687/93 167/688/93 166/689/92 

vt 7.81506 7.46098
f 348/680/3 347/681/3 349/690/3

v 0.0805506 -0.068 0.0584794
vt 7.82798 2.83503
f 349/690/3 347/681/3 350/691/3

vt 6.64287 0.15748
vn 0.805423 0 0.5927
vt 6.44691 0.15748
vt 6.44691 0
vt 6.64287 0
f 350/692/94 347/693/91 202/694/91 201/695/94 

v 0.0837285 -0.068 0.0546485
vt 7.37582 0.15748
vn 0.731287 0 0.68207
vt 7.17986 0.15748
vt 7.17986 0
vt 7.37582 0
f 351/696/95 350/697/94 201/698/94 200/699/95 

v 0.0833533 -0.068 -0.0551506
vt 7.93833 7.30865
vt 7.9531 2.98585
f 352/700/3 350/691/3 351/701/3

f 349/690/3 350/691/3 352/700/3

vt 0.883944 0.15748
vt 0.687984 0.15748
vn 0.739538 0 -0.673115
vt 0.687984 0
vt 0.883944 0
f 349/702/93 352/703/96 168/704/96 167/705/93 

vt -0.56495 0.15748
v 0.0869117 -0.068 -0.0516704
vt -0.76091 0.15748
vn 0.656524 0 -0.754305
vt -0.76091 0
vt -0.56495 0
f 352/706/96 353/707/97 169/708/97 168/709/96 

vt 8.07842 7.17163
f 352/700/3 351/701/3 353/710/3

v 0.087329 -0.068 0.0512118
vt 8.09485 3.12115
f 353/710/3 351/701/3 354/711/3

vt 8.01063 0.15748
vn 0.64729 0 0.762244
vt 7.81467 0.15748
vt 7.81467 0
vt 8.01063 0
f 354/712/98 351/713/95 200/714/95 199/715/98 

v 0.0913036 -0.068 0.0482157
vt 8.53876 0.15748
vn 0.554566 0 0.83214
vt 8.3428 0.15748
vt 8.3428 0
vt 8.53876 0
f 355/716/99 354/717/98 199/718/98 198/719/99 

v 0.0908496 -0.068 -0.0486261
vt 8.23345 7.05178
vt 8.25133 3.23911
f 356/720/3 354/711/3 355/721/3

f 353/710/3 354/711/3 356/720/3

vt -2.00491 0.15748
vt -2.20087 0.15748
vn 0.564658 0 -0.825325
vt -2.20087 0
vt -2.00491 0
f 353/722/97 356/723/100 170/724/100 169/725/97 

vt -3.41651 0.15748
v 0.0951138 -0.068 -0.0460589
vt -3.61247 0.15748
vn 0.465179 0 -0.885217
vt -3.61247 0
vt -3.41651 0
f 356/726/100 357/727/101 171/728/101 170/729/100 

vt 8.40134 6.9507
f 356/720/3 355/721/3 357/730/3

v 0.0955988 -0.068 0.0457006
vt 8.42043 3.33813
f 357/730/3 355/721/3 358/731/3

vt 8.95309 0.15748
vn 0.454365 0 0.890816
vt 8.75713 0.15748
vt 8.75713 0
vt 8.95309 0
f 358/732/102 355/733/99 198/734/99 197/735/102 

v 0.100157 -0.068 0.0437003
vt 9.24801 0.15748
vn 0.348037 0 0.937481
vt 9.05205 0.15748
vt 9.05205 0
vt 9.24801 0
f 359/736/103 358/737/102 197/738/102 196/739/103 

vt 8.59987 3.41688
v 0.0964995 -0.068 0.000313876
vt 8.45589 5.12501
f 359/740/3 360/741/3 358/731/3

v 0.0966158 -0.068 0.00122013
vt 8.46047 5.08933
f 360/741/3 359/740/3 361/742/3

v 0.0969627 -0.068 0.00206539
vt 8.47413 5.05605
f 361/742/3 359/740/3 362/743/3

v 0.0975166 -0.068 0.00279207
vt 8.49593 5.02744
f 362/743/3 359/740/3 363/744/3

v 0.0982396 -0.068 0.00335064
vt 8.5244 5.00545
f 363/744/3 359/740/3 364/745/3

v 0.0990826 -0.068 0.00370304
vt 8.55759 4.99158
f 364/745/3 359/740/3 365/746/3

v 0.0999881 -0.068 0.00382524
vt 8.59324 4.98676
f 365/746/3 359/740/3 366/747/3

v 0.100894 -0.068 0.00370893
vt 8.62892 4.99134
f 366/747/3 359/740/3 367/748/3

v 0.104915 -0.068 0.0422418
vt 8.78723 3.4743
f 367/748/3 359/740/3 368/749/3

vt 9.41956 0.15748
vn 0.346436 0 0.938074
vt 9.2236 0.15748
vt 9.2236 0
vt 9.41956 0
f 368/750/104 359/751/103 196/752/103 195/753/104 

v 0.109954 -0.068 0.0400509
vt 9.6601 0.15748
vn 0.45399 0 0.891007
vt 9.44379 0.15748
vt 9.44379 0
vt 9.6601 0
f 369/754/105 368/755/104 195/756/104 194/757/105 

v 0.104915 -0.068 -0.0423305
vt 8.78723 6.80392
vt 8.9856 3.56056
f 370/758/3 368/749/3 369/759/3

v 0.104573 -0.068 -0.0424319
vt 8.77376 6.80791
f 371/760/3 368/749/3 370/758/3

v 0.104388 -0.068 -0.0424869
vt 8.76645 6.81008
f 372/761/3 368/749/3 371/760/3

v 0.103499 -0.068 0.000336645
vt 8.73148 5.12411
f 373/762/3 368/749/3 372/761/3

v 0.103377 -0.068 0.00124212
vt 8.72667 5.08846
f 374/763/3 368/749/3 373/762/3

v 0.103025 -0.068 0.00208511
vt 8.7128 5.05527
f 375/764/3 368/749/3 374/763/3

v 0.102466 -0.068 0.00280817
vt 8.6908 5.02681
f 376/765/3 368/749/3 375/764/3

v 0.10174 -0.068 0.00336203
vt 8.66219 5.005
f 377/766/3 368/749/3 376/765/3

f 367/748/3 368/749/3 377/766/3

v 0.103383 -0.068 -0.000569605
vt 8.7269 5.15979
v 0.103036 -0.068 -0.00141487
vt 8.71324 5.19307
v 0.102482 -0.068 -0.00214155
vt 8.69144 5.22168
v 0.101759 -0.068 -0.00270012
vt 8.66297 5.24367
v 0.100916 -0.068 -0.00305252
vt 8.62978 5.25754
v 0.100011 -0.068 -0.00317472
vt 8.59413 5.26235
v 0.0991046 -0.068 -0.00305841
vt 8.55845 5.25777
v 0.0982593 -0.068 -0.0027115
vt 8.52518 5.24412
v 0.0975327 -0.068 -0.00215765
vt 8.49657 5.22231
v 0.0969741 -0.068 -0.00143459
vt 8.47458 5.19384
v 0.0966217 -0.068 -0.000591598
vt 8.4607 5.16066
f 377/766/3 376/765/3 375/764/3 374/763/3 373/762/3 378/767/3 379/768/3 380/769/3 381/770/3 382/771/3 383/772/3 384/773/3 385/774/3 386/775/3 387/776/3 388/777/3 360/741/3 361/742/3 362/743/3 363/744/3 364/745/3 365/746/3 366/747/3 367/748/3 

f 372/761/3 378/767/3 373/762/3

f 372/761/3 379/768/3 378/767/3

f 372/761/3 380/769/3 379/768/3

f 372/761/3 381/770/3 380/769/3

f 372/761/3 382/771/3 381/770/3

f 372/761/3 383/772/3 382/771/3

v 0.0996468 -0.068 -0.0440032
vt 8.5798 6.86977
f 389/778/3 383/772/3 372/761/3

f 389/778/3 384/773/3 383/772/3

f 389/778/3 385/774/3 384/773/3

f 389/778/3 386/775/3 385/774/3

f 389/778/3 387/776/3 386/775/3

f 389/778/3 388/777/3 387/776/3

f 389/778/3 360/741/3 388/777/3

f 357/730/3 360/741/3 389/778/3

f 357/730/3 358/731/3 360/741/3

vt -4.78072 0.15748
vt -4.97668 0.15748
vn 0.359427 0 -0.933173
vt -4.97668 0
vt -4.78072 0
f 357/779/101 389/780/106 172/781/106 171/782/101 

vt -6.07916 0.15748
vt -6.27512 0.15748
vn 0.294346 0 -0.955699
vt -6.27512 0
vt -6.07916 0
f 389/783/106 372/784/107 173/785/107 172/786/106 

vt -6.47128 0.15748
vt -6.47891 0.15748
vn 0.284015 0 -0.95882
vt -6.47891 0
vt -6.47128 0
f 372/787/107 371/788/108 174/789/108 173/790/107 

vt -6.49295 0.15748
vn 0.34202 0 -0.939693
vt -6.49295 0
f 371/788/108 370/791/109 175/792/109 174/789/108 

vt -5.34536 0.15748
v 0.109954 -0.068 -0.0401397
vt -5.56167 0.15748
vn 0.45399 0 -0.891007
vt -5.56167 0
vt -5.34536 0
f 370/793/109 390/794/110 176/795/110 175/796/109 

vt 8.9856 6.71767
f 370/758/3 369/759/3 390/797/3

v 0.114688 -0.068 0.0372623
vt 9.17198 3.67034
f 390/797/3 369/759/3 391/798/3

vt 9.76569 0.15748
vn 0.559193 0 0.829038
vt 9.54937 0.15748
vt 9.54937 0
vt 9.76569 0
f 391/799/111 369/800/105 194/801/105 193/802/111 

v 0.119047 -0.068 0.0339176
vt 9.7273 0.15748
vn 0.656059 0 0.75471
vt 9.51099 0.15748
vt 9.51099 0
vt 9.7273 0
f 392/803/112 391/804/111 193/805/111 192/806/112 

v 0.114688 -0.068 -0.0373511
vt 9.17198 6.60788
vt 9.3436 3.80203
f 393/807/3 391/798/3 392/808/3

f 390/797/3 391/798/3 393/807/3

vt -4.33278 0.15748
vt -4.5491 0.15748
vn 0.559193 0 -0.829038
vt -4.5491 0
vt -4.33278 0
f 390/809/110 393/810/113 177/811/113 176/812/110 

vt -3.254 0.15748
v 0.119047 -0.068 -0.0340063
vt -3.47032 0.15748
vn 0.656059 0 -0.75471
vt -3.47032 0
vt -3.254 0
f 393/813/113 394/814/114 178/815/114 177/816/113 

vt 9.3436 6.47619
f 393/807/3 392/808/3 394/817/3

v 0.122966 -0.068 0.0300665
vt 9.49788 3.95364
f 394/817/3 392/808/3 395/818/3

vt 9.54551 0.15748
vn 0.743145 0 0.669131
vt 9.3292 0.15748
vt 9.3292 0
vt 9.54551 0
f 395/819/115 392/820/112 192/821/112 191/822/115 

v 0.126386 -0.068 0.0257666
vt 9.22304 0.15748
vn 0.819152 0 0.573576
vt 9.00672 0.15748
vt 9.00672 0
vt 9.22304 0
f 396/823/116 395/824/115 191/825/115 190/826/116 

v 0.122966 -0.068 -0.0301552
vt 9.49788 6.32458
vt 9.63254 4.12293
f 397/827/3 395/818/3 396/828/3

f 394/817/3 395/818/3 397/827/3

vt -2.1251 0.15748
vt -2.34141 0.15748
vn 0.743145 0 -0.669131
vt -2.34141 0
vt -2.1251 0
f 394/829/114 397/830/117 179/831/117 178/832/114 

vt -0.962904 0.15748
v 0.126386 -0.068 -0.0258553
vt -1.17922 0.15748
vn 0.819152 0 -0.573576
vt -1.17922 0
vt -0.962904 0
f 397/833/117 398/834/118 180/835/118 179/836/117 

vt 9.63254 6.15529
f 397/827/3 396/828/3 398/837/3

v 0.129257 -0.068 0.0210819
vt 9.74556 4.30737
f 398/837/3 396/828/3 399/838/3

vt 8.76468 0.15748
vn 0.882948 0 0.469472
vt 8.54837 0.15748
vt 8.54837 0
vt 8.76468 0
f 399/839/119 396/840/116 190/841/116 189/842/119 

v 0.131536 -0.068 0.0160822
vt 8.17727 0.15748
vn 0.93358 0 0.358368
vt 7.96096 0.15748
vt 7.96096 0
vt 8.17727 0
f 400/843/120 399/844/119 189/845/119 188/846/120 

v 0.129257 -0.068 -0.0211706
vt 9.74556 5.97085
vt 9.83527 4.50421
f 401/847/3 399/838/3 400/848/3

f 398/837/3 399/838/3 401/847/3

vt 0.215259 0.15748
vt -0.00105497 0.15748
vn 0.882948 0 -0.469472
vt -0.00105497 0
vt 0.215259 0
f 398/849/118 401/850/121 181/851/121 180/852/118 

vt 1.39182 0.15748
v 0.131536 -0.068 -0.0161709
vt 1.17551 0.15748
vn 0.93358 0 -0.358368
vt 1.17551 0
vt 1.39182 0
f 401/853/121 402/854/122 182/855/122 181/856/121 

vt 9.83527 5.77401
f 401/847/3 400/848/3 402/857/3

v 0.133188 -0.068 0.0108421
vt 9.90031 4.71051
f 402/857/3 400/848/3 403/858/3

vt 7.46957 0.15748
vn 0.970296 0 0.241922
vt 7.25326 0.15748
vt 7.25326 0
vt 7.46957 0
f 403/859/123 400/860/120 188/861/120 187/862/123 

v 0.134189 -0.068 0.00543975
vt 6.65213 0.15748
vn 0.992546 0 0.121869
vt 6.43582 0.15748
vt 6.43582 0
vt 6.65213 0
f 404/863/124 403/864/123 187/865/123 186/866/124 

v 0.133188 -0.068 -0.0109309
vt 9.90031 5.56771
vt 9.93973 4.9232
f 405/867/3 403/858/3 404/868/3

f 402/857/3 403/858/3 405/867/3

vt 2.54925 0.15748
vt 2.33294 0.15748
vn 0.970296 0 -0.241922
vt 2.33294 0
vt 2.54925 0
f 402/869/122 405/870/125 183/871/125 182/872/122 

vt 3.67029 0.15748
v 0.134189 -0.068 -0.00552849
vt 3.45398 0.15748
vn 0.992546 0 -0.121869
vt 3.45398 0
vt 3.67029 0
f 405/873/125 406/874/126 184/875/126 183/876/125 

vt 9.93973 5.35502
f 405/867/3 404/868/3 406/877/3

v 0.134525 -0.068 -4.43702e-05
vt 9.95294 5.13911
f 406/877/3 404/868/3 407/878/3

vt 5.73714 0.15748
vn 1 0 1.60379e-14
vt 5.52082 0.15748
vt 5.52082 0
vt 5.73714 0
f 407/879/127 404/880/124 186/881/124 185/882/127 

vt 4.73823 0.15748
vt 4.52191 0.15748
vt 4.52191 0
vt 4.73823 0
f 406/883/126 407/884/127 185/885/127 184/886/126 

vt 7.58919 0.15748
vn 0.999147 0 -0.0413056
vt 7.39323 0.15748
vt 7.39323 0
vt 7.58919 0
f 339/887/128 340/888/87 163/889/87 162/890/128 

vt 8.69548 0.15748
vt 8.49952 0.15748
vt 8.49952 0
vt 8.69548 0
f 338/891/81 339/892/128 162/893/128 161/894/81 

vt -10.3678 0.15748
vt -10.3678 0
f 247/383/40 248/895/43 141/896/43 140/384/40 

vt 2.95408 0.15748
vn -0.314802 0 0.949157
vt 2.75812 0.15748
vt 2.75812 0
vt 2.95408 0
f 237/897/129 85/898/25 86/899/25 89/900/129 

vt 2.87102 0.15748
vt 2.67506 0.15748
vt 2.67506 0
vt 2.87102 0
f 234/901/28 237/902/129 89/903/129 88/904/28 

vt 2.97033 0.15748
vt 2.77437 0.15748
vn 0.14398 0 0.989581
vt 2.77437 0
vt 2.97033 0
f 2/905/2 7/906/130 90/907/130 3/908/2 

vt 2.89786 0.15748
vt 2.70191 0.15748
vn 0.257723 0 0.966219
vt 2.70191 0
vt 2.89786 0
f 7/909/130 9/910/131 91/911/131 90/912/130 

vt 2.78764 0.15748
vt 2.59168 0.15748
vn 0.323615 0 0.946189
vt 2.59168 0
vt 2.78764 0
f 9/913/131 11/914/132 92/915/132 91/916/131 

vt 2.60354 0.15748
vt 2.59592 0.15748
vn 0.333807 0 0.942641
vt 2.59592 0
vt 2.60354 0
f 11/917/132 12/918/133 93/919/133 92/920/132 

vt 2.58187 0.15748
vn 0.275637 0 0.961262
vt 2.58187 0
f 12/918/133 14/921/134 94/922/134 93/919/133 

vt 2.49908 0.15748
vt 2.28277 0.15748
vn 0.156434 0 0.987688
vt 2.28277 0
vt 2.49908 0
f 14/923/134 16/924/135 95/925/135 94/926/134 

vt 2.16433 0.15748
vt 1.94802 0.15748
vn 0.0348995 0 0.999391
vt 1.94802 0
vt 2.16433 0
f 16/927/135 18/928/136 96/929/136 95/930/135 

vt 1.79893 0.15748
vt 1.58261 0.15748
vn -0.0871557 0 0.996195
vt 1.58261 0
vt 1.79893 0
f 18/931/136 20/932/137 97/933/137 96/934/136 

vt 1.40832 0.15748
v -0.082643 -0.068 0.0968729
vt 1.192 0.15748
vn -0.207912 0 0.978148
vt 1.192 0
vt 1.40832 0
f 20/935/137 408/936/138 98/937/138 97/938/137 

v -0.0825264 -0.068 0.0617078
vt 1.40763 2.70792
vt 1.40304 1.32347
f 409/939/3 408/940/3 20/22/3

v -0.0833039 -0.068 0.0612279
vt 1.37702 2.72682
f 410/941/3 408/940/3 409/939/3

v -0.0839307 -0.068 0.0605631
vt 1.35234 2.75299
f 411/942/3 408/940/3 410/941/3

v -0.084364 -0.068 0.0597587
vt 1.33528 2.78466
f 412/943/3 408/940/3 411/942/3

f 36/38/3 408/940/3 412/943/3

f 36/38/3 37/39/3 408/940/3

vt 0.998327 0.15748
vt 0.782013 0.15748
vn -0.325568 0 0.945519
vt 0.782013 0
vt 0.998327 0
f 408/944/138 37/945/139 99/946/139 98/947/138 

vt 0.575066 0.15748
vt 0.358752 0.15748
vn -0.438371 0 0.898794
vt 0.358752 0
vt 0.575066 0
f 37/948/139 39/949/140 100/950/140 99/951/139 

vt 0.144844 0.15748
vt -0.0714699 0.15748
vn -0.544639 0 0.838671
vt -0.0714699 0
vt 0.144844 0
f 39/952/140 41/953/141 101/954/141 100/955/140 

vt -0.285925 0.15748
v -0.102212 -0.068 0.0873283
vt -0.502239 0.15748
vn -0.642788 0 0.766044
vt -0.502239 0
vt -0.285925 0
f 41/956/141 413/957/142 102/958/142 101/959/141 

v -0.101638 -0.068 0.0100987
vt 0.655186 4.73978
vt 0.632587 1.69924
f 414/960/3 413/961/3 41/43/3

v -0.103093 -0.068 0.0148588
vt 0.597923 4.55237
f 415/962/3 413/961/3 414/960/3

v -0.105089 -0.068 0.0194182
vt 0.519322 4.37287
f 416/963/3 413/961/3 415/962/3

v -0.106198 -0.068 0.0835462
vt 0.475678 1.84814
f 416/963/3 417/964/3 413/961/3

v -0.107601 -0.068 0.0237155
vt 0.420442 4.20368
f 418/965/3 417/964/3 416/963/3

v -0.109693 -0.068 0.0793066
vt 0.338086 2.01506
f 418/965/3 419/966/3 417/964/3

v -0.110594 -0.068 0.0276926
vt 0.302616 4.0471
f 420/967/3 419/966/3 418/965/3

v -0.112645 -0.068 0.0746727
vt 0.221861 2.19749
f 420/967/3 421/968/3 419/966/3

v -0.113382 -0.068 0.0324267
vt 0.192829 3.86072
f 422/969/3 421/968/3 420/967/3

v -0.11501 -0.068 0.0697136
vt 0.128735 2.39273
f 422/969/3 423/970/3 421/968/3

v -0.115573 -0.068 0.0374654
vt 0.106574 3.66235
f 424/971/3 423/970/3 422/969/3

v -0.116754 -0.068 0.0645032
vt 0.0600978 2.59787
f 424/971/3 425/972/3 423/970/3

v -0.117134 -0.068 0.0427335
vt 0.0451375 3.45494
f 426/973/3 425/972/3 424/971/3

v -0.117849 -0.068 0.0591191
vt 0.0169718 2.80984
f 426/973/3 427/974/3 425/972/3

v -0.11804 -0.068 0.0481525
vt 0.00943547 3.2416
f 428/975/3 427/974/3 426/973/3

v -0.11828 -0.068 0.0536417
f 427/974/3 428/975/3 429/176/3

vt -3.02261 0.15748
vn -0.999848 0 0.0174524
vt -3.23892 0.15748
vn -0.994522 0 -0.104528
vt -3.23892 0
vt -3.02261 0
f 429/976/143 428/977/144 110/978/144 109/979/143 

vt -3.1987 0.15748
vt -3.41501 0.15748
vn -0.97437 0 -0.224951
vt -3.41501 0
vt -3.1987 0
f 428/980/144 426/981/145 111/982/145 110/983/144 

vt -3.32549 0.15748
vt -3.5418 0.15748
vn -0.939693 0 -0.34202
vt -3.5418 0
vt -3.32549 0
f 426/984/145 424/985/146 112/986/146 111/987/145 

vt -3.40109 0.15748
vt -3.6174 0.15748
vn -0.891007 0 -0.45399
vt -3.6174 0
vt -3.40109 0
f 424/988/146 422/989/147 113/990/147 112/991/146 

vt -3.42438 0.15748
vt -3.64069 0.15748
vn -0.831658 0 -0.555288
vt -3.64069 0
vt -3.42438 0
f 422/992/147 420/993/148 114/994/148 113/995/147 

vt -3.41577 0.15748
vt -3.61173 0.15748
vn -0.832605 0 -0.553867
vt -3.61173 0
vt -3.41577 0
f 420/996/148 418/997/149 115/998/149 114/999/148 

vt -3.84143 0.15748
vt -4.03739 0.15748
vn -0.891197 0 -0.453616
vt -4.03739 0
vt -3.84143 0
f 418/1000/149 416/1001/150 116/1002/150 115/1003/149 

vt -4.21398 0.15748
vt -4.40994 0.15748
vn -0.937773 0 -0.347249
vt -4.40994 0
vt -4.21398 0
f 416/1004/150 415/1005/151 117/1006/151 116/1007/150 

vt -4.52839 0.15748
vt -4.72435 0.15748
vn -0.971704 0 -0.2362
vt -4.72435 0
vt -4.52839 0
f 415/1008/151 414/1009/152 118/1010/152 117/1011/151 

vt -4.78043 0.15748
v -0.100746 -0.068 0.00520201
vt -4.97639 0.15748
vn -0.992534 0 -0.121967
vt -4.97639 0
vt -4.78043 0
f 414/1012/152 430/1013/153 119/1014/153 118/1015/152 

vt 0.690338 4.93256
f 414/960/3 41/43/3 430/1016/3

f 430/1016/3 41/43/3 42/44/3

vt -4.96668 0.15748
vt -5.16264 0.15748
vn -0.999981 0 -0.00608853
vt -5.16264 0
vt -4.96668 0
f 430/1017/153 42/1018/154 120/1019/154 119/1020/153 

vt -5.08465 0.15748
vt -5.28061 0.15748
vn -0.993946 0 0.109872
vt -5.28061 0
vt -5.08465 0
f 42/1021/154 43/1022/155 121/1023/155 120/1024/154 

vt -5.13274 0.15748
vt -5.3287 0.15748
vn -0.974509 0 0.22435
vt -5.3287 0
vt -5.13274 0
f 43/1025/155 44/1026/156 122/1027/156 121/1028/155 

vt -5.1103 0.15748
vt -5.30626 0.15748
vn -0.941932 0 0.335804
vt -5.30626 0
vt -5.1103 0
f 44/1029/156 46/1030/157 123/1031/157 122/1032/156 

vt -5.01764 0.15748
vt -5.2136 0.15748
vn -0.896655 0 0.44273
vt -5.2136 0
vt -5.01764 0
f 46/1033/157 47/1034/158 124/1035/158 123/1036/157 

vt -4.856 0.15748
vt -5.05196 0.15748
vn -0.839288 0 0.543687
vt -5.05196 0
vt -4.856 0
f 47/1037/158 49/1038/159 125/1039/159 124/1040/158 

vt -4.62757 0.15748
vt -4.82353 0.15748
vn -0.799877 0 0.600165
vt -4.82353 0
vt -4.62757 0
f 49/1041/159 51/1042/160 126/1043/160 125/1044/159 

vt -4.73759 0.15748
vt -4.74521 0.15748
vn -0.793353 0 0.608761
vt -4.74521 0
vt -4.73759 0
f 51/1045/160 52/1046/161 127/1047/161 126/1048/160 

vt -4.75926 0.15748
vn -0.829038 0 0.559193
vt -4.75926 0
f 52/1046/161 53/1049/162 128/1050/162 127/1047/161 

vt -5.21532 0.15748
vt -5.43164 0.15748
vn -0.891007 0 0.45399
vt -5.43164 0
vt -5.21532 0
f 53/1051/162 55/1052/163 129/1053/163 128/1054/162 

vt -5.80834 0.15748
vt -6.02466 0.15748
vn -0.939693 0 0.34202
vt -6.02466 0
vt -5.80834 0
f 55/1055/163 57/1056/164 130/1057/164 129/1058/163 

vt -6.31316 0.15748
vt -6.52947 0.15748
vn -0.97437 0 0.224951
vt -6.52947 0
vt -6.31316 0
f 57/1059/164 59/1060/165 131/1061/165 130/1062/164 

vt -6.72225 0.15748
vt -6.93857 0.15748
vn -0.994522 0 0.104528
vt -6.93857 0
vt -6.72225 0
f 59/1063/165 61/1064/166 132/1065/166 131/1066/165 

vt -7.02952 0.15748
vt -7.24583 0.15748
vt -7.24583 0
vt -7.02952 0
f 61/1067/166 62/1068/4 64/1069/4 132/1070/166 

vt -2.79985 0.15748
vn -0.990268 0 0.139173
vt -3.01616 0.15748
vt -3.01616 0
vt -2.79985 0
f 427/1071/167 429/1072/143 109/1073/143 108/1074/167 

vt -2.53373 0.15748
vn -0.965926 0 0.258819
vt -2.75005 0.15748
vt -2.75005 0
vt -2.53373 0
f 425/1075/168 427/1076/167 108/1077/167 107/1078/168 

vt -2.22824 0.15748
vn -0.927184 0 0.374607
vt -2.44455 0.15748
vt -2.44455 0
vt -2.22824 0
f 423/1079/169 425/1080/168 107/1081/168 106/1082/169 

vt -1.88791 0.15748
vn -0.87462 0 0.48481
vt -2.10422 0.15748
vt -2.10422 0
vt -1.88791 0
f 421/1083/170 423/1084/169 106/1085/169 105/1086/170 

vt -1.51783 0.15748
vn -0.809017 0 0.587785
vt -1.73414 0.15748
vt -1.73414 0
vt -1.51783 0
f 419/1087/171 421/1088/170 105/1089/170 104/1090/171 

vt -1.1235 0.15748
vn -0.731354 0 0.681998
vt -1.33982 0.15748
vt -1.33982 0
vt -1.1235 0
f 417/1091/172 419/1092/171 104/1093/171 103/1094/172 

vt -0.710819 0.15748
vt -0.927132 0.15748
vt -0.927132 0
vt -0.710819 0
f 413/1095/142 417/1096/172 103/1097/172 102/1098/142 

v -0.0842852 -0.068 0.0570811
vt 1.33838 2.89008
v -0.0845476 -0.068 0.0579563
vt 1.32805 2.85562
v -0.0816512 -0.068 0.0619702
vt 1.44208 2.69759
v -0.0807379 -0.068 0.0619971
vt 1.47804 2.69653
v -0.0798488 -0.068 0.0617867
vt 1.51305 2.70482
v -0.0790444 -0.068 0.0613533
vt 1.54471 2.72188
v -0.0783796 -0.068 0.0607265
vt 1.57089 2.74656
v -0.0778997 -0.068 0.059949
vt 1.58978 2.77717
v -0.0776373 -0.068 0.0590738
vt 1.60011 2.81162
v -0.0776105 -0.068 0.0581605
vt 1.60117 2.84758
v -0.0778209 -0.068 0.0572714
vt 1.59289 2.88258
v -0.0782542 -0.068 0.056467
vt 1.57582 2.91425
v -0.078881 -0.068 0.0558022
vt 1.55115 2.94043
v -0.0796585 -0.068 0.0553223
vt 1.52054 2.95932
v -0.0805337 -0.068 0.05506
vt 1.48608 2.96965
v -0.081447 -0.068 0.0550331
vt 1.45012 2.97071
v -0.0823361 -0.068 0.0552435
vt 1.41512 2.96242
v -0.0831405 -0.068 0.0556768
vt 1.38345 2.94536
v -0.0838053 -0.068 0.0563036
vt 1.35728 2.92069
f 431/1099/3 432/1100/3 36/38/3 412/943/3 411/942/3 410/941/3 409/939/3 433/1101/3 434/1102/3 435/1103/3 436/1104/3 437/1105/3 438/1106/3 439/1107/3 440/1108/3 441/1109/3 442/1110/3 443/1111/3 444/1112/3 445/1113/3 446/1114/3 447/1115/3 448/1116/3 449/1117/3 

f 34/36/3 432/1100/3 431/1099/3

f 34/36/3 36/38/3 432/1100/3

f 449/1117/3 34/36/3 431/1099/3

v -0.0841688 -0.068 -0.0585051
vt 1.34297 7.44071
f 34/36/3 449/1117/3 450/1118/3

v -0.0839121 -0.068 -0.0576282
vt 1.35307 7.40619
f 450/1118/3 449/1117/3 451/1119/3

v -0.0834372 -0.068 -0.0568476
vt 1.37177 7.37546
f 451/1119/3 449/1117/3 452/1120/3

f 452/1120/3 449/1117/3 448/1116/3

v -0.0827765 -0.068 -0.0562165
vt 1.39778 7.35061
f 452/1120/3 448/1116/3 453/1121/3

f 453/1121/3 448/1116/3 447/1115/3

v -0.081975 -0.068 -0.0557779
vt 1.42934 7.33335
f 453/1121/3 447/1115/3 454/1122/3

f 454/1122/3 447/1115/3 446/1114/3

v -0.0810873 -0.068 -0.0555617
vt 1.46429 7.32483
f 454/1122/3 446/1114/3 455/1123/3

f 455/1123/3 446/1114/3 445/1113/3

v -0.0801738 -0.068 -0.0555827
vt 1.50025 7.32566
f 455/1123/3 445/1113/3 456/1124/3

f 456/1124/3 445/1113/3 444/1112/3

v -0.0792969 -0.068 -0.0558393
vt 1.53477 7.33576
f 456/1124/3 444/1112/3 457/1125/3

f 457/1125/3 444/1112/3 443/1111/3

v -0.0785163 -0.068 -0.0563142
vt 1.5655 7.35446
f 457/1125/3 443/1111/3 458/1126/3

f 458/1126/3 443/1111/3 442/1110/3

v -0.0778852 -0.068 -0.0569749
vt 1.59035 7.38047
f 458/1126/3 442/1110/3 459/1127/3

f 459/1127/3 442/1110/3 441/1109/3

v -0.0774467 -0.068 -0.0577764
vt 1.60762 7.41203
f 459/1127/3 441/1109/3 460/1128/3

f 460/1128/3 441/1109/3 440/1108/3

f 440/1108/3 20/22/3 460/1128/3

f 439/1107/3 20/22/3 440/1108/3

f 438/1106/3 20/22/3 439/1107/3

f 437/1105/3 20/22/3 438/1106/3

f 436/1104/3 20/22/3 437/1105/3

f 435/1103/3 20/22/3 436/1104/3

f 434/1102/3 20/22/3 435/1103/3

f 433/1101/3 20/22/3 434/1102/3

f 409/939/3 20/22/3 433/1101/3

f 460/1128/3 20/22/3 21/23/3

f 27/29/3 28/30/3 29/31/3 31/33/3 32/34/3 33/35/3 34/36/3 450/1118/3 451/1119/3 452/1120/3 453/1121/3 454/1122/3 455/1123/3 456/1124/3 457/1125/3 458/1126/3 459/1127/3 460/1128/3 21/23/3 22/24/3 23/25/3 24/26/3 25/27/3 26/28/3 

