# Alias OBJ Model File
# Exported from SketchUp, (c) 2000-2012 Trimble Navigation Limited
# File units = meters

mtllib stand_columns.mtl

g Mesh1 Group1 Model

usemtl FrontColor
v -0.0818523 -0.068 0.0530312
vt -0.258613 0
vn -0.585151 0 -0.810925
v -0.0879215 -0.068 0.0574107
vt 0.0360472 0
vn -0.987174 0 -0.159646
v -0.0879215 -0.008 0.0574107
vt 0.0360472 2.3622
v -0.0818523 -0.008 0.0530312
vt -0.258613 2.3622
f 1/1/1 2/2/2 3/3/2 4/4/1 

v -0.080259 -0.068 0.0533613
vt -0.0594321 0.336176
vn 0 -1 -0
vt -0.117831 0
vt -0.0276884 0.280533
f 5/5/3 2/6/3 1/7/3

v -0.0811501 -0.068 0.0540043
vt -0.0726674 0.294986
f 2/6/3 5/5/3 6/8/3

vt 0.258613 0
vn 0.585151 0 0.810925
vt 0.301877 0
vn -0.159646 0 0.987174
v -0.080259 -0.008 0.0533613
vt 0.301877 2.3622
v -0.0811501 -0.008 0.0540043
vt 0.258613 2.3622
f 6/9/4 5/10/5 7/11/5 8/12/4 

vt 0.159426 0
v -0.079616 -0.068 0.0542524
vt 0.20269 0
vn -0.810925 0 0.585151
v -0.079616 -0.008 0.0542524
vt 0.20269 2.3622
vt 0.159426 2.3622
f 5/13/5 9/14/6 10/15/6 7/16/5 

v -0.0786428 -0.068 0.0535502
vt -0.0861687 0.39439
vt -0.100622 0.349411
f 5/5/3 11/17/3 9/18/3

f 1/7/3 11/17/3 5/5/3

v -0.0799881 -0.068 0.051686
vt 1.11022e-16 0.366702
f 11/17/3 1/7/3 12/19/3

vt -0.349121 0
vn 0.159646 0 -0.987174
v -0.0799881 -0.008 0.051686
vt -0.349121 2.3622
f 12/20/7 1/1/1 4/4/1 13/21/7 

vt 0.0276884 0.280533
vn 0 1 -0
v -0.0786428 -0.008 0.0535502
vt 0.0861687 0.39439
vt -1.11022e-16 0.366702
f 4/22/8 14/23/8 13/24/8

vt 0.0594321 0.336176
f 14/23/8 4/22/8 7/25/8

vt 0.117831 0
f 3/26/8 7/25/8 4/22/8

vt 0.0726674 0.294986
f 7/25/8 3/26/8 8/27/8

v -0.0862463 -0.008 0.0576816
vt 0.148357 0.0594321
f 8/27/8 3/26/8 15/28/8

v -0.0821969 -0.008 0.0653442
vt 0.484533 0.117831
f 15/28/8 3/26/8 16/29/8

vt 0.112182 0
v -0.0821969 -0.068 0.0653442
vt 0.49735 0
vt 0.49735 2.3622
vt 0.112182 2.3622
f 2/30/2 17/31/5 16/32/5 3/33/2 

v -0.0862463 -0.068 0.0576816
vt -0.148357 0.0594321
vt -0.484533 0.117831
f 2/6/3 18/34/3 17/35/3

f 2/6/3 6/8/3 18/34/3

vt 0.0111969 0
vn 0.987174 0 0.159646
vt 0.0111969 2.3622
f 18/36/9 6/9/4 8/12/4 15/37/9 

v -0.0819259 -0.068 0.0636689
vt -0.450106 0
vt -0.159426 0
vt -0.159426 2.3622
v -0.0819259 -0.008 0.0636689
vt -0.450106 2.3622
f 19/38/7 18/39/9 15/40/9 20/41/7 

vt -0.425101 0.148357
f 17/35/3 18/34/3 19/42/3

v -0.0742634 -0.068 0.0596195
vt -0.366702 0.484533
f 19/42/3 21/43/3 17/35/3

v -0.0759387 -0.068 0.0593485
vt -0.336176 0.425101
f 22/44/3 21/43/3 19/42/3

f 9/18/3 21/43/3 22/44/3

f 9/18/3 11/17/3 21/43/3

vt -0.49735 0
vt -0.20269 0
vn 0.810925 0 -0.585151
vt -0.20269 2.3622
v -0.0742634 -0.008 0.0596195
vt -0.49735 2.3622
f 21/45/9 11/46/10 14/47/10 23/48/9 

vt -0.112182 0
vt -0.112182 2.3622
f 11/46/10 12/49/7 13/50/7 14/47/10 

vt 0.100622 0.349411
vt 0.366702 0.484533
f 14/23/8 10/51/8 23/52/8

f 14/23/8 7/25/8 10/51/8

v -0.0759387 -0.008 0.0593485
vt 0.336176 0.425101
f 23/52/8 10/51/8 24/53/8

vt 0.450106 0
vt 0.450106 2.3622
f 9/14/6 22/54/2 24/55/2 10/15/6 

vt -0.301877 0
vt -0.0111969 0
vt -0.0111969 2.3622
vt -0.301877 2.3622
f 22/56/2 19/57/7 20/58/7 24/59/2 

vt 0.425101 0.148357
f 23/52/8 24/53/8 20/60/8

f 23/52/8 20/60/8 16/29/8

f 15/28/8 16/29/8 20/60/8

vt -0.0360472 0
vt 0.349121 0
vt 0.349121 2.3622
vt -0.0360472 2.3622
f 17/61/5 21/62/9 23/63/9 16/64/5 

g Mesh2 Group2 Model

v 0.0251419 -0.068 0.0942337
vn -0.952057 0 0.305922
v 0.0274315 -0.068 0.101359
vn -0.456886 0 0.889525
v 0.0274315 -0.008 0.101359
v 0.0251419 -0.008 0.0942337
f 25/1/11 26/2/12 27/3/12 28/4/11 

v 0.0259482 -0.068 0.0928204
f 29/5/3 26/6/3 25/7/3

v 0.0262844 -0.068 0.0938666
f 26/6/3 29/5/3 30/8/3

vn 0.952057 0 -0.305922
vn 0.889525 0 0.456886
v 0.0259482 -0.008 0.0928204
v 0.0262844 -0.008 0.0938666
f 30/9/13 29/10/14 31/11/14 32/12/13 

v 0.0269944 -0.068 0.0924842
vn 0.305922 0 0.952057
v 0.0269944 -0.008 0.0924842
f 29/13/14 33/14/15 34/15/15 31/16/14 

v 0.0266273 -0.068 0.0913417
f 29/5/3 35/17/3 33/18/3

f 25/7/3 35/17/3 29/5/3

v 0.0244386 -0.068 0.092045
f 35/17/3 25/7/3 36/19/3

vn -0.889525 0 -0.456886
v 0.0244386 -0.008 0.092045
f 36/20/16 25/1/11 28/4/11 37/21/16 

v 0.0266273 -0.008 0.0913417
f 28/22/8 38/23/8 37/24/8

f 38/23/8 28/22/8 31/25/8

f 27/26/8 31/25/8 28/22/8

f 31/25/8 27/26/8 32/27/8

v 0.0282069 -0.008 0.0998497
f 32/27/8 27/26/8 39/28/8

v 0.0367458 -0.008 0.0983663
f 39/28/8 27/26/8 40/29/8

v 0.0367458 -0.068 0.0983663
f 26/30/12 41/31/14 40/32/14 27/33/12 

v 0.0282069 -0.068 0.0998497
f 26/6/3 42/34/3 41/35/3

f 26/6/3 30/8/3 42/34/3

vn 0.456886 0 -0.889525
f 42/36/17 30/9/13 32/12/13 39/37/17 

v 0.0352362 -0.068 0.097591
v 0.0352362 -0.008 0.097591
f 43/38/16 42/39/17 39/40/17 44/41/16 

f 41/35/3 42/34/3 43/42/3

v 0.0337528 -0.068 0.0890521
f 43/42/3 45/43/3 41/35/3

v 0.0329775 -0.068 0.0905617
f 46/44/3 45/43/3 43/42/3

f 33/18/3 45/43/3 46/44/3

f 33/18/3 35/17/3 45/43/3

vn -0.305922 0 -0.952057
v 0.0337528 -0.008 0.0890521
f 45/45/17 35/46/18 38/47/18 47/48/17 

f 35/46/18 36/49/16 37/50/16 38/47/18 

f 38/23/8 34/51/8 47/52/8

f 38/23/8 31/25/8 34/51/8

v 0.0329775 -0.008 0.0905617
f 47/52/8 34/51/8 48/53/8

f 33/14/15 46/54/12 48/55/12 34/15/15 

f 46/56/12 43/57/16 44/58/16 48/59/12 

f 47/52/8 48/53/8 44/60/8

f 47/52/8 44/60/8 40/29/8

f 39/28/8 40/29/8 44/60/8

f 41/61/14 45/62/17 47/63/17 40/64/14 

g Mesh3 Group3 Model

v 0.0973908 -0.068 0.00520844
vn -0.0032526 0 0.999995
v 0.104875 -0.068 0.00523278
vn 0.704803 0 0.709403
v 0.104875 -0.008 0.00523278
v 0.0973908 -0.008 0.00520844
f 49/1/19 50/2/20 51/3/20 52/4/19 

v 0.0962958 -0.068 0.00400487
f 53/5/3 50/6/3 49/7/3

v 0.0973947 -0.068 0.00400844
f 50/6/3 53/5/3 54/8/3

vn 0.0032526 0 -0.999995
vn 0.709403 0 -0.704803
v 0.0962958 -0.008 0.00400487
v 0.0973947 -0.008 0.00400844
f 54/9/21 53/10/22 55/11/22 56/12/21 

v 0.0962994 -0.068 0.00290597
vn 0.999995 0 0.0032526
v 0.0962994 -0.008 0.00290597
f 53/13/22 57/14/23 58/15/23 55/16/22 

v 0.0950994 -0.068 0.00290207
f 53/5/3 59/17/3 57/18/3

f 49/7/3 59/17/3 53/5/3

v 0.095092 -0.068 0.00520096
f 59/17/3 49/7/3 60/19/3

vn -0.709403 0 0.704803
v 0.095092 -0.008 0.00520096
f 60/20/24 49/1/19 52/4/19 61/21/24 

v 0.0950994 -0.008 0.00290207
f 52/22/8 62/23/8 61/24/8

f 62/23/8 52/22/8 55/25/8

f 51/26/8 55/25/8 52/22/8

f 55/25/8 51/26/8 56/27/8

v 0.103679 -0.008 0.00402888
f 56/27/8 51/26/8 63/28/8

v 0.104907 -0.008 -0.00455044
f 63/28/8 51/26/8 64/29/8

v 0.104907 -0.068 -0.00455044
f 50/30/20 65/31/22 64/32/22 51/33/20 

v 0.103679 -0.068 0.00402888
f 50/6/3 66/34/3 65/35/3

f 50/6/3 54/8/3 66/34/3

vn -0.704803 0 -0.709403
f 66/36/25 54/9/21 56/12/21 63/37/25 

v 0.103703 -0.068 -0.00335435
v 0.103703 -0.008 -0.00335435
f 67/38/24 66/39/25 63/40/25 68/41/24 

f 65/35/3 66/34/3 67/42/3

v 0.0951238 -0.068 -0.00458226
f 67/42/3 69/43/3 65/35/3

v 0.0963199 -0.068 -0.00337836
f 70/44/3 69/43/3 67/42/3

f 57/18/3 69/43/3 70/44/3

f 57/18/3 59/17/3 69/43/3

vn -0.999995 0 -0.0032526
v 0.0951238 -0.008 -0.00458226
f 69/45/25 59/46/26 62/47/26 71/48/25 

f 59/46/26 60/49/24 61/50/24 62/47/26 

f 62/23/8 58/51/8 71/52/8

f 62/23/8 55/25/8 58/51/8

v 0.0963199 -0.008 -0.00337836
f 71/52/8 58/51/8 72/53/8

f 57/14/23 70/54/20 72/55/20 58/15/23 

f 70/56/20 67/57/24 68/58/24 72/59/20 

f 71/52/8 72/53/8 68/60/8

f 71/52/8 68/60/8 64/29/8

f 63/28/8 64/29/8 68/60/8

f 65/61/22 69/62/25 71/63/25 64/64/22 

g Mesh4 Group4 Model

v -0.0757294 -0.068 -0.0614586
vn 0.590414 0 -0.807101
v -0.08177 -0.068 -0.0658775
vn -0.153221 0 -0.988192
v -0.08177 -0.008 -0.0658775
v -0.0757294 -0.008 -0.0614586
f 73/1/27 74/2/28 75/3/28 76/4/27 

v -0.075551 -0.068 -0.0598413
vn 0 -1 0
f 77/5/29 74/6/29 73/7/29

v -0.0764379 -0.068 -0.0604901
f 74/6/29 77/5/29 78/8/29

vn -0.590414 0 0.807101
vn -0.988192 0 0.153221
v -0.075551 -0.008 -0.0598413
v -0.0764379 -0.008 -0.0604901
f 78/9/30 77/10/31 79/11/31 80/12/30 

v -0.0761998 -0.068 -0.0589544
vn -0.807101 0 -0.590414
v -0.0761998 -0.008 -0.0589544
f 77/13/31 81/14/32 82/15/32 79/16/31 

v -0.0752313 -0.068 -0.0582459
f 77/5/29 83/17/29 81/18/29

f 73/7/29 83/17/29 77/5/29

v -0.073874 -0.068 -0.0601013
f 83/17/29 73/7/29 84/19/29

vn 0.988192 0 -0.153221
v -0.073874 -0.008 -0.0601013
f 84/20/33 73/1/27 76/4/27 85/21/33 

v -0.0752313 -0.008 -0.0582459
f 76/22/8 86/23/8 85/24/8

f 86/23/8 76/22/8 79/25/8

f 75/26/8 79/25/8 76/22/8

f 79/25/8 75/26/8 80/27/8

v -0.08151 -0.008 -0.0642005
f 80/27/8 75/26/8 87/28/8

v -0.0875462 -0.008 -0.0579814
f 87/28/8 75/26/8 88/29/8

v -0.0875462 -0.068 -0.0579814
f 74/30/28 89/31/31 88/32/31 75/33/28 

v -0.08151 -0.068 -0.0642005
f 74/6/29 90/34/29 89/35/29

f 74/6/29 78/8/29 90/34/29

vn 0.153221 0 0.988192
f 90/36/34 78/9/30 80/12/30 87/37/34 

v -0.0858692 -0.068 -0.0582414
v -0.0858692 -0.008 -0.0582414
f 91/38/33 90/39/34 87/40/34 92/41/33 

f 89/35/29 90/34/29 91/42/29

v -0.0796501 -0.068 -0.0522052
f 91/42/29 93/43/29 89/35/29

v -0.0799102 -0.068 -0.0538822
f 94/44/29 93/43/29 91/42/29

f 81/18/29 93/43/29 94/44/29

f 81/18/29 83/17/29 93/43/29

vn 0.807101 0 0.590414
v -0.0796501 -0.008 -0.0522052
f 93/45/34 83/46/35 86/47/35 95/48/34 

f 83/46/35 84/49/33 85/50/33 86/47/35 

f 86/23/8 82/51/8 95/52/8

f 86/23/8 79/25/8 82/51/8

v -0.0799102 -0.008 -0.0538822
f 95/52/8 82/51/8 96/53/8

f 81/14/32 94/54/28 96/55/28 82/15/32 

f 94/56/28 91/57/33 92/58/33 96/59/28 

f 95/52/8 96/53/8 92/60/8

f 95/52/8 92/60/8 88/29/8

f 87/28/8 88/29/8 92/60/8

f 89/61/31 93/62/34 95/63/34 88/64/31 

g Mesh5 Group5 Model

v 0.0350489 -0.068 -0.0910147
vn 0.950046 0 0.312109
v 0.0373849 -0.068 -0.0981252
vn 0.892478 0 -0.45109
v 0.0373849 -0.008 -0.0981252
v 0.0350489 -0.008 -0.0910147
f 97/1/36 98/2/37 99/3/37 100/4/36 

v 0.0335659 -0.068 -0.0903452
vn -0 -1 -0
f 101/5/38 98/6/38 97/7/38

v 0.0339089 -0.068 -0.0913892
f 98/6/38 101/5/38 102/8/38

vn -0.950046 0 -0.312109
vn -0.45109 0 -0.892478
v 0.0335659 -0.008 -0.0903452
v 0.0339089 -0.008 -0.0913892
f 102/9/39 101/10/40 103/11/40 104/12/39 

v 0.0325219 -0.068 -0.0906882
vn 0.312109 0 -0.950046
v 0.0325219 -0.008 -0.0906882
f 101/13/40 105/14/41 106/15/41 103/16/40 

v 0.0321474 -0.068 -0.0895481
f 101/5/38 107/17/38 105/18/38

f 97/7/38 107/17/38 101/5/38

v 0.0343314 -0.068 -0.0888306
f 107/17/38 97/7/38 108/19/38

vn 0.45109 0 0.892478
v 0.0343314 -0.008 -0.0888306
f 108/20/42 97/1/36 100/4/36 109/21/42 

v 0.0321474 -0.008 -0.0895481
f 100/22/8 110/23/8 109/24/8

f 110/23/8 100/22/8 103/25/8

f 99/26/8 103/25/8 100/22/8

f 103/25/8 99/26/8 104/27/8

v 0.0358703 -0.008 -0.0973597
f 104/27/8 99/26/8 111/28/8

v 0.0280903 -0.008 -0.101179
f 111/28/8 99/26/8 112/29/8

v 0.0280903 -0.068 -0.101179
f 98/30/37 113/31/40 112/32/40 99/33/37 

v 0.0358703 -0.068 -0.0973597
f 98/6/38 114/34/38 113/35/38

f 98/6/38 102/8/38 114/34/38

vn -0.892478 0 0.45109
f 114/36/43 102/9/39 104/12/39 111/37/43 

v 0.0288558 -0.068 -0.0996641
v 0.0288558 -0.008 -0.0996641
f 115/38/42 114/39/43 111/40/43 116/41/42 

f 113/35/38 114/34/38 115/42/38

v 0.0250369 -0.068 -0.0918841
f 115/42/38 117/43/38 113/35/38

v 0.0265515 -0.068 -0.0926496
f 118/44/38 117/43/38 115/42/38

f 105/18/38 117/43/38 118/44/38

f 105/18/38 107/17/38 117/43/38

vn -0.312109 0 0.950046
v 0.0250369 -0.008 -0.0918841
f 117/45/43 107/46/44 110/47/44 119/48/43 

f 107/46/44 108/49/42 109/50/42 110/47/44 

f 110/23/8 106/51/8 119/52/8

f 110/23/8 103/25/8 106/51/8

v 0.0265515 -0.008 -0.0926496
f 119/52/8 106/51/8 120/53/8

f 105/14/41 118/54/37 120/55/37 106/15/41 

f 118/56/37 115/57/42 116/58/42 120/59/37 

f 119/52/8 120/53/8 116/60/8

f 119/52/8 116/60/8 112/29/8

f 111/28/8 112/29/8 116/60/8

f 113/61/40 117/62/43 119/63/43 112/64/40 

